G04 #@! TF.GenerationSoftware,KiCad,Pcbnew,(5.1.2)-1*
G04 #@! TF.CreationDate,2019-08-30T22:43:59-03:00*
G04 #@! TF.ProjectId,colpitts,636f6c70-6974-4747-932e-6b696361645f,v1*
G04 #@! TF.SameCoordinates,Original*
G04 #@! TF.FileFunction,Copper,L2,Bot*
G04 #@! TF.FilePolarity,Positive*
%FSLAX46Y46*%
G04 Gerber Fmt 4.6, Leading zero omitted, Abs format (unit mm)*
G04 Created by KiCad (PCBNEW (5.1.2)-1) date 2019-08-30 22:43:59*
%MOMM*%
%LPD*%
G04 APERTURE LIST*
%ADD10O,1.500000X1.050000*%
%ADD11R,1.500000X1.050000*%
%ADD12R,1.600000X1.600000*%
%ADD13O,1.600000X1.600000*%
%ADD14C,1.440000*%
%ADD15C,1.600000*%
%ADD16R,1.700000X1.700000*%
%ADD17O,1.700000X1.700000*%
%ADD18O,3.500000X7.000000*%
%ADD19O,1.600000X2.500000*%
%ADD20R,2.500000X2.500000*%
%ADD21C,2.500000*%
%ADD22C,6.400000*%
%ADD23C,0.800000*%
%ADD24C,1.000000*%
%ADD25C,0.500000*%
%ADD26C,1.000000*%
%ADD27C,0.250000*%
G04 APERTURE END LIST*
D10*
X107569000Y-88900000D03*
X107569000Y-87630000D03*
D11*
X107569000Y-90170000D03*
D12*
X145034000Y-83058000D03*
D13*
X155194000Y-90678000D03*
X145034000Y-85598000D03*
X155194000Y-88138000D03*
X145034000Y-88138000D03*
X155194000Y-85598000D03*
X145034000Y-90678000D03*
X155194000Y-83058000D03*
D14*
X138176000Y-73406000D03*
X140716000Y-73406000D03*
X143256000Y-73406000D03*
D10*
X140716000Y-84328000D03*
X140716000Y-83058000D03*
D11*
X140716000Y-85598000D03*
D10*
X107569000Y-97155000D03*
X107569000Y-95885000D03*
D11*
X107569000Y-98425000D03*
D10*
X113919000Y-98425000D03*
X113919000Y-97155000D03*
D11*
X113919000Y-99695000D03*
D15*
X92984000Y-81000000D03*
D13*
X103144000Y-81000000D03*
D16*
X132080000Y-84328000D03*
D17*
X134620000Y-84328000D03*
D16*
X126238000Y-97155000D03*
D17*
X123698000Y-97155000D03*
D18*
X143256000Y-101854000D03*
X133096000Y-101854000D03*
D19*
X138176000Y-96774000D03*
X140716000Y-96774000D03*
D20*
X124984000Y-75000000D03*
D21*
X119984000Y-75000000D03*
X114984000Y-75000000D03*
X109984000Y-75000000D03*
D22*
X156000000Y-74000000D03*
D23*
X158400000Y-74000000D03*
X157697056Y-75697056D03*
X156000000Y-76400000D03*
X154302944Y-75697056D03*
X153600000Y-74000000D03*
X154302944Y-72302944D03*
X156000000Y-71600000D03*
X157697056Y-72302944D03*
D22*
X94000000Y-74000000D03*
D23*
X96400000Y-74000000D03*
X95697056Y-75697056D03*
X94000000Y-76400000D03*
X92302944Y-75697056D03*
X91600000Y-74000000D03*
X92302944Y-72302944D03*
X94000000Y-71600000D03*
X95697056Y-72302944D03*
D22*
X156000000Y-106000000D03*
D23*
X158400000Y-106000000D03*
X157697056Y-107697056D03*
X156000000Y-108400000D03*
X154302944Y-107697056D03*
X153600000Y-106000000D03*
X154302944Y-104302944D03*
X156000000Y-103600000D03*
X157697056Y-104302944D03*
D22*
X94000000Y-106000000D03*
D23*
X96400000Y-106000000D03*
X95697056Y-107697056D03*
X94000000Y-108400000D03*
X92302944Y-107697056D03*
X91600000Y-106000000D03*
X92302944Y-104302944D03*
X94000000Y-103600000D03*
X95697056Y-104302944D03*
D24*
X99822000Y-106680000D03*
X149352000Y-73660000D03*
X99822000Y-73660000D03*
D21*
X119888000Y-87678000D03*
X119888000Y-93678000D03*
D23*
X140716000Y-81280000D03*
X92964000Y-87757000D03*
X110617000Y-93980000D03*
X134112000Y-90424000D03*
X92964000Y-92456000D03*
X138176000Y-76581000D03*
X96774000Y-81026000D03*
X107442000Y-83820000D03*
X127508000Y-83820000D03*
X147828000Y-92710000D03*
X136906000Y-86868000D03*
X142494000Y-81534000D03*
D24*
X135128000Y-78486000D03*
D25*
X151130000Y-81534000D02*
X155194000Y-85598000D01*
X142494000Y-81534000D02*
X151130000Y-81534000D01*
D26*
X143902630Y-90678000D02*
X145034000Y-90678000D01*
X143247998Y-90678000D02*
X143902630Y-90678000D01*
X136906000Y-84336002D02*
X143247998Y-90678000D01*
X136906000Y-81788000D02*
X136906000Y-84336002D01*
X136906000Y-81788000D02*
X136906000Y-80264000D01*
X136906000Y-80264000D02*
X135128000Y-78486000D01*
D27*
G36*
X159600001Y-109600000D02*
G01*
X90400000Y-109600000D01*
X90400000Y-105647893D01*
X90425000Y-105647893D01*
X90425000Y-106352107D01*
X90562385Y-107042789D01*
X90831876Y-107693398D01*
X91223116Y-108278930D01*
X91721070Y-108776884D01*
X92306602Y-109168124D01*
X92957211Y-109437615D01*
X93647893Y-109575000D01*
X94352107Y-109575000D01*
X95042789Y-109437615D01*
X95693398Y-109168124D01*
X96278930Y-108776884D01*
X96776884Y-108278930D01*
X97168124Y-107693398D01*
X97437615Y-107042789D01*
X97531818Y-106569197D01*
X98697000Y-106569197D01*
X98697000Y-106790803D01*
X98740233Y-107008150D01*
X98825038Y-107212887D01*
X98948156Y-107397145D01*
X99104855Y-107553844D01*
X99289113Y-107676962D01*
X99493850Y-107761767D01*
X99711197Y-107805000D01*
X99932803Y-107805000D01*
X100150150Y-107761767D01*
X100354887Y-107676962D01*
X100539145Y-107553844D01*
X100695844Y-107397145D01*
X100818962Y-107212887D01*
X100903767Y-107008150D01*
X100947000Y-106790803D01*
X100947000Y-106569197D01*
X100903767Y-106351850D01*
X100818962Y-106147113D01*
X100695844Y-105962855D01*
X100539145Y-105806156D01*
X100354887Y-105683038D01*
X100150150Y-105598233D01*
X99932803Y-105555000D01*
X99711197Y-105555000D01*
X99493850Y-105598233D01*
X99289113Y-105683038D01*
X99104855Y-105806156D01*
X98948156Y-105962855D01*
X98825038Y-106147113D01*
X98740233Y-106351850D01*
X98697000Y-106569197D01*
X97531818Y-106569197D01*
X97575000Y-106352107D01*
X97575000Y-105647893D01*
X97437615Y-104957211D01*
X97168124Y-104306602D01*
X96776884Y-103721070D01*
X96278930Y-103223116D01*
X95693398Y-102831876D01*
X95042789Y-102562385D01*
X94352107Y-102425000D01*
X93647893Y-102425000D01*
X92957211Y-102562385D01*
X92306602Y-102831876D01*
X91721070Y-103223116D01*
X91223116Y-103721070D01*
X90831876Y-104306602D01*
X90562385Y-104957211D01*
X90425000Y-105647893D01*
X90400000Y-105647893D01*
X90400000Y-101979000D01*
X130721000Y-101979000D01*
X130721000Y-103729000D01*
X130791021Y-104189938D01*
X130949621Y-104628358D01*
X131190705Y-105027413D01*
X131505009Y-105371767D01*
X131880454Y-105648187D01*
X132302611Y-105846050D01*
X132601522Y-105926954D01*
X132971000Y-105819226D01*
X132971000Y-101979000D01*
X133221000Y-101979000D01*
X133221000Y-105819226D01*
X133590478Y-105926954D01*
X133889389Y-105846050D01*
X134311546Y-105648187D01*
X134686991Y-105371767D01*
X135001295Y-105027413D01*
X135242379Y-104628358D01*
X135400979Y-104189938D01*
X135471000Y-103729000D01*
X135471000Y-101979000D01*
X140881000Y-101979000D01*
X140881000Y-103729000D01*
X140951021Y-104189938D01*
X141109621Y-104628358D01*
X141350705Y-105027413D01*
X141665009Y-105371767D01*
X142040454Y-105648187D01*
X142462611Y-105846050D01*
X142761522Y-105926954D01*
X143131000Y-105819226D01*
X143131000Y-101979000D01*
X143381000Y-101979000D01*
X143381000Y-105819226D01*
X143750478Y-105926954D01*
X144049389Y-105846050D01*
X144471546Y-105648187D01*
X144471945Y-105647893D01*
X152425000Y-105647893D01*
X152425000Y-106352107D01*
X152562385Y-107042789D01*
X152831876Y-107693398D01*
X153223116Y-108278930D01*
X153721070Y-108776884D01*
X154306602Y-109168124D01*
X154957211Y-109437615D01*
X155647893Y-109575000D01*
X156352107Y-109575000D01*
X157042789Y-109437615D01*
X157693398Y-109168124D01*
X158278930Y-108776884D01*
X158776884Y-108278930D01*
X159168124Y-107693398D01*
X159437615Y-107042789D01*
X159575000Y-106352107D01*
X159575000Y-105647893D01*
X159437615Y-104957211D01*
X159168124Y-104306602D01*
X158776884Y-103721070D01*
X158278930Y-103223116D01*
X157693398Y-102831876D01*
X157042789Y-102562385D01*
X156352107Y-102425000D01*
X155647893Y-102425000D01*
X154957211Y-102562385D01*
X154306602Y-102831876D01*
X153721070Y-103223116D01*
X153223116Y-103721070D01*
X152831876Y-104306602D01*
X152562385Y-104957211D01*
X152425000Y-105647893D01*
X144471945Y-105647893D01*
X144846991Y-105371767D01*
X145161295Y-105027413D01*
X145402379Y-104628358D01*
X145560979Y-104189938D01*
X145631000Y-103729000D01*
X145631000Y-101979000D01*
X143381000Y-101979000D01*
X143131000Y-101979000D01*
X140881000Y-101979000D01*
X135471000Y-101979000D01*
X133221000Y-101979000D01*
X132971000Y-101979000D01*
X130721000Y-101979000D01*
X90400000Y-101979000D01*
X90400000Y-95885000D01*
X106439646Y-95885000D01*
X106457023Y-96061431D01*
X106508486Y-96231081D01*
X106592057Y-96387432D01*
X106700852Y-96520000D01*
X106592057Y-96652568D01*
X106508486Y-96808919D01*
X106457023Y-96978569D01*
X106439646Y-97155000D01*
X106457023Y-97331431D01*
X106508486Y-97501081D01*
X106571139Y-97618298D01*
X106552552Y-97633552D01*
X106505691Y-97690653D01*
X106470869Y-97755800D01*
X106449426Y-97826487D01*
X106442186Y-97900000D01*
X106442186Y-98950000D01*
X106449426Y-99023513D01*
X106470869Y-99094200D01*
X106505691Y-99159347D01*
X106552552Y-99216448D01*
X106609653Y-99263309D01*
X106674800Y-99298131D01*
X106745487Y-99319574D01*
X106819000Y-99326814D01*
X108319000Y-99326814D01*
X108392513Y-99319574D01*
X108463200Y-99298131D01*
X108528347Y-99263309D01*
X108585448Y-99216448D01*
X108632309Y-99159347D01*
X108667131Y-99094200D01*
X108688574Y-99023513D01*
X108695814Y-98950000D01*
X108695814Y-97900000D01*
X108688574Y-97826487D01*
X108667131Y-97755800D01*
X108632309Y-97690653D01*
X108585448Y-97633552D01*
X108566861Y-97618298D01*
X108629514Y-97501081D01*
X108680977Y-97331431D01*
X108698354Y-97155000D01*
X112789646Y-97155000D01*
X112807023Y-97331431D01*
X112858486Y-97501081D01*
X112942057Y-97657432D01*
X113050852Y-97790000D01*
X112942057Y-97922568D01*
X112858486Y-98078919D01*
X112807023Y-98248569D01*
X112789646Y-98425000D01*
X112807023Y-98601431D01*
X112858486Y-98771081D01*
X112921139Y-98888298D01*
X112902552Y-98903552D01*
X112855691Y-98960653D01*
X112820869Y-99025800D01*
X112799426Y-99096487D01*
X112792186Y-99170000D01*
X112792186Y-100220000D01*
X112799426Y-100293513D01*
X112820869Y-100364200D01*
X112855691Y-100429347D01*
X112902552Y-100486448D01*
X112959653Y-100533309D01*
X113024800Y-100568131D01*
X113095487Y-100589574D01*
X113169000Y-100596814D01*
X114669000Y-100596814D01*
X114742513Y-100589574D01*
X114813200Y-100568131D01*
X114878347Y-100533309D01*
X114935448Y-100486448D01*
X114982309Y-100429347D01*
X115017131Y-100364200D01*
X115038574Y-100293513D01*
X115045814Y-100220000D01*
X115045814Y-99979000D01*
X130721000Y-99979000D01*
X130721000Y-101729000D01*
X132971000Y-101729000D01*
X132971000Y-97888774D01*
X133221000Y-97888774D01*
X133221000Y-101729000D01*
X135471000Y-101729000D01*
X135471000Y-99979000D01*
X140881000Y-99979000D01*
X140881000Y-101729000D01*
X143131000Y-101729000D01*
X143131000Y-97888774D01*
X143381000Y-97888774D01*
X143381000Y-101729000D01*
X145631000Y-101729000D01*
X145631000Y-99979000D01*
X145560979Y-99518062D01*
X145402379Y-99079642D01*
X145161295Y-98680587D01*
X144846991Y-98336233D01*
X144471546Y-98059813D01*
X144049389Y-97861950D01*
X143750478Y-97781046D01*
X143381000Y-97888774D01*
X143131000Y-97888774D01*
X142761522Y-97781046D01*
X142462611Y-97861950D01*
X142040454Y-98059813D01*
X141665009Y-98336233D01*
X141350705Y-98680587D01*
X141109621Y-99079642D01*
X140951021Y-99518062D01*
X140881000Y-99979000D01*
X135471000Y-99979000D01*
X135400979Y-99518062D01*
X135242379Y-99079642D01*
X135001295Y-98680587D01*
X134686991Y-98336233D01*
X134311546Y-98059813D01*
X133889389Y-97861950D01*
X133590478Y-97781046D01*
X133221000Y-97888774D01*
X132971000Y-97888774D01*
X132601522Y-97781046D01*
X132302611Y-97861950D01*
X131880454Y-98059813D01*
X131505009Y-98336233D01*
X131190705Y-98680587D01*
X130949621Y-99079642D01*
X130791021Y-99518062D01*
X130721000Y-99979000D01*
X115045814Y-99979000D01*
X115045814Y-99170000D01*
X115038574Y-99096487D01*
X115017131Y-99025800D01*
X114982309Y-98960653D01*
X114935448Y-98903552D01*
X114916861Y-98888298D01*
X114979514Y-98771081D01*
X115030977Y-98601431D01*
X115048354Y-98425000D01*
X115030977Y-98248569D01*
X114979514Y-98078919D01*
X114895943Y-97922568D01*
X114787148Y-97790000D01*
X114895943Y-97657432D01*
X114979514Y-97501081D01*
X115030977Y-97331431D01*
X115048354Y-97155000D01*
X122467073Y-97155000D01*
X122490725Y-97395142D01*
X122560772Y-97626055D01*
X122674522Y-97838866D01*
X122827603Y-98025397D01*
X123014134Y-98178478D01*
X123226945Y-98292228D01*
X123457858Y-98362275D01*
X123637822Y-98380000D01*
X123758178Y-98380000D01*
X123938142Y-98362275D01*
X124169055Y-98292228D01*
X124381866Y-98178478D01*
X124568397Y-98025397D01*
X124721478Y-97838866D01*
X124835228Y-97626055D01*
X124905275Y-97395142D01*
X124928927Y-97155000D01*
X124905275Y-96914858D01*
X124835228Y-96683945D01*
X124721478Y-96471134D01*
X124585137Y-96305000D01*
X125011186Y-96305000D01*
X125011186Y-98005000D01*
X125018426Y-98078513D01*
X125039869Y-98149200D01*
X125074691Y-98214347D01*
X125121552Y-98271448D01*
X125178653Y-98318309D01*
X125243800Y-98353131D01*
X125314487Y-98374574D01*
X125388000Y-98381814D01*
X127088000Y-98381814D01*
X127161513Y-98374574D01*
X127232200Y-98353131D01*
X127297347Y-98318309D01*
X127354448Y-98271448D01*
X127401309Y-98214347D01*
X127436131Y-98149200D01*
X127457574Y-98078513D01*
X127464814Y-98005000D01*
X127464814Y-96305000D01*
X127461001Y-96266280D01*
X137001000Y-96266280D01*
X137001000Y-97281719D01*
X137018002Y-97454339D01*
X137085189Y-97675828D01*
X137194296Y-97879952D01*
X137341130Y-98058870D01*
X137520047Y-98205704D01*
X137724171Y-98314811D01*
X137945660Y-98381998D01*
X138176000Y-98404685D01*
X138406339Y-98381998D01*
X138627828Y-98314811D01*
X138831952Y-98205704D01*
X139010870Y-98058870D01*
X139157704Y-97879953D01*
X139266811Y-97675829D01*
X139319663Y-97501598D01*
X139342767Y-97624602D01*
X139447307Y-97884809D01*
X139600602Y-98119621D01*
X139796761Y-98320015D01*
X140028246Y-98478290D01*
X140286161Y-98588363D01*
X140370479Y-98606476D01*
X140591000Y-98486577D01*
X140591000Y-96899000D01*
X140841000Y-96899000D01*
X140841000Y-98486577D01*
X141061521Y-98606476D01*
X141145839Y-98588363D01*
X141403754Y-98478290D01*
X141635239Y-98320015D01*
X141831398Y-98119621D01*
X141984693Y-97884809D01*
X142089233Y-97624602D01*
X142141000Y-97349000D01*
X142141000Y-96899000D01*
X140841000Y-96899000D01*
X140591000Y-96899000D01*
X140571000Y-96899000D01*
X140571000Y-96649000D01*
X140591000Y-96649000D01*
X140591000Y-95061423D01*
X140841000Y-95061423D01*
X140841000Y-96649000D01*
X142141000Y-96649000D01*
X142141000Y-96199000D01*
X142089233Y-95923398D01*
X141984693Y-95663191D01*
X141831398Y-95428379D01*
X141635239Y-95227985D01*
X141403754Y-95069710D01*
X141145839Y-94959637D01*
X141061521Y-94941524D01*
X140841000Y-95061423D01*
X140591000Y-95061423D01*
X140370479Y-94941524D01*
X140286161Y-94959637D01*
X140028246Y-95069710D01*
X139796761Y-95227985D01*
X139600602Y-95428379D01*
X139447307Y-95663191D01*
X139342767Y-95923398D01*
X139319663Y-96046402D01*
X139266811Y-95872171D01*
X139157704Y-95668047D01*
X139010870Y-95489130D01*
X138831953Y-95342296D01*
X138627829Y-95233189D01*
X138406340Y-95166002D01*
X138176000Y-95143315D01*
X137945661Y-95166002D01*
X137724172Y-95233189D01*
X137520048Y-95342296D01*
X137341131Y-95489130D01*
X137194297Y-95668047D01*
X137085189Y-95872171D01*
X137018002Y-96093660D01*
X137001000Y-96266280D01*
X127461001Y-96266280D01*
X127457574Y-96231487D01*
X127436131Y-96160800D01*
X127401309Y-96095653D01*
X127354448Y-96038552D01*
X127297347Y-95991691D01*
X127232200Y-95956869D01*
X127161513Y-95935426D01*
X127088000Y-95928186D01*
X125388000Y-95928186D01*
X125314487Y-95935426D01*
X125243800Y-95956869D01*
X125178653Y-95991691D01*
X125121552Y-96038552D01*
X125074691Y-96095653D01*
X125039869Y-96160800D01*
X125018426Y-96231487D01*
X125011186Y-96305000D01*
X124585137Y-96305000D01*
X124568397Y-96284603D01*
X124381866Y-96131522D01*
X124169055Y-96017772D01*
X123938142Y-95947725D01*
X123758178Y-95930000D01*
X123637822Y-95930000D01*
X123457858Y-95947725D01*
X123226945Y-96017772D01*
X123014134Y-96131522D01*
X122827603Y-96284603D01*
X122674522Y-96471134D01*
X122560772Y-96683945D01*
X122490725Y-96914858D01*
X122467073Y-97155000D01*
X115048354Y-97155000D01*
X115030977Y-96978569D01*
X114979514Y-96808919D01*
X114895943Y-96652568D01*
X114783475Y-96515525D01*
X114646432Y-96403057D01*
X114490081Y-96319486D01*
X114320431Y-96268023D01*
X114188207Y-96255000D01*
X113649793Y-96255000D01*
X113517569Y-96268023D01*
X113347919Y-96319486D01*
X113191568Y-96403057D01*
X113054525Y-96515525D01*
X112942057Y-96652568D01*
X112858486Y-96808919D01*
X112807023Y-96978569D01*
X112789646Y-97155000D01*
X108698354Y-97155000D01*
X108680977Y-96978569D01*
X108629514Y-96808919D01*
X108545943Y-96652568D01*
X108437148Y-96520000D01*
X108545943Y-96387432D01*
X108629514Y-96231081D01*
X108680977Y-96061431D01*
X108698354Y-95885000D01*
X108680977Y-95708569D01*
X108629514Y-95538919D01*
X108545943Y-95382568D01*
X108433475Y-95245525D01*
X108296432Y-95133057D01*
X108140081Y-95049486D01*
X107970431Y-94998023D01*
X107838207Y-94985000D01*
X107299793Y-94985000D01*
X107167569Y-94998023D01*
X106997919Y-95049486D01*
X106841568Y-95133057D01*
X106704525Y-95245525D01*
X106592057Y-95382568D01*
X106508486Y-95538919D01*
X106457023Y-95708569D01*
X106439646Y-95885000D01*
X90400000Y-95885000D01*
X90400000Y-94984941D01*
X118757835Y-94984941D01*
X118884137Y-95272361D01*
X119214470Y-95437569D01*
X119570687Y-95535159D01*
X119939097Y-95561379D01*
X120305544Y-95515222D01*
X120655945Y-95398462D01*
X120891863Y-95272361D01*
X121018165Y-94984941D01*
X119888000Y-93854777D01*
X118757835Y-94984941D01*
X90400000Y-94984941D01*
X90400000Y-93729097D01*
X118004621Y-93729097D01*
X118050778Y-94095544D01*
X118167538Y-94445945D01*
X118293639Y-94681863D01*
X118581059Y-94808165D01*
X119711223Y-93678000D01*
X120064777Y-93678000D01*
X121194941Y-94808165D01*
X121482361Y-94681863D01*
X121647569Y-94351530D01*
X121745159Y-93995313D01*
X121771379Y-93626903D01*
X121725222Y-93260456D01*
X121608462Y-92910055D01*
X121482361Y-92674137D01*
X121194941Y-92547835D01*
X120064777Y-93678000D01*
X119711223Y-93678000D01*
X118581059Y-92547835D01*
X118293639Y-92674137D01*
X118128431Y-93004470D01*
X118030841Y-93360687D01*
X118004621Y-93729097D01*
X90400000Y-93729097D01*
X90400000Y-92371059D01*
X118757835Y-92371059D01*
X119888000Y-93501223D01*
X121018165Y-92371059D01*
X120891863Y-92083639D01*
X120561530Y-91918431D01*
X120205313Y-91820841D01*
X119836903Y-91794621D01*
X119470456Y-91840778D01*
X119120055Y-91957538D01*
X118884137Y-92083639D01*
X118757835Y-92371059D01*
X90400000Y-92371059D01*
X90400000Y-87630000D01*
X106439646Y-87630000D01*
X106457023Y-87806431D01*
X106508486Y-87976081D01*
X106592057Y-88132432D01*
X106700852Y-88265000D01*
X106592057Y-88397568D01*
X106508486Y-88553919D01*
X106457023Y-88723569D01*
X106439646Y-88900000D01*
X106457023Y-89076431D01*
X106508486Y-89246081D01*
X106571139Y-89363298D01*
X106552552Y-89378552D01*
X106505691Y-89435653D01*
X106470869Y-89500800D01*
X106449426Y-89571487D01*
X106442186Y-89645000D01*
X106442186Y-90695000D01*
X106449426Y-90768513D01*
X106470869Y-90839200D01*
X106505691Y-90904347D01*
X106552552Y-90961448D01*
X106609653Y-91008309D01*
X106674800Y-91043131D01*
X106745487Y-91064574D01*
X106819000Y-91071814D01*
X108319000Y-91071814D01*
X108392513Y-91064574D01*
X108463200Y-91043131D01*
X108528347Y-91008309D01*
X108585448Y-90961448D01*
X108632309Y-90904347D01*
X108667131Y-90839200D01*
X108688574Y-90768513D01*
X108695814Y-90695000D01*
X108695814Y-89645000D01*
X108688574Y-89571487D01*
X108667131Y-89500800D01*
X108632309Y-89435653D01*
X108585448Y-89378552D01*
X108566861Y-89363298D01*
X108629514Y-89246081D01*
X108680977Y-89076431D01*
X108698354Y-88900000D01*
X108680977Y-88723569D01*
X108629514Y-88553919D01*
X108545943Y-88397568D01*
X108437148Y-88265000D01*
X108545943Y-88132432D01*
X108629514Y-87976081D01*
X108680977Y-87806431D01*
X108698354Y-87630000D01*
X108687319Y-87517951D01*
X118263000Y-87517951D01*
X118263000Y-87838049D01*
X118325448Y-88151995D01*
X118447943Y-88447726D01*
X118625780Y-88713877D01*
X118852123Y-88940220D01*
X119118274Y-89118057D01*
X119414005Y-89240552D01*
X119727951Y-89303000D01*
X120048049Y-89303000D01*
X120361995Y-89240552D01*
X120657726Y-89118057D01*
X120923877Y-88940220D01*
X121150220Y-88713877D01*
X121328057Y-88447726D01*
X121450552Y-88151995D01*
X121513000Y-87838049D01*
X121513000Y-87517951D01*
X121450552Y-87204005D01*
X121328057Y-86908274D01*
X121150220Y-86642123D01*
X120923877Y-86415780D01*
X120657726Y-86237943D01*
X120361995Y-86115448D01*
X120048049Y-86053000D01*
X119727951Y-86053000D01*
X119414005Y-86115448D01*
X119118274Y-86237943D01*
X118852123Y-86415780D01*
X118625780Y-86642123D01*
X118447943Y-86908274D01*
X118325448Y-87204005D01*
X118263000Y-87517951D01*
X108687319Y-87517951D01*
X108680977Y-87453569D01*
X108629514Y-87283919D01*
X108545943Y-87127568D01*
X108433475Y-86990525D01*
X108296432Y-86878057D01*
X108140081Y-86794486D01*
X107970431Y-86743023D01*
X107838207Y-86730000D01*
X107299793Y-86730000D01*
X107167569Y-86743023D01*
X106997919Y-86794486D01*
X106841568Y-86878057D01*
X106704525Y-86990525D01*
X106592057Y-87127568D01*
X106508486Y-87283919D01*
X106457023Y-87453569D01*
X106439646Y-87630000D01*
X90400000Y-87630000D01*
X90400000Y-83478000D01*
X130853186Y-83478000D01*
X130853186Y-85178000D01*
X130860426Y-85251513D01*
X130881869Y-85322200D01*
X130916691Y-85387347D01*
X130963552Y-85444448D01*
X131020653Y-85491309D01*
X131085800Y-85526131D01*
X131156487Y-85547574D01*
X131230000Y-85554814D01*
X132930000Y-85554814D01*
X133003513Y-85547574D01*
X133074200Y-85526131D01*
X133139347Y-85491309D01*
X133196448Y-85444448D01*
X133243309Y-85387347D01*
X133278131Y-85322200D01*
X133299574Y-85251513D01*
X133306814Y-85178000D01*
X133306814Y-84328000D01*
X133389073Y-84328000D01*
X133412725Y-84568142D01*
X133482772Y-84799055D01*
X133596522Y-85011866D01*
X133749603Y-85198397D01*
X133936134Y-85351478D01*
X134148945Y-85465228D01*
X134379858Y-85535275D01*
X134559822Y-85553000D01*
X134680178Y-85553000D01*
X134860142Y-85535275D01*
X135091055Y-85465228D01*
X135303866Y-85351478D01*
X135490397Y-85198397D01*
X135643478Y-85011866D01*
X135757228Y-84799055D01*
X135827275Y-84568142D01*
X135850927Y-84328000D01*
X135827275Y-84087858D01*
X135757228Y-83856945D01*
X135643478Y-83644134D01*
X135490397Y-83457603D01*
X135303866Y-83304522D01*
X135091055Y-83190772D01*
X134860142Y-83120725D01*
X134680178Y-83103000D01*
X134559822Y-83103000D01*
X134379858Y-83120725D01*
X134148945Y-83190772D01*
X133936134Y-83304522D01*
X133749603Y-83457603D01*
X133596522Y-83644134D01*
X133482772Y-83856945D01*
X133412725Y-84087858D01*
X133389073Y-84328000D01*
X133306814Y-84328000D01*
X133306814Y-83478000D01*
X133299574Y-83404487D01*
X133278131Y-83333800D01*
X133243309Y-83268653D01*
X133196448Y-83211552D01*
X133139347Y-83164691D01*
X133074200Y-83129869D01*
X133003513Y-83108426D01*
X132930000Y-83101186D01*
X131230000Y-83101186D01*
X131156487Y-83108426D01*
X131085800Y-83129869D01*
X131020653Y-83164691D01*
X130963552Y-83211552D01*
X130916691Y-83268653D01*
X130881869Y-83333800D01*
X130860426Y-83404487D01*
X130853186Y-83478000D01*
X90400000Y-83478000D01*
X90400000Y-80884273D01*
X91809000Y-80884273D01*
X91809000Y-81115727D01*
X91854155Y-81342735D01*
X91942729Y-81556571D01*
X92071318Y-81749019D01*
X92234981Y-81912682D01*
X92427429Y-82041271D01*
X92641265Y-82129845D01*
X92868273Y-82175000D01*
X93099727Y-82175000D01*
X93326735Y-82129845D01*
X93540571Y-82041271D01*
X93733019Y-81912682D01*
X93896682Y-81749019D01*
X94025271Y-81556571D01*
X94113845Y-81342735D01*
X94159000Y-81115727D01*
X94159000Y-81000000D01*
X101963315Y-81000000D01*
X101986002Y-81230340D01*
X102053189Y-81451829D01*
X102162296Y-81655953D01*
X102309130Y-81834870D01*
X102488047Y-81981704D01*
X102692171Y-82090811D01*
X102913660Y-82157998D01*
X103086280Y-82175000D01*
X103201720Y-82175000D01*
X103374340Y-82157998D01*
X103595829Y-82090811D01*
X103799953Y-81981704D01*
X103978870Y-81834870D01*
X104125704Y-81655953D01*
X104234811Y-81451829D01*
X104301998Y-81230340D01*
X104324685Y-81000000D01*
X104301998Y-80769660D01*
X104234811Y-80548171D01*
X104125704Y-80344047D01*
X103978870Y-80165130D01*
X103799953Y-80018296D01*
X103595829Y-79909189D01*
X103374340Y-79842002D01*
X103201720Y-79825000D01*
X103086280Y-79825000D01*
X102913660Y-79842002D01*
X102692171Y-79909189D01*
X102488047Y-80018296D01*
X102309130Y-80165130D01*
X102162296Y-80344047D01*
X102053189Y-80548171D01*
X101986002Y-80769660D01*
X101963315Y-81000000D01*
X94159000Y-81000000D01*
X94159000Y-80884273D01*
X94113845Y-80657265D01*
X94025271Y-80443429D01*
X93896682Y-80250981D01*
X93733019Y-80087318D01*
X93540571Y-79958729D01*
X93326735Y-79870155D01*
X93099727Y-79825000D01*
X92868273Y-79825000D01*
X92641265Y-79870155D01*
X92427429Y-79958729D01*
X92234981Y-80087318D01*
X92071318Y-80250981D01*
X91942729Y-80443429D01*
X91854155Y-80657265D01*
X91809000Y-80884273D01*
X90400000Y-80884273D01*
X90400000Y-78486000D01*
X134248767Y-78486000D01*
X134253000Y-78528979D01*
X134253000Y-78572180D01*
X134261428Y-78614550D01*
X134265661Y-78657529D01*
X134278198Y-78698857D01*
X134286626Y-78741228D01*
X134303160Y-78781144D01*
X134315695Y-78822467D01*
X134336050Y-78860548D01*
X134352585Y-78900468D01*
X134376591Y-78936396D01*
X134396945Y-78974475D01*
X134424337Y-79007852D01*
X134448343Y-79043780D01*
X134570220Y-79165657D01*
X134570223Y-79165659D01*
X136031001Y-80626438D01*
X136031000Y-81745021D01*
X136031000Y-81745022D01*
X136031001Y-84293013D01*
X136026767Y-84336002D01*
X136043661Y-84507531D01*
X136093695Y-84672469D01*
X136131516Y-84743228D01*
X136174945Y-84824478D01*
X136284289Y-84957714D01*
X136317676Y-84985114D01*
X142598886Y-91266325D01*
X142626286Y-91299712D01*
X142668009Y-91333953D01*
X142759522Y-91409056D01*
X142911530Y-91490305D01*
X143076468Y-91540339D01*
X143247998Y-91557233D01*
X143290977Y-91553000D01*
X144248028Y-91553000D01*
X144378047Y-91659704D01*
X144582171Y-91768811D01*
X144803660Y-91835998D01*
X144976280Y-91853000D01*
X145091720Y-91853000D01*
X145264340Y-91835998D01*
X145485829Y-91768811D01*
X145689953Y-91659704D01*
X145868870Y-91512870D01*
X146015704Y-91333953D01*
X146124811Y-91129829D01*
X146191998Y-90908340D01*
X146214685Y-90678000D01*
X154013315Y-90678000D01*
X154036002Y-90908340D01*
X154103189Y-91129829D01*
X154212296Y-91333953D01*
X154359130Y-91512870D01*
X154538047Y-91659704D01*
X154742171Y-91768811D01*
X154963660Y-91835998D01*
X155136280Y-91853000D01*
X155251720Y-91853000D01*
X155424340Y-91835998D01*
X155645829Y-91768811D01*
X155849953Y-91659704D01*
X156028870Y-91512870D01*
X156175704Y-91333953D01*
X156284811Y-91129829D01*
X156351998Y-90908340D01*
X156374685Y-90678000D01*
X156351998Y-90447660D01*
X156284811Y-90226171D01*
X156175704Y-90022047D01*
X156028870Y-89843130D01*
X155849953Y-89696296D01*
X155645829Y-89587189D01*
X155424340Y-89520002D01*
X155251720Y-89503000D01*
X155136280Y-89503000D01*
X154963660Y-89520002D01*
X154742171Y-89587189D01*
X154538047Y-89696296D01*
X154359130Y-89843130D01*
X154212296Y-90022047D01*
X154103189Y-90226171D01*
X154036002Y-90447660D01*
X154013315Y-90678000D01*
X146214685Y-90678000D01*
X146191998Y-90447660D01*
X146124811Y-90226171D01*
X146015704Y-90022047D01*
X145868870Y-89843130D01*
X145689953Y-89696296D01*
X145485829Y-89587189D01*
X145264340Y-89520002D01*
X145091720Y-89503000D01*
X144976280Y-89503000D01*
X144803660Y-89520002D01*
X144582171Y-89587189D01*
X144378047Y-89696296D01*
X144248028Y-89803000D01*
X143610435Y-89803000D01*
X141945435Y-88138000D01*
X143853315Y-88138000D01*
X143876002Y-88368340D01*
X143943189Y-88589829D01*
X144052296Y-88793953D01*
X144199130Y-88972870D01*
X144378047Y-89119704D01*
X144582171Y-89228811D01*
X144803660Y-89295998D01*
X144976280Y-89313000D01*
X145091720Y-89313000D01*
X145264340Y-89295998D01*
X145485829Y-89228811D01*
X145689953Y-89119704D01*
X145868870Y-88972870D01*
X146015704Y-88793953D01*
X146124811Y-88589829D01*
X146191998Y-88368340D01*
X146214685Y-88138000D01*
X154013315Y-88138000D01*
X154036002Y-88368340D01*
X154103189Y-88589829D01*
X154212296Y-88793953D01*
X154359130Y-88972870D01*
X154538047Y-89119704D01*
X154742171Y-89228811D01*
X154963660Y-89295998D01*
X155136280Y-89313000D01*
X155251720Y-89313000D01*
X155424340Y-89295998D01*
X155645829Y-89228811D01*
X155849953Y-89119704D01*
X156028870Y-88972870D01*
X156175704Y-88793953D01*
X156284811Y-88589829D01*
X156351998Y-88368340D01*
X156374685Y-88138000D01*
X156351998Y-87907660D01*
X156284811Y-87686171D01*
X156175704Y-87482047D01*
X156028870Y-87303130D01*
X155849953Y-87156296D01*
X155645829Y-87047189D01*
X155424340Y-86980002D01*
X155251720Y-86963000D01*
X155136280Y-86963000D01*
X154963660Y-86980002D01*
X154742171Y-87047189D01*
X154538047Y-87156296D01*
X154359130Y-87303130D01*
X154212296Y-87482047D01*
X154103189Y-87686171D01*
X154036002Y-87907660D01*
X154013315Y-88138000D01*
X146214685Y-88138000D01*
X146191998Y-87907660D01*
X146124811Y-87686171D01*
X146015704Y-87482047D01*
X145868870Y-87303130D01*
X145689953Y-87156296D01*
X145485829Y-87047189D01*
X145264340Y-86980002D01*
X145091720Y-86963000D01*
X144976280Y-86963000D01*
X144803660Y-86980002D01*
X144582171Y-87047189D01*
X144378047Y-87156296D01*
X144199130Y-87303130D01*
X144052296Y-87482047D01*
X143943189Y-87686171D01*
X143876002Y-87907660D01*
X143853315Y-88138000D01*
X141945435Y-88138000D01*
X140307248Y-86499814D01*
X141466000Y-86499814D01*
X141539513Y-86492574D01*
X141610200Y-86471131D01*
X141675347Y-86436309D01*
X141732448Y-86389448D01*
X141779309Y-86332347D01*
X141814131Y-86267200D01*
X141835574Y-86196513D01*
X141842814Y-86123000D01*
X141842814Y-85598000D01*
X143853315Y-85598000D01*
X143876002Y-85828340D01*
X143943189Y-86049829D01*
X144052296Y-86253953D01*
X144199130Y-86432870D01*
X144378047Y-86579704D01*
X144582171Y-86688811D01*
X144803660Y-86755998D01*
X144976280Y-86773000D01*
X145091720Y-86773000D01*
X145264340Y-86755998D01*
X145485829Y-86688811D01*
X145689953Y-86579704D01*
X145868870Y-86432870D01*
X146015704Y-86253953D01*
X146124811Y-86049829D01*
X146191998Y-85828340D01*
X146214685Y-85598000D01*
X146191998Y-85367660D01*
X146124811Y-85146171D01*
X146015704Y-84942047D01*
X145868870Y-84763130D01*
X145689953Y-84616296D01*
X145485829Y-84507189D01*
X145264340Y-84440002D01*
X145091720Y-84423000D01*
X144976280Y-84423000D01*
X144803660Y-84440002D01*
X144582171Y-84507189D01*
X144378047Y-84616296D01*
X144199130Y-84763130D01*
X144052296Y-84942047D01*
X143943189Y-85146171D01*
X143876002Y-85367660D01*
X143853315Y-85598000D01*
X141842814Y-85598000D01*
X141842814Y-85073000D01*
X141835574Y-84999487D01*
X141814131Y-84928800D01*
X141779309Y-84863653D01*
X141732448Y-84806552D01*
X141713861Y-84791298D01*
X141776514Y-84674081D01*
X141827977Y-84504431D01*
X141845354Y-84328000D01*
X141827977Y-84151569D01*
X141776514Y-83981919D01*
X141692943Y-83825568D01*
X141584148Y-83693000D01*
X141692943Y-83560432D01*
X141776514Y-83404081D01*
X141827977Y-83234431D01*
X141845354Y-83058000D01*
X141827977Y-82881569D01*
X141776514Y-82711919D01*
X141692943Y-82555568D01*
X141580475Y-82418525D01*
X141443432Y-82306057D01*
X141287081Y-82222486D01*
X141117431Y-82171023D01*
X140985207Y-82158000D01*
X140446793Y-82158000D01*
X140314569Y-82171023D01*
X140144919Y-82222486D01*
X139988568Y-82306057D01*
X139851525Y-82418525D01*
X139739057Y-82555568D01*
X139655486Y-82711919D01*
X139604023Y-82881569D01*
X139586646Y-83058000D01*
X139604023Y-83234431D01*
X139655486Y-83404081D01*
X139739057Y-83560432D01*
X139847852Y-83693000D01*
X139739057Y-83825568D01*
X139655486Y-83981919D01*
X139604023Y-84151569D01*
X139586646Y-84328000D01*
X139604023Y-84504431D01*
X139655486Y-84674081D01*
X139718139Y-84791298D01*
X139699552Y-84806552D01*
X139652691Y-84863653D01*
X139617869Y-84928800D01*
X139596426Y-84999487D01*
X139589186Y-85073000D01*
X139589186Y-85781752D01*
X137781000Y-83973566D01*
X137781000Y-81457669D01*
X141719000Y-81457669D01*
X141719000Y-81610331D01*
X141748783Y-81760059D01*
X141807204Y-81901100D01*
X141892018Y-82028034D01*
X141999966Y-82135982D01*
X142126900Y-82220796D01*
X142267941Y-82279217D01*
X142417669Y-82309000D01*
X142570331Y-82309000D01*
X142720059Y-82279217D01*
X142861100Y-82220796D01*
X142953585Y-82159000D01*
X143872158Y-82159000D01*
X143864426Y-82184487D01*
X143857186Y-82258000D01*
X143857186Y-83858000D01*
X143864426Y-83931513D01*
X143885869Y-84002200D01*
X143920691Y-84067347D01*
X143967552Y-84124448D01*
X144024653Y-84171309D01*
X144089800Y-84206131D01*
X144160487Y-84227574D01*
X144234000Y-84234814D01*
X145834000Y-84234814D01*
X145907513Y-84227574D01*
X145978200Y-84206131D01*
X146043347Y-84171309D01*
X146100448Y-84124448D01*
X146147309Y-84067347D01*
X146182131Y-84002200D01*
X146203574Y-83931513D01*
X146210814Y-83858000D01*
X146210814Y-82258000D01*
X146203574Y-82184487D01*
X146195842Y-82159000D01*
X150871118Y-82159000D01*
X154046190Y-85334073D01*
X154036002Y-85367660D01*
X154013315Y-85598000D01*
X154036002Y-85828340D01*
X154103189Y-86049829D01*
X154212296Y-86253953D01*
X154359130Y-86432870D01*
X154538047Y-86579704D01*
X154742171Y-86688811D01*
X154963660Y-86755998D01*
X155136280Y-86773000D01*
X155251720Y-86773000D01*
X155424340Y-86755998D01*
X155645829Y-86688811D01*
X155849953Y-86579704D01*
X156028870Y-86432870D01*
X156175704Y-86253953D01*
X156284811Y-86049829D01*
X156351998Y-85828340D01*
X156374685Y-85598000D01*
X156351998Y-85367660D01*
X156284811Y-85146171D01*
X156175704Y-84942047D01*
X156028870Y-84763130D01*
X155849953Y-84616296D01*
X155645829Y-84507189D01*
X155424340Y-84440002D01*
X155251720Y-84423000D01*
X155136280Y-84423000D01*
X154963660Y-84440002D01*
X154930073Y-84450190D01*
X154435100Y-83955217D01*
X154538047Y-84039704D01*
X154742171Y-84148811D01*
X154963660Y-84215998D01*
X155136280Y-84233000D01*
X155251720Y-84233000D01*
X155424340Y-84215998D01*
X155645829Y-84148811D01*
X155849953Y-84039704D01*
X156028870Y-83892870D01*
X156175704Y-83713953D01*
X156284811Y-83509829D01*
X156351998Y-83288340D01*
X156374685Y-83058000D01*
X156351998Y-82827660D01*
X156284811Y-82606171D01*
X156175704Y-82402047D01*
X156028870Y-82223130D01*
X155849953Y-82076296D01*
X155645829Y-81967189D01*
X155424340Y-81900002D01*
X155251720Y-81883000D01*
X155136280Y-81883000D01*
X154963660Y-81900002D01*
X154742171Y-81967189D01*
X154538047Y-82076296D01*
X154359130Y-82223130D01*
X154212296Y-82402047D01*
X154103189Y-82606171D01*
X154036002Y-82827660D01*
X154013315Y-83058000D01*
X154036002Y-83288340D01*
X154103189Y-83509829D01*
X154212296Y-83713953D01*
X154296783Y-83816901D01*
X151593658Y-81113776D01*
X151574080Y-81089920D01*
X151478911Y-81011817D01*
X151370334Y-80953781D01*
X151252521Y-80918043D01*
X151160704Y-80909000D01*
X151160694Y-80909000D01*
X151130000Y-80905977D01*
X151099306Y-80909000D01*
X142953585Y-80909000D01*
X142861100Y-80847204D01*
X142720059Y-80788783D01*
X142570331Y-80759000D01*
X142417669Y-80759000D01*
X142267941Y-80788783D01*
X142126900Y-80847204D01*
X141999966Y-80932018D01*
X141892018Y-81039966D01*
X141807204Y-81166900D01*
X141748783Y-81307941D01*
X141719000Y-81457669D01*
X137781000Y-81457669D01*
X137781000Y-80306979D01*
X137785233Y-80264000D01*
X137768339Y-80092470D01*
X137718305Y-79927532D01*
X137637056Y-79775524D01*
X137527712Y-79642288D01*
X137494325Y-79614888D01*
X135807659Y-77928223D01*
X135807657Y-77928220D01*
X135685780Y-77806343D01*
X135649852Y-77782337D01*
X135616475Y-77754945D01*
X135578396Y-77734591D01*
X135542468Y-77710585D01*
X135502548Y-77694050D01*
X135464467Y-77673695D01*
X135423144Y-77661160D01*
X135383228Y-77644626D01*
X135340857Y-77636198D01*
X135299529Y-77623661D01*
X135256550Y-77619428D01*
X135214180Y-77611000D01*
X135170979Y-77611000D01*
X135128000Y-77606767D01*
X135085021Y-77611000D01*
X135041820Y-77611000D01*
X134999450Y-77619428D01*
X134956471Y-77623661D01*
X134915143Y-77636198D01*
X134872772Y-77644626D01*
X134832856Y-77661160D01*
X134791533Y-77673695D01*
X134753452Y-77694050D01*
X134713532Y-77710585D01*
X134677604Y-77734591D01*
X134639525Y-77754945D01*
X134606149Y-77782336D01*
X134570220Y-77806343D01*
X134539665Y-77836898D01*
X134506289Y-77864289D01*
X134478898Y-77897665D01*
X134448343Y-77928220D01*
X134424336Y-77964149D01*
X134396945Y-77997525D01*
X134376591Y-78035604D01*
X134352585Y-78071532D01*
X134336050Y-78111452D01*
X134315695Y-78149533D01*
X134303160Y-78190856D01*
X134286626Y-78230772D01*
X134278198Y-78273143D01*
X134265661Y-78314471D01*
X134261428Y-78357450D01*
X134253000Y-78399820D01*
X134253000Y-78443021D01*
X134248767Y-78486000D01*
X90400000Y-78486000D01*
X90400000Y-73647893D01*
X90425000Y-73647893D01*
X90425000Y-74352107D01*
X90562385Y-75042789D01*
X90831876Y-75693398D01*
X91223116Y-76278930D01*
X91721070Y-76776884D01*
X92306602Y-77168124D01*
X92957211Y-77437615D01*
X93647893Y-77575000D01*
X94352107Y-77575000D01*
X95042789Y-77437615D01*
X95693398Y-77168124D01*
X96278930Y-76776884D01*
X96776884Y-76278930D01*
X97168124Y-75693398D01*
X97437615Y-75042789D01*
X97477961Y-74839951D01*
X108359000Y-74839951D01*
X108359000Y-75160049D01*
X108421448Y-75473995D01*
X108543943Y-75769726D01*
X108721780Y-76035877D01*
X108948123Y-76262220D01*
X109214274Y-76440057D01*
X109510005Y-76562552D01*
X109823951Y-76625000D01*
X110144049Y-76625000D01*
X110457995Y-76562552D01*
X110753726Y-76440057D01*
X110952947Y-76306941D01*
X113853835Y-76306941D01*
X113980137Y-76594361D01*
X114310470Y-76759569D01*
X114666687Y-76857159D01*
X115035097Y-76883379D01*
X115401544Y-76837222D01*
X115751945Y-76720462D01*
X115987863Y-76594361D01*
X116114165Y-76306941D01*
X118853835Y-76306941D01*
X118980137Y-76594361D01*
X119310470Y-76759569D01*
X119666687Y-76857159D01*
X120035097Y-76883379D01*
X120401544Y-76837222D01*
X120751945Y-76720462D01*
X120987863Y-76594361D01*
X121114165Y-76306941D01*
X119984000Y-75176777D01*
X118853835Y-76306941D01*
X116114165Y-76306941D01*
X114984000Y-75176777D01*
X113853835Y-76306941D01*
X110952947Y-76306941D01*
X111019877Y-76262220D01*
X111246220Y-76035877D01*
X111424057Y-75769726D01*
X111546552Y-75473995D01*
X111609000Y-75160049D01*
X111609000Y-75051097D01*
X113100621Y-75051097D01*
X113146778Y-75417544D01*
X113263538Y-75767945D01*
X113389639Y-76003863D01*
X113677059Y-76130165D01*
X114807223Y-75000000D01*
X115160777Y-75000000D01*
X116290941Y-76130165D01*
X116578361Y-76003863D01*
X116743569Y-75673530D01*
X116841159Y-75317313D01*
X116860105Y-75051097D01*
X118100621Y-75051097D01*
X118146778Y-75417544D01*
X118263538Y-75767945D01*
X118389639Y-76003863D01*
X118677059Y-76130165D01*
X119807223Y-75000000D01*
X120160777Y-75000000D01*
X121290941Y-76130165D01*
X121578361Y-76003863D01*
X121743569Y-75673530D01*
X121841159Y-75317313D01*
X121867379Y-74948903D01*
X121821222Y-74582456D01*
X121704462Y-74232055D01*
X121578361Y-73996137D01*
X121290941Y-73869835D01*
X120160777Y-75000000D01*
X119807223Y-75000000D01*
X118677059Y-73869835D01*
X118389639Y-73996137D01*
X118224431Y-74326470D01*
X118126841Y-74682687D01*
X118100621Y-75051097D01*
X116860105Y-75051097D01*
X116867379Y-74948903D01*
X116821222Y-74582456D01*
X116704462Y-74232055D01*
X116578361Y-73996137D01*
X116290941Y-73869835D01*
X115160777Y-75000000D01*
X114807223Y-75000000D01*
X113677059Y-73869835D01*
X113389639Y-73996137D01*
X113224431Y-74326470D01*
X113126841Y-74682687D01*
X113100621Y-75051097D01*
X111609000Y-75051097D01*
X111609000Y-74839951D01*
X111546552Y-74526005D01*
X111424057Y-74230274D01*
X111246220Y-73964123D01*
X111019877Y-73737780D01*
X110952948Y-73693059D01*
X113853835Y-73693059D01*
X114984000Y-74823223D01*
X116114165Y-73693059D01*
X118853835Y-73693059D01*
X119984000Y-74823223D01*
X121057223Y-73750000D01*
X123357186Y-73750000D01*
X123357186Y-76250000D01*
X123364426Y-76323513D01*
X123385869Y-76394200D01*
X123420691Y-76459347D01*
X123467552Y-76516448D01*
X123524653Y-76563309D01*
X123589800Y-76598131D01*
X123660487Y-76619574D01*
X123734000Y-76626814D01*
X126234000Y-76626814D01*
X126307513Y-76619574D01*
X126378200Y-76598131D01*
X126443347Y-76563309D01*
X126500448Y-76516448D01*
X126547309Y-76459347D01*
X126582131Y-76394200D01*
X126603574Y-76323513D01*
X126610814Y-76250000D01*
X126610814Y-73750000D01*
X126603574Y-73676487D01*
X126582131Y-73605800D01*
X126547309Y-73540653D01*
X126500448Y-73483552D01*
X126443347Y-73436691D01*
X126378200Y-73401869D01*
X126307513Y-73380426D01*
X126234000Y-73373186D01*
X123734000Y-73373186D01*
X123660487Y-73380426D01*
X123589800Y-73401869D01*
X123524653Y-73436691D01*
X123467552Y-73483552D01*
X123420691Y-73540653D01*
X123385869Y-73605800D01*
X123364426Y-73676487D01*
X123357186Y-73750000D01*
X121057223Y-73750000D01*
X121114165Y-73693059D01*
X120987863Y-73405639D01*
X120772944Y-73298152D01*
X137081000Y-73298152D01*
X137081000Y-73513848D01*
X137123080Y-73725400D01*
X137205624Y-73924677D01*
X137325458Y-74104022D01*
X137477978Y-74256542D01*
X137657323Y-74376376D01*
X137856600Y-74458920D01*
X138068152Y-74501000D01*
X138283848Y-74501000D01*
X138495400Y-74458920D01*
X138694677Y-74376376D01*
X138874022Y-74256542D01*
X139026542Y-74104022D01*
X139146376Y-73924677D01*
X139228920Y-73725400D01*
X139271000Y-73513848D01*
X139271000Y-73298152D01*
X139621000Y-73298152D01*
X139621000Y-73513848D01*
X139663080Y-73725400D01*
X139745624Y-73924677D01*
X139865458Y-74104022D01*
X140017978Y-74256542D01*
X140197323Y-74376376D01*
X140396600Y-74458920D01*
X140608152Y-74501000D01*
X140823848Y-74501000D01*
X141035400Y-74458920D01*
X141234677Y-74376376D01*
X141414022Y-74256542D01*
X141566542Y-74104022D01*
X141686376Y-73924677D01*
X141768920Y-73725400D01*
X141811000Y-73513848D01*
X141811000Y-73298152D01*
X142161000Y-73298152D01*
X142161000Y-73513848D01*
X142203080Y-73725400D01*
X142285624Y-73924677D01*
X142405458Y-74104022D01*
X142557978Y-74256542D01*
X142737323Y-74376376D01*
X142936600Y-74458920D01*
X143148152Y-74501000D01*
X143363848Y-74501000D01*
X143575400Y-74458920D01*
X143774677Y-74376376D01*
X143954022Y-74256542D01*
X144106542Y-74104022D01*
X144226376Y-73924677D01*
X144308920Y-73725400D01*
X144343968Y-73549197D01*
X148227000Y-73549197D01*
X148227000Y-73770803D01*
X148270233Y-73988150D01*
X148355038Y-74192887D01*
X148478156Y-74377145D01*
X148634855Y-74533844D01*
X148819113Y-74656962D01*
X149023850Y-74741767D01*
X149241197Y-74785000D01*
X149462803Y-74785000D01*
X149680150Y-74741767D01*
X149884887Y-74656962D01*
X150069145Y-74533844D01*
X150225844Y-74377145D01*
X150348962Y-74192887D01*
X150433767Y-73988150D01*
X150477000Y-73770803D01*
X150477000Y-73647893D01*
X152425000Y-73647893D01*
X152425000Y-74352107D01*
X152562385Y-75042789D01*
X152831876Y-75693398D01*
X153223116Y-76278930D01*
X153721070Y-76776884D01*
X154306602Y-77168124D01*
X154957211Y-77437615D01*
X155647893Y-77575000D01*
X156352107Y-77575000D01*
X157042789Y-77437615D01*
X157693398Y-77168124D01*
X158278930Y-76776884D01*
X158776884Y-76278930D01*
X159168124Y-75693398D01*
X159437615Y-75042789D01*
X159575000Y-74352107D01*
X159575000Y-73647893D01*
X159437615Y-72957211D01*
X159168124Y-72306602D01*
X158776884Y-71721070D01*
X158278930Y-71223116D01*
X157693398Y-70831876D01*
X157042789Y-70562385D01*
X156352107Y-70425000D01*
X155647893Y-70425000D01*
X154957211Y-70562385D01*
X154306602Y-70831876D01*
X153721070Y-71223116D01*
X153223116Y-71721070D01*
X152831876Y-72306602D01*
X152562385Y-72957211D01*
X152425000Y-73647893D01*
X150477000Y-73647893D01*
X150477000Y-73549197D01*
X150433767Y-73331850D01*
X150348962Y-73127113D01*
X150225844Y-72942855D01*
X150069145Y-72786156D01*
X149884887Y-72663038D01*
X149680150Y-72578233D01*
X149462803Y-72535000D01*
X149241197Y-72535000D01*
X149023850Y-72578233D01*
X148819113Y-72663038D01*
X148634855Y-72786156D01*
X148478156Y-72942855D01*
X148355038Y-73127113D01*
X148270233Y-73331850D01*
X148227000Y-73549197D01*
X144343968Y-73549197D01*
X144351000Y-73513848D01*
X144351000Y-73298152D01*
X144308920Y-73086600D01*
X144226376Y-72887323D01*
X144106542Y-72707978D01*
X143954022Y-72555458D01*
X143774677Y-72435624D01*
X143575400Y-72353080D01*
X143363848Y-72311000D01*
X143148152Y-72311000D01*
X142936600Y-72353080D01*
X142737323Y-72435624D01*
X142557978Y-72555458D01*
X142405458Y-72707978D01*
X142285624Y-72887323D01*
X142203080Y-73086600D01*
X142161000Y-73298152D01*
X141811000Y-73298152D01*
X141768920Y-73086600D01*
X141686376Y-72887323D01*
X141566542Y-72707978D01*
X141414022Y-72555458D01*
X141234677Y-72435624D01*
X141035400Y-72353080D01*
X140823848Y-72311000D01*
X140608152Y-72311000D01*
X140396600Y-72353080D01*
X140197323Y-72435624D01*
X140017978Y-72555458D01*
X139865458Y-72707978D01*
X139745624Y-72887323D01*
X139663080Y-73086600D01*
X139621000Y-73298152D01*
X139271000Y-73298152D01*
X139228920Y-73086600D01*
X139146376Y-72887323D01*
X139026542Y-72707978D01*
X138874022Y-72555458D01*
X138694677Y-72435624D01*
X138495400Y-72353080D01*
X138283848Y-72311000D01*
X138068152Y-72311000D01*
X137856600Y-72353080D01*
X137657323Y-72435624D01*
X137477978Y-72555458D01*
X137325458Y-72707978D01*
X137205624Y-72887323D01*
X137123080Y-73086600D01*
X137081000Y-73298152D01*
X120772944Y-73298152D01*
X120657530Y-73240431D01*
X120301313Y-73142841D01*
X119932903Y-73116621D01*
X119566456Y-73162778D01*
X119216055Y-73279538D01*
X118980137Y-73405639D01*
X118853835Y-73693059D01*
X116114165Y-73693059D01*
X115987863Y-73405639D01*
X115657530Y-73240431D01*
X115301313Y-73142841D01*
X114932903Y-73116621D01*
X114566456Y-73162778D01*
X114216055Y-73279538D01*
X113980137Y-73405639D01*
X113853835Y-73693059D01*
X110952948Y-73693059D01*
X110753726Y-73559943D01*
X110457995Y-73437448D01*
X110144049Y-73375000D01*
X109823951Y-73375000D01*
X109510005Y-73437448D01*
X109214274Y-73559943D01*
X108948123Y-73737780D01*
X108721780Y-73964123D01*
X108543943Y-74230274D01*
X108421448Y-74526005D01*
X108359000Y-74839951D01*
X97477961Y-74839951D01*
X97575000Y-74352107D01*
X97575000Y-73647893D01*
X97555369Y-73549197D01*
X98697000Y-73549197D01*
X98697000Y-73770803D01*
X98740233Y-73988150D01*
X98825038Y-74192887D01*
X98948156Y-74377145D01*
X99104855Y-74533844D01*
X99289113Y-74656962D01*
X99493850Y-74741767D01*
X99711197Y-74785000D01*
X99932803Y-74785000D01*
X100150150Y-74741767D01*
X100354887Y-74656962D01*
X100539145Y-74533844D01*
X100695844Y-74377145D01*
X100818962Y-74192887D01*
X100903767Y-73988150D01*
X100947000Y-73770803D01*
X100947000Y-73549197D01*
X100903767Y-73331850D01*
X100818962Y-73127113D01*
X100695844Y-72942855D01*
X100539145Y-72786156D01*
X100354887Y-72663038D01*
X100150150Y-72578233D01*
X99932803Y-72535000D01*
X99711197Y-72535000D01*
X99493850Y-72578233D01*
X99289113Y-72663038D01*
X99104855Y-72786156D01*
X98948156Y-72942855D01*
X98825038Y-73127113D01*
X98740233Y-73331850D01*
X98697000Y-73549197D01*
X97555369Y-73549197D01*
X97437615Y-72957211D01*
X97168124Y-72306602D01*
X96776884Y-71721070D01*
X96278930Y-71223116D01*
X95693398Y-70831876D01*
X95042789Y-70562385D01*
X94352107Y-70425000D01*
X93647893Y-70425000D01*
X92957211Y-70562385D01*
X92306602Y-70831876D01*
X91721070Y-71223116D01*
X91223116Y-71721070D01*
X90831876Y-72306602D01*
X90562385Y-72957211D01*
X90425000Y-73647893D01*
X90400000Y-73647893D01*
X90400000Y-70400000D01*
X159600000Y-70400000D01*
X159600001Y-109600000D01*
X159600001Y-109600000D01*
G37*
X159600001Y-109600000D02*
X90400000Y-109600000D01*
X90400000Y-105647893D01*
X90425000Y-105647893D01*
X90425000Y-106352107D01*
X90562385Y-107042789D01*
X90831876Y-107693398D01*
X91223116Y-108278930D01*
X91721070Y-108776884D01*
X92306602Y-109168124D01*
X92957211Y-109437615D01*
X93647893Y-109575000D01*
X94352107Y-109575000D01*
X95042789Y-109437615D01*
X95693398Y-109168124D01*
X96278930Y-108776884D01*
X96776884Y-108278930D01*
X97168124Y-107693398D01*
X97437615Y-107042789D01*
X97531818Y-106569197D01*
X98697000Y-106569197D01*
X98697000Y-106790803D01*
X98740233Y-107008150D01*
X98825038Y-107212887D01*
X98948156Y-107397145D01*
X99104855Y-107553844D01*
X99289113Y-107676962D01*
X99493850Y-107761767D01*
X99711197Y-107805000D01*
X99932803Y-107805000D01*
X100150150Y-107761767D01*
X100354887Y-107676962D01*
X100539145Y-107553844D01*
X100695844Y-107397145D01*
X100818962Y-107212887D01*
X100903767Y-107008150D01*
X100947000Y-106790803D01*
X100947000Y-106569197D01*
X100903767Y-106351850D01*
X100818962Y-106147113D01*
X100695844Y-105962855D01*
X100539145Y-105806156D01*
X100354887Y-105683038D01*
X100150150Y-105598233D01*
X99932803Y-105555000D01*
X99711197Y-105555000D01*
X99493850Y-105598233D01*
X99289113Y-105683038D01*
X99104855Y-105806156D01*
X98948156Y-105962855D01*
X98825038Y-106147113D01*
X98740233Y-106351850D01*
X98697000Y-106569197D01*
X97531818Y-106569197D01*
X97575000Y-106352107D01*
X97575000Y-105647893D01*
X97437615Y-104957211D01*
X97168124Y-104306602D01*
X96776884Y-103721070D01*
X96278930Y-103223116D01*
X95693398Y-102831876D01*
X95042789Y-102562385D01*
X94352107Y-102425000D01*
X93647893Y-102425000D01*
X92957211Y-102562385D01*
X92306602Y-102831876D01*
X91721070Y-103223116D01*
X91223116Y-103721070D01*
X90831876Y-104306602D01*
X90562385Y-104957211D01*
X90425000Y-105647893D01*
X90400000Y-105647893D01*
X90400000Y-101979000D01*
X130721000Y-101979000D01*
X130721000Y-103729000D01*
X130791021Y-104189938D01*
X130949621Y-104628358D01*
X131190705Y-105027413D01*
X131505009Y-105371767D01*
X131880454Y-105648187D01*
X132302611Y-105846050D01*
X132601522Y-105926954D01*
X132971000Y-105819226D01*
X132971000Y-101979000D01*
X133221000Y-101979000D01*
X133221000Y-105819226D01*
X133590478Y-105926954D01*
X133889389Y-105846050D01*
X134311546Y-105648187D01*
X134686991Y-105371767D01*
X135001295Y-105027413D01*
X135242379Y-104628358D01*
X135400979Y-104189938D01*
X135471000Y-103729000D01*
X135471000Y-101979000D01*
X140881000Y-101979000D01*
X140881000Y-103729000D01*
X140951021Y-104189938D01*
X141109621Y-104628358D01*
X141350705Y-105027413D01*
X141665009Y-105371767D01*
X142040454Y-105648187D01*
X142462611Y-105846050D01*
X142761522Y-105926954D01*
X143131000Y-105819226D01*
X143131000Y-101979000D01*
X143381000Y-101979000D01*
X143381000Y-105819226D01*
X143750478Y-105926954D01*
X144049389Y-105846050D01*
X144471546Y-105648187D01*
X144471945Y-105647893D01*
X152425000Y-105647893D01*
X152425000Y-106352107D01*
X152562385Y-107042789D01*
X152831876Y-107693398D01*
X153223116Y-108278930D01*
X153721070Y-108776884D01*
X154306602Y-109168124D01*
X154957211Y-109437615D01*
X155647893Y-109575000D01*
X156352107Y-109575000D01*
X157042789Y-109437615D01*
X157693398Y-109168124D01*
X158278930Y-108776884D01*
X158776884Y-108278930D01*
X159168124Y-107693398D01*
X159437615Y-107042789D01*
X159575000Y-106352107D01*
X159575000Y-105647893D01*
X159437615Y-104957211D01*
X159168124Y-104306602D01*
X158776884Y-103721070D01*
X158278930Y-103223116D01*
X157693398Y-102831876D01*
X157042789Y-102562385D01*
X156352107Y-102425000D01*
X155647893Y-102425000D01*
X154957211Y-102562385D01*
X154306602Y-102831876D01*
X153721070Y-103223116D01*
X153223116Y-103721070D01*
X152831876Y-104306602D01*
X152562385Y-104957211D01*
X152425000Y-105647893D01*
X144471945Y-105647893D01*
X144846991Y-105371767D01*
X145161295Y-105027413D01*
X145402379Y-104628358D01*
X145560979Y-104189938D01*
X145631000Y-103729000D01*
X145631000Y-101979000D01*
X143381000Y-101979000D01*
X143131000Y-101979000D01*
X140881000Y-101979000D01*
X135471000Y-101979000D01*
X133221000Y-101979000D01*
X132971000Y-101979000D01*
X130721000Y-101979000D01*
X90400000Y-101979000D01*
X90400000Y-95885000D01*
X106439646Y-95885000D01*
X106457023Y-96061431D01*
X106508486Y-96231081D01*
X106592057Y-96387432D01*
X106700852Y-96520000D01*
X106592057Y-96652568D01*
X106508486Y-96808919D01*
X106457023Y-96978569D01*
X106439646Y-97155000D01*
X106457023Y-97331431D01*
X106508486Y-97501081D01*
X106571139Y-97618298D01*
X106552552Y-97633552D01*
X106505691Y-97690653D01*
X106470869Y-97755800D01*
X106449426Y-97826487D01*
X106442186Y-97900000D01*
X106442186Y-98950000D01*
X106449426Y-99023513D01*
X106470869Y-99094200D01*
X106505691Y-99159347D01*
X106552552Y-99216448D01*
X106609653Y-99263309D01*
X106674800Y-99298131D01*
X106745487Y-99319574D01*
X106819000Y-99326814D01*
X108319000Y-99326814D01*
X108392513Y-99319574D01*
X108463200Y-99298131D01*
X108528347Y-99263309D01*
X108585448Y-99216448D01*
X108632309Y-99159347D01*
X108667131Y-99094200D01*
X108688574Y-99023513D01*
X108695814Y-98950000D01*
X108695814Y-97900000D01*
X108688574Y-97826487D01*
X108667131Y-97755800D01*
X108632309Y-97690653D01*
X108585448Y-97633552D01*
X108566861Y-97618298D01*
X108629514Y-97501081D01*
X108680977Y-97331431D01*
X108698354Y-97155000D01*
X112789646Y-97155000D01*
X112807023Y-97331431D01*
X112858486Y-97501081D01*
X112942057Y-97657432D01*
X113050852Y-97790000D01*
X112942057Y-97922568D01*
X112858486Y-98078919D01*
X112807023Y-98248569D01*
X112789646Y-98425000D01*
X112807023Y-98601431D01*
X112858486Y-98771081D01*
X112921139Y-98888298D01*
X112902552Y-98903552D01*
X112855691Y-98960653D01*
X112820869Y-99025800D01*
X112799426Y-99096487D01*
X112792186Y-99170000D01*
X112792186Y-100220000D01*
X112799426Y-100293513D01*
X112820869Y-100364200D01*
X112855691Y-100429347D01*
X112902552Y-100486448D01*
X112959653Y-100533309D01*
X113024800Y-100568131D01*
X113095487Y-100589574D01*
X113169000Y-100596814D01*
X114669000Y-100596814D01*
X114742513Y-100589574D01*
X114813200Y-100568131D01*
X114878347Y-100533309D01*
X114935448Y-100486448D01*
X114982309Y-100429347D01*
X115017131Y-100364200D01*
X115038574Y-100293513D01*
X115045814Y-100220000D01*
X115045814Y-99979000D01*
X130721000Y-99979000D01*
X130721000Y-101729000D01*
X132971000Y-101729000D01*
X132971000Y-97888774D01*
X133221000Y-97888774D01*
X133221000Y-101729000D01*
X135471000Y-101729000D01*
X135471000Y-99979000D01*
X140881000Y-99979000D01*
X140881000Y-101729000D01*
X143131000Y-101729000D01*
X143131000Y-97888774D01*
X143381000Y-97888774D01*
X143381000Y-101729000D01*
X145631000Y-101729000D01*
X145631000Y-99979000D01*
X145560979Y-99518062D01*
X145402379Y-99079642D01*
X145161295Y-98680587D01*
X144846991Y-98336233D01*
X144471546Y-98059813D01*
X144049389Y-97861950D01*
X143750478Y-97781046D01*
X143381000Y-97888774D01*
X143131000Y-97888774D01*
X142761522Y-97781046D01*
X142462611Y-97861950D01*
X142040454Y-98059813D01*
X141665009Y-98336233D01*
X141350705Y-98680587D01*
X141109621Y-99079642D01*
X140951021Y-99518062D01*
X140881000Y-99979000D01*
X135471000Y-99979000D01*
X135400979Y-99518062D01*
X135242379Y-99079642D01*
X135001295Y-98680587D01*
X134686991Y-98336233D01*
X134311546Y-98059813D01*
X133889389Y-97861950D01*
X133590478Y-97781046D01*
X133221000Y-97888774D01*
X132971000Y-97888774D01*
X132601522Y-97781046D01*
X132302611Y-97861950D01*
X131880454Y-98059813D01*
X131505009Y-98336233D01*
X131190705Y-98680587D01*
X130949621Y-99079642D01*
X130791021Y-99518062D01*
X130721000Y-99979000D01*
X115045814Y-99979000D01*
X115045814Y-99170000D01*
X115038574Y-99096487D01*
X115017131Y-99025800D01*
X114982309Y-98960653D01*
X114935448Y-98903552D01*
X114916861Y-98888298D01*
X114979514Y-98771081D01*
X115030977Y-98601431D01*
X115048354Y-98425000D01*
X115030977Y-98248569D01*
X114979514Y-98078919D01*
X114895943Y-97922568D01*
X114787148Y-97790000D01*
X114895943Y-97657432D01*
X114979514Y-97501081D01*
X115030977Y-97331431D01*
X115048354Y-97155000D01*
X122467073Y-97155000D01*
X122490725Y-97395142D01*
X122560772Y-97626055D01*
X122674522Y-97838866D01*
X122827603Y-98025397D01*
X123014134Y-98178478D01*
X123226945Y-98292228D01*
X123457858Y-98362275D01*
X123637822Y-98380000D01*
X123758178Y-98380000D01*
X123938142Y-98362275D01*
X124169055Y-98292228D01*
X124381866Y-98178478D01*
X124568397Y-98025397D01*
X124721478Y-97838866D01*
X124835228Y-97626055D01*
X124905275Y-97395142D01*
X124928927Y-97155000D01*
X124905275Y-96914858D01*
X124835228Y-96683945D01*
X124721478Y-96471134D01*
X124585137Y-96305000D01*
X125011186Y-96305000D01*
X125011186Y-98005000D01*
X125018426Y-98078513D01*
X125039869Y-98149200D01*
X125074691Y-98214347D01*
X125121552Y-98271448D01*
X125178653Y-98318309D01*
X125243800Y-98353131D01*
X125314487Y-98374574D01*
X125388000Y-98381814D01*
X127088000Y-98381814D01*
X127161513Y-98374574D01*
X127232200Y-98353131D01*
X127297347Y-98318309D01*
X127354448Y-98271448D01*
X127401309Y-98214347D01*
X127436131Y-98149200D01*
X127457574Y-98078513D01*
X127464814Y-98005000D01*
X127464814Y-96305000D01*
X127461001Y-96266280D01*
X137001000Y-96266280D01*
X137001000Y-97281719D01*
X137018002Y-97454339D01*
X137085189Y-97675828D01*
X137194296Y-97879952D01*
X137341130Y-98058870D01*
X137520047Y-98205704D01*
X137724171Y-98314811D01*
X137945660Y-98381998D01*
X138176000Y-98404685D01*
X138406339Y-98381998D01*
X138627828Y-98314811D01*
X138831952Y-98205704D01*
X139010870Y-98058870D01*
X139157704Y-97879953D01*
X139266811Y-97675829D01*
X139319663Y-97501598D01*
X139342767Y-97624602D01*
X139447307Y-97884809D01*
X139600602Y-98119621D01*
X139796761Y-98320015D01*
X140028246Y-98478290D01*
X140286161Y-98588363D01*
X140370479Y-98606476D01*
X140591000Y-98486577D01*
X140591000Y-96899000D01*
X140841000Y-96899000D01*
X140841000Y-98486577D01*
X141061521Y-98606476D01*
X141145839Y-98588363D01*
X141403754Y-98478290D01*
X141635239Y-98320015D01*
X141831398Y-98119621D01*
X141984693Y-97884809D01*
X142089233Y-97624602D01*
X142141000Y-97349000D01*
X142141000Y-96899000D01*
X140841000Y-96899000D01*
X140591000Y-96899000D01*
X140571000Y-96899000D01*
X140571000Y-96649000D01*
X140591000Y-96649000D01*
X140591000Y-95061423D01*
X140841000Y-95061423D01*
X140841000Y-96649000D01*
X142141000Y-96649000D01*
X142141000Y-96199000D01*
X142089233Y-95923398D01*
X141984693Y-95663191D01*
X141831398Y-95428379D01*
X141635239Y-95227985D01*
X141403754Y-95069710D01*
X141145839Y-94959637D01*
X141061521Y-94941524D01*
X140841000Y-95061423D01*
X140591000Y-95061423D01*
X140370479Y-94941524D01*
X140286161Y-94959637D01*
X140028246Y-95069710D01*
X139796761Y-95227985D01*
X139600602Y-95428379D01*
X139447307Y-95663191D01*
X139342767Y-95923398D01*
X139319663Y-96046402D01*
X139266811Y-95872171D01*
X139157704Y-95668047D01*
X139010870Y-95489130D01*
X138831953Y-95342296D01*
X138627829Y-95233189D01*
X138406340Y-95166002D01*
X138176000Y-95143315D01*
X137945661Y-95166002D01*
X137724172Y-95233189D01*
X137520048Y-95342296D01*
X137341131Y-95489130D01*
X137194297Y-95668047D01*
X137085189Y-95872171D01*
X137018002Y-96093660D01*
X137001000Y-96266280D01*
X127461001Y-96266280D01*
X127457574Y-96231487D01*
X127436131Y-96160800D01*
X127401309Y-96095653D01*
X127354448Y-96038552D01*
X127297347Y-95991691D01*
X127232200Y-95956869D01*
X127161513Y-95935426D01*
X127088000Y-95928186D01*
X125388000Y-95928186D01*
X125314487Y-95935426D01*
X125243800Y-95956869D01*
X125178653Y-95991691D01*
X125121552Y-96038552D01*
X125074691Y-96095653D01*
X125039869Y-96160800D01*
X125018426Y-96231487D01*
X125011186Y-96305000D01*
X124585137Y-96305000D01*
X124568397Y-96284603D01*
X124381866Y-96131522D01*
X124169055Y-96017772D01*
X123938142Y-95947725D01*
X123758178Y-95930000D01*
X123637822Y-95930000D01*
X123457858Y-95947725D01*
X123226945Y-96017772D01*
X123014134Y-96131522D01*
X122827603Y-96284603D01*
X122674522Y-96471134D01*
X122560772Y-96683945D01*
X122490725Y-96914858D01*
X122467073Y-97155000D01*
X115048354Y-97155000D01*
X115030977Y-96978569D01*
X114979514Y-96808919D01*
X114895943Y-96652568D01*
X114783475Y-96515525D01*
X114646432Y-96403057D01*
X114490081Y-96319486D01*
X114320431Y-96268023D01*
X114188207Y-96255000D01*
X113649793Y-96255000D01*
X113517569Y-96268023D01*
X113347919Y-96319486D01*
X113191568Y-96403057D01*
X113054525Y-96515525D01*
X112942057Y-96652568D01*
X112858486Y-96808919D01*
X112807023Y-96978569D01*
X112789646Y-97155000D01*
X108698354Y-97155000D01*
X108680977Y-96978569D01*
X108629514Y-96808919D01*
X108545943Y-96652568D01*
X108437148Y-96520000D01*
X108545943Y-96387432D01*
X108629514Y-96231081D01*
X108680977Y-96061431D01*
X108698354Y-95885000D01*
X108680977Y-95708569D01*
X108629514Y-95538919D01*
X108545943Y-95382568D01*
X108433475Y-95245525D01*
X108296432Y-95133057D01*
X108140081Y-95049486D01*
X107970431Y-94998023D01*
X107838207Y-94985000D01*
X107299793Y-94985000D01*
X107167569Y-94998023D01*
X106997919Y-95049486D01*
X106841568Y-95133057D01*
X106704525Y-95245525D01*
X106592057Y-95382568D01*
X106508486Y-95538919D01*
X106457023Y-95708569D01*
X106439646Y-95885000D01*
X90400000Y-95885000D01*
X90400000Y-94984941D01*
X118757835Y-94984941D01*
X118884137Y-95272361D01*
X119214470Y-95437569D01*
X119570687Y-95535159D01*
X119939097Y-95561379D01*
X120305544Y-95515222D01*
X120655945Y-95398462D01*
X120891863Y-95272361D01*
X121018165Y-94984941D01*
X119888000Y-93854777D01*
X118757835Y-94984941D01*
X90400000Y-94984941D01*
X90400000Y-93729097D01*
X118004621Y-93729097D01*
X118050778Y-94095544D01*
X118167538Y-94445945D01*
X118293639Y-94681863D01*
X118581059Y-94808165D01*
X119711223Y-93678000D01*
X120064777Y-93678000D01*
X121194941Y-94808165D01*
X121482361Y-94681863D01*
X121647569Y-94351530D01*
X121745159Y-93995313D01*
X121771379Y-93626903D01*
X121725222Y-93260456D01*
X121608462Y-92910055D01*
X121482361Y-92674137D01*
X121194941Y-92547835D01*
X120064777Y-93678000D01*
X119711223Y-93678000D01*
X118581059Y-92547835D01*
X118293639Y-92674137D01*
X118128431Y-93004470D01*
X118030841Y-93360687D01*
X118004621Y-93729097D01*
X90400000Y-93729097D01*
X90400000Y-92371059D01*
X118757835Y-92371059D01*
X119888000Y-93501223D01*
X121018165Y-92371059D01*
X120891863Y-92083639D01*
X120561530Y-91918431D01*
X120205313Y-91820841D01*
X119836903Y-91794621D01*
X119470456Y-91840778D01*
X119120055Y-91957538D01*
X118884137Y-92083639D01*
X118757835Y-92371059D01*
X90400000Y-92371059D01*
X90400000Y-87630000D01*
X106439646Y-87630000D01*
X106457023Y-87806431D01*
X106508486Y-87976081D01*
X106592057Y-88132432D01*
X106700852Y-88265000D01*
X106592057Y-88397568D01*
X106508486Y-88553919D01*
X106457023Y-88723569D01*
X106439646Y-88900000D01*
X106457023Y-89076431D01*
X106508486Y-89246081D01*
X106571139Y-89363298D01*
X106552552Y-89378552D01*
X106505691Y-89435653D01*
X106470869Y-89500800D01*
X106449426Y-89571487D01*
X106442186Y-89645000D01*
X106442186Y-90695000D01*
X106449426Y-90768513D01*
X106470869Y-90839200D01*
X106505691Y-90904347D01*
X106552552Y-90961448D01*
X106609653Y-91008309D01*
X106674800Y-91043131D01*
X106745487Y-91064574D01*
X106819000Y-91071814D01*
X108319000Y-91071814D01*
X108392513Y-91064574D01*
X108463200Y-91043131D01*
X108528347Y-91008309D01*
X108585448Y-90961448D01*
X108632309Y-90904347D01*
X108667131Y-90839200D01*
X108688574Y-90768513D01*
X108695814Y-90695000D01*
X108695814Y-89645000D01*
X108688574Y-89571487D01*
X108667131Y-89500800D01*
X108632309Y-89435653D01*
X108585448Y-89378552D01*
X108566861Y-89363298D01*
X108629514Y-89246081D01*
X108680977Y-89076431D01*
X108698354Y-88900000D01*
X108680977Y-88723569D01*
X108629514Y-88553919D01*
X108545943Y-88397568D01*
X108437148Y-88265000D01*
X108545943Y-88132432D01*
X108629514Y-87976081D01*
X108680977Y-87806431D01*
X108698354Y-87630000D01*
X108687319Y-87517951D01*
X118263000Y-87517951D01*
X118263000Y-87838049D01*
X118325448Y-88151995D01*
X118447943Y-88447726D01*
X118625780Y-88713877D01*
X118852123Y-88940220D01*
X119118274Y-89118057D01*
X119414005Y-89240552D01*
X119727951Y-89303000D01*
X120048049Y-89303000D01*
X120361995Y-89240552D01*
X120657726Y-89118057D01*
X120923877Y-88940220D01*
X121150220Y-88713877D01*
X121328057Y-88447726D01*
X121450552Y-88151995D01*
X121513000Y-87838049D01*
X121513000Y-87517951D01*
X121450552Y-87204005D01*
X121328057Y-86908274D01*
X121150220Y-86642123D01*
X120923877Y-86415780D01*
X120657726Y-86237943D01*
X120361995Y-86115448D01*
X120048049Y-86053000D01*
X119727951Y-86053000D01*
X119414005Y-86115448D01*
X119118274Y-86237943D01*
X118852123Y-86415780D01*
X118625780Y-86642123D01*
X118447943Y-86908274D01*
X118325448Y-87204005D01*
X118263000Y-87517951D01*
X108687319Y-87517951D01*
X108680977Y-87453569D01*
X108629514Y-87283919D01*
X108545943Y-87127568D01*
X108433475Y-86990525D01*
X108296432Y-86878057D01*
X108140081Y-86794486D01*
X107970431Y-86743023D01*
X107838207Y-86730000D01*
X107299793Y-86730000D01*
X107167569Y-86743023D01*
X106997919Y-86794486D01*
X106841568Y-86878057D01*
X106704525Y-86990525D01*
X106592057Y-87127568D01*
X106508486Y-87283919D01*
X106457023Y-87453569D01*
X106439646Y-87630000D01*
X90400000Y-87630000D01*
X90400000Y-83478000D01*
X130853186Y-83478000D01*
X130853186Y-85178000D01*
X130860426Y-85251513D01*
X130881869Y-85322200D01*
X130916691Y-85387347D01*
X130963552Y-85444448D01*
X131020653Y-85491309D01*
X131085800Y-85526131D01*
X131156487Y-85547574D01*
X131230000Y-85554814D01*
X132930000Y-85554814D01*
X133003513Y-85547574D01*
X133074200Y-85526131D01*
X133139347Y-85491309D01*
X133196448Y-85444448D01*
X133243309Y-85387347D01*
X133278131Y-85322200D01*
X133299574Y-85251513D01*
X133306814Y-85178000D01*
X133306814Y-84328000D01*
X133389073Y-84328000D01*
X133412725Y-84568142D01*
X133482772Y-84799055D01*
X133596522Y-85011866D01*
X133749603Y-85198397D01*
X133936134Y-85351478D01*
X134148945Y-85465228D01*
X134379858Y-85535275D01*
X134559822Y-85553000D01*
X134680178Y-85553000D01*
X134860142Y-85535275D01*
X135091055Y-85465228D01*
X135303866Y-85351478D01*
X135490397Y-85198397D01*
X135643478Y-85011866D01*
X135757228Y-84799055D01*
X135827275Y-84568142D01*
X135850927Y-84328000D01*
X135827275Y-84087858D01*
X135757228Y-83856945D01*
X135643478Y-83644134D01*
X135490397Y-83457603D01*
X135303866Y-83304522D01*
X135091055Y-83190772D01*
X134860142Y-83120725D01*
X134680178Y-83103000D01*
X134559822Y-83103000D01*
X134379858Y-83120725D01*
X134148945Y-83190772D01*
X133936134Y-83304522D01*
X133749603Y-83457603D01*
X133596522Y-83644134D01*
X133482772Y-83856945D01*
X133412725Y-84087858D01*
X133389073Y-84328000D01*
X133306814Y-84328000D01*
X133306814Y-83478000D01*
X133299574Y-83404487D01*
X133278131Y-83333800D01*
X133243309Y-83268653D01*
X133196448Y-83211552D01*
X133139347Y-83164691D01*
X133074200Y-83129869D01*
X133003513Y-83108426D01*
X132930000Y-83101186D01*
X131230000Y-83101186D01*
X131156487Y-83108426D01*
X131085800Y-83129869D01*
X131020653Y-83164691D01*
X130963552Y-83211552D01*
X130916691Y-83268653D01*
X130881869Y-83333800D01*
X130860426Y-83404487D01*
X130853186Y-83478000D01*
X90400000Y-83478000D01*
X90400000Y-80884273D01*
X91809000Y-80884273D01*
X91809000Y-81115727D01*
X91854155Y-81342735D01*
X91942729Y-81556571D01*
X92071318Y-81749019D01*
X92234981Y-81912682D01*
X92427429Y-82041271D01*
X92641265Y-82129845D01*
X92868273Y-82175000D01*
X93099727Y-82175000D01*
X93326735Y-82129845D01*
X93540571Y-82041271D01*
X93733019Y-81912682D01*
X93896682Y-81749019D01*
X94025271Y-81556571D01*
X94113845Y-81342735D01*
X94159000Y-81115727D01*
X94159000Y-81000000D01*
X101963315Y-81000000D01*
X101986002Y-81230340D01*
X102053189Y-81451829D01*
X102162296Y-81655953D01*
X102309130Y-81834870D01*
X102488047Y-81981704D01*
X102692171Y-82090811D01*
X102913660Y-82157998D01*
X103086280Y-82175000D01*
X103201720Y-82175000D01*
X103374340Y-82157998D01*
X103595829Y-82090811D01*
X103799953Y-81981704D01*
X103978870Y-81834870D01*
X104125704Y-81655953D01*
X104234811Y-81451829D01*
X104301998Y-81230340D01*
X104324685Y-81000000D01*
X104301998Y-80769660D01*
X104234811Y-80548171D01*
X104125704Y-80344047D01*
X103978870Y-80165130D01*
X103799953Y-80018296D01*
X103595829Y-79909189D01*
X103374340Y-79842002D01*
X103201720Y-79825000D01*
X103086280Y-79825000D01*
X102913660Y-79842002D01*
X102692171Y-79909189D01*
X102488047Y-80018296D01*
X102309130Y-80165130D01*
X102162296Y-80344047D01*
X102053189Y-80548171D01*
X101986002Y-80769660D01*
X101963315Y-81000000D01*
X94159000Y-81000000D01*
X94159000Y-80884273D01*
X94113845Y-80657265D01*
X94025271Y-80443429D01*
X93896682Y-80250981D01*
X93733019Y-80087318D01*
X93540571Y-79958729D01*
X93326735Y-79870155D01*
X93099727Y-79825000D01*
X92868273Y-79825000D01*
X92641265Y-79870155D01*
X92427429Y-79958729D01*
X92234981Y-80087318D01*
X92071318Y-80250981D01*
X91942729Y-80443429D01*
X91854155Y-80657265D01*
X91809000Y-80884273D01*
X90400000Y-80884273D01*
X90400000Y-78486000D01*
X134248767Y-78486000D01*
X134253000Y-78528979D01*
X134253000Y-78572180D01*
X134261428Y-78614550D01*
X134265661Y-78657529D01*
X134278198Y-78698857D01*
X134286626Y-78741228D01*
X134303160Y-78781144D01*
X134315695Y-78822467D01*
X134336050Y-78860548D01*
X134352585Y-78900468D01*
X134376591Y-78936396D01*
X134396945Y-78974475D01*
X134424337Y-79007852D01*
X134448343Y-79043780D01*
X134570220Y-79165657D01*
X134570223Y-79165659D01*
X136031001Y-80626438D01*
X136031000Y-81745021D01*
X136031000Y-81745022D01*
X136031001Y-84293013D01*
X136026767Y-84336002D01*
X136043661Y-84507531D01*
X136093695Y-84672469D01*
X136131516Y-84743228D01*
X136174945Y-84824478D01*
X136284289Y-84957714D01*
X136317676Y-84985114D01*
X142598886Y-91266325D01*
X142626286Y-91299712D01*
X142668009Y-91333953D01*
X142759522Y-91409056D01*
X142911530Y-91490305D01*
X143076468Y-91540339D01*
X143247998Y-91557233D01*
X143290977Y-91553000D01*
X144248028Y-91553000D01*
X144378047Y-91659704D01*
X144582171Y-91768811D01*
X144803660Y-91835998D01*
X144976280Y-91853000D01*
X145091720Y-91853000D01*
X145264340Y-91835998D01*
X145485829Y-91768811D01*
X145689953Y-91659704D01*
X145868870Y-91512870D01*
X146015704Y-91333953D01*
X146124811Y-91129829D01*
X146191998Y-90908340D01*
X146214685Y-90678000D01*
X154013315Y-90678000D01*
X154036002Y-90908340D01*
X154103189Y-91129829D01*
X154212296Y-91333953D01*
X154359130Y-91512870D01*
X154538047Y-91659704D01*
X154742171Y-91768811D01*
X154963660Y-91835998D01*
X155136280Y-91853000D01*
X155251720Y-91853000D01*
X155424340Y-91835998D01*
X155645829Y-91768811D01*
X155849953Y-91659704D01*
X156028870Y-91512870D01*
X156175704Y-91333953D01*
X156284811Y-91129829D01*
X156351998Y-90908340D01*
X156374685Y-90678000D01*
X156351998Y-90447660D01*
X156284811Y-90226171D01*
X156175704Y-90022047D01*
X156028870Y-89843130D01*
X155849953Y-89696296D01*
X155645829Y-89587189D01*
X155424340Y-89520002D01*
X155251720Y-89503000D01*
X155136280Y-89503000D01*
X154963660Y-89520002D01*
X154742171Y-89587189D01*
X154538047Y-89696296D01*
X154359130Y-89843130D01*
X154212296Y-90022047D01*
X154103189Y-90226171D01*
X154036002Y-90447660D01*
X154013315Y-90678000D01*
X146214685Y-90678000D01*
X146191998Y-90447660D01*
X146124811Y-90226171D01*
X146015704Y-90022047D01*
X145868870Y-89843130D01*
X145689953Y-89696296D01*
X145485829Y-89587189D01*
X145264340Y-89520002D01*
X145091720Y-89503000D01*
X144976280Y-89503000D01*
X144803660Y-89520002D01*
X144582171Y-89587189D01*
X144378047Y-89696296D01*
X144248028Y-89803000D01*
X143610435Y-89803000D01*
X141945435Y-88138000D01*
X143853315Y-88138000D01*
X143876002Y-88368340D01*
X143943189Y-88589829D01*
X144052296Y-88793953D01*
X144199130Y-88972870D01*
X144378047Y-89119704D01*
X144582171Y-89228811D01*
X144803660Y-89295998D01*
X144976280Y-89313000D01*
X145091720Y-89313000D01*
X145264340Y-89295998D01*
X145485829Y-89228811D01*
X145689953Y-89119704D01*
X145868870Y-88972870D01*
X146015704Y-88793953D01*
X146124811Y-88589829D01*
X146191998Y-88368340D01*
X146214685Y-88138000D01*
X154013315Y-88138000D01*
X154036002Y-88368340D01*
X154103189Y-88589829D01*
X154212296Y-88793953D01*
X154359130Y-88972870D01*
X154538047Y-89119704D01*
X154742171Y-89228811D01*
X154963660Y-89295998D01*
X155136280Y-89313000D01*
X155251720Y-89313000D01*
X155424340Y-89295998D01*
X155645829Y-89228811D01*
X155849953Y-89119704D01*
X156028870Y-88972870D01*
X156175704Y-88793953D01*
X156284811Y-88589829D01*
X156351998Y-88368340D01*
X156374685Y-88138000D01*
X156351998Y-87907660D01*
X156284811Y-87686171D01*
X156175704Y-87482047D01*
X156028870Y-87303130D01*
X155849953Y-87156296D01*
X155645829Y-87047189D01*
X155424340Y-86980002D01*
X155251720Y-86963000D01*
X155136280Y-86963000D01*
X154963660Y-86980002D01*
X154742171Y-87047189D01*
X154538047Y-87156296D01*
X154359130Y-87303130D01*
X154212296Y-87482047D01*
X154103189Y-87686171D01*
X154036002Y-87907660D01*
X154013315Y-88138000D01*
X146214685Y-88138000D01*
X146191998Y-87907660D01*
X146124811Y-87686171D01*
X146015704Y-87482047D01*
X145868870Y-87303130D01*
X145689953Y-87156296D01*
X145485829Y-87047189D01*
X145264340Y-86980002D01*
X145091720Y-86963000D01*
X144976280Y-86963000D01*
X144803660Y-86980002D01*
X144582171Y-87047189D01*
X144378047Y-87156296D01*
X144199130Y-87303130D01*
X144052296Y-87482047D01*
X143943189Y-87686171D01*
X143876002Y-87907660D01*
X143853315Y-88138000D01*
X141945435Y-88138000D01*
X140307248Y-86499814D01*
X141466000Y-86499814D01*
X141539513Y-86492574D01*
X141610200Y-86471131D01*
X141675347Y-86436309D01*
X141732448Y-86389448D01*
X141779309Y-86332347D01*
X141814131Y-86267200D01*
X141835574Y-86196513D01*
X141842814Y-86123000D01*
X141842814Y-85598000D01*
X143853315Y-85598000D01*
X143876002Y-85828340D01*
X143943189Y-86049829D01*
X144052296Y-86253953D01*
X144199130Y-86432870D01*
X144378047Y-86579704D01*
X144582171Y-86688811D01*
X144803660Y-86755998D01*
X144976280Y-86773000D01*
X145091720Y-86773000D01*
X145264340Y-86755998D01*
X145485829Y-86688811D01*
X145689953Y-86579704D01*
X145868870Y-86432870D01*
X146015704Y-86253953D01*
X146124811Y-86049829D01*
X146191998Y-85828340D01*
X146214685Y-85598000D01*
X146191998Y-85367660D01*
X146124811Y-85146171D01*
X146015704Y-84942047D01*
X145868870Y-84763130D01*
X145689953Y-84616296D01*
X145485829Y-84507189D01*
X145264340Y-84440002D01*
X145091720Y-84423000D01*
X144976280Y-84423000D01*
X144803660Y-84440002D01*
X144582171Y-84507189D01*
X144378047Y-84616296D01*
X144199130Y-84763130D01*
X144052296Y-84942047D01*
X143943189Y-85146171D01*
X143876002Y-85367660D01*
X143853315Y-85598000D01*
X141842814Y-85598000D01*
X141842814Y-85073000D01*
X141835574Y-84999487D01*
X141814131Y-84928800D01*
X141779309Y-84863653D01*
X141732448Y-84806552D01*
X141713861Y-84791298D01*
X141776514Y-84674081D01*
X141827977Y-84504431D01*
X141845354Y-84328000D01*
X141827977Y-84151569D01*
X141776514Y-83981919D01*
X141692943Y-83825568D01*
X141584148Y-83693000D01*
X141692943Y-83560432D01*
X141776514Y-83404081D01*
X141827977Y-83234431D01*
X141845354Y-83058000D01*
X141827977Y-82881569D01*
X141776514Y-82711919D01*
X141692943Y-82555568D01*
X141580475Y-82418525D01*
X141443432Y-82306057D01*
X141287081Y-82222486D01*
X141117431Y-82171023D01*
X140985207Y-82158000D01*
X140446793Y-82158000D01*
X140314569Y-82171023D01*
X140144919Y-82222486D01*
X139988568Y-82306057D01*
X139851525Y-82418525D01*
X139739057Y-82555568D01*
X139655486Y-82711919D01*
X139604023Y-82881569D01*
X139586646Y-83058000D01*
X139604023Y-83234431D01*
X139655486Y-83404081D01*
X139739057Y-83560432D01*
X139847852Y-83693000D01*
X139739057Y-83825568D01*
X139655486Y-83981919D01*
X139604023Y-84151569D01*
X139586646Y-84328000D01*
X139604023Y-84504431D01*
X139655486Y-84674081D01*
X139718139Y-84791298D01*
X139699552Y-84806552D01*
X139652691Y-84863653D01*
X139617869Y-84928800D01*
X139596426Y-84999487D01*
X139589186Y-85073000D01*
X139589186Y-85781752D01*
X137781000Y-83973566D01*
X137781000Y-81457669D01*
X141719000Y-81457669D01*
X141719000Y-81610331D01*
X141748783Y-81760059D01*
X141807204Y-81901100D01*
X141892018Y-82028034D01*
X141999966Y-82135982D01*
X142126900Y-82220796D01*
X142267941Y-82279217D01*
X142417669Y-82309000D01*
X142570331Y-82309000D01*
X142720059Y-82279217D01*
X142861100Y-82220796D01*
X142953585Y-82159000D01*
X143872158Y-82159000D01*
X143864426Y-82184487D01*
X143857186Y-82258000D01*
X143857186Y-83858000D01*
X143864426Y-83931513D01*
X143885869Y-84002200D01*
X143920691Y-84067347D01*
X143967552Y-84124448D01*
X144024653Y-84171309D01*
X144089800Y-84206131D01*
X144160487Y-84227574D01*
X144234000Y-84234814D01*
X145834000Y-84234814D01*
X145907513Y-84227574D01*
X145978200Y-84206131D01*
X146043347Y-84171309D01*
X146100448Y-84124448D01*
X146147309Y-84067347D01*
X146182131Y-84002200D01*
X146203574Y-83931513D01*
X146210814Y-83858000D01*
X146210814Y-82258000D01*
X146203574Y-82184487D01*
X146195842Y-82159000D01*
X150871118Y-82159000D01*
X154046190Y-85334073D01*
X154036002Y-85367660D01*
X154013315Y-85598000D01*
X154036002Y-85828340D01*
X154103189Y-86049829D01*
X154212296Y-86253953D01*
X154359130Y-86432870D01*
X154538047Y-86579704D01*
X154742171Y-86688811D01*
X154963660Y-86755998D01*
X155136280Y-86773000D01*
X155251720Y-86773000D01*
X155424340Y-86755998D01*
X155645829Y-86688811D01*
X155849953Y-86579704D01*
X156028870Y-86432870D01*
X156175704Y-86253953D01*
X156284811Y-86049829D01*
X156351998Y-85828340D01*
X156374685Y-85598000D01*
X156351998Y-85367660D01*
X156284811Y-85146171D01*
X156175704Y-84942047D01*
X156028870Y-84763130D01*
X155849953Y-84616296D01*
X155645829Y-84507189D01*
X155424340Y-84440002D01*
X155251720Y-84423000D01*
X155136280Y-84423000D01*
X154963660Y-84440002D01*
X154930073Y-84450190D01*
X154435100Y-83955217D01*
X154538047Y-84039704D01*
X154742171Y-84148811D01*
X154963660Y-84215998D01*
X155136280Y-84233000D01*
X155251720Y-84233000D01*
X155424340Y-84215998D01*
X155645829Y-84148811D01*
X155849953Y-84039704D01*
X156028870Y-83892870D01*
X156175704Y-83713953D01*
X156284811Y-83509829D01*
X156351998Y-83288340D01*
X156374685Y-83058000D01*
X156351998Y-82827660D01*
X156284811Y-82606171D01*
X156175704Y-82402047D01*
X156028870Y-82223130D01*
X155849953Y-82076296D01*
X155645829Y-81967189D01*
X155424340Y-81900002D01*
X155251720Y-81883000D01*
X155136280Y-81883000D01*
X154963660Y-81900002D01*
X154742171Y-81967189D01*
X154538047Y-82076296D01*
X154359130Y-82223130D01*
X154212296Y-82402047D01*
X154103189Y-82606171D01*
X154036002Y-82827660D01*
X154013315Y-83058000D01*
X154036002Y-83288340D01*
X154103189Y-83509829D01*
X154212296Y-83713953D01*
X154296783Y-83816901D01*
X151593658Y-81113776D01*
X151574080Y-81089920D01*
X151478911Y-81011817D01*
X151370334Y-80953781D01*
X151252521Y-80918043D01*
X151160704Y-80909000D01*
X151160694Y-80909000D01*
X151130000Y-80905977D01*
X151099306Y-80909000D01*
X142953585Y-80909000D01*
X142861100Y-80847204D01*
X142720059Y-80788783D01*
X142570331Y-80759000D01*
X142417669Y-80759000D01*
X142267941Y-80788783D01*
X142126900Y-80847204D01*
X141999966Y-80932018D01*
X141892018Y-81039966D01*
X141807204Y-81166900D01*
X141748783Y-81307941D01*
X141719000Y-81457669D01*
X137781000Y-81457669D01*
X137781000Y-80306979D01*
X137785233Y-80264000D01*
X137768339Y-80092470D01*
X137718305Y-79927532D01*
X137637056Y-79775524D01*
X137527712Y-79642288D01*
X137494325Y-79614888D01*
X135807659Y-77928223D01*
X135807657Y-77928220D01*
X135685780Y-77806343D01*
X135649852Y-77782337D01*
X135616475Y-77754945D01*
X135578396Y-77734591D01*
X135542468Y-77710585D01*
X135502548Y-77694050D01*
X135464467Y-77673695D01*
X135423144Y-77661160D01*
X135383228Y-77644626D01*
X135340857Y-77636198D01*
X135299529Y-77623661D01*
X135256550Y-77619428D01*
X135214180Y-77611000D01*
X135170979Y-77611000D01*
X135128000Y-77606767D01*
X135085021Y-77611000D01*
X135041820Y-77611000D01*
X134999450Y-77619428D01*
X134956471Y-77623661D01*
X134915143Y-77636198D01*
X134872772Y-77644626D01*
X134832856Y-77661160D01*
X134791533Y-77673695D01*
X134753452Y-77694050D01*
X134713532Y-77710585D01*
X134677604Y-77734591D01*
X134639525Y-77754945D01*
X134606149Y-77782336D01*
X134570220Y-77806343D01*
X134539665Y-77836898D01*
X134506289Y-77864289D01*
X134478898Y-77897665D01*
X134448343Y-77928220D01*
X134424336Y-77964149D01*
X134396945Y-77997525D01*
X134376591Y-78035604D01*
X134352585Y-78071532D01*
X134336050Y-78111452D01*
X134315695Y-78149533D01*
X134303160Y-78190856D01*
X134286626Y-78230772D01*
X134278198Y-78273143D01*
X134265661Y-78314471D01*
X134261428Y-78357450D01*
X134253000Y-78399820D01*
X134253000Y-78443021D01*
X134248767Y-78486000D01*
X90400000Y-78486000D01*
X90400000Y-73647893D01*
X90425000Y-73647893D01*
X90425000Y-74352107D01*
X90562385Y-75042789D01*
X90831876Y-75693398D01*
X91223116Y-76278930D01*
X91721070Y-76776884D01*
X92306602Y-77168124D01*
X92957211Y-77437615D01*
X93647893Y-77575000D01*
X94352107Y-77575000D01*
X95042789Y-77437615D01*
X95693398Y-77168124D01*
X96278930Y-76776884D01*
X96776884Y-76278930D01*
X97168124Y-75693398D01*
X97437615Y-75042789D01*
X97477961Y-74839951D01*
X108359000Y-74839951D01*
X108359000Y-75160049D01*
X108421448Y-75473995D01*
X108543943Y-75769726D01*
X108721780Y-76035877D01*
X108948123Y-76262220D01*
X109214274Y-76440057D01*
X109510005Y-76562552D01*
X109823951Y-76625000D01*
X110144049Y-76625000D01*
X110457995Y-76562552D01*
X110753726Y-76440057D01*
X110952947Y-76306941D01*
X113853835Y-76306941D01*
X113980137Y-76594361D01*
X114310470Y-76759569D01*
X114666687Y-76857159D01*
X115035097Y-76883379D01*
X115401544Y-76837222D01*
X115751945Y-76720462D01*
X115987863Y-76594361D01*
X116114165Y-76306941D01*
X118853835Y-76306941D01*
X118980137Y-76594361D01*
X119310470Y-76759569D01*
X119666687Y-76857159D01*
X120035097Y-76883379D01*
X120401544Y-76837222D01*
X120751945Y-76720462D01*
X120987863Y-76594361D01*
X121114165Y-76306941D01*
X119984000Y-75176777D01*
X118853835Y-76306941D01*
X116114165Y-76306941D01*
X114984000Y-75176777D01*
X113853835Y-76306941D01*
X110952947Y-76306941D01*
X111019877Y-76262220D01*
X111246220Y-76035877D01*
X111424057Y-75769726D01*
X111546552Y-75473995D01*
X111609000Y-75160049D01*
X111609000Y-75051097D01*
X113100621Y-75051097D01*
X113146778Y-75417544D01*
X113263538Y-75767945D01*
X113389639Y-76003863D01*
X113677059Y-76130165D01*
X114807223Y-75000000D01*
X115160777Y-75000000D01*
X116290941Y-76130165D01*
X116578361Y-76003863D01*
X116743569Y-75673530D01*
X116841159Y-75317313D01*
X116860105Y-75051097D01*
X118100621Y-75051097D01*
X118146778Y-75417544D01*
X118263538Y-75767945D01*
X118389639Y-76003863D01*
X118677059Y-76130165D01*
X119807223Y-75000000D01*
X120160777Y-75000000D01*
X121290941Y-76130165D01*
X121578361Y-76003863D01*
X121743569Y-75673530D01*
X121841159Y-75317313D01*
X121867379Y-74948903D01*
X121821222Y-74582456D01*
X121704462Y-74232055D01*
X121578361Y-73996137D01*
X121290941Y-73869835D01*
X120160777Y-75000000D01*
X119807223Y-75000000D01*
X118677059Y-73869835D01*
X118389639Y-73996137D01*
X118224431Y-74326470D01*
X118126841Y-74682687D01*
X118100621Y-75051097D01*
X116860105Y-75051097D01*
X116867379Y-74948903D01*
X116821222Y-74582456D01*
X116704462Y-74232055D01*
X116578361Y-73996137D01*
X116290941Y-73869835D01*
X115160777Y-75000000D01*
X114807223Y-75000000D01*
X113677059Y-73869835D01*
X113389639Y-73996137D01*
X113224431Y-74326470D01*
X113126841Y-74682687D01*
X113100621Y-75051097D01*
X111609000Y-75051097D01*
X111609000Y-74839951D01*
X111546552Y-74526005D01*
X111424057Y-74230274D01*
X111246220Y-73964123D01*
X111019877Y-73737780D01*
X110952948Y-73693059D01*
X113853835Y-73693059D01*
X114984000Y-74823223D01*
X116114165Y-73693059D01*
X118853835Y-73693059D01*
X119984000Y-74823223D01*
X121057223Y-73750000D01*
X123357186Y-73750000D01*
X123357186Y-76250000D01*
X123364426Y-76323513D01*
X123385869Y-76394200D01*
X123420691Y-76459347D01*
X123467552Y-76516448D01*
X123524653Y-76563309D01*
X123589800Y-76598131D01*
X123660487Y-76619574D01*
X123734000Y-76626814D01*
X126234000Y-76626814D01*
X126307513Y-76619574D01*
X126378200Y-76598131D01*
X126443347Y-76563309D01*
X126500448Y-76516448D01*
X126547309Y-76459347D01*
X126582131Y-76394200D01*
X126603574Y-76323513D01*
X126610814Y-76250000D01*
X126610814Y-73750000D01*
X126603574Y-73676487D01*
X126582131Y-73605800D01*
X126547309Y-73540653D01*
X126500448Y-73483552D01*
X126443347Y-73436691D01*
X126378200Y-73401869D01*
X126307513Y-73380426D01*
X126234000Y-73373186D01*
X123734000Y-73373186D01*
X123660487Y-73380426D01*
X123589800Y-73401869D01*
X123524653Y-73436691D01*
X123467552Y-73483552D01*
X123420691Y-73540653D01*
X123385869Y-73605800D01*
X123364426Y-73676487D01*
X123357186Y-73750000D01*
X121057223Y-73750000D01*
X121114165Y-73693059D01*
X120987863Y-73405639D01*
X120772944Y-73298152D01*
X137081000Y-73298152D01*
X137081000Y-73513848D01*
X137123080Y-73725400D01*
X137205624Y-73924677D01*
X137325458Y-74104022D01*
X137477978Y-74256542D01*
X137657323Y-74376376D01*
X137856600Y-74458920D01*
X138068152Y-74501000D01*
X138283848Y-74501000D01*
X138495400Y-74458920D01*
X138694677Y-74376376D01*
X138874022Y-74256542D01*
X139026542Y-74104022D01*
X139146376Y-73924677D01*
X139228920Y-73725400D01*
X139271000Y-73513848D01*
X139271000Y-73298152D01*
X139621000Y-73298152D01*
X139621000Y-73513848D01*
X139663080Y-73725400D01*
X139745624Y-73924677D01*
X139865458Y-74104022D01*
X140017978Y-74256542D01*
X140197323Y-74376376D01*
X140396600Y-74458920D01*
X140608152Y-74501000D01*
X140823848Y-74501000D01*
X141035400Y-74458920D01*
X141234677Y-74376376D01*
X141414022Y-74256542D01*
X141566542Y-74104022D01*
X141686376Y-73924677D01*
X141768920Y-73725400D01*
X141811000Y-73513848D01*
X141811000Y-73298152D01*
X142161000Y-73298152D01*
X142161000Y-73513848D01*
X142203080Y-73725400D01*
X142285624Y-73924677D01*
X142405458Y-74104022D01*
X142557978Y-74256542D01*
X142737323Y-74376376D01*
X142936600Y-74458920D01*
X143148152Y-74501000D01*
X143363848Y-74501000D01*
X143575400Y-74458920D01*
X143774677Y-74376376D01*
X143954022Y-74256542D01*
X144106542Y-74104022D01*
X144226376Y-73924677D01*
X144308920Y-73725400D01*
X144343968Y-73549197D01*
X148227000Y-73549197D01*
X148227000Y-73770803D01*
X148270233Y-73988150D01*
X148355038Y-74192887D01*
X148478156Y-74377145D01*
X148634855Y-74533844D01*
X148819113Y-74656962D01*
X149023850Y-74741767D01*
X149241197Y-74785000D01*
X149462803Y-74785000D01*
X149680150Y-74741767D01*
X149884887Y-74656962D01*
X150069145Y-74533844D01*
X150225844Y-74377145D01*
X150348962Y-74192887D01*
X150433767Y-73988150D01*
X150477000Y-73770803D01*
X150477000Y-73647893D01*
X152425000Y-73647893D01*
X152425000Y-74352107D01*
X152562385Y-75042789D01*
X152831876Y-75693398D01*
X153223116Y-76278930D01*
X153721070Y-76776884D01*
X154306602Y-77168124D01*
X154957211Y-77437615D01*
X155647893Y-77575000D01*
X156352107Y-77575000D01*
X157042789Y-77437615D01*
X157693398Y-77168124D01*
X158278930Y-76776884D01*
X158776884Y-76278930D01*
X159168124Y-75693398D01*
X159437615Y-75042789D01*
X159575000Y-74352107D01*
X159575000Y-73647893D01*
X159437615Y-72957211D01*
X159168124Y-72306602D01*
X158776884Y-71721070D01*
X158278930Y-71223116D01*
X157693398Y-70831876D01*
X157042789Y-70562385D01*
X156352107Y-70425000D01*
X155647893Y-70425000D01*
X154957211Y-70562385D01*
X154306602Y-70831876D01*
X153721070Y-71223116D01*
X153223116Y-71721070D01*
X152831876Y-72306602D01*
X152562385Y-72957211D01*
X152425000Y-73647893D01*
X150477000Y-73647893D01*
X150477000Y-73549197D01*
X150433767Y-73331850D01*
X150348962Y-73127113D01*
X150225844Y-72942855D01*
X150069145Y-72786156D01*
X149884887Y-72663038D01*
X149680150Y-72578233D01*
X149462803Y-72535000D01*
X149241197Y-72535000D01*
X149023850Y-72578233D01*
X148819113Y-72663038D01*
X148634855Y-72786156D01*
X148478156Y-72942855D01*
X148355038Y-73127113D01*
X148270233Y-73331850D01*
X148227000Y-73549197D01*
X144343968Y-73549197D01*
X144351000Y-73513848D01*
X144351000Y-73298152D01*
X144308920Y-73086600D01*
X144226376Y-72887323D01*
X144106542Y-72707978D01*
X143954022Y-72555458D01*
X143774677Y-72435624D01*
X143575400Y-72353080D01*
X143363848Y-72311000D01*
X143148152Y-72311000D01*
X142936600Y-72353080D01*
X142737323Y-72435624D01*
X142557978Y-72555458D01*
X142405458Y-72707978D01*
X142285624Y-72887323D01*
X142203080Y-73086600D01*
X142161000Y-73298152D01*
X141811000Y-73298152D01*
X141768920Y-73086600D01*
X141686376Y-72887323D01*
X141566542Y-72707978D01*
X141414022Y-72555458D01*
X141234677Y-72435624D01*
X141035400Y-72353080D01*
X140823848Y-72311000D01*
X140608152Y-72311000D01*
X140396600Y-72353080D01*
X140197323Y-72435624D01*
X140017978Y-72555458D01*
X139865458Y-72707978D01*
X139745624Y-72887323D01*
X139663080Y-73086600D01*
X139621000Y-73298152D01*
X139271000Y-73298152D01*
X139228920Y-73086600D01*
X139146376Y-72887323D01*
X139026542Y-72707978D01*
X138874022Y-72555458D01*
X138694677Y-72435624D01*
X138495400Y-72353080D01*
X138283848Y-72311000D01*
X138068152Y-72311000D01*
X137856600Y-72353080D01*
X137657323Y-72435624D01*
X137477978Y-72555458D01*
X137325458Y-72707978D01*
X137205624Y-72887323D01*
X137123080Y-73086600D01*
X137081000Y-73298152D01*
X120772944Y-73298152D01*
X120657530Y-73240431D01*
X120301313Y-73142841D01*
X119932903Y-73116621D01*
X119566456Y-73162778D01*
X119216055Y-73279538D01*
X118980137Y-73405639D01*
X118853835Y-73693059D01*
X116114165Y-73693059D01*
X115987863Y-73405639D01*
X115657530Y-73240431D01*
X115301313Y-73142841D01*
X114932903Y-73116621D01*
X114566456Y-73162778D01*
X114216055Y-73279538D01*
X113980137Y-73405639D01*
X113853835Y-73693059D01*
X110952948Y-73693059D01*
X110753726Y-73559943D01*
X110457995Y-73437448D01*
X110144049Y-73375000D01*
X109823951Y-73375000D01*
X109510005Y-73437448D01*
X109214274Y-73559943D01*
X108948123Y-73737780D01*
X108721780Y-73964123D01*
X108543943Y-74230274D01*
X108421448Y-74526005D01*
X108359000Y-74839951D01*
X97477961Y-74839951D01*
X97575000Y-74352107D01*
X97575000Y-73647893D01*
X97555369Y-73549197D01*
X98697000Y-73549197D01*
X98697000Y-73770803D01*
X98740233Y-73988150D01*
X98825038Y-74192887D01*
X98948156Y-74377145D01*
X99104855Y-74533844D01*
X99289113Y-74656962D01*
X99493850Y-74741767D01*
X99711197Y-74785000D01*
X99932803Y-74785000D01*
X100150150Y-74741767D01*
X100354887Y-74656962D01*
X100539145Y-74533844D01*
X100695844Y-74377145D01*
X100818962Y-74192887D01*
X100903767Y-73988150D01*
X100947000Y-73770803D01*
X100947000Y-73549197D01*
X100903767Y-73331850D01*
X100818962Y-73127113D01*
X100695844Y-72942855D01*
X100539145Y-72786156D01*
X100354887Y-72663038D01*
X100150150Y-72578233D01*
X99932803Y-72535000D01*
X99711197Y-72535000D01*
X99493850Y-72578233D01*
X99289113Y-72663038D01*
X99104855Y-72786156D01*
X98948156Y-72942855D01*
X98825038Y-73127113D01*
X98740233Y-73331850D01*
X98697000Y-73549197D01*
X97555369Y-73549197D01*
X97437615Y-72957211D01*
X97168124Y-72306602D01*
X96776884Y-71721070D01*
X96278930Y-71223116D01*
X95693398Y-70831876D01*
X95042789Y-70562385D01*
X94352107Y-70425000D01*
X93647893Y-70425000D01*
X92957211Y-70562385D01*
X92306602Y-70831876D01*
X91721070Y-71223116D01*
X91223116Y-71721070D01*
X90831876Y-72306602D01*
X90562385Y-72957211D01*
X90425000Y-73647893D01*
X90400000Y-73647893D01*
X90400000Y-70400000D01*
X159600000Y-70400000D01*
X159600001Y-109600000D01*
M02*
