G04 #@! TF.GenerationSoftware,KiCad,Pcbnew,(5.1.2)-1*
G04 #@! TF.CreationDate,2019-08-30T22:43:59-03:00*
G04 #@! TF.ProjectId,colpitts,636f6c70-6974-4747-932e-6b696361645f,v1*
G04 #@! TF.SameCoordinates,Original*
G04 #@! TF.FileFunction,Legend,Top*
G04 #@! TF.FilePolarity,Positive*
%FSLAX46Y46*%
G04 Gerber Fmt 4.6, Leading zero omitted, Abs format (unit mm)*
G04 Created by KiCad (PCBNEW (5.1.2)-1) date 2019-08-30 22:43:59*
%MOMM*%
%LPD*%
G04 APERTURE LIST*
%ADD10C,0.150000*%
%ADD11C,0.300000*%
%ADD12C,0.120000*%
G04 APERTURE END LIST*
D10*
X116626095Y-85272571D02*
X116292761Y-85272571D01*
X116292761Y-85796380D02*
X116292761Y-84796380D01*
X116768952Y-84796380D01*
X117721333Y-85796380D02*
X117388000Y-85320190D01*
X117149904Y-85796380D02*
X117149904Y-84796380D01*
X117530857Y-84796380D01*
X117626095Y-84844000D01*
X117673714Y-84891619D01*
X117721333Y-84986857D01*
X117721333Y-85129714D01*
X117673714Y-85224952D01*
X117626095Y-85272571D01*
X117530857Y-85320190D01*
X117149904Y-85320190D01*
X118149904Y-85272571D02*
X118483238Y-85272571D01*
X118626095Y-85796380D02*
X118149904Y-85796380D01*
X118149904Y-84796380D01*
X118626095Y-84796380D01*
X119721333Y-85891619D02*
X119626095Y-85844000D01*
X119530857Y-85748761D01*
X119388000Y-85605904D01*
X119292761Y-85558285D01*
X119197523Y-85558285D01*
X119245142Y-85796380D02*
X119149904Y-85748761D01*
X119054666Y-85653523D01*
X119007047Y-85463047D01*
X119007047Y-85129714D01*
X119054666Y-84939238D01*
X119149904Y-84844000D01*
X119245142Y-84796380D01*
X119435619Y-84796380D01*
X119530857Y-84844000D01*
X119626095Y-84939238D01*
X119673714Y-85129714D01*
X119673714Y-85463047D01*
X119626095Y-85653523D01*
X119530857Y-85748761D01*
X119435619Y-85796380D01*
X119245142Y-85796380D01*
X120102285Y-85415428D02*
X120864190Y-85415428D01*
X121292761Y-85510666D02*
X121768952Y-85510666D01*
X121197523Y-85796380D02*
X121530857Y-84796380D01*
X121864190Y-85796380D01*
X122197523Y-85796380D02*
X122197523Y-84796380D01*
X122435619Y-84796380D01*
X122578476Y-84844000D01*
X122673714Y-84939238D01*
X122721333Y-85034476D01*
X122768952Y-85224952D01*
X122768952Y-85367809D01*
X122721333Y-85558285D01*
X122673714Y-85653523D01*
X122578476Y-85748761D01*
X122435619Y-85796380D01*
X122197523Y-85796380D01*
X123483238Y-84796380D02*
X123483238Y-85510666D01*
X123435619Y-85653523D01*
X123340380Y-85748761D01*
X123197523Y-85796380D01*
X123102285Y-85796380D01*
D11*
X146752571Y-108965714D02*
X148252571Y-108465714D01*
X146752571Y-107965714D01*
X148252571Y-107251428D02*
X148181142Y-107394285D01*
X148109714Y-107465714D01*
X147966857Y-107537142D01*
X147538285Y-107537142D01*
X147395428Y-107465714D01*
X147324000Y-107394285D01*
X147252571Y-107251428D01*
X147252571Y-107037142D01*
X147324000Y-106894285D01*
X147395428Y-106822857D01*
X147538285Y-106751428D01*
X147966857Y-106751428D01*
X148109714Y-106822857D01*
X148181142Y-106894285D01*
X148252571Y-107037142D01*
X148252571Y-107251428D01*
X147252571Y-105465714D02*
X148252571Y-105465714D01*
X147252571Y-106108571D02*
X148038285Y-106108571D01*
X148181142Y-106037142D01*
X148252571Y-105894285D01*
X148252571Y-105680000D01*
X148181142Y-105537142D01*
X148109714Y-105465714D01*
X147252571Y-104965714D02*
X147252571Y-104394285D01*
X146752571Y-104751428D02*
X148038285Y-104751428D01*
X148181142Y-104680000D01*
X148252571Y-104537142D01*
X148252571Y-104394285D01*
D10*
X134072380Y-75667904D02*
X134072380Y-75477428D01*
X134120000Y-75382190D01*
X134215238Y-75286952D01*
X134405714Y-75239333D01*
X134739047Y-75239333D01*
X134929523Y-75286952D01*
X135024761Y-75382190D01*
X135072380Y-75477428D01*
X135072380Y-75667904D01*
X135024761Y-75763142D01*
X134929523Y-75858380D01*
X134739047Y-75906000D01*
X134405714Y-75906000D01*
X134215238Y-75858380D01*
X134120000Y-75763142D01*
X134072380Y-75667904D01*
X134548571Y-74477428D02*
X134548571Y-74810761D01*
X135072380Y-74810761D02*
X134072380Y-74810761D01*
X134072380Y-74334571D01*
X134548571Y-73620285D02*
X134548571Y-73953619D01*
X135072380Y-73953619D02*
X134072380Y-73953619D01*
X134072380Y-73477428D01*
X135024761Y-73144095D02*
X135072380Y-73001238D01*
X135072380Y-72763142D01*
X135024761Y-72667904D01*
X134977142Y-72620285D01*
X134881904Y-72572666D01*
X134786666Y-72572666D01*
X134691428Y-72620285D01*
X134643809Y-72667904D01*
X134596190Y-72763142D01*
X134548571Y-72953619D01*
X134500952Y-73048857D01*
X134453333Y-73096476D01*
X134358095Y-73144095D01*
X134262857Y-73144095D01*
X134167619Y-73096476D01*
X134120000Y-73048857D01*
X134072380Y-72953619D01*
X134072380Y-72715523D01*
X134120000Y-72572666D01*
X134548571Y-72144095D02*
X134548571Y-71810761D01*
X135072380Y-71667904D02*
X135072380Y-72144095D01*
X134072380Y-72144095D01*
X134072380Y-71667904D01*
X134072380Y-71382190D02*
X134072380Y-70810761D01*
X135072380Y-71096476D02*
X134072380Y-71096476D01*
D11*
X122325142Y-81895142D02*
X123468000Y-81895142D01*
X124968000Y-82466571D02*
X124110857Y-82466571D01*
X124539428Y-82466571D02*
X124539428Y-80966571D01*
X124396571Y-81180857D01*
X124253714Y-81323714D01*
X124110857Y-81395142D01*
X126325142Y-80966571D02*
X125610857Y-80966571D01*
X125539428Y-81680857D01*
X125610857Y-81609428D01*
X125753714Y-81538000D01*
X126110857Y-81538000D01*
X126253714Y-81609428D01*
X126325142Y-81680857D01*
X126396571Y-81823714D01*
X126396571Y-82180857D01*
X126325142Y-82323714D01*
X126253714Y-82395142D01*
X126110857Y-82466571D01*
X125753714Y-82466571D01*
X125610857Y-82395142D01*
X125539428Y-82323714D01*
X126825142Y-80966571D02*
X127325142Y-82466571D01*
X127825142Y-80966571D01*
X116459142Y-81038000D02*
X116316285Y-80966571D01*
X116102000Y-80966571D01*
X115887714Y-81038000D01*
X115744857Y-81180857D01*
X115673428Y-81323714D01*
X115602000Y-81609428D01*
X115602000Y-81823714D01*
X115673428Y-82109428D01*
X115744857Y-82252285D01*
X115887714Y-82395142D01*
X116102000Y-82466571D01*
X116244857Y-82466571D01*
X116459142Y-82395142D01*
X116530571Y-82323714D01*
X116530571Y-81823714D01*
X116244857Y-81823714D01*
X117173428Y-82466571D02*
X117173428Y-80966571D01*
X118030571Y-82466571D01*
X118030571Y-80966571D01*
X118744857Y-82466571D02*
X118744857Y-80966571D01*
X119102000Y-80966571D01*
X119316285Y-81038000D01*
X119459142Y-81180857D01*
X119530571Y-81323714D01*
X119602000Y-81609428D01*
X119602000Y-81823714D01*
X119530571Y-82109428D01*
X119459142Y-82252285D01*
X119316285Y-82395142D01*
X119102000Y-82466571D01*
X118744857Y-82466571D01*
X106069142Y-81895142D02*
X107212000Y-81895142D01*
X106640571Y-82466571D02*
X106640571Y-81323714D01*
X108712000Y-82466571D02*
X107854857Y-82466571D01*
X108283428Y-82466571D02*
X108283428Y-80966571D01*
X108140571Y-81180857D01*
X107997714Y-81323714D01*
X107854857Y-81395142D01*
X110069142Y-80966571D02*
X109354857Y-80966571D01*
X109283428Y-81680857D01*
X109354857Y-81609428D01*
X109497714Y-81538000D01*
X109854857Y-81538000D01*
X109997714Y-81609428D01*
X110069142Y-81680857D01*
X110140571Y-81823714D01*
X110140571Y-82180857D01*
X110069142Y-82323714D01*
X109997714Y-82395142D01*
X109854857Y-82466571D01*
X109497714Y-82466571D01*
X109354857Y-82395142D01*
X109283428Y-82323714D01*
X110569142Y-80966571D02*
X111069142Y-82466571D01*
X111569142Y-80966571D01*
X102691857Y-104334571D02*
X102977571Y-104334571D01*
X103120428Y-104406000D01*
X103263285Y-104548857D01*
X103334714Y-104834571D01*
X103334714Y-105334571D01*
X103263285Y-105620285D01*
X103120428Y-105763142D01*
X102977571Y-105834571D01*
X102691857Y-105834571D01*
X102549000Y-105763142D01*
X102406142Y-105620285D01*
X102334714Y-105334571D01*
X102334714Y-104834571D01*
X102406142Y-104548857D01*
X102549000Y-104406000D01*
X102691857Y-104334571D01*
X103906142Y-105763142D02*
X104049000Y-105834571D01*
X104334714Y-105834571D01*
X104477571Y-105763142D01*
X104549000Y-105620285D01*
X104549000Y-105548857D01*
X104477571Y-105406000D01*
X104334714Y-105334571D01*
X104120428Y-105334571D01*
X103977571Y-105263142D01*
X103906142Y-105120285D01*
X103906142Y-105048857D01*
X103977571Y-104906000D01*
X104120428Y-104834571D01*
X104334714Y-104834571D01*
X104477571Y-104906000D01*
X105834714Y-105763142D02*
X105691857Y-105834571D01*
X105406142Y-105834571D01*
X105263285Y-105763142D01*
X105191857Y-105691714D01*
X105120428Y-105548857D01*
X105120428Y-105120285D01*
X105191857Y-104977428D01*
X105263285Y-104906000D01*
X105406142Y-104834571D01*
X105691857Y-104834571D01*
X105834714Y-104906000D01*
X106477571Y-105834571D02*
X106477571Y-104834571D01*
X106477571Y-104334571D02*
X106406142Y-104406000D01*
X106477571Y-104477428D01*
X106549000Y-104406000D01*
X106477571Y-104334571D01*
X106477571Y-104477428D01*
X107406142Y-105834571D02*
X107263285Y-105763142D01*
X107191857Y-105620285D01*
X107191857Y-104334571D01*
X108620428Y-105834571D02*
X108620428Y-105048857D01*
X108549000Y-104906000D01*
X108406142Y-104834571D01*
X108120428Y-104834571D01*
X107977571Y-104906000D01*
X108620428Y-105763142D02*
X108477571Y-105834571D01*
X108120428Y-105834571D01*
X107977571Y-105763142D01*
X107906142Y-105620285D01*
X107906142Y-105477428D01*
X107977571Y-105334571D01*
X108120428Y-105263142D01*
X108477571Y-105263142D01*
X108620428Y-105191714D01*
X109977571Y-105834571D02*
X109977571Y-104334571D01*
X109977571Y-105763142D02*
X109834714Y-105834571D01*
X109549000Y-105834571D01*
X109406142Y-105763142D01*
X109334714Y-105691714D01*
X109263285Y-105548857D01*
X109263285Y-105120285D01*
X109334714Y-104977428D01*
X109406142Y-104906000D01*
X109549000Y-104834571D01*
X109834714Y-104834571D01*
X109977571Y-104906000D01*
X110906142Y-105834571D02*
X110763285Y-105763142D01*
X110691857Y-105691714D01*
X110620428Y-105548857D01*
X110620428Y-105120285D01*
X110691857Y-104977428D01*
X110763285Y-104906000D01*
X110906142Y-104834571D01*
X111120428Y-104834571D01*
X111263285Y-104906000D01*
X111334714Y-104977428D01*
X111406142Y-105120285D01*
X111406142Y-105548857D01*
X111334714Y-105691714D01*
X111263285Y-105763142D01*
X111120428Y-105834571D01*
X110906142Y-105834571D01*
X112049000Y-105834571D02*
X112049000Y-104834571D01*
X112049000Y-105120285D02*
X112120428Y-104977428D01*
X112191857Y-104906000D01*
X112334714Y-104834571D01*
X112477571Y-104834571D01*
X114977571Y-105691714D02*
X114906142Y-105763142D01*
X114691857Y-105834571D01*
X114549000Y-105834571D01*
X114334714Y-105763142D01*
X114191857Y-105620285D01*
X114120428Y-105477428D01*
X114049000Y-105191714D01*
X114049000Y-104977428D01*
X114120428Y-104691714D01*
X114191857Y-104548857D01*
X114334714Y-104406000D01*
X114549000Y-104334571D01*
X114691857Y-104334571D01*
X114906142Y-104406000D01*
X114977571Y-104477428D01*
X115834714Y-105834571D02*
X115691857Y-105763142D01*
X115620428Y-105691714D01*
X115549000Y-105548857D01*
X115549000Y-105120285D01*
X115620428Y-104977428D01*
X115691857Y-104906000D01*
X115834714Y-104834571D01*
X116049000Y-104834571D01*
X116191857Y-104906000D01*
X116263285Y-104977428D01*
X116334714Y-105120285D01*
X116334714Y-105548857D01*
X116263285Y-105691714D01*
X116191857Y-105763142D01*
X116049000Y-105834571D01*
X115834714Y-105834571D01*
X117191857Y-105834571D02*
X117049000Y-105763142D01*
X116977571Y-105620285D01*
X116977571Y-104334571D01*
X117763285Y-104834571D02*
X117763285Y-106334571D01*
X117763285Y-104906000D02*
X117906142Y-104834571D01*
X118191857Y-104834571D01*
X118334714Y-104906000D01*
X118406142Y-104977428D01*
X118477571Y-105120285D01*
X118477571Y-105548857D01*
X118406142Y-105691714D01*
X118334714Y-105763142D01*
X118191857Y-105834571D01*
X117906142Y-105834571D01*
X117763285Y-105763142D01*
X119120428Y-105834571D02*
X119120428Y-104834571D01*
X119120428Y-104334571D02*
X119049000Y-104406000D01*
X119120428Y-104477428D01*
X119191857Y-104406000D01*
X119120428Y-104334571D01*
X119120428Y-104477428D01*
X119620428Y-104834571D02*
X120191857Y-104834571D01*
X119834714Y-104334571D02*
X119834714Y-105620285D01*
X119906142Y-105763142D01*
X120049000Y-105834571D01*
X120191857Y-105834571D01*
X120477571Y-104834571D02*
X121049000Y-104834571D01*
X120691857Y-104334571D02*
X120691857Y-105620285D01*
X120763285Y-105763142D01*
X120906142Y-105834571D01*
X121049000Y-105834571D01*
X121477571Y-105763142D02*
X121620428Y-105834571D01*
X121906142Y-105834571D01*
X122049000Y-105763142D01*
X122120428Y-105620285D01*
X122120428Y-105548857D01*
X122049000Y-105406000D01*
X121906142Y-105334571D01*
X121691857Y-105334571D01*
X121549000Y-105263142D01*
X121477571Y-105120285D01*
X121477571Y-105048857D01*
X121549000Y-104906000D01*
X121691857Y-104834571D01*
X121906142Y-104834571D01*
X122049000Y-104906000D01*
X123763285Y-104834571D02*
X124120428Y-105834571D01*
X124477571Y-104834571D01*
X125834714Y-105834571D02*
X124977571Y-105834571D01*
X125406142Y-105834571D02*
X125406142Y-104334571D01*
X125263285Y-104548857D01*
X125120428Y-104691714D01*
X124977571Y-104763142D01*
X126477571Y-105691714D02*
X126549000Y-105763142D01*
X126477571Y-105834571D01*
X126406142Y-105763142D01*
X126477571Y-105691714D01*
X126477571Y-105834571D01*
X127977571Y-105834571D02*
X127120428Y-105834571D01*
X127549000Y-105834571D02*
X127549000Y-104334571D01*
X127406142Y-104548857D01*
X127263285Y-104691714D01*
X127120428Y-104763142D01*
X128906142Y-104334571D02*
X129049000Y-104334571D01*
X129191857Y-104406000D01*
X129263285Y-104477428D01*
X129334714Y-104620285D01*
X129406142Y-104906000D01*
X129406142Y-105263142D01*
X129334714Y-105548857D01*
X129263285Y-105691714D01*
X129191857Y-105763142D01*
X129049000Y-105834571D01*
X128906142Y-105834571D01*
X128763285Y-105763142D01*
X128691857Y-105691714D01*
X128620428Y-105548857D01*
X128549000Y-105263142D01*
X128549000Y-104906000D01*
X128620428Y-104620285D01*
X128691857Y-104477428D01*
X128763285Y-104406000D01*
X128906142Y-104334571D01*
D12*
X137033000Y-76962000D02*
X137033000Y-77470000D01*
X144653000Y-80645000D02*
X147701000Y-80645000D01*
X147701000Y-76962000D02*
X147701000Y-80645000D01*
X137033000Y-76962000D02*
X147701000Y-76962000D01*
X104902000Y-92583000D02*
X101600000Y-92583000D01*
X104902000Y-88138000D02*
X104902000Y-92583000D01*
X91694000Y-88138000D02*
X104902000Y-88138000D01*
X91694000Y-88646000D02*
X91694000Y-88138000D01*
X104902000Y-87757000D02*
X101600000Y-87757000D01*
X91694000Y-83312000D02*
X91694000Y-83820000D01*
X104902000Y-83312000D02*
X91694000Y-83312000D01*
X104902000Y-87757000D02*
X104902000Y-83312000D01*
X109419000Y-90700000D02*
X109419000Y-87100000D01*
X109407478Y-90738478D02*
G75*
G02X104969000Y-88900000I-1838478J1838478D01*
G01*
X109407478Y-87061522D02*
G75*
G03X104969000Y-88900000I-1838478J-1838478D01*
G01*
X151114000Y-81728000D02*
G75*
G02X149114000Y-81728000I-1000000J0D01*
G01*
X149114000Y-81728000D02*
X146879000Y-81728000D01*
X146879000Y-81728000D02*
X146879000Y-92008000D01*
X146879000Y-92008000D02*
X153349000Y-92008000D01*
X153349000Y-92008000D02*
X153349000Y-81728000D01*
X153349000Y-81728000D02*
X151114000Y-81728000D01*
X145601000Y-70871000D02*
X145601000Y-75941000D01*
X135831000Y-70871000D02*
X135831000Y-75941000D01*
X145601000Y-75941000D02*
X135831000Y-75941000D01*
X145601000Y-70871000D02*
X135831000Y-70871000D01*
X143966000Y-78732748D02*
X143966000Y-79255252D01*
X142546000Y-78732748D02*
X142546000Y-79255252D01*
X151690000Y-95511252D02*
X151690000Y-94988748D01*
X153110000Y-95511252D02*
X153110000Y-94988748D01*
X148538000Y-94988748D02*
X148538000Y-95511252D01*
X147118000Y-94988748D02*
X147118000Y-95511252D01*
X140006000Y-79255252D02*
X140006000Y-78732748D01*
X141426000Y-79255252D02*
X141426000Y-78732748D01*
X137466000Y-89669252D02*
X137466000Y-89146748D01*
X138886000Y-89669252D02*
X138886000Y-89146748D01*
X134926000Y-89669252D02*
X134926000Y-89146748D01*
X136346000Y-89669252D02*
X136346000Y-89146748D01*
X100703748Y-94032000D02*
X101226252Y-94032000D01*
X100703748Y-95452000D02*
X101226252Y-95452000D01*
X101226252Y-97992000D02*
X100703748Y-97992000D01*
X101226252Y-96572000D02*
X100703748Y-96572000D01*
X101294000Y-89908748D02*
X101294000Y-90431252D01*
X99874000Y-89908748D02*
X99874000Y-90431252D01*
X101294000Y-85082748D02*
X101294000Y-85605252D01*
X99874000Y-85082748D02*
X99874000Y-85605252D01*
X119396252Y-97865000D02*
X118873748Y-97865000D01*
X119396252Y-96445000D02*
X118873748Y-96445000D01*
X142566000Y-86128000D02*
X142566000Y-82528000D01*
X142554478Y-86166478D02*
G75*
G02X138116000Y-84328000I-1838478J1838478D01*
G01*
X142554478Y-82489522D02*
G75*
G03X138116000Y-84328000I-1838478J-1838478D01*
G01*
X109419000Y-98955000D02*
X109419000Y-95355000D01*
X109407478Y-98993478D02*
G75*
G02X104969000Y-97155000I-1838478J1838478D01*
G01*
X109407478Y-95316522D02*
G75*
G03X104969000Y-97155000I-1838478J-1838478D01*
G01*
X115769000Y-100225000D02*
X115769000Y-96625000D01*
X115757478Y-100263478D02*
G75*
G02X111319000Y-98425000I-1838478J1838478D01*
G01*
X115757478Y-96586522D02*
G75*
G03X111319000Y-98425000I-1838478J-1838478D01*
G01*
X95294000Y-79780000D02*
X95294000Y-82220000D01*
X95294000Y-82220000D02*
X100834000Y-82220000D01*
X100834000Y-82220000D02*
X100834000Y-79780000D01*
X100834000Y-79780000D02*
X95294000Y-79780000D01*
X94024000Y-81000000D02*
X95294000Y-81000000D01*
X102104000Y-81000000D02*
X100834000Y-81000000D01*
X135950000Y-85658000D02*
X135950000Y-82998000D01*
X133350000Y-85658000D02*
X135950000Y-85658000D01*
X133350000Y-82998000D02*
X135950000Y-82998000D01*
X133350000Y-85658000D02*
X133350000Y-82998000D01*
X132080000Y-85658000D02*
X130750000Y-85658000D01*
X130750000Y-85658000D02*
X130750000Y-84328000D01*
X122368000Y-95825000D02*
X122368000Y-98485000D01*
X124968000Y-95825000D02*
X122368000Y-95825000D01*
X124968000Y-98485000D02*
X122368000Y-98485000D01*
X124968000Y-95825000D02*
X124968000Y-98485000D01*
X126238000Y-95825000D02*
X127568000Y-95825000D01*
X127568000Y-95825000D02*
X127568000Y-97155000D01*
X145676000Y-109474000D02*
X130676000Y-109474000D01*
X130676000Y-109474000D02*
X130676000Y-94474000D01*
X130676000Y-94474000D02*
X145676000Y-94474000D01*
X145676000Y-94474000D02*
X145676000Y-109474000D01*
X138176000Y-109274000D02*
X139176000Y-108274000D01*
X138176000Y-109274000D02*
X137176000Y-108274000D01*
X124195288Y-73516648D02*
G75*
G02X124984000Y-73320000I788712J-1483352D01*
G01*
X123500047Y-75789088D02*
G75*
G02X123500000Y-74211000I1483953J789088D01*
G01*
X125773088Y-76483953D02*
G75*
G02X124195000Y-76484000I-789088J1483953D01*
G01*
X126467953Y-74210912D02*
G75*
G02X126468000Y-75789000I-1483953J-789088D01*
G01*
X124954617Y-73319550D02*
G75*
G02X125773000Y-73516000I29383J-1680450D01*
G01*
X125884000Y-78000000D02*
G75*
G03X125884000Y-78000000I-900000J0D01*
G01*
X121664000Y-75000000D02*
G75*
G03X121664000Y-75000000I-1680000J0D01*
G01*
X120884000Y-78000000D02*
G75*
G03X120884000Y-78000000I-900000J0D01*
G01*
X116664000Y-75000000D02*
G75*
G03X116664000Y-75000000I-1680000J0D01*
G01*
X115884000Y-78000000D02*
G75*
G03X115884000Y-78000000I-900000J0D01*
G01*
X111664000Y-75000000D02*
G75*
G03X111664000Y-75000000I-1680000J0D01*
G01*
X110884000Y-78000000D02*
G75*
G03X110884000Y-78000000I-900000J0D01*
G01*
X127544000Y-72500000D02*
X107423000Y-72500000D01*
X127544000Y-80060000D02*
X107423000Y-80060000D01*
X127544000Y-70940000D02*
X107423000Y-70940000D01*
X127544000Y-80060000D02*
X127544000Y-70940000D01*
X107423000Y-80060000D02*
X107423000Y-70940000D01*
X118709000Y-76069000D02*
X118803000Y-75976000D01*
X120994000Y-73784000D02*
X121053000Y-73726000D01*
X118914000Y-76275000D02*
X118973000Y-76216000D01*
X121164000Y-74024000D02*
X121258000Y-73931000D01*
X113709000Y-76069000D02*
X113803000Y-75976000D01*
X115994000Y-73784000D02*
X116053000Y-73726000D01*
X113914000Y-76275000D02*
X113973000Y-76216000D01*
X116164000Y-74024000D02*
X116258000Y-73931000D01*
X108709000Y-76069000D02*
X108803000Y-75976000D01*
X110994000Y-73784000D02*
X111053000Y-73726000D01*
X108914000Y-76275000D02*
X108973000Y-76216000D01*
X111164000Y-74024000D02*
X111258000Y-73931000D01*
X127784000Y-72440000D02*
X127784000Y-70700000D01*
X127784000Y-70700000D02*
X126284000Y-70700000D01*
X137466000Y-79255252D02*
X137466000Y-78732748D01*
X138886000Y-79255252D02*
X138886000Y-78732748D01*
X149404000Y-95511252D02*
X149404000Y-94988748D01*
X150824000Y-95511252D02*
X150824000Y-94988748D01*
X140006000Y-89669252D02*
X140006000Y-89146748D01*
X141426000Y-89669252D02*
X141426000Y-89146748D01*
X132341252Y-88340000D02*
X131818748Y-88340000D01*
X132341252Y-86920000D02*
X131818748Y-86920000D01*
X128472000Y-92702748D02*
X128472000Y-93225252D01*
X127052000Y-92702748D02*
X127052000Y-93225252D01*
X128472000Y-88384748D02*
X128472000Y-88907252D01*
X127052000Y-88384748D02*
X127052000Y-88907252D01*
X124254062Y-90678000D02*
G75*
G03X124254062Y-90678000I-4366062J0D01*
G01*
X112724000Y-92702748D02*
X112724000Y-93225252D01*
X111304000Y-92702748D02*
X111304000Y-93225252D01*
X112724000Y-88384748D02*
X112724000Y-88907252D01*
X111304000Y-88384748D02*
X111304000Y-88907252D01*
X98754000Y-89908748D02*
X98754000Y-90431252D01*
X97334000Y-89908748D02*
X97334000Y-90431252D01*
X98754000Y-85073748D02*
X98754000Y-85596252D01*
X97334000Y-85073748D02*
X97334000Y-85596252D01*
X96214000Y-89908748D02*
X96214000Y-90431252D01*
X94794000Y-89908748D02*
X94794000Y-90431252D01*
X96214000Y-85082748D02*
X96214000Y-85605252D01*
X94794000Y-85082748D02*
X94794000Y-85605252D01*
X93674000Y-89908748D02*
X93674000Y-90431252D01*
X92254000Y-89908748D02*
X92254000Y-90431252D01*
X93674000Y-85082748D02*
X93674000Y-85605252D01*
X92254000Y-85082748D02*
X92254000Y-85605252D01*
D10*
X106349904Y-92894095D02*
X106273714Y-92856000D01*
X106197523Y-92779809D01*
X106083238Y-92665523D01*
X106007047Y-92627428D01*
X105930857Y-92627428D01*
X105968952Y-92817904D02*
X105892761Y-92779809D01*
X105816571Y-92703619D01*
X105778476Y-92551238D01*
X105778476Y-92284571D01*
X105816571Y-92132190D01*
X105892761Y-92056000D01*
X105968952Y-92017904D01*
X106121333Y-92017904D01*
X106197523Y-92056000D01*
X106273714Y-92132190D01*
X106311809Y-92284571D01*
X106311809Y-92551238D01*
X106273714Y-92703619D01*
X106197523Y-92779809D01*
X106121333Y-92817904D01*
X105968952Y-92817904D01*
X107073714Y-92817904D02*
X106616571Y-92817904D01*
X106845142Y-92817904D02*
X106845142Y-92017904D01*
X106768952Y-92132190D01*
X106692761Y-92208380D01*
X106616571Y-92246476D01*
X107568952Y-92017904D02*
X107645142Y-92017904D01*
X107721333Y-92056000D01*
X107759428Y-92094095D01*
X107797523Y-92170285D01*
X107835619Y-92322666D01*
X107835619Y-92513142D01*
X107797523Y-92665523D01*
X107759428Y-92741714D01*
X107721333Y-92779809D01*
X107645142Y-92817904D01*
X107568952Y-92817904D01*
X107492761Y-92779809D01*
X107454666Y-92741714D01*
X107416571Y-92665523D01*
X107378476Y-92513142D01*
X107378476Y-92322666D01*
X107416571Y-92170285D01*
X107454666Y-92094095D01*
X107492761Y-92056000D01*
X107568952Y-92017904D01*
X108140380Y-92094095D02*
X108178476Y-92056000D01*
X108254666Y-92017904D01*
X108445142Y-92017904D01*
X108521333Y-92056000D01*
X108559428Y-92094095D01*
X108597523Y-92170285D01*
X108597523Y-92246476D01*
X108559428Y-92360761D01*
X108102285Y-92817904D01*
X108597523Y-92817904D01*
X148742571Y-80289904D02*
X148742571Y-80937523D01*
X148780666Y-81013714D01*
X148818761Y-81051809D01*
X148894952Y-81089904D01*
X149047333Y-81089904D01*
X149123523Y-81051809D01*
X149161619Y-81013714D01*
X149199714Y-80937523D01*
X149199714Y-80289904D01*
X149999714Y-81089904D02*
X149542571Y-81089904D01*
X149771142Y-81089904D02*
X149771142Y-80289904D01*
X149694952Y-80404190D01*
X149618761Y-80480380D01*
X149542571Y-80518476D01*
X150494952Y-80289904D02*
X150571142Y-80289904D01*
X150647333Y-80328000D01*
X150685428Y-80366095D01*
X150723523Y-80442285D01*
X150761619Y-80594666D01*
X150761619Y-80785142D01*
X150723523Y-80937523D01*
X150685428Y-81013714D01*
X150647333Y-81051809D01*
X150571142Y-81089904D01*
X150494952Y-81089904D01*
X150418761Y-81051809D01*
X150380666Y-81013714D01*
X150342571Y-80937523D01*
X150304476Y-80785142D01*
X150304476Y-80594666D01*
X150342571Y-80442285D01*
X150380666Y-80366095D01*
X150418761Y-80328000D01*
X150494952Y-80289904D01*
X151523523Y-81089904D02*
X151066380Y-81089904D01*
X151294952Y-81089904D02*
X151294952Y-80289904D01*
X151218761Y-80404190D01*
X151142571Y-80480380D01*
X151066380Y-80518476D01*
X146919904Y-74644095D02*
X146538952Y-74910761D01*
X146919904Y-75101238D02*
X146119904Y-75101238D01*
X146119904Y-74796476D01*
X146158000Y-74720285D01*
X146196095Y-74682190D01*
X146272285Y-74644095D01*
X146386571Y-74644095D01*
X146462761Y-74682190D01*
X146500857Y-74720285D01*
X146538952Y-74796476D01*
X146538952Y-75101238D01*
X146119904Y-74415523D02*
X146919904Y-74148857D01*
X146119904Y-73882190D01*
X146919904Y-73196476D02*
X146919904Y-73653619D01*
X146919904Y-73425047D02*
X146119904Y-73425047D01*
X146234190Y-73501238D01*
X146310380Y-73577428D01*
X146348476Y-73653619D01*
X146119904Y-72701238D02*
X146119904Y-72625047D01*
X146158000Y-72548857D01*
X146196095Y-72510761D01*
X146272285Y-72472666D01*
X146424666Y-72434571D01*
X146615142Y-72434571D01*
X146767523Y-72472666D01*
X146843714Y-72510761D01*
X146881809Y-72548857D01*
X146919904Y-72625047D01*
X146919904Y-72701238D01*
X146881809Y-72777428D01*
X146843714Y-72815523D01*
X146767523Y-72853619D01*
X146615142Y-72891714D01*
X146424666Y-72891714D01*
X146272285Y-72853619D01*
X146196095Y-72815523D01*
X146158000Y-72777428D01*
X146119904Y-72701238D01*
X146919904Y-71672666D02*
X146919904Y-72129809D01*
X146919904Y-71901238D02*
X146119904Y-71901238D01*
X146234190Y-71977428D01*
X146310380Y-72053619D01*
X146348476Y-72129809D01*
X145154761Y-78085904D02*
X144888095Y-77704952D01*
X144697619Y-78085904D02*
X144697619Y-77285904D01*
X145002380Y-77285904D01*
X145078571Y-77324000D01*
X145116666Y-77362095D01*
X145154761Y-77438285D01*
X145154761Y-77552571D01*
X145116666Y-77628761D01*
X145078571Y-77666857D01*
X145002380Y-77704952D01*
X144697619Y-77704952D01*
X145916666Y-78085904D02*
X145459523Y-78085904D01*
X145688095Y-78085904D02*
X145688095Y-77285904D01*
X145611904Y-77400190D01*
X145535714Y-77476380D01*
X145459523Y-77514476D01*
X146678571Y-78085904D02*
X146221428Y-78085904D01*
X146450000Y-78085904D02*
X146450000Y-77285904D01*
X146373809Y-77400190D01*
X146297619Y-77476380D01*
X146221428Y-77514476D01*
X147440476Y-78085904D02*
X146983333Y-78085904D01*
X147211904Y-78085904D02*
X147211904Y-77285904D01*
X147135714Y-77400190D01*
X147059523Y-77476380D01*
X146983333Y-77514476D01*
X152761904Y-99447238D02*
X152380952Y-99713904D01*
X152761904Y-99904380D02*
X151961904Y-99904380D01*
X151961904Y-99599619D01*
X152000000Y-99523428D01*
X152038095Y-99485333D01*
X152114285Y-99447238D01*
X152228571Y-99447238D01*
X152304761Y-99485333D01*
X152342857Y-99523428D01*
X152380952Y-99599619D01*
X152380952Y-99904380D01*
X152761904Y-98685333D02*
X152761904Y-99142476D01*
X152761904Y-98913904D02*
X151961904Y-98913904D01*
X152076190Y-98990095D01*
X152152380Y-99066285D01*
X152190476Y-99142476D01*
X152761904Y-97923428D02*
X152761904Y-98380571D01*
X152761904Y-98152000D02*
X151961904Y-98152000D01*
X152076190Y-98228190D01*
X152152380Y-98304380D01*
X152190476Y-98380571D01*
X151961904Y-97428190D02*
X151961904Y-97352000D01*
X152000000Y-97275809D01*
X152038095Y-97237714D01*
X152114285Y-97199619D01*
X152266666Y-97161523D01*
X152457142Y-97161523D01*
X152609523Y-97199619D01*
X152685714Y-97237714D01*
X152723809Y-97275809D01*
X152761904Y-97352000D01*
X152761904Y-97428190D01*
X152723809Y-97504380D01*
X152685714Y-97542476D01*
X152609523Y-97580571D01*
X152457142Y-97618666D01*
X152266666Y-97618666D01*
X152114285Y-97580571D01*
X152038095Y-97542476D01*
X152000000Y-97504380D01*
X151961904Y-97428190D01*
X148189904Y-99447238D02*
X147808952Y-99713904D01*
X148189904Y-99904380D02*
X147389904Y-99904380D01*
X147389904Y-99599619D01*
X147428000Y-99523428D01*
X147466095Y-99485333D01*
X147542285Y-99447238D01*
X147656571Y-99447238D01*
X147732761Y-99485333D01*
X147770857Y-99523428D01*
X147808952Y-99599619D01*
X147808952Y-99904380D01*
X148189904Y-98685333D02*
X148189904Y-99142476D01*
X148189904Y-98913904D02*
X147389904Y-98913904D01*
X147504190Y-98990095D01*
X147580380Y-99066285D01*
X147618476Y-99142476D01*
X147389904Y-98190095D02*
X147389904Y-98113904D01*
X147428000Y-98037714D01*
X147466095Y-97999619D01*
X147542285Y-97961523D01*
X147694666Y-97923428D01*
X147885142Y-97923428D01*
X148037523Y-97961523D01*
X148113714Y-97999619D01*
X148151809Y-98037714D01*
X148189904Y-98113904D01*
X148189904Y-98190095D01*
X148151809Y-98266285D01*
X148113714Y-98304380D01*
X148037523Y-98342476D01*
X147885142Y-98380571D01*
X147694666Y-98380571D01*
X147542285Y-98342476D01*
X147466095Y-98304380D01*
X147428000Y-98266285D01*
X147389904Y-98190095D01*
X148189904Y-97542476D02*
X148189904Y-97390095D01*
X148151809Y-97313904D01*
X148113714Y-97275809D01*
X147999428Y-97199619D01*
X147847047Y-97161523D01*
X147542285Y-97161523D01*
X147466095Y-97199619D01*
X147428000Y-97237714D01*
X147389904Y-97313904D01*
X147389904Y-97466285D01*
X147428000Y-97542476D01*
X147466095Y-97580571D01*
X147542285Y-97618666D01*
X147732761Y-97618666D01*
X147808952Y-97580571D01*
X147847047Y-97542476D01*
X147885142Y-97466285D01*
X147885142Y-97313904D01*
X147847047Y-97237714D01*
X147808952Y-97199619D01*
X147732761Y-97161523D01*
X145154761Y-79228904D02*
X144888095Y-78847952D01*
X144697619Y-79228904D02*
X144697619Y-78428904D01*
X145002380Y-78428904D01*
X145078571Y-78467000D01*
X145116666Y-78505095D01*
X145154761Y-78581285D01*
X145154761Y-78695571D01*
X145116666Y-78771761D01*
X145078571Y-78809857D01*
X145002380Y-78847952D01*
X144697619Y-78847952D01*
X145916666Y-79228904D02*
X145459523Y-79228904D01*
X145688095Y-79228904D02*
X145688095Y-78428904D01*
X145611904Y-78543190D01*
X145535714Y-78619380D01*
X145459523Y-78657476D01*
X146411904Y-78428904D02*
X146488095Y-78428904D01*
X146564285Y-78467000D01*
X146602380Y-78505095D01*
X146640476Y-78581285D01*
X146678571Y-78733666D01*
X146678571Y-78924142D01*
X146640476Y-79076523D01*
X146602380Y-79152714D01*
X146564285Y-79190809D01*
X146488095Y-79228904D01*
X146411904Y-79228904D01*
X146335714Y-79190809D01*
X146297619Y-79152714D01*
X146259523Y-79076523D01*
X146221428Y-78924142D01*
X146221428Y-78733666D01*
X146259523Y-78581285D01*
X146297619Y-78505095D01*
X146335714Y-78467000D01*
X146411904Y-78428904D01*
X147135714Y-78771761D02*
X147059523Y-78733666D01*
X147021428Y-78695571D01*
X146983333Y-78619380D01*
X146983333Y-78581285D01*
X147021428Y-78505095D01*
X147059523Y-78467000D01*
X147135714Y-78428904D01*
X147288095Y-78428904D01*
X147364285Y-78467000D01*
X147402380Y-78505095D01*
X147440476Y-78581285D01*
X147440476Y-78619380D01*
X147402380Y-78695571D01*
X147364285Y-78733666D01*
X147288095Y-78771761D01*
X147135714Y-78771761D01*
X147059523Y-78809857D01*
X147021428Y-78847952D01*
X146983333Y-78924142D01*
X146983333Y-79076523D01*
X147021428Y-79152714D01*
X147059523Y-79190809D01*
X147135714Y-79228904D01*
X147288095Y-79228904D01*
X147364285Y-79190809D01*
X147402380Y-79152714D01*
X147440476Y-79076523D01*
X147440476Y-78924142D01*
X147402380Y-78847952D01*
X147364285Y-78809857D01*
X147288095Y-78771761D01*
X138537904Y-93605238D02*
X138156952Y-93871904D01*
X138537904Y-94062380D02*
X137737904Y-94062380D01*
X137737904Y-93757619D01*
X137776000Y-93681428D01*
X137814095Y-93643333D01*
X137890285Y-93605238D01*
X138004571Y-93605238D01*
X138080761Y-93643333D01*
X138118857Y-93681428D01*
X138156952Y-93757619D01*
X138156952Y-94062380D01*
X138537904Y-92843333D02*
X138537904Y-93300476D01*
X138537904Y-93071904D02*
X137737904Y-93071904D01*
X137852190Y-93148095D01*
X137928380Y-93224285D01*
X137966476Y-93300476D01*
X137737904Y-92348095D02*
X137737904Y-92271904D01*
X137776000Y-92195714D01*
X137814095Y-92157619D01*
X137890285Y-92119523D01*
X138042666Y-92081428D01*
X138233142Y-92081428D01*
X138385523Y-92119523D01*
X138461714Y-92157619D01*
X138499809Y-92195714D01*
X138537904Y-92271904D01*
X138537904Y-92348095D01*
X138499809Y-92424285D01*
X138461714Y-92462380D01*
X138385523Y-92500476D01*
X138233142Y-92538571D01*
X138042666Y-92538571D01*
X137890285Y-92500476D01*
X137814095Y-92462380D01*
X137776000Y-92424285D01*
X137737904Y-92348095D01*
X137737904Y-91814761D02*
X137737904Y-91281428D01*
X138537904Y-91624285D01*
X135997904Y-93605238D02*
X135616952Y-93871904D01*
X135997904Y-94062380D02*
X135197904Y-94062380D01*
X135197904Y-93757619D01*
X135236000Y-93681428D01*
X135274095Y-93643333D01*
X135350285Y-93605238D01*
X135464571Y-93605238D01*
X135540761Y-93643333D01*
X135578857Y-93681428D01*
X135616952Y-93757619D01*
X135616952Y-94062380D01*
X135997904Y-92843333D02*
X135997904Y-93300476D01*
X135997904Y-93071904D02*
X135197904Y-93071904D01*
X135312190Y-93148095D01*
X135388380Y-93224285D01*
X135426476Y-93300476D01*
X135197904Y-92348095D02*
X135197904Y-92271904D01*
X135236000Y-92195714D01*
X135274095Y-92157619D01*
X135350285Y-92119523D01*
X135502666Y-92081428D01*
X135693142Y-92081428D01*
X135845523Y-92119523D01*
X135921714Y-92157619D01*
X135959809Y-92195714D01*
X135997904Y-92271904D01*
X135997904Y-92348095D01*
X135959809Y-92424285D01*
X135921714Y-92462380D01*
X135845523Y-92500476D01*
X135693142Y-92538571D01*
X135502666Y-92538571D01*
X135350285Y-92500476D01*
X135274095Y-92462380D01*
X135236000Y-92424285D01*
X135197904Y-92348095D01*
X135197904Y-91395714D02*
X135197904Y-91548095D01*
X135236000Y-91624285D01*
X135274095Y-91662380D01*
X135388380Y-91738571D01*
X135540761Y-91776666D01*
X135845523Y-91776666D01*
X135921714Y-91738571D01*
X135959809Y-91700476D01*
X135997904Y-91624285D01*
X135997904Y-91471904D01*
X135959809Y-91395714D01*
X135921714Y-91357619D01*
X135845523Y-91319523D01*
X135655047Y-91319523D01*
X135578857Y-91357619D01*
X135540761Y-91395714D01*
X135502666Y-91471904D01*
X135502666Y-91624285D01*
X135540761Y-91700476D01*
X135578857Y-91738571D01*
X135655047Y-91776666D01*
X96640761Y-95103904D02*
X96374095Y-94722952D01*
X96183619Y-95103904D02*
X96183619Y-94303904D01*
X96488380Y-94303904D01*
X96564571Y-94342000D01*
X96602666Y-94380095D01*
X96640761Y-94456285D01*
X96640761Y-94570571D01*
X96602666Y-94646761D01*
X96564571Y-94684857D01*
X96488380Y-94722952D01*
X96183619Y-94722952D01*
X97402666Y-95103904D02*
X96945523Y-95103904D01*
X97174095Y-95103904D02*
X97174095Y-94303904D01*
X97097904Y-94418190D01*
X97021714Y-94494380D01*
X96945523Y-94532476D01*
X97897904Y-94303904D02*
X97974095Y-94303904D01*
X98050285Y-94342000D01*
X98088380Y-94380095D01*
X98126476Y-94456285D01*
X98164571Y-94608666D01*
X98164571Y-94799142D01*
X98126476Y-94951523D01*
X98088380Y-95027714D01*
X98050285Y-95065809D01*
X97974095Y-95103904D01*
X97897904Y-95103904D01*
X97821714Y-95065809D01*
X97783619Y-95027714D01*
X97745523Y-94951523D01*
X97707428Y-94799142D01*
X97707428Y-94608666D01*
X97745523Y-94456285D01*
X97783619Y-94380095D01*
X97821714Y-94342000D01*
X97897904Y-94303904D01*
X98888380Y-94303904D02*
X98507428Y-94303904D01*
X98469333Y-94684857D01*
X98507428Y-94646761D01*
X98583619Y-94608666D01*
X98774095Y-94608666D01*
X98850285Y-94646761D01*
X98888380Y-94684857D01*
X98926476Y-94761047D01*
X98926476Y-94951523D01*
X98888380Y-95027714D01*
X98850285Y-95065809D01*
X98774095Y-95103904D01*
X98583619Y-95103904D01*
X98507428Y-95065809D01*
X98469333Y-95027714D01*
X96640761Y-97643904D02*
X96374095Y-97262952D01*
X96183619Y-97643904D02*
X96183619Y-96843904D01*
X96488380Y-96843904D01*
X96564571Y-96882000D01*
X96602666Y-96920095D01*
X96640761Y-96996285D01*
X96640761Y-97110571D01*
X96602666Y-97186761D01*
X96564571Y-97224857D01*
X96488380Y-97262952D01*
X96183619Y-97262952D01*
X97402666Y-97643904D02*
X96945523Y-97643904D01*
X97174095Y-97643904D02*
X97174095Y-96843904D01*
X97097904Y-96958190D01*
X97021714Y-97034380D01*
X96945523Y-97072476D01*
X97897904Y-96843904D02*
X97974095Y-96843904D01*
X98050285Y-96882000D01*
X98088380Y-96920095D01*
X98126476Y-96996285D01*
X98164571Y-97148666D01*
X98164571Y-97339142D01*
X98126476Y-97491523D01*
X98088380Y-97567714D01*
X98050285Y-97605809D01*
X97974095Y-97643904D01*
X97897904Y-97643904D01*
X97821714Y-97605809D01*
X97783619Y-97567714D01*
X97745523Y-97491523D01*
X97707428Y-97339142D01*
X97707428Y-97148666D01*
X97745523Y-96996285D01*
X97783619Y-96920095D01*
X97821714Y-96882000D01*
X97897904Y-96843904D01*
X98850285Y-97110571D02*
X98850285Y-97643904D01*
X98659809Y-96805809D02*
X98469333Y-97377238D01*
X98964571Y-97377238D01*
X102228761Y-89261904D02*
X101962095Y-88880952D01*
X101771619Y-89261904D02*
X101771619Y-88461904D01*
X102076380Y-88461904D01*
X102152571Y-88500000D01*
X102190666Y-88538095D01*
X102228761Y-88614285D01*
X102228761Y-88728571D01*
X102190666Y-88804761D01*
X102152571Y-88842857D01*
X102076380Y-88880952D01*
X101771619Y-88880952D01*
X102990666Y-89261904D02*
X102533523Y-89261904D01*
X102762095Y-89261904D02*
X102762095Y-88461904D01*
X102685904Y-88576190D01*
X102609714Y-88652380D01*
X102533523Y-88690476D01*
X103485904Y-88461904D02*
X103562095Y-88461904D01*
X103638285Y-88500000D01*
X103676380Y-88538095D01*
X103714476Y-88614285D01*
X103752571Y-88766666D01*
X103752571Y-88957142D01*
X103714476Y-89109523D01*
X103676380Y-89185714D01*
X103638285Y-89223809D01*
X103562095Y-89261904D01*
X103485904Y-89261904D01*
X103409714Y-89223809D01*
X103371619Y-89185714D01*
X103333523Y-89109523D01*
X103295428Y-88957142D01*
X103295428Y-88766666D01*
X103333523Y-88614285D01*
X103371619Y-88538095D01*
X103409714Y-88500000D01*
X103485904Y-88461904D01*
X104019238Y-88461904D02*
X104514476Y-88461904D01*
X104247809Y-88766666D01*
X104362095Y-88766666D01*
X104438285Y-88804761D01*
X104476380Y-88842857D01*
X104514476Y-88919047D01*
X104514476Y-89109523D01*
X104476380Y-89185714D01*
X104438285Y-89223809D01*
X104362095Y-89261904D01*
X104133523Y-89261904D01*
X104057333Y-89223809D01*
X104019238Y-89185714D01*
X102228761Y-84435904D02*
X101962095Y-84054952D01*
X101771619Y-84435904D02*
X101771619Y-83635904D01*
X102076380Y-83635904D01*
X102152571Y-83674000D01*
X102190666Y-83712095D01*
X102228761Y-83788285D01*
X102228761Y-83902571D01*
X102190666Y-83978761D01*
X102152571Y-84016857D01*
X102076380Y-84054952D01*
X101771619Y-84054952D01*
X102990666Y-84435904D02*
X102533523Y-84435904D01*
X102762095Y-84435904D02*
X102762095Y-83635904D01*
X102685904Y-83750190D01*
X102609714Y-83826380D01*
X102533523Y-83864476D01*
X103485904Y-83635904D02*
X103562095Y-83635904D01*
X103638285Y-83674000D01*
X103676380Y-83712095D01*
X103714476Y-83788285D01*
X103752571Y-83940666D01*
X103752571Y-84131142D01*
X103714476Y-84283523D01*
X103676380Y-84359714D01*
X103638285Y-84397809D01*
X103562095Y-84435904D01*
X103485904Y-84435904D01*
X103409714Y-84397809D01*
X103371619Y-84359714D01*
X103333523Y-84283523D01*
X103295428Y-84131142D01*
X103295428Y-83940666D01*
X103333523Y-83788285D01*
X103371619Y-83712095D01*
X103409714Y-83674000D01*
X103485904Y-83635904D01*
X104057333Y-83712095D02*
X104095428Y-83674000D01*
X104171619Y-83635904D01*
X104362095Y-83635904D01*
X104438285Y-83674000D01*
X104476380Y-83712095D01*
X104514476Y-83788285D01*
X104514476Y-83864476D01*
X104476380Y-83978761D01*
X104019238Y-84435904D01*
X104514476Y-84435904D01*
X118239761Y-99166904D02*
X117973095Y-98785952D01*
X117782619Y-99166904D02*
X117782619Y-98366904D01*
X118087380Y-98366904D01*
X118163571Y-98405000D01*
X118201666Y-98443095D01*
X118239761Y-98519285D01*
X118239761Y-98633571D01*
X118201666Y-98709761D01*
X118163571Y-98747857D01*
X118087380Y-98785952D01*
X117782619Y-98785952D01*
X119001666Y-99166904D02*
X118544523Y-99166904D01*
X118773095Y-99166904D02*
X118773095Y-98366904D01*
X118696904Y-98481190D01*
X118620714Y-98557380D01*
X118544523Y-98595476D01*
X119496904Y-98366904D02*
X119573095Y-98366904D01*
X119649285Y-98405000D01*
X119687380Y-98443095D01*
X119725476Y-98519285D01*
X119763571Y-98671666D01*
X119763571Y-98862142D01*
X119725476Y-99014523D01*
X119687380Y-99090714D01*
X119649285Y-99128809D01*
X119573095Y-99166904D01*
X119496904Y-99166904D01*
X119420714Y-99128809D01*
X119382619Y-99090714D01*
X119344523Y-99014523D01*
X119306428Y-98862142D01*
X119306428Y-98671666D01*
X119344523Y-98519285D01*
X119382619Y-98443095D01*
X119420714Y-98405000D01*
X119496904Y-98366904D01*
X120525476Y-99166904D02*
X120068333Y-99166904D01*
X120296904Y-99166904D02*
X120296904Y-98366904D01*
X120220714Y-98481190D01*
X120144523Y-98557380D01*
X120068333Y-98595476D01*
X137852095Y-85166095D02*
X137814000Y-85242285D01*
X137737809Y-85318476D01*
X137623523Y-85432761D01*
X137585428Y-85508952D01*
X137585428Y-85585142D01*
X137775904Y-85547047D02*
X137737809Y-85623238D01*
X137661619Y-85699428D01*
X137509238Y-85737523D01*
X137242571Y-85737523D01*
X137090190Y-85699428D01*
X137014000Y-85623238D01*
X136975904Y-85547047D01*
X136975904Y-85394666D01*
X137014000Y-85318476D01*
X137090190Y-85242285D01*
X137242571Y-85204190D01*
X137509238Y-85204190D01*
X137661619Y-85242285D01*
X137737809Y-85318476D01*
X137775904Y-85394666D01*
X137775904Y-85547047D01*
X137775904Y-84442285D02*
X137775904Y-84899428D01*
X137775904Y-84670857D02*
X136975904Y-84670857D01*
X137090190Y-84747047D01*
X137166380Y-84823238D01*
X137204476Y-84899428D01*
X136975904Y-83947047D02*
X136975904Y-83870857D01*
X137014000Y-83794666D01*
X137052095Y-83756571D01*
X137128285Y-83718476D01*
X137280666Y-83680380D01*
X137471142Y-83680380D01*
X137623523Y-83718476D01*
X137699714Y-83756571D01*
X137737809Y-83794666D01*
X137775904Y-83870857D01*
X137775904Y-83947047D01*
X137737809Y-84023238D01*
X137699714Y-84061333D01*
X137623523Y-84099428D01*
X137471142Y-84137523D01*
X137280666Y-84137523D01*
X137128285Y-84099428D01*
X137052095Y-84061333D01*
X137014000Y-84023238D01*
X136975904Y-83947047D01*
X137242571Y-82994666D02*
X137775904Y-82994666D01*
X136937809Y-83185142D02*
X137509238Y-83375619D01*
X137509238Y-82880380D01*
X106349904Y-101022095D02*
X106273714Y-100984000D01*
X106197523Y-100907809D01*
X106083238Y-100793523D01*
X106007047Y-100755428D01*
X105930857Y-100755428D01*
X105968952Y-100945904D02*
X105892761Y-100907809D01*
X105816571Y-100831619D01*
X105778476Y-100679238D01*
X105778476Y-100412571D01*
X105816571Y-100260190D01*
X105892761Y-100184000D01*
X105968952Y-100145904D01*
X106121333Y-100145904D01*
X106197523Y-100184000D01*
X106273714Y-100260190D01*
X106311809Y-100412571D01*
X106311809Y-100679238D01*
X106273714Y-100831619D01*
X106197523Y-100907809D01*
X106121333Y-100945904D01*
X105968952Y-100945904D01*
X107073714Y-100945904D02*
X106616571Y-100945904D01*
X106845142Y-100945904D02*
X106845142Y-100145904D01*
X106768952Y-100260190D01*
X106692761Y-100336380D01*
X106616571Y-100374476D01*
X107568952Y-100145904D02*
X107645142Y-100145904D01*
X107721333Y-100184000D01*
X107759428Y-100222095D01*
X107797523Y-100298285D01*
X107835619Y-100450666D01*
X107835619Y-100641142D01*
X107797523Y-100793523D01*
X107759428Y-100869714D01*
X107721333Y-100907809D01*
X107645142Y-100945904D01*
X107568952Y-100945904D01*
X107492761Y-100907809D01*
X107454666Y-100869714D01*
X107416571Y-100793523D01*
X107378476Y-100641142D01*
X107378476Y-100450666D01*
X107416571Y-100298285D01*
X107454666Y-100222095D01*
X107492761Y-100184000D01*
X107568952Y-100145904D01*
X108102285Y-100145904D02*
X108597523Y-100145904D01*
X108330857Y-100450666D01*
X108445142Y-100450666D01*
X108521333Y-100488761D01*
X108559428Y-100526857D01*
X108597523Y-100603047D01*
X108597523Y-100793523D01*
X108559428Y-100869714D01*
X108521333Y-100907809D01*
X108445142Y-100945904D01*
X108216571Y-100945904D01*
X108140380Y-100907809D01*
X108102285Y-100869714D01*
X112953904Y-102292095D02*
X112877714Y-102254000D01*
X112801523Y-102177809D01*
X112687238Y-102063523D01*
X112611047Y-102025428D01*
X112534857Y-102025428D01*
X112572952Y-102215904D02*
X112496761Y-102177809D01*
X112420571Y-102101619D01*
X112382476Y-101949238D01*
X112382476Y-101682571D01*
X112420571Y-101530190D01*
X112496761Y-101454000D01*
X112572952Y-101415904D01*
X112725333Y-101415904D01*
X112801523Y-101454000D01*
X112877714Y-101530190D01*
X112915809Y-101682571D01*
X112915809Y-101949238D01*
X112877714Y-102101619D01*
X112801523Y-102177809D01*
X112725333Y-102215904D01*
X112572952Y-102215904D01*
X113677714Y-102215904D02*
X113220571Y-102215904D01*
X113449142Y-102215904D02*
X113449142Y-101415904D01*
X113372952Y-101530190D01*
X113296761Y-101606380D01*
X113220571Y-101644476D01*
X114172952Y-101415904D02*
X114249142Y-101415904D01*
X114325333Y-101454000D01*
X114363428Y-101492095D01*
X114401523Y-101568285D01*
X114439619Y-101720666D01*
X114439619Y-101911142D01*
X114401523Y-102063523D01*
X114363428Y-102139714D01*
X114325333Y-102177809D01*
X114249142Y-102215904D01*
X114172952Y-102215904D01*
X114096761Y-102177809D01*
X114058666Y-102139714D01*
X114020571Y-102063523D01*
X113982476Y-101911142D01*
X113982476Y-101720666D01*
X114020571Y-101568285D01*
X114058666Y-101492095D01*
X114096761Y-101454000D01*
X114172952Y-101415904D01*
X115201523Y-102215904D02*
X114744380Y-102215904D01*
X114972952Y-102215904D02*
X114972952Y-101415904D01*
X114896761Y-101530190D01*
X114820571Y-101606380D01*
X114744380Y-101644476D01*
X97168761Y-79141904D02*
X96787809Y-79141904D01*
X96787809Y-78341904D01*
X97854476Y-79141904D02*
X97397333Y-79141904D01*
X97625904Y-79141904D02*
X97625904Y-78341904D01*
X97549714Y-78456190D01*
X97473523Y-78532380D01*
X97397333Y-78570476D01*
X98349714Y-78341904D02*
X98425904Y-78341904D01*
X98502095Y-78380000D01*
X98540190Y-78418095D01*
X98578285Y-78494285D01*
X98616380Y-78646666D01*
X98616380Y-78837142D01*
X98578285Y-78989523D01*
X98540190Y-79065714D01*
X98502095Y-79103809D01*
X98425904Y-79141904D01*
X98349714Y-79141904D01*
X98273523Y-79103809D01*
X98235428Y-79065714D01*
X98197333Y-78989523D01*
X98159238Y-78837142D01*
X98159238Y-78646666D01*
X98197333Y-78494285D01*
X98235428Y-78418095D01*
X98273523Y-78380000D01*
X98349714Y-78341904D01*
X99378285Y-79141904D02*
X98921142Y-79141904D01*
X99149714Y-79141904D02*
X99149714Y-78341904D01*
X99073523Y-78456190D01*
X98997333Y-78532380D01*
X98921142Y-78570476D01*
X131667428Y-81603904D02*
X131667428Y-82175333D01*
X131629333Y-82289619D01*
X131553142Y-82365809D01*
X131438857Y-82403904D01*
X131362666Y-82403904D01*
X132048380Y-82403904D02*
X132048380Y-81603904D01*
X132353142Y-81603904D01*
X132429333Y-81642000D01*
X132467428Y-81680095D01*
X132505523Y-81756285D01*
X132505523Y-81870571D01*
X132467428Y-81946761D01*
X132429333Y-81984857D01*
X132353142Y-82022952D01*
X132048380Y-82022952D01*
X133267428Y-82403904D02*
X132810285Y-82403904D01*
X133038857Y-82403904D02*
X133038857Y-81603904D01*
X132962666Y-81718190D01*
X132886476Y-81794380D01*
X132810285Y-81832476D01*
X133762666Y-81603904D02*
X133838857Y-81603904D01*
X133915047Y-81642000D01*
X133953142Y-81680095D01*
X133991238Y-81756285D01*
X134029333Y-81908666D01*
X134029333Y-82099142D01*
X133991238Y-82251523D01*
X133953142Y-82327714D01*
X133915047Y-82365809D01*
X133838857Y-82403904D01*
X133762666Y-82403904D01*
X133686476Y-82365809D01*
X133648380Y-82327714D01*
X133610285Y-82251523D01*
X133572190Y-82099142D01*
X133572190Y-81908666D01*
X133610285Y-81756285D01*
X133648380Y-81680095D01*
X133686476Y-81642000D01*
X133762666Y-81603904D01*
X134334095Y-81680095D02*
X134372190Y-81642000D01*
X134448380Y-81603904D01*
X134638857Y-81603904D01*
X134715047Y-81642000D01*
X134753142Y-81680095D01*
X134791238Y-81756285D01*
X134791238Y-81832476D01*
X134753142Y-81946761D01*
X134296000Y-82403904D01*
X134791238Y-82403904D01*
X123539428Y-99129904D02*
X123539428Y-99701333D01*
X123501333Y-99815619D01*
X123425142Y-99891809D01*
X123310857Y-99929904D01*
X123234666Y-99929904D01*
X123920380Y-99929904D02*
X123920380Y-99129904D01*
X124225142Y-99129904D01*
X124301333Y-99168000D01*
X124339428Y-99206095D01*
X124377523Y-99282285D01*
X124377523Y-99396571D01*
X124339428Y-99472761D01*
X124301333Y-99510857D01*
X124225142Y-99548952D01*
X123920380Y-99548952D01*
X125139428Y-99929904D02*
X124682285Y-99929904D01*
X124910857Y-99929904D02*
X124910857Y-99129904D01*
X124834666Y-99244190D01*
X124758476Y-99320380D01*
X124682285Y-99358476D01*
X125634666Y-99129904D02*
X125710857Y-99129904D01*
X125787047Y-99168000D01*
X125825142Y-99206095D01*
X125863238Y-99282285D01*
X125901333Y-99434666D01*
X125901333Y-99625142D01*
X125863238Y-99777523D01*
X125825142Y-99853714D01*
X125787047Y-99891809D01*
X125710857Y-99929904D01*
X125634666Y-99929904D01*
X125558476Y-99891809D01*
X125520380Y-99853714D01*
X125482285Y-99777523D01*
X125444190Y-99625142D01*
X125444190Y-99434666D01*
X125482285Y-99282285D01*
X125520380Y-99206095D01*
X125558476Y-99168000D01*
X125634666Y-99129904D01*
X126663238Y-99929904D02*
X126206095Y-99929904D01*
X126434666Y-99929904D02*
X126434666Y-99129904D01*
X126358476Y-99244190D01*
X126282285Y-99320380D01*
X126206095Y-99358476D01*
X129101904Y-102247571D02*
X129673333Y-102247571D01*
X129787619Y-102285666D01*
X129863809Y-102361857D01*
X129901904Y-102476142D01*
X129901904Y-102552333D01*
X129901904Y-101447571D02*
X129901904Y-101904714D01*
X129901904Y-101676142D02*
X129101904Y-101676142D01*
X129216190Y-101752333D01*
X129292380Y-101828523D01*
X129330476Y-101904714D01*
X129101904Y-100952333D02*
X129101904Y-100876142D01*
X129140000Y-100799952D01*
X129178095Y-100761857D01*
X129254285Y-100723761D01*
X129406666Y-100685666D01*
X129597142Y-100685666D01*
X129749523Y-100723761D01*
X129825714Y-100761857D01*
X129863809Y-100799952D01*
X129901904Y-100876142D01*
X129901904Y-100952333D01*
X129863809Y-101028523D01*
X129825714Y-101066619D01*
X129749523Y-101104714D01*
X129597142Y-101142809D01*
X129406666Y-101142809D01*
X129254285Y-101104714D01*
X129178095Y-101066619D01*
X129140000Y-101028523D01*
X129101904Y-100952333D01*
X129178095Y-100380904D02*
X129140000Y-100342809D01*
X129101904Y-100266619D01*
X129101904Y-100076142D01*
X129140000Y-99999952D01*
X129178095Y-99961857D01*
X129254285Y-99923761D01*
X129330476Y-99923761D01*
X129444761Y-99961857D01*
X129901904Y-100419000D01*
X129901904Y-99923761D01*
X105733904Y-76212571D02*
X106305333Y-76212571D01*
X106419619Y-76250666D01*
X106495809Y-76326857D01*
X106533904Y-76441142D01*
X106533904Y-76517333D01*
X106533904Y-75412571D02*
X106533904Y-75869714D01*
X106533904Y-75641142D02*
X105733904Y-75641142D01*
X105848190Y-75717333D01*
X105924380Y-75793523D01*
X105962476Y-75869714D01*
X105733904Y-74917333D02*
X105733904Y-74841142D01*
X105772000Y-74764952D01*
X105810095Y-74726857D01*
X105886285Y-74688761D01*
X106038666Y-74650666D01*
X106229142Y-74650666D01*
X106381523Y-74688761D01*
X106457714Y-74726857D01*
X106495809Y-74764952D01*
X106533904Y-74841142D01*
X106533904Y-74917333D01*
X106495809Y-74993523D01*
X106457714Y-75031619D01*
X106381523Y-75069714D01*
X106229142Y-75107809D01*
X106038666Y-75107809D01*
X105886285Y-75069714D01*
X105810095Y-75031619D01*
X105772000Y-74993523D01*
X105733904Y-74917333D01*
X106533904Y-73888761D02*
X106533904Y-74345904D01*
X106533904Y-74117333D02*
X105733904Y-74117333D01*
X105848190Y-74193523D01*
X105924380Y-74269714D01*
X105962476Y-74345904D01*
X145154761Y-80295714D02*
X145116666Y-80333809D01*
X145002380Y-80371904D01*
X144926190Y-80371904D01*
X144811904Y-80333809D01*
X144735714Y-80257619D01*
X144697619Y-80181428D01*
X144659523Y-80029047D01*
X144659523Y-79914761D01*
X144697619Y-79762380D01*
X144735714Y-79686190D01*
X144811904Y-79610000D01*
X144926190Y-79571904D01*
X145002380Y-79571904D01*
X145116666Y-79610000D01*
X145154761Y-79648095D01*
X145916666Y-80371904D02*
X145459523Y-80371904D01*
X145688095Y-80371904D02*
X145688095Y-79571904D01*
X145611904Y-79686190D01*
X145535714Y-79762380D01*
X145459523Y-79800476D01*
X146678571Y-80371904D02*
X146221428Y-80371904D01*
X146450000Y-80371904D02*
X146450000Y-79571904D01*
X146373809Y-79686190D01*
X146297619Y-79762380D01*
X146221428Y-79800476D01*
X147402380Y-79571904D02*
X147021428Y-79571904D01*
X146983333Y-79952857D01*
X147021428Y-79914761D01*
X147097619Y-79876666D01*
X147288095Y-79876666D01*
X147364285Y-79914761D01*
X147402380Y-79952857D01*
X147440476Y-80029047D01*
X147440476Y-80219523D01*
X147402380Y-80295714D01*
X147364285Y-80333809D01*
X147288095Y-80371904D01*
X147097619Y-80371904D01*
X147021428Y-80333809D01*
X146983333Y-80295714D01*
X150399714Y-99447238D02*
X150437809Y-99485333D01*
X150475904Y-99599619D01*
X150475904Y-99675809D01*
X150437809Y-99790095D01*
X150361619Y-99866285D01*
X150285428Y-99904380D01*
X150133047Y-99942476D01*
X150018761Y-99942476D01*
X149866380Y-99904380D01*
X149790190Y-99866285D01*
X149714000Y-99790095D01*
X149675904Y-99675809D01*
X149675904Y-99599619D01*
X149714000Y-99485333D01*
X149752095Y-99447238D01*
X150475904Y-98685333D02*
X150475904Y-99142476D01*
X150475904Y-98913904D02*
X149675904Y-98913904D01*
X149790190Y-98990095D01*
X149866380Y-99066285D01*
X149904476Y-99142476D01*
X150475904Y-97923428D02*
X150475904Y-98380571D01*
X150475904Y-98152000D02*
X149675904Y-98152000D01*
X149790190Y-98228190D01*
X149866380Y-98304380D01*
X149904476Y-98380571D01*
X149942571Y-97237714D02*
X150475904Y-97237714D01*
X149637809Y-97428190D02*
X150209238Y-97618666D01*
X150209238Y-97123428D01*
X141001714Y-93605238D02*
X141039809Y-93643333D01*
X141077904Y-93757619D01*
X141077904Y-93833809D01*
X141039809Y-93948095D01*
X140963619Y-94024285D01*
X140887428Y-94062380D01*
X140735047Y-94100476D01*
X140620761Y-94100476D01*
X140468380Y-94062380D01*
X140392190Y-94024285D01*
X140316000Y-93948095D01*
X140277904Y-93833809D01*
X140277904Y-93757619D01*
X140316000Y-93643333D01*
X140354095Y-93605238D01*
X141077904Y-92843333D02*
X141077904Y-93300476D01*
X141077904Y-93071904D02*
X140277904Y-93071904D01*
X140392190Y-93148095D01*
X140468380Y-93224285D01*
X140506476Y-93300476D01*
X141077904Y-92081428D02*
X141077904Y-92538571D01*
X141077904Y-92310000D02*
X140277904Y-92310000D01*
X140392190Y-92386190D01*
X140468380Y-92462380D01*
X140506476Y-92538571D01*
X140277904Y-91814761D02*
X140277904Y-91319523D01*
X140582666Y-91586190D01*
X140582666Y-91471904D01*
X140620761Y-91395714D01*
X140658857Y-91357619D01*
X140735047Y-91319523D01*
X140925523Y-91319523D01*
X141001714Y-91357619D01*
X141039809Y-91395714D01*
X141077904Y-91471904D01*
X141077904Y-91700476D01*
X141039809Y-91776666D01*
X141001714Y-91814761D01*
X131184761Y-89565714D02*
X131146666Y-89603809D01*
X131032380Y-89641904D01*
X130956190Y-89641904D01*
X130841904Y-89603809D01*
X130765714Y-89527619D01*
X130727619Y-89451428D01*
X130689523Y-89299047D01*
X130689523Y-89184761D01*
X130727619Y-89032380D01*
X130765714Y-88956190D01*
X130841904Y-88880000D01*
X130956190Y-88841904D01*
X131032380Y-88841904D01*
X131146666Y-88880000D01*
X131184761Y-88918095D01*
X131946666Y-89641904D02*
X131489523Y-89641904D01*
X131718095Y-89641904D02*
X131718095Y-88841904D01*
X131641904Y-88956190D01*
X131565714Y-89032380D01*
X131489523Y-89070476D01*
X132708571Y-89641904D02*
X132251428Y-89641904D01*
X132480000Y-89641904D02*
X132480000Y-88841904D01*
X132403809Y-88956190D01*
X132327619Y-89032380D01*
X132251428Y-89070476D01*
X133013333Y-88918095D02*
X133051428Y-88880000D01*
X133127619Y-88841904D01*
X133318095Y-88841904D01*
X133394285Y-88880000D01*
X133432380Y-88918095D01*
X133470476Y-88994285D01*
X133470476Y-89070476D01*
X133432380Y-89184761D01*
X132975238Y-89641904D01*
X133470476Y-89641904D01*
X129697714Y-93859238D02*
X129735809Y-93897333D01*
X129773904Y-94011619D01*
X129773904Y-94087809D01*
X129735809Y-94202095D01*
X129659619Y-94278285D01*
X129583428Y-94316380D01*
X129431047Y-94354476D01*
X129316761Y-94354476D01*
X129164380Y-94316380D01*
X129088190Y-94278285D01*
X129012000Y-94202095D01*
X128973904Y-94087809D01*
X128973904Y-94011619D01*
X129012000Y-93897333D01*
X129050095Y-93859238D01*
X129773904Y-93097333D02*
X129773904Y-93554476D01*
X129773904Y-93325904D02*
X128973904Y-93325904D01*
X129088190Y-93402095D01*
X129164380Y-93478285D01*
X129202476Y-93554476D01*
X129773904Y-92335428D02*
X129773904Y-92792571D01*
X129773904Y-92564000D02*
X128973904Y-92564000D01*
X129088190Y-92640190D01*
X129164380Y-92716380D01*
X129202476Y-92792571D01*
X129773904Y-91573523D02*
X129773904Y-92030666D01*
X129773904Y-91802095D02*
X128973904Y-91802095D01*
X129088190Y-91878285D01*
X129164380Y-91954476D01*
X129202476Y-92030666D01*
X129697714Y-89541238D02*
X129735809Y-89579333D01*
X129773904Y-89693619D01*
X129773904Y-89769809D01*
X129735809Y-89884095D01*
X129659619Y-89960285D01*
X129583428Y-89998380D01*
X129431047Y-90036476D01*
X129316761Y-90036476D01*
X129164380Y-89998380D01*
X129088190Y-89960285D01*
X129012000Y-89884095D01*
X128973904Y-89769809D01*
X128973904Y-89693619D01*
X129012000Y-89579333D01*
X129050095Y-89541238D01*
X129773904Y-88779333D02*
X129773904Y-89236476D01*
X129773904Y-89007904D02*
X128973904Y-89007904D01*
X129088190Y-89084095D01*
X129164380Y-89160285D01*
X129202476Y-89236476D01*
X129773904Y-88017428D02*
X129773904Y-88474571D01*
X129773904Y-88246000D02*
X128973904Y-88246000D01*
X129088190Y-88322190D01*
X129164380Y-88398380D01*
X129202476Y-88474571D01*
X128973904Y-87522190D02*
X128973904Y-87446000D01*
X129012000Y-87369809D01*
X129050095Y-87331714D01*
X129126285Y-87293619D01*
X129278666Y-87255523D01*
X129469142Y-87255523D01*
X129621523Y-87293619D01*
X129697714Y-87331714D01*
X129735809Y-87369809D01*
X129773904Y-87446000D01*
X129773904Y-87522190D01*
X129735809Y-87598380D01*
X129697714Y-87636476D01*
X129621523Y-87674571D01*
X129469142Y-87712666D01*
X129278666Y-87712666D01*
X129126285Y-87674571D01*
X129050095Y-87636476D01*
X129012000Y-87598380D01*
X128973904Y-87522190D01*
X125253714Y-91573238D02*
X125291809Y-91611333D01*
X125329904Y-91725619D01*
X125329904Y-91801809D01*
X125291809Y-91916095D01*
X125215619Y-91992285D01*
X125139428Y-92030380D01*
X124987047Y-92068476D01*
X124872761Y-92068476D01*
X124720380Y-92030380D01*
X124644190Y-91992285D01*
X124568000Y-91916095D01*
X124529904Y-91801809D01*
X124529904Y-91725619D01*
X124568000Y-91611333D01*
X124606095Y-91573238D01*
X125329904Y-90811333D02*
X125329904Y-91268476D01*
X125329904Y-91039904D02*
X124529904Y-91039904D01*
X124644190Y-91116095D01*
X124720380Y-91192285D01*
X124758476Y-91268476D01*
X124529904Y-90316095D02*
X124529904Y-90239904D01*
X124568000Y-90163714D01*
X124606095Y-90125619D01*
X124682285Y-90087523D01*
X124834666Y-90049428D01*
X125025142Y-90049428D01*
X125177523Y-90087523D01*
X125253714Y-90125619D01*
X125291809Y-90163714D01*
X125329904Y-90239904D01*
X125329904Y-90316095D01*
X125291809Y-90392285D01*
X125253714Y-90430380D01*
X125177523Y-90468476D01*
X125025142Y-90506571D01*
X124834666Y-90506571D01*
X124682285Y-90468476D01*
X124606095Y-90430380D01*
X124568000Y-90392285D01*
X124529904Y-90316095D01*
X125329904Y-89668476D02*
X125329904Y-89516095D01*
X125291809Y-89439904D01*
X125253714Y-89401809D01*
X125139428Y-89325619D01*
X124987047Y-89287523D01*
X124682285Y-89287523D01*
X124606095Y-89325619D01*
X124568000Y-89363714D01*
X124529904Y-89439904D01*
X124529904Y-89592285D01*
X124568000Y-89668476D01*
X124606095Y-89706571D01*
X124682285Y-89744666D01*
X124872761Y-89744666D01*
X124948952Y-89706571D01*
X124987047Y-89668476D01*
X125025142Y-89592285D01*
X125025142Y-89439904D01*
X124987047Y-89363714D01*
X124948952Y-89325619D01*
X124872761Y-89287523D01*
X113949714Y-93859238D02*
X113987809Y-93897333D01*
X114025904Y-94011619D01*
X114025904Y-94087809D01*
X113987809Y-94202095D01*
X113911619Y-94278285D01*
X113835428Y-94316380D01*
X113683047Y-94354476D01*
X113568761Y-94354476D01*
X113416380Y-94316380D01*
X113340190Y-94278285D01*
X113264000Y-94202095D01*
X113225904Y-94087809D01*
X113225904Y-94011619D01*
X113264000Y-93897333D01*
X113302095Y-93859238D01*
X114025904Y-93097333D02*
X114025904Y-93554476D01*
X114025904Y-93325904D02*
X113225904Y-93325904D01*
X113340190Y-93402095D01*
X113416380Y-93478285D01*
X113454476Y-93554476D01*
X113225904Y-92602095D02*
X113225904Y-92525904D01*
X113264000Y-92449714D01*
X113302095Y-92411619D01*
X113378285Y-92373523D01*
X113530666Y-92335428D01*
X113721142Y-92335428D01*
X113873523Y-92373523D01*
X113949714Y-92411619D01*
X113987809Y-92449714D01*
X114025904Y-92525904D01*
X114025904Y-92602095D01*
X113987809Y-92678285D01*
X113949714Y-92716380D01*
X113873523Y-92754476D01*
X113721142Y-92792571D01*
X113530666Y-92792571D01*
X113378285Y-92754476D01*
X113302095Y-92716380D01*
X113264000Y-92678285D01*
X113225904Y-92602095D01*
X113568761Y-91878285D02*
X113530666Y-91954476D01*
X113492571Y-91992571D01*
X113416380Y-92030666D01*
X113378285Y-92030666D01*
X113302095Y-91992571D01*
X113264000Y-91954476D01*
X113225904Y-91878285D01*
X113225904Y-91725904D01*
X113264000Y-91649714D01*
X113302095Y-91611619D01*
X113378285Y-91573523D01*
X113416380Y-91573523D01*
X113492571Y-91611619D01*
X113530666Y-91649714D01*
X113568761Y-91725904D01*
X113568761Y-91878285D01*
X113606857Y-91954476D01*
X113644952Y-91992571D01*
X113721142Y-92030666D01*
X113873523Y-92030666D01*
X113949714Y-91992571D01*
X113987809Y-91954476D01*
X114025904Y-91878285D01*
X114025904Y-91725904D01*
X113987809Y-91649714D01*
X113949714Y-91611619D01*
X113873523Y-91573523D01*
X113721142Y-91573523D01*
X113644952Y-91611619D01*
X113606857Y-91649714D01*
X113568761Y-91725904D01*
X113949714Y-89541238D02*
X113987809Y-89579333D01*
X114025904Y-89693619D01*
X114025904Y-89769809D01*
X113987809Y-89884095D01*
X113911619Y-89960285D01*
X113835428Y-89998380D01*
X113683047Y-90036476D01*
X113568761Y-90036476D01*
X113416380Y-89998380D01*
X113340190Y-89960285D01*
X113264000Y-89884095D01*
X113225904Y-89769809D01*
X113225904Y-89693619D01*
X113264000Y-89579333D01*
X113302095Y-89541238D01*
X114025904Y-88779333D02*
X114025904Y-89236476D01*
X114025904Y-89007904D02*
X113225904Y-89007904D01*
X113340190Y-89084095D01*
X113416380Y-89160285D01*
X113454476Y-89236476D01*
X113225904Y-88284095D02*
X113225904Y-88207904D01*
X113264000Y-88131714D01*
X113302095Y-88093619D01*
X113378285Y-88055523D01*
X113530666Y-88017428D01*
X113721142Y-88017428D01*
X113873523Y-88055523D01*
X113949714Y-88093619D01*
X113987809Y-88131714D01*
X114025904Y-88207904D01*
X114025904Y-88284095D01*
X113987809Y-88360285D01*
X113949714Y-88398380D01*
X113873523Y-88436476D01*
X113721142Y-88474571D01*
X113530666Y-88474571D01*
X113378285Y-88436476D01*
X113302095Y-88398380D01*
X113264000Y-88360285D01*
X113225904Y-88284095D01*
X113225904Y-87750761D02*
X113225904Y-87217428D01*
X114025904Y-87560285D01*
X102228761Y-90201714D02*
X102190666Y-90239809D01*
X102076380Y-90277904D01*
X102000190Y-90277904D01*
X101885904Y-90239809D01*
X101809714Y-90163619D01*
X101771619Y-90087428D01*
X101733523Y-89935047D01*
X101733523Y-89820761D01*
X101771619Y-89668380D01*
X101809714Y-89592190D01*
X101885904Y-89516000D01*
X102000190Y-89477904D01*
X102076380Y-89477904D01*
X102190666Y-89516000D01*
X102228761Y-89554095D01*
X102990666Y-90277904D02*
X102533523Y-90277904D01*
X102762095Y-90277904D02*
X102762095Y-89477904D01*
X102685904Y-89592190D01*
X102609714Y-89668380D01*
X102533523Y-89706476D01*
X103485904Y-89477904D02*
X103562095Y-89477904D01*
X103638285Y-89516000D01*
X103676380Y-89554095D01*
X103714476Y-89630285D01*
X103752571Y-89782666D01*
X103752571Y-89973142D01*
X103714476Y-90125523D01*
X103676380Y-90201714D01*
X103638285Y-90239809D01*
X103562095Y-90277904D01*
X103485904Y-90277904D01*
X103409714Y-90239809D01*
X103371619Y-90201714D01*
X103333523Y-90125523D01*
X103295428Y-89973142D01*
X103295428Y-89782666D01*
X103333523Y-89630285D01*
X103371619Y-89554095D01*
X103409714Y-89516000D01*
X103485904Y-89477904D01*
X104438285Y-89477904D02*
X104285904Y-89477904D01*
X104209714Y-89516000D01*
X104171619Y-89554095D01*
X104095428Y-89668380D01*
X104057333Y-89820761D01*
X104057333Y-90125523D01*
X104095428Y-90201714D01*
X104133523Y-90239809D01*
X104209714Y-90277904D01*
X104362095Y-90277904D01*
X104438285Y-90239809D01*
X104476380Y-90201714D01*
X104514476Y-90125523D01*
X104514476Y-89935047D01*
X104476380Y-89858857D01*
X104438285Y-89820761D01*
X104362095Y-89782666D01*
X104209714Y-89782666D01*
X104133523Y-89820761D01*
X104095428Y-89858857D01*
X104057333Y-89935047D01*
X102228761Y-85375714D02*
X102190666Y-85413809D01*
X102076380Y-85451904D01*
X102000190Y-85451904D01*
X101885904Y-85413809D01*
X101809714Y-85337619D01*
X101771619Y-85261428D01*
X101733523Y-85109047D01*
X101733523Y-84994761D01*
X101771619Y-84842380D01*
X101809714Y-84766190D01*
X101885904Y-84690000D01*
X102000190Y-84651904D01*
X102076380Y-84651904D01*
X102190666Y-84690000D01*
X102228761Y-84728095D01*
X102990666Y-85451904D02*
X102533523Y-85451904D01*
X102762095Y-85451904D02*
X102762095Y-84651904D01*
X102685904Y-84766190D01*
X102609714Y-84842380D01*
X102533523Y-84880476D01*
X103485904Y-84651904D02*
X103562095Y-84651904D01*
X103638285Y-84690000D01*
X103676380Y-84728095D01*
X103714476Y-84804285D01*
X103752571Y-84956666D01*
X103752571Y-85147142D01*
X103714476Y-85299523D01*
X103676380Y-85375714D01*
X103638285Y-85413809D01*
X103562095Y-85451904D01*
X103485904Y-85451904D01*
X103409714Y-85413809D01*
X103371619Y-85375714D01*
X103333523Y-85299523D01*
X103295428Y-85147142D01*
X103295428Y-84956666D01*
X103333523Y-84804285D01*
X103371619Y-84728095D01*
X103409714Y-84690000D01*
X103485904Y-84651904D01*
X104476380Y-84651904D02*
X104095428Y-84651904D01*
X104057333Y-85032857D01*
X104095428Y-84994761D01*
X104171619Y-84956666D01*
X104362095Y-84956666D01*
X104438285Y-84994761D01*
X104476380Y-85032857D01*
X104514476Y-85109047D01*
X104514476Y-85299523D01*
X104476380Y-85375714D01*
X104438285Y-85413809D01*
X104362095Y-85451904D01*
X104171619Y-85451904D01*
X104095428Y-85413809D01*
X104057333Y-85375714D01*
X102228761Y-91217714D02*
X102190666Y-91255809D01*
X102076380Y-91293904D01*
X102000190Y-91293904D01*
X101885904Y-91255809D01*
X101809714Y-91179619D01*
X101771619Y-91103428D01*
X101733523Y-90951047D01*
X101733523Y-90836761D01*
X101771619Y-90684380D01*
X101809714Y-90608190D01*
X101885904Y-90532000D01*
X102000190Y-90493904D01*
X102076380Y-90493904D01*
X102190666Y-90532000D01*
X102228761Y-90570095D01*
X102990666Y-91293904D02*
X102533523Y-91293904D01*
X102762095Y-91293904D02*
X102762095Y-90493904D01*
X102685904Y-90608190D01*
X102609714Y-90684380D01*
X102533523Y-90722476D01*
X103485904Y-90493904D02*
X103562095Y-90493904D01*
X103638285Y-90532000D01*
X103676380Y-90570095D01*
X103714476Y-90646285D01*
X103752571Y-90798666D01*
X103752571Y-90989142D01*
X103714476Y-91141523D01*
X103676380Y-91217714D01*
X103638285Y-91255809D01*
X103562095Y-91293904D01*
X103485904Y-91293904D01*
X103409714Y-91255809D01*
X103371619Y-91217714D01*
X103333523Y-91141523D01*
X103295428Y-90989142D01*
X103295428Y-90798666D01*
X103333523Y-90646285D01*
X103371619Y-90570095D01*
X103409714Y-90532000D01*
X103485904Y-90493904D01*
X104438285Y-90760571D02*
X104438285Y-91293904D01*
X104247809Y-90455809D02*
X104057333Y-91027238D01*
X104552571Y-91027238D01*
X102228761Y-86391714D02*
X102190666Y-86429809D01*
X102076380Y-86467904D01*
X102000190Y-86467904D01*
X101885904Y-86429809D01*
X101809714Y-86353619D01*
X101771619Y-86277428D01*
X101733523Y-86125047D01*
X101733523Y-86010761D01*
X101771619Y-85858380D01*
X101809714Y-85782190D01*
X101885904Y-85706000D01*
X102000190Y-85667904D01*
X102076380Y-85667904D01*
X102190666Y-85706000D01*
X102228761Y-85744095D01*
X102990666Y-86467904D02*
X102533523Y-86467904D01*
X102762095Y-86467904D02*
X102762095Y-85667904D01*
X102685904Y-85782190D01*
X102609714Y-85858380D01*
X102533523Y-85896476D01*
X103485904Y-85667904D02*
X103562095Y-85667904D01*
X103638285Y-85706000D01*
X103676380Y-85744095D01*
X103714476Y-85820285D01*
X103752571Y-85972666D01*
X103752571Y-86163142D01*
X103714476Y-86315523D01*
X103676380Y-86391714D01*
X103638285Y-86429809D01*
X103562095Y-86467904D01*
X103485904Y-86467904D01*
X103409714Y-86429809D01*
X103371619Y-86391714D01*
X103333523Y-86315523D01*
X103295428Y-86163142D01*
X103295428Y-85972666D01*
X103333523Y-85820285D01*
X103371619Y-85744095D01*
X103409714Y-85706000D01*
X103485904Y-85667904D01*
X104019238Y-85667904D02*
X104514476Y-85667904D01*
X104247809Y-85972666D01*
X104362095Y-85972666D01*
X104438285Y-86010761D01*
X104476380Y-86048857D01*
X104514476Y-86125047D01*
X104514476Y-86315523D01*
X104476380Y-86391714D01*
X104438285Y-86429809D01*
X104362095Y-86467904D01*
X104133523Y-86467904D01*
X104057333Y-86429809D01*
X104019238Y-86391714D01*
X102228761Y-92233714D02*
X102190666Y-92271809D01*
X102076380Y-92309904D01*
X102000190Y-92309904D01*
X101885904Y-92271809D01*
X101809714Y-92195619D01*
X101771619Y-92119428D01*
X101733523Y-91967047D01*
X101733523Y-91852761D01*
X101771619Y-91700380D01*
X101809714Y-91624190D01*
X101885904Y-91548000D01*
X102000190Y-91509904D01*
X102076380Y-91509904D01*
X102190666Y-91548000D01*
X102228761Y-91586095D01*
X102990666Y-92309904D02*
X102533523Y-92309904D01*
X102762095Y-92309904D02*
X102762095Y-91509904D01*
X102685904Y-91624190D01*
X102609714Y-91700380D01*
X102533523Y-91738476D01*
X103485904Y-91509904D02*
X103562095Y-91509904D01*
X103638285Y-91548000D01*
X103676380Y-91586095D01*
X103714476Y-91662285D01*
X103752571Y-91814666D01*
X103752571Y-92005142D01*
X103714476Y-92157523D01*
X103676380Y-92233714D01*
X103638285Y-92271809D01*
X103562095Y-92309904D01*
X103485904Y-92309904D01*
X103409714Y-92271809D01*
X103371619Y-92233714D01*
X103333523Y-92157523D01*
X103295428Y-92005142D01*
X103295428Y-91814666D01*
X103333523Y-91662285D01*
X103371619Y-91586095D01*
X103409714Y-91548000D01*
X103485904Y-91509904D01*
X104057333Y-91586095D02*
X104095428Y-91548000D01*
X104171619Y-91509904D01*
X104362095Y-91509904D01*
X104438285Y-91548000D01*
X104476380Y-91586095D01*
X104514476Y-91662285D01*
X104514476Y-91738476D01*
X104476380Y-91852761D01*
X104019238Y-92309904D01*
X104514476Y-92309904D01*
X102228761Y-87407714D02*
X102190666Y-87445809D01*
X102076380Y-87483904D01*
X102000190Y-87483904D01*
X101885904Y-87445809D01*
X101809714Y-87369619D01*
X101771619Y-87293428D01*
X101733523Y-87141047D01*
X101733523Y-87026761D01*
X101771619Y-86874380D01*
X101809714Y-86798190D01*
X101885904Y-86722000D01*
X102000190Y-86683904D01*
X102076380Y-86683904D01*
X102190666Y-86722000D01*
X102228761Y-86760095D01*
X102990666Y-87483904D02*
X102533523Y-87483904D01*
X102762095Y-87483904D02*
X102762095Y-86683904D01*
X102685904Y-86798190D01*
X102609714Y-86874380D01*
X102533523Y-86912476D01*
X103485904Y-86683904D02*
X103562095Y-86683904D01*
X103638285Y-86722000D01*
X103676380Y-86760095D01*
X103714476Y-86836285D01*
X103752571Y-86988666D01*
X103752571Y-87179142D01*
X103714476Y-87331523D01*
X103676380Y-87407714D01*
X103638285Y-87445809D01*
X103562095Y-87483904D01*
X103485904Y-87483904D01*
X103409714Y-87445809D01*
X103371619Y-87407714D01*
X103333523Y-87331523D01*
X103295428Y-87179142D01*
X103295428Y-86988666D01*
X103333523Y-86836285D01*
X103371619Y-86760095D01*
X103409714Y-86722000D01*
X103485904Y-86683904D01*
X104514476Y-87483904D02*
X104057333Y-87483904D01*
X104285904Y-87483904D02*
X104285904Y-86683904D01*
X104209714Y-86798190D01*
X104133523Y-86874380D01*
X104057333Y-86912476D01*
M02*
