G04 #@! TF.GenerationSoftware,KiCad,Pcbnew,(5.1.2)-1*
G04 #@! TF.CreationDate,2019-08-30T22:43:59-03:00*
G04 #@! TF.ProjectId,colpitts,636f6c70-6974-4747-932e-6b696361645f,v1*
G04 #@! TF.SameCoordinates,Original*
G04 #@! TF.FileFunction,Drawing*
%FSLAX46Y46*%
G04 Gerber Fmt 4.6, Leading zero omitted, Abs format (unit mm)*
G04 Created by KiCad (PCBNEW (5.1.2)-1) date 2019-08-30 22:43:59*
%MOMM*%
%LPD*%
G04 APERTURE LIST*
%ADD10C,0.150000*%
%ADD11C,0.300000*%
G04 APERTURE END LIST*
D10*
X171085714Y-93666666D02*
X171752380Y-93666666D01*
X170704761Y-93904761D02*
X171419047Y-94142857D01*
X171419047Y-93523809D01*
X170752380Y-92952380D02*
X170752380Y-92857142D01*
X170800000Y-92761904D01*
X170847619Y-92714285D01*
X170942857Y-92666666D01*
X171133333Y-92619047D01*
X171371428Y-92619047D01*
X171561904Y-92666666D01*
X171657142Y-92714285D01*
X171704761Y-92761904D01*
X171752380Y-92857142D01*
X171752380Y-92952380D01*
X171704761Y-93047619D01*
X171657142Y-93095238D01*
X171561904Y-93142857D01*
X171371428Y-93190476D01*
X171133333Y-93190476D01*
X170942857Y-93142857D01*
X170847619Y-93095238D01*
X170800000Y-93047619D01*
X170752380Y-92952380D01*
X171704761Y-92142857D02*
X171752380Y-92142857D01*
X171847619Y-92190476D01*
X171895238Y-92238095D01*
X170752380Y-91523809D02*
X170752380Y-91428571D01*
X170800000Y-91333333D01*
X170847619Y-91285714D01*
X170942857Y-91238095D01*
X171133333Y-91190476D01*
X171371428Y-91190476D01*
X171561904Y-91238095D01*
X171657142Y-91285714D01*
X171704761Y-91333333D01*
X171752380Y-91428571D01*
X171752380Y-91523809D01*
X171704761Y-91619047D01*
X171657142Y-91666666D01*
X171561904Y-91714285D01*
X171371428Y-91761904D01*
X171133333Y-91761904D01*
X170942857Y-91714285D01*
X170847619Y-91666666D01*
X170800000Y-91619047D01*
X170752380Y-91523809D01*
X170752380Y-90571428D02*
X170752380Y-90476190D01*
X170800000Y-90380952D01*
X170847619Y-90333333D01*
X170942857Y-90285714D01*
X171133333Y-90238095D01*
X171371428Y-90238095D01*
X171561904Y-90285714D01*
X171657142Y-90333333D01*
X171704761Y-90380952D01*
X171752380Y-90476190D01*
X171752380Y-90571428D01*
X171704761Y-90666666D01*
X171657142Y-90714285D01*
X171561904Y-90761904D01*
X171371428Y-90809523D01*
X171133333Y-90809523D01*
X170942857Y-90761904D01*
X170847619Y-90714285D01*
X170800000Y-90666666D01*
X170752380Y-90571428D01*
X170752380Y-89619047D02*
X170752380Y-89523809D01*
X170800000Y-89428571D01*
X170847619Y-89380952D01*
X170942857Y-89333333D01*
X171133333Y-89285714D01*
X171371428Y-89285714D01*
X171561904Y-89333333D01*
X171657142Y-89380952D01*
X171704761Y-89428571D01*
X171752380Y-89523809D01*
X171752380Y-89619047D01*
X171704761Y-89714285D01*
X171657142Y-89761904D01*
X171561904Y-89809523D01*
X171371428Y-89857142D01*
X171133333Y-89857142D01*
X170942857Y-89809523D01*
X170847619Y-89761904D01*
X170800000Y-89714285D01*
X170752380Y-89619047D01*
X171752380Y-88095238D02*
X171085714Y-88095238D01*
X171180952Y-88095238D02*
X171133333Y-88047619D01*
X171085714Y-87952380D01*
X171085714Y-87809523D01*
X171133333Y-87714285D01*
X171228571Y-87666666D01*
X171752380Y-87666666D01*
X171228571Y-87666666D02*
X171133333Y-87619047D01*
X171085714Y-87523809D01*
X171085714Y-87380952D01*
X171133333Y-87285714D01*
X171228571Y-87238095D01*
X171752380Y-87238095D01*
X171752380Y-86761904D02*
X171085714Y-86761904D01*
X171180952Y-86761904D02*
X171133333Y-86714285D01*
X171085714Y-86619047D01*
X171085714Y-86476190D01*
X171133333Y-86380952D01*
X171228571Y-86333333D01*
X171752380Y-86333333D01*
X171228571Y-86333333D02*
X171133333Y-86285714D01*
X171085714Y-86190476D01*
X171085714Y-86047619D01*
X171133333Y-85952380D01*
X171228571Y-85904761D01*
X171752380Y-85904761D01*
X170000000Y-110000000D02*
X170000000Y-70000000D01*
X160000000Y-110000000D02*
X170586421Y-110000000D01*
X160000000Y-70000000D02*
X170586421Y-70000000D01*
X170000000Y-70000000D02*
X170586421Y-71126504D01*
X170000000Y-70000000D02*
X169413579Y-71126504D01*
X170000000Y-110000000D02*
X170586421Y-108873496D01*
X170000000Y-110000000D02*
X169413579Y-108873496D01*
X120809523Y-58152380D02*
X121476190Y-58152380D01*
X121047619Y-59152380D01*
X122047619Y-58152380D02*
X122142857Y-58152380D01*
X122238095Y-58200000D01*
X122285714Y-58247619D01*
X122333333Y-58342857D01*
X122380952Y-58533333D01*
X122380952Y-58771428D01*
X122333333Y-58961904D01*
X122285714Y-59057142D01*
X122238095Y-59104761D01*
X122142857Y-59152380D01*
X122047619Y-59152380D01*
X121952380Y-59104761D01*
X121904761Y-59057142D01*
X121857142Y-58961904D01*
X121809523Y-58771428D01*
X121809523Y-58533333D01*
X121857142Y-58342857D01*
X121904761Y-58247619D01*
X121952380Y-58200000D01*
X122047619Y-58152380D01*
X122857142Y-59104761D02*
X122857142Y-59152380D01*
X122809523Y-59247619D01*
X122761904Y-59295238D01*
X123476190Y-58152380D02*
X123571428Y-58152380D01*
X123666666Y-58200000D01*
X123714285Y-58247619D01*
X123761904Y-58342857D01*
X123809523Y-58533333D01*
X123809523Y-58771428D01*
X123761904Y-58961904D01*
X123714285Y-59057142D01*
X123666666Y-59104761D01*
X123571428Y-59152380D01*
X123476190Y-59152380D01*
X123380952Y-59104761D01*
X123333333Y-59057142D01*
X123285714Y-58961904D01*
X123238095Y-58771428D01*
X123238095Y-58533333D01*
X123285714Y-58342857D01*
X123333333Y-58247619D01*
X123380952Y-58200000D01*
X123476190Y-58152380D01*
X124428571Y-58152380D02*
X124523809Y-58152380D01*
X124619047Y-58200000D01*
X124666666Y-58247619D01*
X124714285Y-58342857D01*
X124761904Y-58533333D01*
X124761904Y-58771428D01*
X124714285Y-58961904D01*
X124666666Y-59057142D01*
X124619047Y-59104761D01*
X124523809Y-59152380D01*
X124428571Y-59152380D01*
X124333333Y-59104761D01*
X124285714Y-59057142D01*
X124238095Y-58961904D01*
X124190476Y-58771428D01*
X124190476Y-58533333D01*
X124238095Y-58342857D01*
X124285714Y-58247619D01*
X124333333Y-58200000D01*
X124428571Y-58152380D01*
X125380952Y-58152380D02*
X125476190Y-58152380D01*
X125571428Y-58200000D01*
X125619047Y-58247619D01*
X125666666Y-58342857D01*
X125714285Y-58533333D01*
X125714285Y-58771428D01*
X125666666Y-58961904D01*
X125619047Y-59057142D01*
X125571428Y-59104761D01*
X125476190Y-59152380D01*
X125380952Y-59152380D01*
X125285714Y-59104761D01*
X125238095Y-59057142D01*
X125190476Y-58961904D01*
X125142857Y-58771428D01*
X125142857Y-58533333D01*
X125190476Y-58342857D01*
X125238095Y-58247619D01*
X125285714Y-58200000D01*
X125380952Y-58152380D01*
X126904761Y-59152380D02*
X126904761Y-58485714D01*
X126904761Y-58580952D02*
X126952380Y-58533333D01*
X127047619Y-58485714D01*
X127190476Y-58485714D01*
X127285714Y-58533333D01*
X127333333Y-58628571D01*
X127333333Y-59152380D01*
X127333333Y-58628571D02*
X127380952Y-58533333D01*
X127476190Y-58485714D01*
X127619047Y-58485714D01*
X127714285Y-58533333D01*
X127761904Y-58628571D01*
X127761904Y-59152380D01*
X128238095Y-59152380D02*
X128238095Y-58485714D01*
X128238095Y-58580952D02*
X128285714Y-58533333D01*
X128380952Y-58485714D01*
X128523809Y-58485714D01*
X128619047Y-58533333D01*
X128666666Y-58628571D01*
X128666666Y-59152380D01*
X128666666Y-58628571D02*
X128714285Y-58533333D01*
X128809523Y-58485714D01*
X128952380Y-58485714D01*
X129047619Y-58533333D01*
X129095238Y-58628571D01*
X129095238Y-59152380D01*
X90000000Y-60000000D02*
X160000000Y-60000000D01*
X90000000Y-70000000D02*
X90000000Y-59413579D01*
X160000000Y-70000000D02*
X160000000Y-59413579D01*
X160000000Y-60000000D02*
X158873496Y-60586421D01*
X160000000Y-60000000D02*
X158873496Y-59413579D01*
X90000000Y-60000000D02*
X91126504Y-60586421D01*
X90000000Y-60000000D02*
X91126504Y-59413579D01*
D11*
X181693571Y-49357142D02*
X180693571Y-47928571D01*
X179979285Y-49357142D02*
X179979285Y-46357142D01*
X181122142Y-46357142D01*
X181407857Y-46500000D01*
X181550714Y-46642857D01*
X181693571Y-46928571D01*
X181693571Y-47357142D01*
X181550714Y-47642857D01*
X181407857Y-47785714D01*
X181122142Y-47928571D01*
X179979285Y-47928571D01*
X184122142Y-49214285D02*
X183836428Y-49357142D01*
X183265000Y-49357142D01*
X182979285Y-49214285D01*
X182836428Y-48928571D01*
X182836428Y-47785714D01*
X182979285Y-47500000D01*
X183265000Y-47357142D01*
X183836428Y-47357142D01*
X184122142Y-47500000D01*
X184265000Y-47785714D01*
X184265000Y-48071428D01*
X182836428Y-48357142D01*
X185122142Y-47357142D02*
X186265000Y-47357142D01*
X185550714Y-49357142D02*
X185550714Y-46785714D01*
X185693571Y-46500000D01*
X185979285Y-46357142D01*
X186265000Y-46357142D01*
X188407857Y-49214285D02*
X188122142Y-49357142D01*
X187550714Y-49357142D01*
X187265000Y-49214285D01*
X187122142Y-48928571D01*
X187122142Y-47785714D01*
X187265000Y-47500000D01*
X187550714Y-47357142D01*
X188122142Y-47357142D01*
X188407857Y-47500000D01*
X188550714Y-47785714D01*
X188550714Y-48071428D01*
X187122142Y-48357142D01*
X189836428Y-49357142D02*
X189836428Y-47357142D01*
X189836428Y-47928571D02*
X189979285Y-47642857D01*
X190122142Y-47500000D01*
X190407857Y-47357142D01*
X190693571Y-47357142D01*
X192836428Y-49214285D02*
X192550714Y-49357142D01*
X191979285Y-49357142D01*
X191693571Y-49214285D01*
X191550714Y-48928571D01*
X191550714Y-47785714D01*
X191693571Y-47500000D01*
X191979285Y-47357142D01*
X192550714Y-47357142D01*
X192836428Y-47500000D01*
X192979285Y-47785714D01*
X192979285Y-48071428D01*
X191550714Y-48357142D01*
X194265000Y-47357142D02*
X194265000Y-49357142D01*
X194265000Y-47642857D02*
X194407857Y-47500000D01*
X194693571Y-47357142D01*
X195122142Y-47357142D01*
X195407857Y-47500000D01*
X195550714Y-47785714D01*
X195550714Y-49357142D01*
X198265000Y-49214285D02*
X197979285Y-49357142D01*
X197407857Y-49357142D01*
X197122142Y-49214285D01*
X196979285Y-49071428D01*
X196836428Y-48785714D01*
X196836428Y-47928571D01*
X196979285Y-47642857D01*
X197122142Y-47500000D01*
X197407857Y-47357142D01*
X197979285Y-47357142D01*
X198265000Y-47500000D01*
X200693571Y-49214285D02*
X200407857Y-49357142D01*
X199836428Y-49357142D01*
X199550714Y-49214285D01*
X199407857Y-48928571D01*
X199407857Y-47785714D01*
X199550714Y-47500000D01*
X199836428Y-47357142D01*
X200407857Y-47357142D01*
X200693571Y-47500000D01*
X200836428Y-47785714D01*
X200836428Y-48071428D01*
X199407857Y-48357142D01*
X203979285Y-47357142D02*
X205122142Y-47357142D01*
X204407857Y-46357142D02*
X204407857Y-48928571D01*
X204550714Y-49214285D01*
X204836428Y-49357142D01*
X205122142Y-49357142D01*
X207265000Y-49214285D02*
X206979285Y-49357142D01*
X206407857Y-49357142D01*
X206122142Y-49214285D01*
X205979285Y-48928571D01*
X205979285Y-47785714D01*
X206122142Y-47500000D01*
X206407857Y-47357142D01*
X206979285Y-47357142D01*
X207265000Y-47500000D01*
X207407857Y-47785714D01*
X207407857Y-48071428D01*
X205979285Y-48357142D01*
X209979285Y-49214285D02*
X209693571Y-49357142D01*
X209122142Y-49357142D01*
X208836428Y-49214285D01*
X208693571Y-49071428D01*
X208550714Y-48785714D01*
X208550714Y-47928571D01*
X208693571Y-47642857D01*
X208836428Y-47500000D01*
X209122142Y-47357142D01*
X209693571Y-47357142D01*
X209979285Y-47500000D01*
X211265000Y-49357142D02*
X211265000Y-46357142D01*
X212550714Y-49357142D02*
X212550714Y-47785714D01*
X212407857Y-47500000D01*
X212122142Y-47357142D01*
X211693571Y-47357142D01*
X211407857Y-47500000D01*
X211265000Y-47642857D01*
X213979285Y-47357142D02*
X213979285Y-49357142D01*
X213979285Y-47642857D02*
X214122142Y-47500000D01*
X214407857Y-47357142D01*
X214836428Y-47357142D01*
X215122142Y-47500000D01*
X215265000Y-47785714D01*
X215265000Y-49357142D01*
X217122142Y-49357142D02*
X216836428Y-49214285D01*
X216693571Y-49071428D01*
X216550714Y-48785714D01*
X216550714Y-47928571D01*
X216693571Y-47642857D01*
X216836428Y-47500000D01*
X217122142Y-47357142D01*
X217550714Y-47357142D01*
X217836428Y-47500000D01*
X217979285Y-47642857D01*
X218122142Y-47928571D01*
X218122142Y-48785714D01*
X217979285Y-49071428D01*
X217836428Y-49214285D01*
X217550714Y-49357142D01*
X217122142Y-49357142D01*
X219836428Y-49357142D02*
X219550714Y-49214285D01*
X219407857Y-48928571D01*
X219407857Y-46357142D01*
X221407857Y-49357142D02*
X221122142Y-49214285D01*
X220979285Y-49071428D01*
X220836428Y-48785714D01*
X220836428Y-47928571D01*
X220979285Y-47642857D01*
X221122142Y-47500000D01*
X221407857Y-47357142D01*
X221836428Y-47357142D01*
X222122142Y-47500000D01*
X222265000Y-47642857D01*
X222407857Y-47928571D01*
X222407857Y-48785714D01*
X222265000Y-49071428D01*
X222122142Y-49214285D01*
X221836428Y-49357142D01*
X221407857Y-49357142D01*
X224979285Y-47357142D02*
X224979285Y-49785714D01*
X224836428Y-50071428D01*
X224693571Y-50214285D01*
X224407857Y-50357142D01*
X223979285Y-50357142D01*
X223693571Y-50214285D01*
X224979285Y-49214285D02*
X224693571Y-49357142D01*
X224122142Y-49357142D01*
X223836428Y-49214285D01*
X223693571Y-49071428D01*
X223550714Y-48785714D01*
X223550714Y-47928571D01*
X223693571Y-47642857D01*
X223836428Y-47500000D01*
X224122142Y-47357142D01*
X224693571Y-47357142D01*
X224979285Y-47500000D01*
X226122142Y-47357142D02*
X226836428Y-49357142D01*
X227550714Y-47357142D02*
X226836428Y-49357142D01*
X226550714Y-50071428D01*
X226407857Y-50214285D01*
X226122142Y-50357142D01*
X228693571Y-49071428D02*
X228836428Y-49214285D01*
X228693571Y-49357142D01*
X228550714Y-49214285D01*
X228693571Y-49071428D01*
X228693571Y-49357142D01*
X228693571Y-47500000D02*
X228836428Y-47642857D01*
X228693571Y-47785714D01*
X228550714Y-47642857D01*
X228693571Y-47500000D01*
X228693571Y-47785714D01*
X232836428Y-47642857D02*
X232550714Y-47500000D01*
X232407857Y-47357142D01*
X232265000Y-47071428D01*
X232265000Y-46928571D01*
X232407857Y-46642857D01*
X232550714Y-46500000D01*
X232836428Y-46357142D01*
X233407857Y-46357142D01*
X233693571Y-46500000D01*
X233836428Y-46642857D01*
X233979285Y-46928571D01*
X233979285Y-47071428D01*
X233836428Y-47357142D01*
X233693571Y-47500000D01*
X233407857Y-47642857D01*
X232836428Y-47642857D01*
X232550714Y-47785714D01*
X232407857Y-47928571D01*
X232265000Y-48214285D01*
X232265000Y-48785714D01*
X232407857Y-49071428D01*
X232550714Y-49214285D01*
X232836428Y-49357142D01*
X233407857Y-49357142D01*
X233693571Y-49214285D01*
X233836428Y-49071428D01*
X233979285Y-48785714D01*
X233979285Y-48214285D01*
X233836428Y-47928571D01*
X233693571Y-47785714D01*
X233407857Y-47642857D01*
X237550714Y-49357142D02*
X237550714Y-47357142D01*
X237550714Y-47642857D02*
X237693571Y-47500000D01*
X237979285Y-47357142D01*
X238407857Y-47357142D01*
X238693571Y-47500000D01*
X238836428Y-47785714D01*
X238836428Y-49357142D01*
X238836428Y-47785714D02*
X238979285Y-47500000D01*
X239265000Y-47357142D01*
X239693571Y-47357142D01*
X239979285Y-47500000D01*
X240122142Y-47785714D01*
X240122142Y-49357142D01*
X241550714Y-49357142D02*
X241550714Y-47357142D01*
X241550714Y-46357142D02*
X241407857Y-46500000D01*
X241550714Y-46642857D01*
X241693571Y-46500000D01*
X241550714Y-46357142D01*
X241550714Y-46642857D01*
X243407857Y-49357142D02*
X243122142Y-49214285D01*
X242979285Y-48928571D01*
X242979285Y-46357142D01*
X244407857Y-49214285D02*
X244693571Y-49357142D01*
X245265000Y-49357142D01*
X245550714Y-49214285D01*
X245693571Y-48928571D01*
X245693571Y-48785714D01*
X245550714Y-48500000D01*
X245265000Y-48357142D01*
X244836428Y-48357142D01*
X244550714Y-48214285D01*
X244407857Y-47928571D01*
X244407857Y-47785714D01*
X244550714Y-47500000D01*
X244836428Y-47357142D01*
X245265000Y-47357142D01*
X245550714Y-47500000D01*
X179836428Y-54014285D02*
X180265000Y-54157142D01*
X180979285Y-54157142D01*
X181265000Y-54014285D01*
X181407857Y-53871428D01*
X181550714Y-53585714D01*
X181550714Y-53300000D01*
X181407857Y-53014285D01*
X181265000Y-52871428D01*
X180979285Y-52728571D01*
X180407857Y-52585714D01*
X180122142Y-52442857D01*
X179979285Y-52300000D01*
X179836428Y-52014285D01*
X179836428Y-51728571D01*
X179979285Y-51442857D01*
X180122142Y-51300000D01*
X180407857Y-51157142D01*
X181122142Y-51157142D01*
X181550714Y-51300000D01*
X182836428Y-54157142D02*
X182836428Y-52157142D01*
X182836428Y-51157142D02*
X182693571Y-51300000D01*
X182836428Y-51442857D01*
X182979285Y-51300000D01*
X182836428Y-51157142D01*
X182836428Y-51442857D01*
X183979285Y-52157142D02*
X185550714Y-52157142D01*
X183979285Y-54157142D01*
X185550714Y-54157142D01*
X187836428Y-54014285D02*
X187550714Y-54157142D01*
X186979285Y-54157142D01*
X186693571Y-54014285D01*
X186550714Y-53728571D01*
X186550714Y-52585714D01*
X186693571Y-52300000D01*
X186979285Y-52157142D01*
X187550714Y-52157142D01*
X187836428Y-52300000D01*
X187979285Y-52585714D01*
X187979285Y-52871428D01*
X186550714Y-53157142D01*
X189265000Y-53871428D02*
X189407857Y-54014285D01*
X189265000Y-54157142D01*
X189122142Y-54014285D01*
X189265000Y-53871428D01*
X189265000Y-54157142D01*
X189265000Y-52300000D02*
X189407857Y-52442857D01*
X189265000Y-52585714D01*
X189122142Y-52442857D01*
X189265000Y-52300000D01*
X189265000Y-52585714D01*
X192693571Y-51157142D02*
X194693571Y-51157142D01*
X193407857Y-54157142D01*
X196407857Y-51157142D02*
X196693571Y-51157142D01*
X196979285Y-51300000D01*
X197122142Y-51442857D01*
X197265000Y-51728571D01*
X197407857Y-52300000D01*
X197407857Y-53014285D01*
X197265000Y-53585714D01*
X197122142Y-53871428D01*
X196979285Y-54014285D01*
X196693571Y-54157142D01*
X196407857Y-54157142D01*
X196122142Y-54014285D01*
X195979285Y-53871428D01*
X195836428Y-53585714D01*
X195693571Y-53014285D01*
X195693571Y-52300000D01*
X195836428Y-51728571D01*
X195979285Y-51442857D01*
X196122142Y-51300000D01*
X196407857Y-51157142D01*
X200693571Y-54157142D02*
X202265000Y-52157142D01*
X200693571Y-52157142D02*
X202265000Y-54157142D01*
X206979285Y-52157142D02*
X206979285Y-54157142D01*
X206265000Y-51014285D02*
X205550714Y-53157142D01*
X207407857Y-53157142D01*
X209122142Y-51157142D02*
X209407857Y-51157142D01*
X209693571Y-51300000D01*
X209836428Y-51442857D01*
X209979285Y-51728571D01*
X210122142Y-52300000D01*
X210122142Y-53014285D01*
X209979285Y-53585714D01*
X209836428Y-53871428D01*
X209693571Y-54014285D01*
X209407857Y-54157142D01*
X209122142Y-54157142D01*
X208836428Y-54014285D01*
X208693571Y-53871428D01*
X208550714Y-53585714D01*
X208407857Y-53014285D01*
X208407857Y-52300000D01*
X208550714Y-51728571D01*
X208693571Y-51442857D01*
X208836428Y-51300000D01*
X209122142Y-51157142D01*
X213693571Y-54157142D02*
X213693571Y-52157142D01*
X213693571Y-52442857D02*
X213836428Y-52300000D01*
X214122142Y-52157142D01*
X214550714Y-52157142D01*
X214836428Y-52300000D01*
X214979285Y-52585714D01*
X214979285Y-54157142D01*
X214979285Y-52585714D02*
X215122142Y-52300000D01*
X215407857Y-52157142D01*
X215836428Y-52157142D01*
X216122142Y-52300000D01*
X216265000Y-52585714D01*
X216265000Y-54157142D01*
X217693571Y-54157142D02*
X217693571Y-52157142D01*
X217693571Y-52442857D02*
X217836428Y-52300000D01*
X218122142Y-52157142D01*
X218550714Y-52157142D01*
X218836428Y-52300000D01*
X218979285Y-52585714D01*
X218979285Y-54157142D01*
X218979285Y-52585714D02*
X219122142Y-52300000D01*
X219407857Y-52157142D01*
X219836428Y-52157142D01*
X220122142Y-52300000D01*
X220265000Y-52585714D01*
X220265000Y-54157142D01*
X179550714Y-55957142D02*
X181265000Y-55957142D01*
X180407857Y-58957142D02*
X180407857Y-55957142D01*
X182265000Y-58957142D02*
X182265000Y-55957142D01*
X183550714Y-58957142D02*
X183550714Y-57385714D01*
X183407857Y-57100000D01*
X183122142Y-56957142D01*
X182693571Y-56957142D01*
X182407857Y-57100000D01*
X182265000Y-57242857D01*
X184979285Y-58957142D02*
X184979285Y-56957142D01*
X184979285Y-55957142D02*
X184836428Y-56100000D01*
X184979285Y-56242857D01*
X185122142Y-56100000D01*
X184979285Y-55957142D01*
X184979285Y-56242857D01*
X186407857Y-56957142D02*
X186407857Y-58957142D01*
X186407857Y-57242857D02*
X186550714Y-57100000D01*
X186836428Y-56957142D01*
X187265000Y-56957142D01*
X187550714Y-57100000D01*
X187693571Y-57385714D01*
X187693571Y-58957142D01*
X189122142Y-56957142D02*
X189122142Y-58957142D01*
X189122142Y-57242857D02*
X189265000Y-57100000D01*
X189550714Y-56957142D01*
X189979285Y-56957142D01*
X190265000Y-57100000D01*
X190407857Y-57385714D01*
X190407857Y-58957142D01*
X192979285Y-58814285D02*
X192693571Y-58957142D01*
X192122142Y-58957142D01*
X191836428Y-58814285D01*
X191693571Y-58528571D01*
X191693571Y-57385714D01*
X191836428Y-57100000D01*
X192122142Y-56957142D01*
X192693571Y-56957142D01*
X192979285Y-57100000D01*
X193122142Y-57385714D01*
X193122142Y-57671428D01*
X191693571Y-57957142D01*
X194407857Y-58957142D02*
X194407857Y-56957142D01*
X194407857Y-57528571D02*
X194550714Y-57242857D01*
X194693571Y-57100000D01*
X194979285Y-56957142D01*
X195265000Y-56957142D01*
X198122142Y-56957142D02*
X199265000Y-56957142D01*
X198550714Y-55957142D02*
X198550714Y-58528571D01*
X198693571Y-58814285D01*
X198979285Y-58957142D01*
X199265000Y-58957142D01*
X200265000Y-58957142D02*
X200265000Y-56957142D01*
X200265000Y-57528571D02*
X200407857Y-57242857D01*
X200550714Y-57100000D01*
X200836428Y-56957142D01*
X201122142Y-56957142D01*
X203407857Y-58957142D02*
X203407857Y-57385714D01*
X203265000Y-57100000D01*
X202979285Y-56957142D01*
X202407857Y-56957142D01*
X202122142Y-57100000D01*
X203407857Y-58814285D02*
X203122142Y-58957142D01*
X202407857Y-58957142D01*
X202122142Y-58814285D01*
X201979285Y-58528571D01*
X201979285Y-58242857D01*
X202122142Y-57957142D01*
X202407857Y-57814285D01*
X203122142Y-57814285D01*
X203407857Y-57671428D01*
X206122142Y-58814285D02*
X205836428Y-58957142D01*
X205265000Y-58957142D01*
X204979285Y-58814285D01*
X204836428Y-58671428D01*
X204693571Y-58385714D01*
X204693571Y-57528571D01*
X204836428Y-57242857D01*
X204979285Y-57100000D01*
X205265000Y-56957142D01*
X205836428Y-56957142D01*
X206122142Y-57100000D01*
X207407857Y-58957142D02*
X207407857Y-55957142D01*
X207693571Y-57814285D02*
X208550714Y-58957142D01*
X208550714Y-56957142D02*
X207407857Y-58100000D01*
X209836428Y-58671428D02*
X209979285Y-58814285D01*
X209836428Y-58957142D01*
X209693571Y-58814285D01*
X209836428Y-58671428D01*
X209836428Y-58957142D01*
X209836428Y-57100000D02*
X209979285Y-57242857D01*
X209836428Y-57385714D01*
X209693571Y-57242857D01*
X209836428Y-57100000D01*
X209836428Y-57385714D01*
X214122142Y-55957142D02*
X214407857Y-55957142D01*
X214693571Y-56100000D01*
X214836428Y-56242857D01*
X214979285Y-56528571D01*
X215122142Y-57100000D01*
X215122142Y-57814285D01*
X214979285Y-58385714D01*
X214836428Y-58671428D01*
X214693571Y-58814285D01*
X214407857Y-58957142D01*
X214122142Y-58957142D01*
X213836428Y-58814285D01*
X213693571Y-58671428D01*
X213550714Y-58385714D01*
X213407857Y-57814285D01*
X213407857Y-57100000D01*
X213550714Y-56528571D01*
X213693571Y-56242857D01*
X213836428Y-56100000D01*
X214122142Y-55957142D01*
X216407857Y-58671428D02*
X216550714Y-58814285D01*
X216407857Y-58957142D01*
X216265000Y-58814285D01*
X216407857Y-58671428D01*
X216407857Y-58957142D01*
X217693571Y-56242857D02*
X217836428Y-56100000D01*
X218122142Y-55957142D01*
X218836428Y-55957142D01*
X219122142Y-56100000D01*
X219265000Y-56242857D01*
X219407857Y-56528571D01*
X219407857Y-56814285D01*
X219265000Y-57242857D01*
X217550714Y-58957142D01*
X219407857Y-58957142D01*
X222122142Y-55957142D02*
X220693571Y-55957142D01*
X220550714Y-57385714D01*
X220693571Y-57242857D01*
X220979285Y-57100000D01*
X221693571Y-57100000D01*
X221979285Y-57242857D01*
X222122142Y-57385714D01*
X222265000Y-57671428D01*
X222265000Y-58385714D01*
X222122142Y-58671428D01*
X221979285Y-58814285D01*
X221693571Y-58957142D01*
X220979285Y-58957142D01*
X220693571Y-58814285D01*
X220550714Y-58671428D01*
X225836428Y-58957142D02*
X225836428Y-56957142D01*
X225836428Y-57242857D02*
X225979285Y-57100000D01*
X226265000Y-56957142D01*
X226693571Y-56957142D01*
X226979285Y-57100000D01*
X227122142Y-57385714D01*
X227122142Y-58957142D01*
X227122142Y-57385714D02*
X227265000Y-57100000D01*
X227550714Y-56957142D01*
X227979285Y-56957142D01*
X228265000Y-57100000D01*
X228407857Y-57385714D01*
X228407857Y-58957142D01*
X229836428Y-58957142D02*
X229836428Y-56957142D01*
X229836428Y-57242857D02*
X229979285Y-57100000D01*
X230265000Y-56957142D01*
X230693571Y-56957142D01*
X230979285Y-57100000D01*
X231122142Y-57385714D01*
X231122142Y-58957142D01*
X231122142Y-57385714D02*
X231265000Y-57100000D01*
X231550714Y-56957142D01*
X231979285Y-56957142D01*
X232265000Y-57100000D01*
X232407857Y-57385714D01*
X232407857Y-58957142D01*
X179979285Y-63757142D02*
X179979285Y-60757142D01*
X180979285Y-62900000D01*
X181979285Y-60757142D01*
X181979285Y-63757142D01*
X183407857Y-63757142D02*
X183407857Y-61757142D01*
X183407857Y-60757142D02*
X183265000Y-60900000D01*
X183407857Y-61042857D01*
X183550714Y-60900000D01*
X183407857Y-60757142D01*
X183407857Y-61042857D01*
X184836428Y-61757142D02*
X184836428Y-63757142D01*
X184836428Y-62042857D02*
X184979285Y-61900000D01*
X185265000Y-61757142D01*
X185693571Y-61757142D01*
X185979285Y-61900000D01*
X186122142Y-62185714D01*
X186122142Y-63757142D01*
X189836428Y-63757142D02*
X189836428Y-60757142D01*
X191122142Y-63757142D02*
X191122142Y-62185714D01*
X190979285Y-61900000D01*
X190693571Y-61757142D01*
X190265000Y-61757142D01*
X189979285Y-61900000D01*
X189836428Y-62042857D01*
X192979285Y-63757142D02*
X192693571Y-63614285D01*
X192550714Y-63471428D01*
X192407857Y-63185714D01*
X192407857Y-62328571D01*
X192550714Y-62042857D01*
X192693571Y-61900000D01*
X192979285Y-61757142D01*
X193407857Y-61757142D01*
X193693571Y-61900000D01*
X193836428Y-62042857D01*
X193979285Y-62328571D01*
X193979285Y-63185714D01*
X193836428Y-63471428D01*
X193693571Y-63614285D01*
X193407857Y-63757142D01*
X192979285Y-63757142D01*
X195693571Y-63757142D02*
X195407857Y-63614285D01*
X195265000Y-63328571D01*
X195265000Y-60757142D01*
X197979285Y-63614285D02*
X197693571Y-63757142D01*
X197122142Y-63757142D01*
X196836428Y-63614285D01*
X196693571Y-63328571D01*
X196693571Y-62185714D01*
X196836428Y-61900000D01*
X197122142Y-61757142D01*
X197693571Y-61757142D01*
X197979285Y-61900000D01*
X198122142Y-62185714D01*
X198122142Y-62471428D01*
X196693571Y-62757142D01*
X201550714Y-63614285D02*
X201836428Y-63757142D01*
X202407857Y-63757142D01*
X202693571Y-63614285D01*
X202836428Y-63328571D01*
X202836428Y-63185714D01*
X202693571Y-62900000D01*
X202407857Y-62757142D01*
X201979285Y-62757142D01*
X201693571Y-62614285D01*
X201550714Y-62328571D01*
X201550714Y-62185714D01*
X201693571Y-61900000D01*
X201979285Y-61757142D01*
X202407857Y-61757142D01*
X202693571Y-61900000D01*
X204122142Y-63757142D02*
X204122142Y-61757142D01*
X204122142Y-60757142D02*
X203979285Y-60900000D01*
X204122142Y-61042857D01*
X204265000Y-60900000D01*
X204122142Y-60757142D01*
X204122142Y-61042857D01*
X205265000Y-61757142D02*
X206836428Y-61757142D01*
X205265000Y-63757142D01*
X206836428Y-63757142D01*
X209122142Y-63614285D02*
X208836428Y-63757142D01*
X208265000Y-63757142D01*
X207979285Y-63614285D01*
X207836428Y-63328571D01*
X207836428Y-62185714D01*
X207979285Y-61900000D01*
X208265000Y-61757142D01*
X208836428Y-61757142D01*
X209122142Y-61900000D01*
X209265000Y-62185714D01*
X209265000Y-62471428D01*
X207836428Y-62757142D01*
X210550714Y-63471428D02*
X210693571Y-63614285D01*
X210550714Y-63757142D01*
X210407857Y-63614285D01*
X210550714Y-63471428D01*
X210550714Y-63757142D01*
X210550714Y-61900000D02*
X210693571Y-62042857D01*
X210550714Y-62185714D01*
X210407857Y-62042857D01*
X210550714Y-61900000D01*
X210550714Y-62185714D01*
X214836428Y-60757142D02*
X215122142Y-60757142D01*
X215407857Y-60900000D01*
X215550714Y-61042857D01*
X215693571Y-61328571D01*
X215836428Y-61900000D01*
X215836428Y-62614285D01*
X215693571Y-63185714D01*
X215550714Y-63471428D01*
X215407857Y-63614285D01*
X215122142Y-63757142D01*
X214836428Y-63757142D01*
X214550714Y-63614285D01*
X214407857Y-63471428D01*
X214265000Y-63185714D01*
X214122142Y-62614285D01*
X214122142Y-61900000D01*
X214265000Y-61328571D01*
X214407857Y-61042857D01*
X214550714Y-60900000D01*
X214836428Y-60757142D01*
X217122142Y-63471428D02*
X217265000Y-63614285D01*
X217122142Y-63757142D01*
X216979285Y-63614285D01*
X217122142Y-63471428D01*
X217122142Y-63757142D01*
X219836428Y-61757142D02*
X219836428Y-63757142D01*
X219122142Y-60614285D02*
X218407857Y-62757142D01*
X220265000Y-62757142D01*
X223693571Y-63757142D02*
X223693571Y-61757142D01*
X223693571Y-62042857D02*
X223836428Y-61900000D01*
X224122142Y-61757142D01*
X224550714Y-61757142D01*
X224836428Y-61900000D01*
X224979285Y-62185714D01*
X224979285Y-63757142D01*
X224979285Y-62185714D02*
X225122142Y-61900000D01*
X225407857Y-61757142D01*
X225836428Y-61757142D01*
X226122142Y-61900000D01*
X226265000Y-62185714D01*
X226265000Y-63757142D01*
X227693571Y-63757142D02*
X227693571Y-61757142D01*
X227693571Y-62042857D02*
X227836428Y-61900000D01*
X228122142Y-61757142D01*
X228550714Y-61757142D01*
X228836428Y-61900000D01*
X228979285Y-62185714D01*
X228979285Y-63757142D01*
X228979285Y-62185714D02*
X229122142Y-61900000D01*
X229407857Y-61757142D01*
X229836428Y-61757142D01*
X230122142Y-61900000D01*
X230265000Y-62185714D01*
X230265000Y-63757142D01*
X179979285Y-68557142D02*
X179979285Y-65557142D01*
X180979285Y-67700000D01*
X181979285Y-65557142D01*
X181979285Y-68557142D01*
X183407857Y-68557142D02*
X183407857Y-66557142D01*
X183407857Y-65557142D02*
X183265000Y-65700000D01*
X183407857Y-65842857D01*
X183550714Y-65700000D01*
X183407857Y-65557142D01*
X183407857Y-65842857D01*
X184836428Y-66557142D02*
X184836428Y-68557142D01*
X184836428Y-66842857D02*
X184979285Y-66700000D01*
X185265000Y-66557142D01*
X185693571Y-66557142D01*
X185979285Y-66700000D01*
X186122142Y-66985714D01*
X186122142Y-68557142D01*
X189407857Y-66557142D02*
X190550714Y-66557142D01*
X189836428Y-65557142D02*
X189836428Y-68128571D01*
X189979285Y-68414285D01*
X190265000Y-68557142D01*
X190550714Y-68557142D01*
X191550714Y-68557142D02*
X191550714Y-66557142D01*
X191550714Y-67128571D02*
X191693571Y-66842857D01*
X191836428Y-66700000D01*
X192122142Y-66557142D01*
X192407857Y-66557142D01*
X194693571Y-68557142D02*
X194693571Y-66985714D01*
X194550714Y-66700000D01*
X194265000Y-66557142D01*
X193693571Y-66557142D01*
X193407857Y-66700000D01*
X194693571Y-68414285D02*
X194407857Y-68557142D01*
X193693571Y-68557142D01*
X193407857Y-68414285D01*
X193265000Y-68128571D01*
X193265000Y-67842857D01*
X193407857Y-67557142D01*
X193693571Y-67414285D01*
X194407857Y-67414285D01*
X194693571Y-67271428D01*
X197407857Y-68414285D02*
X197122142Y-68557142D01*
X196550714Y-68557142D01*
X196265000Y-68414285D01*
X196122142Y-68271428D01*
X195979285Y-67985714D01*
X195979285Y-67128571D01*
X196122142Y-66842857D01*
X196265000Y-66700000D01*
X196550714Y-66557142D01*
X197122142Y-66557142D01*
X197407857Y-66700000D01*
X198693571Y-68557142D02*
X198693571Y-65557142D01*
X198979285Y-67414285D02*
X199836428Y-68557142D01*
X199836428Y-66557142D02*
X198693571Y-67700000D01*
X203265000Y-68414285D02*
X203550714Y-68557142D01*
X204122142Y-68557142D01*
X204407857Y-68414285D01*
X204550714Y-68128571D01*
X204550714Y-67985714D01*
X204407857Y-67700000D01*
X204122142Y-67557142D01*
X203693571Y-67557142D01*
X203407857Y-67414285D01*
X203265000Y-67128571D01*
X203265000Y-66985714D01*
X203407857Y-66700000D01*
X203693571Y-66557142D01*
X204122142Y-66557142D01*
X204407857Y-66700000D01*
X205836428Y-66557142D02*
X205836428Y-69557142D01*
X205836428Y-66700000D02*
X206122142Y-66557142D01*
X206693571Y-66557142D01*
X206979285Y-66700000D01*
X207122142Y-66842857D01*
X207265000Y-67128571D01*
X207265000Y-67985714D01*
X207122142Y-68271428D01*
X206979285Y-68414285D01*
X206693571Y-68557142D01*
X206122142Y-68557142D01*
X205836428Y-68414285D01*
X209836428Y-68557142D02*
X209836428Y-66985714D01*
X209693571Y-66700000D01*
X209407857Y-66557142D01*
X208836428Y-66557142D01*
X208550714Y-66700000D01*
X209836428Y-68414285D02*
X209550714Y-68557142D01*
X208836428Y-68557142D01*
X208550714Y-68414285D01*
X208407857Y-68128571D01*
X208407857Y-67842857D01*
X208550714Y-67557142D01*
X208836428Y-67414285D01*
X209550714Y-67414285D01*
X209836428Y-67271428D01*
X212550714Y-68414285D02*
X212265000Y-68557142D01*
X211693571Y-68557142D01*
X211407857Y-68414285D01*
X211265000Y-68271428D01*
X211122142Y-67985714D01*
X211122142Y-67128571D01*
X211265000Y-66842857D01*
X211407857Y-66700000D01*
X211693571Y-66557142D01*
X212265000Y-66557142D01*
X212550714Y-66700000D01*
X213836428Y-68557142D02*
X213836428Y-66557142D01*
X213836428Y-65557142D02*
X213693571Y-65700000D01*
X213836428Y-65842857D01*
X213979285Y-65700000D01*
X213836428Y-65557142D01*
X213836428Y-65842857D01*
X215265000Y-66557142D02*
X215265000Y-68557142D01*
X215265000Y-66842857D02*
X215407857Y-66700000D01*
X215693571Y-66557142D01*
X216122142Y-66557142D01*
X216407857Y-66700000D01*
X216550714Y-66985714D01*
X216550714Y-68557142D01*
X219265000Y-66557142D02*
X219265000Y-68985714D01*
X219122142Y-69271428D01*
X218979285Y-69414285D01*
X218693571Y-69557142D01*
X218265000Y-69557142D01*
X217979285Y-69414285D01*
X219265000Y-68414285D02*
X218979285Y-68557142D01*
X218407857Y-68557142D01*
X218122142Y-68414285D01*
X217979285Y-68271428D01*
X217836428Y-67985714D01*
X217836428Y-67128571D01*
X217979285Y-66842857D01*
X218122142Y-66700000D01*
X218407857Y-66557142D01*
X218979285Y-66557142D01*
X219265000Y-66700000D01*
X220693571Y-68271428D02*
X220836428Y-68414285D01*
X220693571Y-68557142D01*
X220550714Y-68414285D01*
X220693571Y-68271428D01*
X220693571Y-68557142D01*
X220693571Y-66700000D02*
X220836428Y-66842857D01*
X220693571Y-66985714D01*
X220550714Y-66842857D01*
X220693571Y-66700000D01*
X220693571Y-66985714D01*
X224979285Y-65557142D02*
X225265000Y-65557142D01*
X225550714Y-65700000D01*
X225693571Y-65842857D01*
X225836428Y-66128571D01*
X225979285Y-66700000D01*
X225979285Y-67414285D01*
X225836428Y-67985714D01*
X225693571Y-68271428D01*
X225550714Y-68414285D01*
X225265000Y-68557142D01*
X224979285Y-68557142D01*
X224693571Y-68414285D01*
X224550714Y-68271428D01*
X224407857Y-67985714D01*
X224265000Y-67414285D01*
X224265000Y-66700000D01*
X224407857Y-66128571D01*
X224550714Y-65842857D01*
X224693571Y-65700000D01*
X224979285Y-65557142D01*
X227265000Y-68271428D02*
X227407857Y-68414285D01*
X227265000Y-68557142D01*
X227122142Y-68414285D01*
X227265000Y-68271428D01*
X227265000Y-68557142D01*
X228550714Y-65842857D02*
X228693571Y-65700000D01*
X228979285Y-65557142D01*
X229693571Y-65557142D01*
X229979285Y-65700000D01*
X230122142Y-65842857D01*
X230265000Y-66128571D01*
X230265000Y-66414285D01*
X230122142Y-66842857D01*
X228407857Y-68557142D01*
X230265000Y-68557142D01*
X232979285Y-65557142D02*
X231550714Y-65557142D01*
X231407857Y-66985714D01*
X231550714Y-66842857D01*
X231836428Y-66700000D01*
X232550714Y-66700000D01*
X232836428Y-66842857D01*
X232979285Y-66985714D01*
X233122142Y-67271428D01*
X233122142Y-67985714D01*
X232979285Y-68271428D01*
X232836428Y-68414285D01*
X232550714Y-68557142D01*
X231836428Y-68557142D01*
X231550714Y-68414285D01*
X231407857Y-68271428D01*
X236693571Y-68557142D02*
X236693571Y-66557142D01*
X236693571Y-66842857D02*
X236836428Y-66700000D01*
X237122142Y-66557142D01*
X237550714Y-66557142D01*
X237836428Y-66700000D01*
X237979285Y-66985714D01*
X237979285Y-68557142D01*
X237979285Y-66985714D02*
X238122142Y-66700000D01*
X238407857Y-66557142D01*
X238836428Y-66557142D01*
X239122142Y-66700000D01*
X239265000Y-66985714D01*
X239265000Y-68557142D01*
X240693571Y-68557142D02*
X240693571Y-66557142D01*
X240693571Y-66842857D02*
X240836428Y-66700000D01*
X241122142Y-66557142D01*
X241550714Y-66557142D01*
X241836428Y-66700000D01*
X241979285Y-66985714D01*
X241979285Y-68557142D01*
X241979285Y-66985714D02*
X242122142Y-66700000D01*
X242407857Y-66557142D01*
X242836428Y-66557142D01*
X243122142Y-66700000D01*
X243265000Y-66985714D01*
X243265000Y-68557142D01*
X179979285Y-73357142D02*
X179979285Y-70357142D01*
X180693571Y-70357142D01*
X181122142Y-70500000D01*
X181407857Y-70785714D01*
X181550714Y-71071428D01*
X181693571Y-71642857D01*
X181693571Y-72071428D01*
X181550714Y-72642857D01*
X181407857Y-72928571D01*
X181122142Y-73214285D01*
X180693571Y-73357142D01*
X179979285Y-73357142D01*
X182979285Y-73357142D02*
X182979285Y-71357142D01*
X182979285Y-70357142D02*
X182836428Y-70500000D01*
X182979285Y-70642857D01*
X183122142Y-70500000D01*
X182979285Y-70357142D01*
X182979285Y-70642857D01*
X184265000Y-73214285D02*
X184550714Y-73357142D01*
X185122142Y-73357142D01*
X185407857Y-73214285D01*
X185550714Y-72928571D01*
X185550714Y-72785714D01*
X185407857Y-72500000D01*
X185122142Y-72357142D01*
X184693571Y-72357142D01*
X184407857Y-72214285D01*
X184265000Y-71928571D01*
X184265000Y-71785714D01*
X184407857Y-71500000D01*
X184693571Y-71357142D01*
X185122142Y-71357142D01*
X185407857Y-71500000D01*
X186407857Y-71357142D02*
X187550714Y-71357142D01*
X186836428Y-70357142D02*
X186836428Y-72928571D01*
X186979285Y-73214285D01*
X187265000Y-73357142D01*
X187550714Y-73357142D01*
X189836428Y-73357142D02*
X189836428Y-71785714D01*
X189693571Y-71500000D01*
X189407857Y-71357142D01*
X188836428Y-71357142D01*
X188550714Y-71500000D01*
X189836428Y-73214285D02*
X189550714Y-73357142D01*
X188836428Y-73357142D01*
X188550714Y-73214285D01*
X188407857Y-72928571D01*
X188407857Y-72642857D01*
X188550714Y-72357142D01*
X188836428Y-72214285D01*
X189550714Y-72214285D01*
X189836428Y-72071428D01*
X191265000Y-71357142D02*
X191265000Y-73357142D01*
X191265000Y-71642857D02*
X191407857Y-71500000D01*
X191693571Y-71357142D01*
X192122142Y-71357142D01*
X192407857Y-71500000D01*
X192550714Y-71785714D01*
X192550714Y-73357142D01*
X195265000Y-73214285D02*
X194979285Y-73357142D01*
X194407857Y-73357142D01*
X194122142Y-73214285D01*
X193979285Y-73071428D01*
X193836428Y-72785714D01*
X193836428Y-71928571D01*
X193979285Y-71642857D01*
X194122142Y-71500000D01*
X194407857Y-71357142D01*
X194979285Y-71357142D01*
X195265000Y-71500000D01*
X197693571Y-73214285D02*
X197407857Y-73357142D01*
X196836428Y-73357142D01*
X196550714Y-73214285D01*
X196407857Y-72928571D01*
X196407857Y-71785714D01*
X196550714Y-71500000D01*
X196836428Y-71357142D01*
X197407857Y-71357142D01*
X197693571Y-71500000D01*
X197836428Y-71785714D01*
X197836428Y-72071428D01*
X196407857Y-72357142D01*
X200979285Y-71357142D02*
X202122142Y-71357142D01*
X201407857Y-70357142D02*
X201407857Y-72928571D01*
X201550714Y-73214285D01*
X201836428Y-73357142D01*
X202122142Y-73357142D01*
X203550714Y-73357142D02*
X203265000Y-73214285D01*
X203122142Y-73071428D01*
X202979285Y-72785714D01*
X202979285Y-71928571D01*
X203122142Y-71642857D01*
X203265000Y-71500000D01*
X203550714Y-71357142D01*
X203979285Y-71357142D01*
X204265000Y-71500000D01*
X204407857Y-71642857D01*
X204550714Y-71928571D01*
X204550714Y-72785714D01*
X204407857Y-73071428D01*
X204265000Y-73214285D01*
X203979285Y-73357142D01*
X203550714Y-73357142D01*
X208122142Y-71357142D02*
X208122142Y-74357142D01*
X208122142Y-71500000D02*
X208407857Y-71357142D01*
X208979285Y-71357142D01*
X209265000Y-71500000D01*
X209407857Y-71642857D01*
X209550714Y-71928571D01*
X209550714Y-72785714D01*
X209407857Y-73071428D01*
X209265000Y-73214285D01*
X208979285Y-73357142D01*
X208407857Y-73357142D01*
X208122142Y-73214285D01*
X212122142Y-73214285D02*
X211836428Y-73357142D01*
X211265000Y-73357142D01*
X210979285Y-73214285D01*
X210836428Y-73071428D01*
X210693571Y-72785714D01*
X210693571Y-71928571D01*
X210836428Y-71642857D01*
X210979285Y-71500000D01*
X211265000Y-71357142D01*
X211836428Y-71357142D01*
X212122142Y-71500000D01*
X213407857Y-73357142D02*
X213407857Y-70357142D01*
X213407857Y-71500000D02*
X213693571Y-71357142D01*
X214265000Y-71357142D01*
X214550714Y-71500000D01*
X214693571Y-71642857D01*
X214836428Y-71928571D01*
X214836428Y-72785714D01*
X214693571Y-73071428D01*
X214550714Y-73214285D01*
X214265000Y-73357142D01*
X213693571Y-73357142D01*
X213407857Y-73214285D01*
X219550714Y-73214285D02*
X219265000Y-73357142D01*
X218693571Y-73357142D01*
X218407857Y-73214285D01*
X218265000Y-72928571D01*
X218265000Y-71785714D01*
X218407857Y-71500000D01*
X218693571Y-71357142D01*
X219265000Y-71357142D01*
X219550714Y-71500000D01*
X219693571Y-71785714D01*
X219693571Y-72071428D01*
X218265000Y-72357142D01*
X222265000Y-73357142D02*
X222265000Y-70357142D01*
X222265000Y-73214285D02*
X221979285Y-73357142D01*
X221407857Y-73357142D01*
X221122142Y-73214285D01*
X220979285Y-73071428D01*
X220836428Y-72785714D01*
X220836428Y-71928571D01*
X220979285Y-71642857D01*
X221122142Y-71500000D01*
X221407857Y-71357142D01*
X221979285Y-71357142D01*
X222265000Y-71500000D01*
X224979285Y-71357142D02*
X224979285Y-73785714D01*
X224836428Y-74071428D01*
X224693571Y-74214285D01*
X224407857Y-74357142D01*
X223979285Y-74357142D01*
X223693571Y-74214285D01*
X224979285Y-73214285D02*
X224693571Y-73357142D01*
X224122142Y-73357142D01*
X223836428Y-73214285D01*
X223693571Y-73071428D01*
X223550714Y-72785714D01*
X223550714Y-71928571D01*
X223693571Y-71642857D01*
X223836428Y-71500000D01*
X224122142Y-71357142D01*
X224693571Y-71357142D01*
X224979285Y-71500000D01*
X227550714Y-73214285D02*
X227265000Y-73357142D01*
X226693571Y-73357142D01*
X226407857Y-73214285D01*
X226265000Y-72928571D01*
X226265000Y-71785714D01*
X226407857Y-71500000D01*
X226693571Y-71357142D01*
X227265000Y-71357142D01*
X227550714Y-71500000D01*
X227693571Y-71785714D01*
X227693571Y-72071428D01*
X226265000Y-72357142D01*
X228979285Y-73071428D02*
X229122142Y-73214285D01*
X228979285Y-73357142D01*
X228836428Y-73214285D01*
X228979285Y-73071428D01*
X228979285Y-73357142D01*
X228979285Y-71500000D02*
X229122142Y-71642857D01*
X228979285Y-71785714D01*
X228836428Y-71642857D01*
X228979285Y-71500000D01*
X228979285Y-71785714D01*
X233265000Y-70357142D02*
X233550714Y-70357142D01*
X233836428Y-70500000D01*
X233979285Y-70642857D01*
X234122142Y-70928571D01*
X234265000Y-71500000D01*
X234265000Y-72214285D01*
X234122142Y-72785714D01*
X233979285Y-73071428D01*
X233836428Y-73214285D01*
X233550714Y-73357142D01*
X233265000Y-73357142D01*
X232979285Y-73214285D01*
X232836428Y-73071428D01*
X232693571Y-72785714D01*
X232550714Y-72214285D01*
X232550714Y-71500000D01*
X232693571Y-70928571D01*
X232836428Y-70642857D01*
X232979285Y-70500000D01*
X233265000Y-70357142D01*
X235550714Y-73071428D02*
X235693571Y-73214285D01*
X235550714Y-73357142D01*
X235407857Y-73214285D01*
X235550714Y-73071428D01*
X235550714Y-73357142D01*
X236693571Y-70357142D02*
X238550714Y-70357142D01*
X237550714Y-71500000D01*
X237979285Y-71500000D01*
X238265000Y-71642857D01*
X238407857Y-71785714D01*
X238550714Y-72071428D01*
X238550714Y-72785714D01*
X238407857Y-73071428D01*
X238265000Y-73214285D01*
X237979285Y-73357142D01*
X237122142Y-73357142D01*
X236836428Y-73214285D01*
X236693571Y-73071428D01*
X242122142Y-73357142D02*
X242122142Y-71357142D01*
X242122142Y-71642857D02*
X242265000Y-71500000D01*
X242550714Y-71357142D01*
X242979285Y-71357142D01*
X243265000Y-71500000D01*
X243407857Y-71785714D01*
X243407857Y-73357142D01*
X243407857Y-71785714D02*
X243550714Y-71500000D01*
X243836428Y-71357142D01*
X244265000Y-71357142D01*
X244550714Y-71500000D01*
X244693571Y-71785714D01*
X244693571Y-73357142D01*
X246122142Y-73357142D02*
X246122142Y-71357142D01*
X246122142Y-71642857D02*
X246265000Y-71500000D01*
X246550714Y-71357142D01*
X246979285Y-71357142D01*
X247265000Y-71500000D01*
X247407857Y-71785714D01*
X247407857Y-73357142D01*
X247407857Y-71785714D02*
X247550714Y-71500000D01*
X247836428Y-71357142D01*
X248265000Y-71357142D01*
X248550714Y-71500000D01*
X248693571Y-71785714D01*
X248693571Y-73357142D01*
X179836428Y-82814285D02*
X180265000Y-82957142D01*
X180979285Y-82957142D01*
X181265000Y-82814285D01*
X181407857Y-82671428D01*
X181550714Y-82385714D01*
X181550714Y-82100000D01*
X181407857Y-81814285D01*
X181265000Y-81671428D01*
X180979285Y-81528571D01*
X180407857Y-81385714D01*
X180122142Y-81242857D01*
X179979285Y-81100000D01*
X179836428Y-80814285D01*
X179836428Y-80528571D01*
X179979285Y-80242857D01*
X180122142Y-80100000D01*
X180407857Y-79957142D01*
X181122142Y-79957142D01*
X181550714Y-80100000D01*
X182407857Y-79957142D02*
X184122142Y-79957142D01*
X183265000Y-82957142D02*
X183265000Y-79957142D01*
X184979285Y-82100000D02*
X186407857Y-82100000D01*
X184693571Y-82957142D02*
X185693571Y-79957142D01*
X186693571Y-82957142D01*
X189407857Y-82671428D02*
X189265000Y-82814285D01*
X188836428Y-82957142D01*
X188550714Y-82957142D01*
X188122142Y-82814285D01*
X187836428Y-82528571D01*
X187693571Y-82242857D01*
X187550714Y-81671428D01*
X187550714Y-81242857D01*
X187693571Y-80671428D01*
X187836428Y-80385714D01*
X188122142Y-80100000D01*
X188550714Y-79957142D01*
X188836428Y-79957142D01*
X189265000Y-80100000D01*
X189407857Y-80242857D01*
X190693571Y-82957142D02*
X190693571Y-79957142D01*
X192407857Y-82957142D02*
X191122142Y-81242857D01*
X192407857Y-79957142D02*
X190693571Y-81671428D01*
X193693571Y-81814285D02*
X195979285Y-81814285D01*
X197407857Y-79957142D02*
X197407857Y-82385714D01*
X197550714Y-82671428D01*
X197693571Y-82814285D01*
X197979285Y-82957142D01*
X198550714Y-82957142D01*
X198836428Y-82814285D01*
X198979285Y-82671428D01*
X199122142Y-82385714D01*
X199122142Y-79957142D01*
X200550714Y-82957142D02*
X200550714Y-79957142D01*
X201693571Y-79957142D01*
X201979285Y-80100000D01*
X202122142Y-80242857D01*
X202265000Y-80528571D01*
X202265000Y-80957142D01*
X202122142Y-81242857D01*
X201979285Y-81385714D01*
X201693571Y-81528571D01*
X200550714Y-81528571D01*
X180979285Y-86185714D02*
X179979285Y-86185714D01*
X179979285Y-87757142D02*
X179979285Y-84757142D01*
X181407857Y-84757142D01*
X184265000Y-87757142D02*
X183265000Y-86328571D01*
X182550714Y-87757142D02*
X182550714Y-84757142D01*
X183693571Y-84757142D01*
X183979285Y-84900000D01*
X184122142Y-85042857D01*
X184265000Y-85328571D01*
X184265000Y-85757142D01*
X184122142Y-86042857D01*
X183979285Y-86185714D01*
X183693571Y-86328571D01*
X182550714Y-86328571D01*
X186836428Y-85757142D02*
X186836428Y-87757142D01*
X186122142Y-84614285D02*
X185407857Y-86757142D01*
X187265000Y-86757142D01*
X192979285Y-87757142D02*
X192979285Y-84757142D01*
X193693571Y-84757142D01*
X194122142Y-84900000D01*
X194407857Y-85185714D01*
X194550714Y-85471428D01*
X194693571Y-86042857D01*
X194693571Y-86471428D01*
X194550714Y-87042857D01*
X194407857Y-87328571D01*
X194122142Y-87614285D01*
X193693571Y-87757142D01*
X192979285Y-87757142D01*
X197265000Y-85757142D02*
X197265000Y-87757142D01*
X195979285Y-85757142D02*
X195979285Y-87328571D01*
X196122142Y-87614285D01*
X196407857Y-87757142D01*
X196836428Y-87757142D01*
X197122142Y-87614285D01*
X197265000Y-87471428D01*
X199979285Y-87757142D02*
X199979285Y-86185714D01*
X199836428Y-85900000D01*
X199550714Y-85757142D01*
X198979285Y-85757142D01*
X198693571Y-85900000D01*
X199979285Y-87614285D02*
X199693571Y-87757142D01*
X198979285Y-87757142D01*
X198693571Y-87614285D01*
X198550714Y-87328571D01*
X198550714Y-87042857D01*
X198693571Y-86757142D01*
X198979285Y-86614285D01*
X199693571Y-86614285D01*
X199979285Y-86471428D01*
X201836428Y-87757142D02*
X201550714Y-87614285D01*
X201407857Y-87328571D01*
X201407857Y-84757142D01*
X205693571Y-87757142D02*
X205407857Y-87614285D01*
X205265000Y-87328571D01*
X205265000Y-84757142D01*
X208122142Y-87757142D02*
X208122142Y-86185714D01*
X207979285Y-85900000D01*
X207693571Y-85757142D01*
X207122142Y-85757142D01*
X206836428Y-85900000D01*
X208122142Y-87614285D02*
X207836428Y-87757142D01*
X207122142Y-87757142D01*
X206836428Y-87614285D01*
X206693571Y-87328571D01*
X206693571Y-87042857D01*
X206836428Y-86757142D01*
X207122142Y-86614285D01*
X207836428Y-86614285D01*
X208122142Y-86471428D01*
X209265000Y-85757142D02*
X209979285Y-87757142D01*
X210693571Y-85757142D02*
X209979285Y-87757142D01*
X209693571Y-88471428D01*
X209550714Y-88614285D01*
X209265000Y-88757142D01*
X212979285Y-87614285D02*
X212693571Y-87757142D01*
X212122142Y-87757142D01*
X211836428Y-87614285D01*
X211693571Y-87328571D01*
X211693571Y-86185714D01*
X211836428Y-85900000D01*
X212122142Y-85757142D01*
X212693571Y-85757142D01*
X212979285Y-85900000D01*
X213122142Y-86185714D01*
X213122142Y-86471428D01*
X211693571Y-86757142D01*
X214407857Y-87757142D02*
X214407857Y-85757142D01*
X214407857Y-86328571D02*
X214550714Y-86042857D01*
X214693571Y-85900000D01*
X214979285Y-85757142D01*
X215265000Y-85757142D01*
X179979285Y-92557142D02*
X179979285Y-89557142D01*
X181122142Y-89557142D01*
X181407857Y-89700000D01*
X181550714Y-89842857D01*
X181693571Y-90128571D01*
X181693571Y-90557142D01*
X181550714Y-90842857D01*
X181407857Y-90985714D01*
X181122142Y-91128571D01*
X179979285Y-91128571D01*
X184693571Y-92271428D02*
X184550714Y-92414285D01*
X184122142Y-92557142D01*
X183836428Y-92557142D01*
X183407857Y-92414285D01*
X183122142Y-92128571D01*
X182979285Y-91842857D01*
X182836428Y-91271428D01*
X182836428Y-90842857D01*
X182979285Y-90271428D01*
X183122142Y-89985714D01*
X183407857Y-89700000D01*
X183836428Y-89557142D01*
X184122142Y-89557142D01*
X184550714Y-89700000D01*
X184693571Y-89842857D01*
X186979285Y-90985714D02*
X187407857Y-91128571D01*
X187550714Y-91271428D01*
X187693571Y-91557142D01*
X187693571Y-91985714D01*
X187550714Y-92271428D01*
X187407857Y-92414285D01*
X187122142Y-92557142D01*
X185979285Y-92557142D01*
X185979285Y-89557142D01*
X186979285Y-89557142D01*
X187265000Y-89700000D01*
X187407857Y-89842857D01*
X187550714Y-90128571D01*
X187550714Y-90414285D01*
X187407857Y-90700000D01*
X187265000Y-90842857D01*
X186979285Y-90985714D01*
X185979285Y-90985714D01*
X190836428Y-90557142D02*
X191979285Y-90557142D01*
X191265000Y-89557142D02*
X191265000Y-92128571D01*
X191407857Y-92414285D01*
X191693571Y-92557142D01*
X191979285Y-92557142D01*
X192979285Y-92557142D02*
X192979285Y-89557142D01*
X194265000Y-92557142D02*
X194265000Y-90985714D01*
X194122142Y-90700000D01*
X193836428Y-90557142D01*
X193407857Y-90557142D01*
X193122142Y-90700000D01*
X192979285Y-90842857D01*
X195693571Y-92557142D02*
X195693571Y-90557142D01*
X195693571Y-89557142D02*
X195550714Y-89700000D01*
X195693571Y-89842857D01*
X195836428Y-89700000D01*
X195693571Y-89557142D01*
X195693571Y-89842857D01*
X198407857Y-92414285D02*
X198122142Y-92557142D01*
X197550714Y-92557142D01*
X197265000Y-92414285D01*
X197122142Y-92271428D01*
X196979285Y-91985714D01*
X196979285Y-91128571D01*
X197122142Y-90842857D01*
X197265000Y-90700000D01*
X197550714Y-90557142D01*
X198122142Y-90557142D01*
X198407857Y-90700000D01*
X199693571Y-92557142D02*
X199693571Y-89557142D01*
X199979285Y-91414285D02*
X200836428Y-92557142D01*
X200836428Y-90557142D02*
X199693571Y-91700000D01*
X202122142Y-90557142D02*
X202122142Y-92557142D01*
X202122142Y-90842857D02*
X202265000Y-90700000D01*
X202550714Y-90557142D01*
X202979285Y-90557142D01*
X203265000Y-90700000D01*
X203407857Y-90985714D01*
X203407857Y-92557142D01*
X205979285Y-92414285D02*
X205693571Y-92557142D01*
X205122142Y-92557142D01*
X204836428Y-92414285D01*
X204693571Y-92128571D01*
X204693571Y-90985714D01*
X204836428Y-90700000D01*
X205122142Y-90557142D01*
X205693571Y-90557142D01*
X205979285Y-90700000D01*
X206122142Y-90985714D01*
X206122142Y-91271428D01*
X204693571Y-91557142D01*
X207265000Y-92414285D02*
X207550714Y-92557142D01*
X208122142Y-92557142D01*
X208407857Y-92414285D01*
X208550714Y-92128571D01*
X208550714Y-91985714D01*
X208407857Y-91700000D01*
X208122142Y-91557142D01*
X207693571Y-91557142D01*
X207407857Y-91414285D01*
X207265000Y-91128571D01*
X207265000Y-90985714D01*
X207407857Y-90700000D01*
X207693571Y-90557142D01*
X208122142Y-90557142D01*
X208407857Y-90700000D01*
X209693571Y-92414285D02*
X209979285Y-92557142D01*
X210550714Y-92557142D01*
X210836428Y-92414285D01*
X210979285Y-92128571D01*
X210979285Y-91985714D01*
X210836428Y-91700000D01*
X210550714Y-91557142D01*
X210122142Y-91557142D01*
X209836428Y-91414285D01*
X209693571Y-91128571D01*
X209693571Y-90985714D01*
X209836428Y-90700000D01*
X210122142Y-90557142D01*
X210550714Y-90557142D01*
X210836428Y-90700000D01*
X212265000Y-92271428D02*
X212407857Y-92414285D01*
X212265000Y-92557142D01*
X212122142Y-92414285D01*
X212265000Y-92271428D01*
X212265000Y-92557142D01*
X212265000Y-90700000D02*
X212407857Y-90842857D01*
X212265000Y-90985714D01*
X212122142Y-90842857D01*
X212265000Y-90700000D01*
X212265000Y-90985714D01*
X217550714Y-92557142D02*
X215836428Y-92557142D01*
X216693571Y-92557142D02*
X216693571Y-89557142D01*
X216407857Y-89985714D01*
X216122142Y-90271428D01*
X215836428Y-90414285D01*
X218836428Y-92271428D02*
X218979285Y-92414285D01*
X218836428Y-92557142D01*
X218693571Y-92414285D01*
X218836428Y-92271428D01*
X218836428Y-92557142D01*
X221550714Y-89557142D02*
X220979285Y-89557142D01*
X220693571Y-89700000D01*
X220550714Y-89842857D01*
X220265000Y-90271428D01*
X220122142Y-90842857D01*
X220122142Y-91985714D01*
X220265000Y-92271428D01*
X220407857Y-92414285D01*
X220693571Y-92557142D01*
X221265000Y-92557142D01*
X221550714Y-92414285D01*
X221693571Y-92271428D01*
X221836428Y-91985714D01*
X221836428Y-91271428D01*
X221693571Y-90985714D01*
X221550714Y-90842857D01*
X221265000Y-90700000D01*
X220693571Y-90700000D01*
X220407857Y-90842857D01*
X220265000Y-90985714D01*
X220122142Y-91271428D01*
X225407857Y-92557142D02*
X225407857Y-90557142D01*
X225407857Y-90842857D02*
X225550714Y-90700000D01*
X225836428Y-90557142D01*
X226265000Y-90557142D01*
X226550714Y-90700000D01*
X226693571Y-90985714D01*
X226693571Y-92557142D01*
X226693571Y-90985714D02*
X226836428Y-90700000D01*
X227122142Y-90557142D01*
X227550714Y-90557142D01*
X227836428Y-90700000D01*
X227979285Y-90985714D01*
X227979285Y-92557142D01*
X229407857Y-92557142D02*
X229407857Y-90557142D01*
X229407857Y-90842857D02*
X229550714Y-90700000D01*
X229836428Y-90557142D01*
X230265000Y-90557142D01*
X230550714Y-90700000D01*
X230693571Y-90985714D01*
X230693571Y-92557142D01*
X230693571Y-90985714D02*
X230836428Y-90700000D01*
X231122142Y-90557142D01*
X231550714Y-90557142D01*
X231836428Y-90700000D01*
X231979285Y-90985714D01*
X231979285Y-92557142D01*
X181693571Y-97071428D02*
X181550714Y-97214285D01*
X181122142Y-97357142D01*
X180836428Y-97357142D01*
X180407857Y-97214285D01*
X180122142Y-96928571D01*
X179979285Y-96642857D01*
X179836428Y-96071428D01*
X179836428Y-95642857D01*
X179979285Y-95071428D01*
X180122142Y-94785714D01*
X180407857Y-94500000D01*
X180836428Y-94357142D01*
X181122142Y-94357142D01*
X181550714Y-94500000D01*
X181693571Y-94642857D01*
X183407857Y-97357142D02*
X183122142Y-97214285D01*
X182979285Y-97071428D01*
X182836428Y-96785714D01*
X182836428Y-95928571D01*
X182979285Y-95642857D01*
X183122142Y-95500000D01*
X183407857Y-95357142D01*
X183836428Y-95357142D01*
X184122142Y-95500000D01*
X184265000Y-95642857D01*
X184407857Y-95928571D01*
X184407857Y-96785714D01*
X184265000Y-97071428D01*
X184122142Y-97214285D01*
X183836428Y-97357142D01*
X183407857Y-97357142D01*
X185693571Y-95357142D02*
X185693571Y-98357142D01*
X185693571Y-95500000D02*
X185979285Y-95357142D01*
X186550714Y-95357142D01*
X186836428Y-95500000D01*
X186979285Y-95642857D01*
X187122142Y-95928571D01*
X187122142Y-96785714D01*
X186979285Y-97071428D01*
X186836428Y-97214285D01*
X186550714Y-97357142D01*
X185979285Y-97357142D01*
X185693571Y-97214285D01*
X188407857Y-95357142D02*
X188407857Y-98357142D01*
X188407857Y-95500000D02*
X188693571Y-95357142D01*
X189265000Y-95357142D01*
X189550714Y-95500000D01*
X189693571Y-95642857D01*
X189836428Y-95928571D01*
X189836428Y-96785714D01*
X189693571Y-97071428D01*
X189550714Y-97214285D01*
X189265000Y-97357142D01*
X188693571Y-97357142D01*
X188407857Y-97214285D01*
X192265000Y-97214285D02*
X191979285Y-97357142D01*
X191407857Y-97357142D01*
X191122142Y-97214285D01*
X190979285Y-96928571D01*
X190979285Y-95785714D01*
X191122142Y-95500000D01*
X191407857Y-95357142D01*
X191979285Y-95357142D01*
X192265000Y-95500000D01*
X192407857Y-95785714D01*
X192407857Y-96071428D01*
X190979285Y-96357142D01*
X193693571Y-97357142D02*
X193693571Y-95357142D01*
X193693571Y-95928571D02*
X193836428Y-95642857D01*
X193979285Y-95500000D01*
X194265000Y-95357142D01*
X194550714Y-95357142D01*
X197407857Y-95357142D02*
X198550714Y-95357142D01*
X197836428Y-94357142D02*
X197836428Y-96928571D01*
X197979285Y-97214285D01*
X198265000Y-97357142D01*
X198550714Y-97357142D01*
X199550714Y-97357142D02*
X199550714Y-94357142D01*
X200836428Y-97357142D02*
X200836428Y-95785714D01*
X200693571Y-95500000D01*
X200407857Y-95357142D01*
X199979285Y-95357142D01*
X199693571Y-95500000D01*
X199550714Y-95642857D01*
X202265000Y-97357142D02*
X202265000Y-95357142D01*
X202265000Y-94357142D02*
X202122142Y-94500000D01*
X202265000Y-94642857D01*
X202407857Y-94500000D01*
X202265000Y-94357142D01*
X202265000Y-94642857D01*
X204979285Y-97214285D02*
X204693571Y-97357142D01*
X204122142Y-97357142D01*
X203836428Y-97214285D01*
X203693571Y-97071428D01*
X203550714Y-96785714D01*
X203550714Y-95928571D01*
X203693571Y-95642857D01*
X203836428Y-95500000D01*
X204122142Y-95357142D01*
X204693571Y-95357142D01*
X204979285Y-95500000D01*
X206265000Y-97357142D02*
X206265000Y-94357142D01*
X206550714Y-96214285D02*
X207407857Y-97357142D01*
X207407857Y-95357142D02*
X206265000Y-96500000D01*
X208693571Y-95357142D02*
X208693571Y-97357142D01*
X208693571Y-95642857D02*
X208836428Y-95500000D01*
X209122142Y-95357142D01*
X209550714Y-95357142D01*
X209836428Y-95500000D01*
X209979285Y-95785714D01*
X209979285Y-97357142D01*
X212550714Y-97214285D02*
X212265000Y-97357142D01*
X211693571Y-97357142D01*
X211407857Y-97214285D01*
X211265000Y-96928571D01*
X211265000Y-95785714D01*
X211407857Y-95500000D01*
X211693571Y-95357142D01*
X212265000Y-95357142D01*
X212550714Y-95500000D01*
X212693571Y-95785714D01*
X212693571Y-96071428D01*
X211265000Y-96357142D01*
X213836428Y-97214285D02*
X214122142Y-97357142D01*
X214693571Y-97357142D01*
X214979285Y-97214285D01*
X215122142Y-96928571D01*
X215122142Y-96785714D01*
X214979285Y-96500000D01*
X214693571Y-96357142D01*
X214265000Y-96357142D01*
X213979285Y-96214285D01*
X213836428Y-95928571D01*
X213836428Y-95785714D01*
X213979285Y-95500000D01*
X214265000Y-95357142D01*
X214693571Y-95357142D01*
X214979285Y-95500000D01*
X216265000Y-97214285D02*
X216550714Y-97357142D01*
X217122142Y-97357142D01*
X217407857Y-97214285D01*
X217550714Y-96928571D01*
X217550714Y-96785714D01*
X217407857Y-96500000D01*
X217122142Y-96357142D01*
X216693571Y-96357142D01*
X216407857Y-96214285D01*
X216265000Y-95928571D01*
X216265000Y-95785714D01*
X216407857Y-95500000D01*
X216693571Y-95357142D01*
X217122142Y-95357142D01*
X217407857Y-95500000D01*
X218836428Y-97071428D02*
X218979285Y-97214285D01*
X218836428Y-97357142D01*
X218693571Y-97214285D01*
X218836428Y-97071428D01*
X218836428Y-97357142D01*
X218836428Y-95500000D02*
X218979285Y-95642857D01*
X218836428Y-95785714D01*
X218693571Y-95642857D01*
X218836428Y-95500000D01*
X218836428Y-95785714D01*
X224122142Y-97357142D02*
X222407857Y-97357142D01*
X223265000Y-97357142D02*
X223265000Y-94357142D01*
X222979285Y-94785714D01*
X222693571Y-95071428D01*
X222407857Y-95214285D01*
X228265000Y-94357142D02*
X228836428Y-94357142D01*
X229122142Y-94500000D01*
X229407857Y-94785714D01*
X229550714Y-95357142D01*
X229550714Y-96357142D01*
X229407857Y-96928571D01*
X229122142Y-97214285D01*
X228836428Y-97357142D01*
X228265000Y-97357142D01*
X227979285Y-97214285D01*
X227693571Y-96928571D01*
X227550714Y-96357142D01*
X227550714Y-95357142D01*
X227693571Y-94785714D01*
X227979285Y-94500000D01*
X228265000Y-94357142D01*
X230550714Y-95357142D02*
X232122142Y-95357142D01*
X230550714Y-97357142D01*
X232122142Y-97357142D01*
X236407857Y-98500000D02*
X236264999Y-98357142D01*
X235979285Y-97928571D01*
X235836428Y-97642857D01*
X235693571Y-97214285D01*
X235550714Y-96500000D01*
X235550714Y-95928571D01*
X235693571Y-95214285D01*
X235836428Y-94785714D01*
X235979285Y-94500000D01*
X236264999Y-94071428D01*
X236407857Y-93928571D01*
X237264999Y-94357142D02*
X239122142Y-94357142D01*
X238122142Y-95500000D01*
X238550714Y-95500000D01*
X238836428Y-95642857D01*
X238979285Y-95785714D01*
X239122142Y-96071428D01*
X239122142Y-96785714D01*
X238979285Y-97071428D01*
X238836428Y-97214285D01*
X238550714Y-97357142D01*
X237693571Y-97357142D01*
X237407857Y-97214285D01*
X237264999Y-97071428D01*
X241836428Y-94357142D02*
X240407857Y-94357142D01*
X240265000Y-95785714D01*
X240407857Y-95642857D01*
X240693571Y-95500000D01*
X241407857Y-95500000D01*
X241693571Y-95642857D01*
X241836428Y-95785714D01*
X241979285Y-96071428D01*
X241979285Y-96785714D01*
X241836428Y-97071428D01*
X241693571Y-97214285D01*
X241407857Y-97357142D01*
X240693571Y-97357142D01*
X240407857Y-97214285D01*
X240265000Y-97071428D01*
X246836428Y-95357142D02*
X246836428Y-97357142D01*
X245550714Y-95357142D02*
X245550714Y-96928571D01*
X245693571Y-97214285D01*
X245979285Y-97357142D01*
X246407857Y-97357142D01*
X246693571Y-97214285D01*
X246836428Y-97071428D01*
X248265000Y-97357142D02*
X248265000Y-95357142D01*
X248265000Y-95642857D02*
X248407857Y-95500000D01*
X248693571Y-95357142D01*
X249122142Y-95357142D01*
X249407857Y-95500000D01*
X249550714Y-95785714D01*
X249550714Y-97357142D01*
X249550714Y-95785714D02*
X249693571Y-95500000D01*
X249979285Y-95357142D01*
X250407857Y-95357142D01*
X250693571Y-95500000D01*
X250836428Y-95785714D01*
X250836428Y-97357142D01*
X251979285Y-98500000D02*
X252122142Y-98357142D01*
X252407857Y-97928571D01*
X252550714Y-97642857D01*
X252693571Y-97214285D01*
X252836428Y-96500000D01*
X252836428Y-95928571D01*
X252693571Y-95214285D01*
X252550714Y-94785714D01*
X252407857Y-94500000D01*
X252122142Y-94071428D01*
X251979285Y-93928571D01*
X181693571Y-101871428D02*
X181550714Y-102014285D01*
X181122142Y-102157142D01*
X180836428Y-102157142D01*
X180407857Y-102014285D01*
X180122142Y-101728571D01*
X179979285Y-101442857D01*
X179836428Y-100871428D01*
X179836428Y-100442857D01*
X179979285Y-99871428D01*
X180122142Y-99585714D01*
X180407857Y-99300000D01*
X180836428Y-99157142D01*
X181122142Y-99157142D01*
X181550714Y-99300000D01*
X181693571Y-99442857D01*
X183407857Y-102157142D02*
X183122142Y-102014285D01*
X182979285Y-101871428D01*
X182836428Y-101585714D01*
X182836428Y-100728571D01*
X182979285Y-100442857D01*
X183122142Y-100300000D01*
X183407857Y-100157142D01*
X183836428Y-100157142D01*
X184122142Y-100300000D01*
X184265000Y-100442857D01*
X184407857Y-100728571D01*
X184407857Y-101585714D01*
X184265000Y-101871428D01*
X184122142Y-102014285D01*
X183836428Y-102157142D01*
X183407857Y-102157142D01*
X185693571Y-102157142D02*
X185693571Y-100157142D01*
X185693571Y-100442857D02*
X185836428Y-100300000D01*
X186122142Y-100157142D01*
X186550714Y-100157142D01*
X186836428Y-100300000D01*
X186979285Y-100585714D01*
X186979285Y-102157142D01*
X186979285Y-100585714D02*
X187122142Y-100300000D01*
X187407857Y-100157142D01*
X187836428Y-100157142D01*
X188122142Y-100300000D01*
X188265000Y-100585714D01*
X188265000Y-102157142D01*
X189693571Y-100157142D02*
X189693571Y-103157142D01*
X189693571Y-100300000D02*
X189979285Y-100157142D01*
X190550714Y-100157142D01*
X190836428Y-100300000D01*
X190979285Y-100442857D01*
X191122142Y-100728571D01*
X191122142Y-101585714D01*
X190979285Y-101871428D01*
X190836428Y-102014285D01*
X190550714Y-102157142D01*
X189979285Y-102157142D01*
X189693571Y-102014285D01*
X192836428Y-102157142D02*
X192550714Y-102014285D01*
X192407857Y-101871428D01*
X192265000Y-101585714D01*
X192265000Y-100728571D01*
X192407857Y-100442857D01*
X192550714Y-100300000D01*
X192836428Y-100157142D01*
X193265000Y-100157142D01*
X193550714Y-100300000D01*
X193693571Y-100442857D01*
X193836428Y-100728571D01*
X193836428Y-101585714D01*
X193693571Y-101871428D01*
X193550714Y-102014285D01*
X193265000Y-102157142D01*
X192836428Y-102157142D01*
X195122142Y-100157142D02*
X195122142Y-102157142D01*
X195122142Y-100442857D02*
X195265000Y-100300000D01*
X195550714Y-100157142D01*
X195979285Y-100157142D01*
X196265000Y-100300000D01*
X196407857Y-100585714D01*
X196407857Y-102157142D01*
X198979285Y-102014285D02*
X198693571Y-102157142D01*
X198122142Y-102157142D01*
X197836428Y-102014285D01*
X197693571Y-101728571D01*
X197693571Y-100585714D01*
X197836428Y-100300000D01*
X198122142Y-100157142D01*
X198693571Y-100157142D01*
X198979285Y-100300000D01*
X199122142Y-100585714D01*
X199122142Y-100871428D01*
X197693571Y-101157142D01*
X200407857Y-100157142D02*
X200407857Y-102157142D01*
X200407857Y-100442857D02*
X200550714Y-100300000D01*
X200836428Y-100157142D01*
X201265000Y-100157142D01*
X201550714Y-100300000D01*
X201693571Y-100585714D01*
X201693571Y-102157142D01*
X202693571Y-100157142D02*
X203836428Y-100157142D01*
X203122142Y-99157142D02*
X203122142Y-101728571D01*
X203265000Y-102014285D01*
X203550714Y-102157142D01*
X203836428Y-102157142D01*
X204693571Y-102014285D02*
X204979285Y-102157142D01*
X205550714Y-102157142D01*
X205836428Y-102014285D01*
X205979285Y-101728571D01*
X205979285Y-101585714D01*
X205836428Y-101300000D01*
X205550714Y-101157142D01*
X205122142Y-101157142D01*
X204836428Y-101014285D01*
X204693571Y-100728571D01*
X204693571Y-100585714D01*
X204836428Y-100300000D01*
X205122142Y-100157142D01*
X205550714Y-100157142D01*
X205836428Y-100300000D01*
X209979285Y-102157142D02*
X209693571Y-102014285D01*
X209550714Y-101871428D01*
X209407857Y-101585714D01*
X209407857Y-100728571D01*
X209550714Y-100442857D01*
X209693571Y-100300000D01*
X209979285Y-100157142D01*
X210407857Y-100157142D01*
X210693571Y-100300000D01*
X210836428Y-100442857D01*
X210979285Y-100728571D01*
X210979285Y-101585714D01*
X210836428Y-101871428D01*
X210693571Y-102014285D01*
X210407857Y-102157142D01*
X209979285Y-102157142D01*
X212265000Y-100157142D02*
X212265000Y-102157142D01*
X212265000Y-100442857D02*
X212407857Y-100300000D01*
X212693571Y-100157142D01*
X213122142Y-100157142D01*
X213407857Y-100300000D01*
X213550714Y-100585714D01*
X213550714Y-102157142D01*
X215407857Y-102157142D02*
X215122142Y-102014285D01*
X214979285Y-101728571D01*
X214979285Y-99157142D01*
X216265000Y-100157142D02*
X216979285Y-102157142D01*
X217693571Y-100157142D02*
X216979285Y-102157142D01*
X216693571Y-102871428D01*
X216550714Y-103014285D01*
X216265000Y-103157142D01*
X221550714Y-102157142D02*
X221265000Y-102014285D01*
X221122142Y-101871428D01*
X220979285Y-101585714D01*
X220979285Y-100728571D01*
X221122142Y-100442857D01*
X221265000Y-100300000D01*
X221550714Y-100157142D01*
X221979285Y-100157142D01*
X222265000Y-100300000D01*
X222407857Y-100442857D01*
X222550714Y-100728571D01*
X222550714Y-101585714D01*
X222407857Y-101871428D01*
X222265000Y-102014285D01*
X221979285Y-102157142D01*
X221550714Y-102157142D01*
X223836428Y-100157142D02*
X223836428Y-102157142D01*
X223836428Y-100442857D02*
X223979285Y-100300000D01*
X224265000Y-100157142D01*
X224693571Y-100157142D01*
X224979285Y-100300000D01*
X225122142Y-100585714D01*
X225122142Y-102157142D01*
X228407857Y-100157142D02*
X229550714Y-100157142D01*
X228836428Y-99157142D02*
X228836428Y-101728571D01*
X228979285Y-102014285D01*
X229265000Y-102157142D01*
X229550714Y-102157142D01*
X230979285Y-102157142D02*
X230693571Y-102014285D01*
X230550714Y-101871428D01*
X230407857Y-101585714D01*
X230407857Y-100728571D01*
X230550714Y-100442857D01*
X230693571Y-100300000D01*
X230979285Y-100157142D01*
X231407857Y-100157142D01*
X231693571Y-100300000D01*
X231836428Y-100442857D01*
X231979285Y-100728571D01*
X231979285Y-101585714D01*
X231836428Y-101871428D01*
X231693571Y-102014285D01*
X231407857Y-102157142D01*
X230979285Y-102157142D01*
X233265000Y-100157142D02*
X233265000Y-103157142D01*
X233265000Y-100300000D02*
X233550714Y-100157142D01*
X234122142Y-100157142D01*
X234407857Y-100300000D01*
X234550714Y-100442857D01*
X234693571Y-100728571D01*
X234693571Y-101585714D01*
X234550714Y-101871428D01*
X234407857Y-102014285D01*
X234122142Y-102157142D01*
X233550714Y-102157142D01*
X233265000Y-102014285D01*
X238693571Y-102157142D02*
X238407857Y-102014285D01*
X238265000Y-101728571D01*
X238265000Y-99157142D01*
X241122142Y-102157142D02*
X241122142Y-100585714D01*
X240979285Y-100300000D01*
X240693571Y-100157142D01*
X240122142Y-100157142D01*
X239836428Y-100300000D01*
X241122142Y-102014285D02*
X240836428Y-102157142D01*
X240122142Y-102157142D01*
X239836428Y-102014285D01*
X239693571Y-101728571D01*
X239693571Y-101442857D01*
X239836428Y-101157142D01*
X240122142Y-101014285D01*
X240836428Y-101014285D01*
X241122142Y-100871428D01*
X242265000Y-100157142D02*
X242979285Y-102157142D01*
X243693571Y-100157142D02*
X242979285Y-102157142D01*
X242693571Y-102871428D01*
X242550714Y-103014285D01*
X242265000Y-103157142D01*
X245979285Y-102014285D02*
X245693571Y-102157142D01*
X245122142Y-102157142D01*
X244836428Y-102014285D01*
X244693571Y-101728571D01*
X244693571Y-100585714D01*
X244836428Y-100300000D01*
X245122142Y-100157142D01*
X245693571Y-100157142D01*
X245979285Y-100300000D01*
X246122142Y-100585714D01*
X246122142Y-100871428D01*
X244693571Y-101157142D01*
X247407857Y-102157142D02*
X247407857Y-100157142D01*
X247407857Y-100728571D02*
X247550714Y-100442857D01*
X247693571Y-100300000D01*
X247979285Y-100157142D01*
X248265000Y-100157142D01*
X179979285Y-106957142D02*
X179979285Y-103957142D01*
X180979285Y-106100000D01*
X181979285Y-103957142D01*
X181979285Y-106957142D01*
X184693571Y-106957142D02*
X184693571Y-105385714D01*
X184550714Y-105100000D01*
X184265000Y-104957142D01*
X183693571Y-104957142D01*
X183407857Y-105100000D01*
X184693571Y-106814285D02*
X184407857Y-106957142D01*
X183693571Y-106957142D01*
X183407857Y-106814285D01*
X183265000Y-106528571D01*
X183265000Y-106242857D01*
X183407857Y-105957142D01*
X183693571Y-105814285D01*
X184407857Y-105814285D01*
X184693571Y-105671428D01*
X185979285Y-106814285D02*
X186265000Y-106957142D01*
X186836428Y-106957142D01*
X187122142Y-106814285D01*
X187265000Y-106528571D01*
X187265000Y-106385714D01*
X187122142Y-106100000D01*
X186836428Y-105957142D01*
X186407857Y-105957142D01*
X186122142Y-105814285D01*
X185979285Y-105528571D01*
X185979285Y-105385714D01*
X186122142Y-105100000D01*
X186407857Y-104957142D01*
X186836428Y-104957142D01*
X187122142Y-105100000D01*
X188550714Y-106957142D02*
X188550714Y-103957142D01*
X188836428Y-105814285D02*
X189693571Y-106957142D01*
X189693571Y-104957142D02*
X188550714Y-106100000D01*
X194550714Y-106814285D02*
X194265000Y-106957142D01*
X193693571Y-106957142D01*
X193407857Y-106814285D01*
X193265000Y-106671428D01*
X193122142Y-106385714D01*
X193122142Y-105528571D01*
X193265000Y-105242857D01*
X193407857Y-105100000D01*
X193693571Y-104957142D01*
X194265000Y-104957142D01*
X194550714Y-105100000D01*
X196265000Y-106957142D02*
X195979285Y-106814285D01*
X195836428Y-106671428D01*
X195693571Y-106385714D01*
X195693571Y-105528571D01*
X195836428Y-105242857D01*
X195979285Y-105100000D01*
X196265000Y-104957142D01*
X196693571Y-104957142D01*
X196979285Y-105100000D01*
X197122142Y-105242857D01*
X197265000Y-105528571D01*
X197265000Y-106385714D01*
X197122142Y-106671428D01*
X196979285Y-106814285D01*
X196693571Y-106957142D01*
X196265000Y-106957142D01*
X198979285Y-106957142D02*
X198693571Y-106814285D01*
X198550714Y-106528571D01*
X198550714Y-103957142D01*
X200550714Y-106957142D02*
X200265000Y-106814285D01*
X200122142Y-106671428D01*
X199979285Y-106385714D01*
X199979285Y-105528571D01*
X200122142Y-105242857D01*
X200265000Y-105100000D01*
X200550714Y-104957142D01*
X200979285Y-104957142D01*
X201265000Y-105100000D01*
X201407857Y-105242857D01*
X201550714Y-105528571D01*
X201550714Y-106385714D01*
X201407857Y-106671428D01*
X201265000Y-106814285D01*
X200979285Y-106957142D01*
X200550714Y-106957142D01*
X202836428Y-106957142D02*
X202836428Y-104957142D01*
X202836428Y-105528571D02*
X202979285Y-105242857D01*
X203122142Y-105100000D01*
X203407857Y-104957142D01*
X203693571Y-104957142D01*
X207836428Y-108100000D02*
X207693571Y-107957142D01*
X207407857Y-107528571D01*
X207265000Y-107242857D01*
X207122142Y-106814285D01*
X206979285Y-106100000D01*
X206979285Y-105528571D01*
X207122142Y-104814285D01*
X207265000Y-104385714D01*
X207407857Y-104100000D01*
X207693571Y-103671428D01*
X207836428Y-103528571D01*
X208979285Y-104957142D02*
X208979285Y-107957142D01*
X208979285Y-105100000D02*
X209265000Y-104957142D01*
X209836428Y-104957142D01*
X210122142Y-105100000D01*
X210265000Y-105242857D01*
X210407857Y-105528571D01*
X210407857Y-106385714D01*
X210265000Y-106671428D01*
X210122142Y-106814285D01*
X209836428Y-106957142D01*
X209265000Y-106957142D01*
X208979285Y-106814285D01*
X211693571Y-106957142D02*
X211693571Y-104957142D01*
X211693571Y-105528571D02*
X211836428Y-105242857D01*
X211979285Y-105100000D01*
X212265000Y-104957142D01*
X212550714Y-104957142D01*
X214693571Y-106814285D02*
X214407857Y-106957142D01*
X213836428Y-106957142D01*
X213550714Y-106814285D01*
X213407857Y-106528571D01*
X213407857Y-105385714D01*
X213550714Y-105100000D01*
X213836428Y-104957142D01*
X214407857Y-104957142D01*
X214693571Y-105100000D01*
X214836428Y-105385714D01*
X214836428Y-105671428D01*
X213407857Y-105957142D01*
X215693571Y-104957142D02*
X216836428Y-104957142D01*
X216122142Y-106957142D02*
X216122142Y-104385714D01*
X216265000Y-104100000D01*
X216550714Y-103957142D01*
X216836428Y-103957142D01*
X218979285Y-106814285D02*
X218693571Y-106957142D01*
X218122142Y-106957142D01*
X217836428Y-106814285D01*
X217693571Y-106528571D01*
X217693571Y-105385714D01*
X217836428Y-105100000D01*
X218122142Y-104957142D01*
X218693571Y-104957142D01*
X218979285Y-105100000D01*
X219122142Y-105385714D01*
X219122142Y-105671428D01*
X217693571Y-105957142D01*
X220407857Y-106957142D02*
X220407857Y-104957142D01*
X220407857Y-105528571D02*
X220550714Y-105242857D01*
X220693571Y-105100000D01*
X220979285Y-104957142D01*
X221265000Y-104957142D01*
X223550714Y-106957142D02*
X223550714Y-105385714D01*
X223407857Y-105100000D01*
X223122142Y-104957142D01*
X222550714Y-104957142D01*
X222265000Y-105100000D01*
X223550714Y-106814285D02*
X223265000Y-106957142D01*
X222550714Y-106957142D01*
X222265000Y-106814285D01*
X222122142Y-106528571D01*
X222122142Y-106242857D01*
X222265000Y-105957142D01*
X222550714Y-105814285D01*
X223265000Y-105814285D01*
X223550714Y-105671428D01*
X224979285Y-106957142D02*
X224979285Y-103957142D01*
X224979285Y-105100000D02*
X225265000Y-104957142D01*
X225836428Y-104957142D01*
X226122142Y-105100000D01*
X226265000Y-105242857D01*
X226407857Y-105528571D01*
X226407857Y-106385714D01*
X226265000Y-106671428D01*
X226122142Y-106814285D01*
X225836428Y-106957142D01*
X225265000Y-106957142D01*
X224979285Y-106814285D01*
X228122142Y-106957142D02*
X227836428Y-106814285D01*
X227693571Y-106528571D01*
X227693571Y-103957142D01*
X228979285Y-104957142D02*
X229693571Y-106957142D01*
X230407857Y-104957142D02*
X229693571Y-106957142D01*
X229407857Y-107671428D01*
X229265000Y-107814285D01*
X228979285Y-107957142D01*
X231265000Y-108100000D02*
X231407857Y-107957142D01*
X231693571Y-107528571D01*
X231836428Y-107242857D01*
X231979285Y-106814285D01*
X232122142Y-106100000D01*
X232122142Y-105528571D01*
X231979285Y-104814285D01*
X231836428Y-104385714D01*
X231693571Y-104100000D01*
X231407857Y-103671428D01*
X231265000Y-103528571D01*
X233550714Y-106671428D02*
X233693571Y-106814285D01*
X233550714Y-106957142D01*
X233407857Y-106814285D01*
X233550714Y-106671428D01*
X233550714Y-106957142D01*
X233550714Y-105100000D02*
X233693571Y-105242857D01*
X233550714Y-105385714D01*
X233407857Y-105242857D01*
X233550714Y-105100000D01*
X233550714Y-105385714D01*
X237265000Y-106957142D02*
X237265000Y-103957142D01*
X237265000Y-105100000D02*
X237550714Y-104957142D01*
X238122142Y-104957142D01*
X238407857Y-105100000D01*
X238550714Y-105242857D01*
X238693571Y-105528571D01*
X238693571Y-106385714D01*
X238550714Y-106671428D01*
X238407857Y-106814285D01*
X238122142Y-106957142D01*
X237550714Y-106957142D01*
X237265000Y-106814285D01*
X240407857Y-106957142D02*
X240122142Y-106814285D01*
X239979285Y-106528571D01*
X239979285Y-103957142D01*
X242836428Y-104957142D02*
X242836428Y-106957142D01*
X241550714Y-104957142D02*
X241550714Y-106528571D01*
X241693571Y-106814285D01*
X241979285Y-106957142D01*
X242407857Y-106957142D01*
X242693571Y-106814285D01*
X242836428Y-106671428D01*
X245407857Y-106814285D02*
X245122142Y-106957142D01*
X244550714Y-106957142D01*
X244265000Y-106814285D01*
X244122142Y-106528571D01*
X244122142Y-105385714D01*
X244265000Y-105100000D01*
X244550714Y-104957142D01*
X245122142Y-104957142D01*
X245407857Y-105100000D01*
X245550714Y-105385714D01*
X245550714Y-105671428D01*
X244122142Y-105957142D01*
X179836428Y-111614285D02*
X180265000Y-111757142D01*
X180979285Y-111757142D01*
X181265000Y-111614285D01*
X181407857Y-111471428D01*
X181550714Y-111185714D01*
X181550714Y-110900000D01*
X181407857Y-110614285D01*
X181265000Y-110471428D01*
X180979285Y-110328571D01*
X180407857Y-110185714D01*
X180122142Y-110042857D01*
X179979285Y-109900000D01*
X179836428Y-109614285D01*
X179836428Y-109328571D01*
X179979285Y-109042857D01*
X180122142Y-108900000D01*
X180407857Y-108757142D01*
X181122142Y-108757142D01*
X181550714Y-108900000D01*
X182836428Y-111757142D02*
X182836428Y-109757142D01*
X182836428Y-108757142D02*
X182693571Y-108900000D01*
X182836428Y-109042857D01*
X182979285Y-108900000D01*
X182836428Y-108757142D01*
X182836428Y-109042857D01*
X184693571Y-111757142D02*
X184407857Y-111614285D01*
X184265000Y-111328571D01*
X184265000Y-108757142D01*
X185836428Y-111757142D02*
X185836428Y-108757142D01*
X186122142Y-110614285D02*
X186979285Y-111757142D01*
X186979285Y-109757142D02*
X185836428Y-110900000D01*
X188122142Y-111614285D02*
X188407857Y-111757142D01*
X188979285Y-111757142D01*
X189265000Y-111614285D01*
X189407857Y-111328571D01*
X189407857Y-111185714D01*
X189265000Y-110900000D01*
X188979285Y-110757142D01*
X188550714Y-110757142D01*
X188265000Y-110614285D01*
X188122142Y-110328571D01*
X188122142Y-110185714D01*
X188265000Y-109900000D01*
X188550714Y-109757142D01*
X188979285Y-109757142D01*
X189265000Y-109900000D01*
X191979285Y-111614285D02*
X191693571Y-111757142D01*
X191122142Y-111757142D01*
X190836428Y-111614285D01*
X190693571Y-111471428D01*
X190550714Y-111185714D01*
X190550714Y-110328571D01*
X190693571Y-110042857D01*
X190836428Y-109900000D01*
X191122142Y-109757142D01*
X191693571Y-109757142D01*
X191979285Y-109900000D01*
X193265000Y-111757142D02*
X193265000Y-109757142D01*
X193265000Y-110328571D02*
X193407857Y-110042857D01*
X193550714Y-109900000D01*
X193836428Y-109757142D01*
X194122142Y-109757142D01*
X196265000Y-111614285D02*
X195979285Y-111757142D01*
X195407857Y-111757142D01*
X195122142Y-111614285D01*
X194979285Y-111328571D01*
X194979285Y-110185714D01*
X195122142Y-109900000D01*
X195407857Y-109757142D01*
X195979285Y-109757142D01*
X196265000Y-109900000D01*
X196407857Y-110185714D01*
X196407857Y-110471428D01*
X194979285Y-110757142D01*
X198836428Y-111614285D02*
X198550714Y-111757142D01*
X197979285Y-111757142D01*
X197693571Y-111614285D01*
X197550714Y-111328571D01*
X197550714Y-110185714D01*
X197693571Y-109900000D01*
X197979285Y-109757142D01*
X198550714Y-109757142D01*
X198836428Y-109900000D01*
X198979285Y-110185714D01*
X198979285Y-110471428D01*
X197550714Y-110757142D01*
X200265000Y-109757142D02*
X200265000Y-111757142D01*
X200265000Y-110042857D02*
X200407857Y-109900000D01*
X200693571Y-109757142D01*
X201122142Y-109757142D01*
X201407857Y-109900000D01*
X201550714Y-110185714D01*
X201550714Y-111757142D01*
X206550714Y-111614285D02*
X206265000Y-111757142D01*
X205693571Y-111757142D01*
X205407857Y-111614285D01*
X205265000Y-111471428D01*
X205122142Y-111185714D01*
X205122142Y-110328571D01*
X205265000Y-110042857D01*
X205407857Y-109900000D01*
X205693571Y-109757142D01*
X206265000Y-109757142D01*
X206550714Y-109900000D01*
X208265000Y-111757142D02*
X207979285Y-111614285D01*
X207836428Y-111471428D01*
X207693571Y-111185714D01*
X207693571Y-110328571D01*
X207836428Y-110042857D01*
X207979285Y-109900000D01*
X208265000Y-109757142D01*
X208693571Y-109757142D01*
X208979285Y-109900000D01*
X209122142Y-110042857D01*
X209265000Y-110328571D01*
X209265000Y-111185714D01*
X209122142Y-111471428D01*
X208979285Y-111614285D01*
X208693571Y-111757142D01*
X208265000Y-111757142D01*
X210979285Y-111757142D02*
X210693571Y-111614285D01*
X210550714Y-111328571D01*
X210550714Y-108757142D01*
X212550714Y-111757142D02*
X212265000Y-111614285D01*
X212122142Y-111471428D01*
X211979285Y-111185714D01*
X211979285Y-110328571D01*
X212122142Y-110042857D01*
X212265000Y-109900000D01*
X212550714Y-109757142D01*
X212979285Y-109757142D01*
X213265000Y-109900000D01*
X213407857Y-110042857D01*
X213550714Y-110328571D01*
X213550714Y-111185714D01*
X213407857Y-111471428D01*
X213265000Y-111614285D01*
X212979285Y-111757142D01*
X212550714Y-111757142D01*
X214836428Y-111757142D02*
X214836428Y-109757142D01*
X214836428Y-110328571D02*
X214979285Y-110042857D01*
X215122142Y-109900000D01*
X215407857Y-109757142D01*
X215693571Y-109757142D01*
X216693571Y-111471428D02*
X216836428Y-111614285D01*
X216693571Y-111757142D01*
X216550714Y-111614285D01*
X216693571Y-111471428D01*
X216693571Y-111757142D01*
X216693571Y-109900000D02*
X216836428Y-110042857D01*
X216693571Y-110185714D01*
X216550714Y-110042857D01*
X216693571Y-109900000D01*
X216693571Y-110185714D01*
X220122142Y-109757142D02*
X220693571Y-111757142D01*
X221265000Y-110328571D01*
X221836428Y-111757142D01*
X222407857Y-109757142D01*
X223550714Y-111757142D02*
X223550714Y-108757142D01*
X224836428Y-111757142D02*
X224836428Y-110185714D01*
X224693571Y-109900000D01*
X224407857Y-109757142D01*
X223979285Y-109757142D01*
X223693571Y-109900000D01*
X223550714Y-110042857D01*
X226265000Y-111757142D02*
X226265000Y-109757142D01*
X226265000Y-108757142D02*
X226122142Y-108900000D01*
X226265000Y-109042857D01*
X226407857Y-108900000D01*
X226265000Y-108757142D01*
X226265000Y-109042857D01*
X227265000Y-109757142D02*
X228407857Y-109757142D01*
X227693571Y-108757142D02*
X227693571Y-111328571D01*
X227836428Y-111614285D01*
X228122142Y-111757142D01*
X228407857Y-111757142D01*
X230550714Y-111614285D02*
X230265000Y-111757142D01*
X229693571Y-111757142D01*
X229407857Y-111614285D01*
X229265000Y-111328571D01*
X229265000Y-110185714D01*
X229407857Y-109900000D01*
X229693571Y-109757142D01*
X230265000Y-109757142D01*
X230550714Y-109900000D01*
X230693571Y-110185714D01*
X230693571Y-110471428D01*
X229265000Y-110757142D01*
X179550714Y-113557142D02*
X181265000Y-113557142D01*
X180407857Y-116557142D02*
X180407857Y-113557142D01*
X183407857Y-116414285D02*
X183122142Y-116557142D01*
X182550714Y-116557142D01*
X182265000Y-116414285D01*
X182122142Y-116128571D01*
X182122142Y-114985714D01*
X182265000Y-114700000D01*
X182550714Y-114557142D01*
X183122142Y-114557142D01*
X183407857Y-114700000D01*
X183550714Y-114985714D01*
X183550714Y-115271428D01*
X182122142Y-115557142D01*
X184836428Y-116557142D02*
X184836428Y-114557142D01*
X184836428Y-115128571D02*
X184979285Y-114842857D01*
X185122142Y-114700000D01*
X185407857Y-114557142D01*
X185693571Y-114557142D01*
X186693571Y-116557142D02*
X186693571Y-114557142D01*
X186693571Y-114842857D02*
X186836428Y-114700000D01*
X187122142Y-114557142D01*
X187550714Y-114557142D01*
X187836428Y-114700000D01*
X187979285Y-114985714D01*
X187979285Y-116557142D01*
X187979285Y-114985714D02*
X188122142Y-114700000D01*
X188407857Y-114557142D01*
X188836428Y-114557142D01*
X189122142Y-114700000D01*
X189265000Y-114985714D01*
X189265000Y-116557142D01*
X190693571Y-116557142D02*
X190693571Y-114557142D01*
X190693571Y-113557142D02*
X190550714Y-113700000D01*
X190693571Y-113842857D01*
X190836428Y-113700000D01*
X190693571Y-113557142D01*
X190693571Y-113842857D01*
X191693571Y-114557142D02*
X192836428Y-114557142D01*
X192122142Y-113557142D02*
X192122142Y-116128571D01*
X192265000Y-116414285D01*
X192550714Y-116557142D01*
X192836428Y-116557142D01*
X195122142Y-116557142D02*
X195122142Y-114985714D01*
X194979285Y-114700000D01*
X194693571Y-114557142D01*
X194122142Y-114557142D01*
X193836428Y-114700000D01*
X195122142Y-116414285D02*
X194836428Y-116557142D01*
X194122142Y-116557142D01*
X193836428Y-116414285D01*
X193693571Y-116128571D01*
X193693571Y-115842857D01*
X193836428Y-115557142D01*
X194122142Y-115414285D01*
X194836428Y-115414285D01*
X195122142Y-115271428D01*
X196122142Y-114557142D02*
X197265000Y-114557142D01*
X196550714Y-113557142D02*
X196550714Y-116128571D01*
X196693571Y-116414285D01*
X196979285Y-116557142D01*
X197265000Y-116557142D01*
X198265000Y-116557142D02*
X198265000Y-114557142D01*
X198265000Y-113557142D02*
X198122142Y-113700000D01*
X198265000Y-113842857D01*
X198407857Y-113700000D01*
X198265000Y-113557142D01*
X198265000Y-113842857D01*
X200122142Y-116557142D02*
X199836428Y-116414285D01*
X199693571Y-116271428D01*
X199550714Y-115985714D01*
X199550714Y-115128571D01*
X199693571Y-114842857D01*
X199836428Y-114700000D01*
X200122142Y-114557142D01*
X200550714Y-114557142D01*
X200836428Y-114700000D01*
X200979285Y-114842857D01*
X201122142Y-115128571D01*
X201122142Y-115985714D01*
X200979285Y-116271428D01*
X200836428Y-116414285D01*
X200550714Y-116557142D01*
X200122142Y-116557142D01*
X202407857Y-114557142D02*
X202407857Y-116557142D01*
X202407857Y-114842857D02*
X202550714Y-114700000D01*
X202836428Y-114557142D01*
X203265000Y-114557142D01*
X203550714Y-114700000D01*
X203693571Y-114985714D01*
X203693571Y-116557142D01*
X205122142Y-116271428D02*
X205265000Y-116414285D01*
X205122142Y-116557142D01*
X204979285Y-116414285D01*
X205122142Y-116271428D01*
X205122142Y-116557142D01*
X205122142Y-114700000D02*
X205265000Y-114842857D01*
X205122142Y-114985714D01*
X204979285Y-114842857D01*
X205122142Y-114700000D01*
X205122142Y-114985714D01*
X208836428Y-116557142D02*
X208836428Y-113557142D01*
X208836428Y-114985714D02*
X210550714Y-114985714D01*
X210550714Y-116557142D02*
X210550714Y-113557142D01*
X211836428Y-115700000D02*
X213265000Y-115700000D01*
X211550714Y-116557142D02*
X212550714Y-113557142D01*
X213550714Y-116557142D01*
X214407857Y-116414285D02*
X214836428Y-116557142D01*
X215550714Y-116557142D01*
X215836428Y-116414285D01*
X215979285Y-116271428D01*
X216122142Y-115985714D01*
X216122142Y-115700000D01*
X215979285Y-115414285D01*
X215836428Y-115271428D01*
X215550714Y-115128571D01*
X214979285Y-114985714D01*
X214693571Y-114842857D01*
X214550714Y-114700000D01*
X214407857Y-114414285D01*
X214407857Y-114128571D01*
X214550714Y-113842857D01*
X214693571Y-113700000D01*
X214979285Y-113557142D01*
X215693571Y-113557142D01*
X216122142Y-113700000D01*
X218836428Y-116557142D02*
X217407857Y-116557142D01*
X217407857Y-113557142D01*
X221836428Y-114557142D02*
X222407857Y-116557142D01*
X222979285Y-115128571D01*
X223550714Y-116557142D01*
X224122142Y-114557142D01*
X227407857Y-113414285D02*
X224836428Y-117271428D01*
X228407857Y-116557142D02*
X228407857Y-113557142D01*
X229550714Y-113557142D01*
X229836428Y-113700000D01*
X229979285Y-113842857D01*
X230122142Y-114128571D01*
X230122142Y-114557142D01*
X229979285Y-114842857D01*
X229836428Y-114985714D01*
X229550714Y-115128571D01*
X228407857Y-115128571D01*
X231407857Y-116557142D02*
X231407857Y-113557142D01*
X231407857Y-114700000D02*
X231693571Y-114557142D01*
X232265000Y-114557142D01*
X232550714Y-114700000D01*
X232693571Y-114842857D01*
X232836428Y-115128571D01*
X232836428Y-115985714D01*
X232693571Y-116271428D01*
X232550714Y-116414285D01*
X232265000Y-116557142D01*
X231693571Y-116557142D01*
X231407857Y-116414285D01*
X179979285Y-121357142D02*
X179979285Y-118357142D01*
X181693571Y-121357142D01*
X181693571Y-118357142D01*
X183550714Y-121357142D02*
X183265000Y-121214285D01*
X183122142Y-121071428D01*
X182979285Y-120785714D01*
X182979285Y-119928571D01*
X183122142Y-119642857D01*
X183265000Y-119500000D01*
X183550714Y-119357142D01*
X183979285Y-119357142D01*
X184265000Y-119500000D01*
X184407857Y-119642857D01*
X184550714Y-119928571D01*
X184550714Y-120785714D01*
X184407857Y-121071428D01*
X184265000Y-121214285D01*
X183979285Y-121357142D01*
X183550714Y-121357142D01*
X187979285Y-121214285D02*
X188265000Y-121357142D01*
X188836428Y-121357142D01*
X189122142Y-121214285D01*
X189265000Y-120928571D01*
X189265000Y-120785714D01*
X189122142Y-120500000D01*
X188836428Y-120357142D01*
X188407857Y-120357142D01*
X188122142Y-120214285D01*
X187979285Y-119928571D01*
X187979285Y-119785714D01*
X188122142Y-119500000D01*
X188407857Y-119357142D01*
X188836428Y-119357142D01*
X189122142Y-119500000D01*
X190550714Y-119357142D02*
X190550714Y-122357142D01*
X190550714Y-119500000D02*
X190836428Y-119357142D01*
X191407857Y-119357142D01*
X191693571Y-119500000D01*
X191836428Y-119642857D01*
X191979285Y-119928571D01*
X191979285Y-120785714D01*
X191836428Y-121071428D01*
X191693571Y-121214285D01*
X191407857Y-121357142D01*
X190836428Y-121357142D01*
X190550714Y-121214285D01*
X194407857Y-121214285D02*
X194122142Y-121357142D01*
X193550714Y-121357142D01*
X193265000Y-121214285D01*
X193122142Y-120928571D01*
X193122142Y-119785714D01*
X193265000Y-119500000D01*
X193550714Y-119357142D01*
X194122142Y-119357142D01*
X194407857Y-119500000D01*
X194550714Y-119785714D01*
X194550714Y-120071428D01*
X193122142Y-120357142D01*
X197122142Y-121214285D02*
X196836428Y-121357142D01*
X196265000Y-121357142D01*
X195979285Y-121214285D01*
X195836428Y-121071428D01*
X195693571Y-120785714D01*
X195693571Y-119928571D01*
X195836428Y-119642857D01*
X195979285Y-119500000D01*
X196265000Y-119357142D01*
X196836428Y-119357142D01*
X197122142Y-119500000D01*
X198407857Y-121357142D02*
X198407857Y-119357142D01*
X198407857Y-118357142D02*
X198265000Y-118500000D01*
X198407857Y-118642857D01*
X198550714Y-118500000D01*
X198407857Y-118357142D01*
X198407857Y-118642857D01*
X201122142Y-121357142D02*
X201122142Y-119785714D01*
X200979285Y-119500000D01*
X200693571Y-119357142D01*
X200122142Y-119357142D01*
X199836428Y-119500000D01*
X201122142Y-121214285D02*
X200836428Y-121357142D01*
X200122142Y-121357142D01*
X199836428Y-121214285D01*
X199693571Y-120928571D01*
X199693571Y-120642857D01*
X199836428Y-120357142D01*
X200122142Y-120214285D01*
X200836428Y-120214285D01*
X201122142Y-120071428D01*
X202979285Y-121357142D02*
X202693571Y-121214285D01*
X202550714Y-120928571D01*
X202550714Y-118357142D01*
X206407857Y-121357142D02*
X206407857Y-119357142D01*
X206407857Y-119928571D02*
X206550714Y-119642857D01*
X206693571Y-119500000D01*
X206979285Y-119357142D01*
X207265000Y-119357142D01*
X209407857Y-121214285D02*
X209122142Y-121357142D01*
X208550714Y-121357142D01*
X208265000Y-121214285D01*
X208122142Y-120928571D01*
X208122142Y-119785714D01*
X208265000Y-119500000D01*
X208550714Y-119357142D01*
X209122142Y-119357142D01*
X209407857Y-119500000D01*
X209550714Y-119785714D01*
X209550714Y-120071428D01*
X208122142Y-120357142D01*
X212122142Y-119357142D02*
X212122142Y-122357142D01*
X212122142Y-121214285D02*
X211836428Y-121357142D01*
X211265000Y-121357142D01*
X210979285Y-121214285D01*
X210836428Y-121071428D01*
X210693571Y-120785714D01*
X210693571Y-119928571D01*
X210836428Y-119642857D01*
X210979285Y-119500000D01*
X211265000Y-119357142D01*
X211836428Y-119357142D01*
X212122142Y-119500000D01*
X214836428Y-119357142D02*
X214836428Y-121357142D01*
X213550714Y-119357142D02*
X213550714Y-120928571D01*
X213693571Y-121214285D01*
X213979285Y-121357142D01*
X214407857Y-121357142D01*
X214693571Y-121214285D01*
X214836428Y-121071428D01*
X216265000Y-121357142D02*
X216265000Y-119357142D01*
X216265000Y-118357142D02*
X216122142Y-118500000D01*
X216265000Y-118642857D01*
X216407857Y-118500000D01*
X216265000Y-118357142D01*
X216265000Y-118642857D01*
X217693571Y-121357142D02*
X217693571Y-119357142D01*
X217693571Y-119928571D02*
X217836428Y-119642857D01*
X217979285Y-119500000D01*
X218265000Y-119357142D01*
X218550714Y-119357142D01*
X220693571Y-121214285D02*
X220407857Y-121357142D01*
X219836428Y-121357142D01*
X219550714Y-121214285D01*
X219407857Y-120928571D01*
X219407857Y-119785714D01*
X219550714Y-119500000D01*
X219836428Y-119357142D01*
X220407857Y-119357142D01*
X220693571Y-119500000D01*
X220836428Y-119785714D01*
X220836428Y-120071428D01*
X219407857Y-120357142D01*
X222122142Y-121357142D02*
X222122142Y-119357142D01*
X222122142Y-119642857D02*
X222265000Y-119500000D01*
X222550714Y-119357142D01*
X222979285Y-119357142D01*
X223265000Y-119500000D01*
X223407857Y-119785714D01*
X223407857Y-121357142D01*
X223407857Y-119785714D02*
X223550714Y-119500000D01*
X223836428Y-119357142D01*
X224265000Y-119357142D01*
X224550714Y-119500000D01*
X224693571Y-119785714D01*
X224693571Y-121357142D01*
X227265000Y-121214285D02*
X226979285Y-121357142D01*
X226407857Y-121357142D01*
X226122142Y-121214285D01*
X225979285Y-120928571D01*
X225979285Y-119785714D01*
X226122142Y-119500000D01*
X226407857Y-119357142D01*
X226979285Y-119357142D01*
X227265000Y-119500000D01*
X227407857Y-119785714D01*
X227407857Y-120071428D01*
X225979285Y-120357142D01*
X228693571Y-119357142D02*
X228693571Y-121357142D01*
X228693571Y-119642857D02*
X228836428Y-119500000D01*
X229122142Y-119357142D01*
X229550714Y-119357142D01*
X229836428Y-119500000D01*
X229979285Y-119785714D01*
X229979285Y-121357142D01*
X230979285Y-119357142D02*
X232122142Y-119357142D01*
X231407857Y-118357142D02*
X231407857Y-120928571D01*
X231550714Y-121214285D01*
X231836428Y-121357142D01*
X232122142Y-121357142D01*
X232979285Y-121214285D02*
X233265000Y-121357142D01*
X233836428Y-121357142D01*
X234122142Y-121214285D01*
X234265000Y-120928571D01*
X234265000Y-120785714D01*
X234122142Y-120500000D01*
X233836428Y-120357142D01*
X233407857Y-120357142D01*
X233122142Y-120214285D01*
X232979285Y-119928571D01*
X232979285Y-119785714D01*
X233122142Y-119500000D01*
X233407857Y-119357142D01*
X233836428Y-119357142D01*
X234122142Y-119500000D01*
M02*
