M48
; DRILL file {KiCad (5.1.2)-1} date 30/8/2019 22:47:37
; FORMAT={-:-/ absolute / metric / decimal}
; #@! TF.CreationDate,2019-08-30T22:47:37-03:00
; #@! TF.GenerationSoftware,Kicad,Pcbnew,(5.1.2)-1
; #@! TF.FileFunction,Plated,1,2,PTH
FMAT,2
METRIC
T1C0.400
T2C0.500
T3C0.750
T4C0.800
T5C0.890
T6C1.000
T7C1.300
T8C1.500
T9C2.010
T10C3.200
%
G90
G05
T1
X92.964Y-87.757
X92.964Y-92.456
X96.774Y-81.026
X107.442Y-83.82
X110.617Y-93.98
X127.508Y-83.82
X134.112Y-90.424
X136.906Y-86.868
X138.176Y-76.581
X140.716Y-81.28
X142.494Y-81.534
X147.828Y-92.71
T2
X135.128Y-78.486
X153.6Y-74.0
X154.303Y-72.303
X154.303Y-75.697
X156.0Y-71.6
X156.0Y-76.4
X157.697Y-72.303
X157.697Y-75.697
X158.4Y-74.0
X91.6Y-74.0
X92.303Y-72.303
X92.303Y-75.697
X94.0Y-71.6
X94.0Y-76.4
X95.697Y-72.303
X95.697Y-75.697
X96.4Y-74.0
X153.6Y-106.0
X154.303Y-104.303
X154.303Y-107.697
X156.0Y-103.6
X156.0Y-108.4
X157.697Y-104.303
X157.697Y-107.697
X158.4Y-106.0
X91.6Y-106.0
X92.303Y-104.303
X92.303Y-107.697
X94.0Y-103.6
X94.0Y-108.4
X95.697Y-104.303
X95.697Y-107.697
X96.4Y-106.0
T3
X113.919Y-97.155
X113.919Y-98.425
X113.919Y-99.695
X107.569Y-87.63
X107.569Y-88.9
X107.569Y-90.17
X140.716Y-83.058
X140.716Y-84.328
X140.716Y-85.598
X107.569Y-95.885
X107.569Y-97.155
X107.569Y-98.425
T4
X138.176Y-73.406
X140.716Y-73.406
X143.256Y-73.406
X92.984Y-81.0
X103.144Y-81.0
X145.034Y-83.058
X145.034Y-85.598
X145.034Y-88.138
X145.034Y-90.678
X155.194Y-83.058
X155.194Y-85.598
X155.194Y-88.138
X155.194Y-90.678
T5
X138.176Y-96.774
X140.716Y-96.774
T6
X123.698Y-97.155
X126.238Y-97.155
X132.08Y-84.328
X134.62Y-84.328
T7
X109.984Y-75.0
X114.984Y-75.0
X119.984Y-75.0
X124.984Y-75.0
T8
X119.888Y-87.678
X119.888Y-93.678
T9
X133.096Y-101.854
X143.256Y-101.854
T10
X94.0Y-106.0
X156.0Y-74.0
X94.0Y-74.0
X156.0Y-106.0
T0
M30
