G04 #@! TF.GenerationSoftware,KiCad,Pcbnew,(5.1.2)-1*
G04 #@! TF.CreationDate,2019-08-30T22:43:59-03:00*
G04 #@! TF.ProjectId,colpitts,636f6c70-6974-4747-932e-6b696361645f,v1*
G04 #@! TF.SameCoordinates,Original*
G04 #@! TF.FileFunction,Soldermask,Top*
G04 #@! TF.FilePolarity,Negative*
%FSLAX46Y46*%
G04 Gerber Fmt 4.6, Leading zero omitted, Abs format (unit mm)*
G04 Created by KiCad (PCBNEW (5.1.2)-1) date 2019-08-30 22:43:59*
%MOMM*%
%LPD*%
G04 APERTURE LIST*
%ADD10C,0.100000*%
G04 APERTURE END LIST*
D10*
G36*
X124206000Y-109728000D02*
G01*
X101854000Y-109728000D01*
X101854000Y-106807000D01*
X124206000Y-106807000D01*
X124206000Y-109728000D01*
X124206000Y-109728000D01*
G37*
G36*
X156634239Y-102811467D02*
G01*
X156948282Y-102873934D01*
X157539926Y-103119001D01*
X158072392Y-103474784D01*
X158525216Y-103927608D01*
X158880999Y-104460074D01*
X159126066Y-105051718D01*
X159126066Y-105051719D01*
X159251000Y-105679803D01*
X159251000Y-106320197D01*
X159199022Y-106581507D01*
X159126066Y-106948282D01*
X158880999Y-107539926D01*
X158525216Y-108072392D01*
X158072392Y-108525216D01*
X157539926Y-108880999D01*
X156948282Y-109126066D01*
X156634239Y-109188533D01*
X156320197Y-109251000D01*
X155679803Y-109251000D01*
X155365761Y-109188533D01*
X155051718Y-109126066D01*
X154460074Y-108880999D01*
X153927608Y-108525216D01*
X153474784Y-108072392D01*
X153119001Y-107539926D01*
X152873934Y-106948282D01*
X152800978Y-106581507D01*
X152749000Y-106320197D01*
X152749000Y-105679803D01*
X152873934Y-105051719D01*
X152873934Y-105051718D01*
X153119001Y-104460074D01*
X153474784Y-103927608D01*
X153927608Y-103474784D01*
X154460074Y-103119001D01*
X155051718Y-102873934D01*
X155365761Y-102811467D01*
X155679803Y-102749000D01*
X156320197Y-102749000D01*
X156634239Y-102811467D01*
X156634239Y-102811467D01*
G37*
G36*
X94634239Y-102811467D02*
G01*
X94948282Y-102873934D01*
X95539926Y-103119001D01*
X96072392Y-103474784D01*
X96525216Y-103927608D01*
X96880999Y-104460074D01*
X97126066Y-105051718D01*
X97126066Y-105051719D01*
X97251000Y-105679803D01*
X97251000Y-106320197D01*
X97199022Y-106581507D01*
X97126066Y-106948282D01*
X96880999Y-107539926D01*
X96525216Y-108072392D01*
X96072392Y-108525216D01*
X95539926Y-108880999D01*
X94948282Y-109126066D01*
X94634239Y-109188533D01*
X94320197Y-109251000D01*
X93679803Y-109251000D01*
X93365761Y-109188533D01*
X93051718Y-109126066D01*
X92460074Y-108880999D01*
X91927608Y-108525216D01*
X91474784Y-108072392D01*
X91119001Y-107539926D01*
X90873934Y-106948282D01*
X90800978Y-106581507D01*
X90749000Y-106320197D01*
X90749000Y-105679803D01*
X90873934Y-105051719D01*
X90873934Y-105051718D01*
X91119001Y-104460074D01*
X91474784Y-103927608D01*
X91927608Y-103474784D01*
X92460074Y-103119001D01*
X93051718Y-102873934D01*
X93365761Y-102811467D01*
X93679803Y-102749000D01*
X94320197Y-102749000D01*
X94634239Y-102811467D01*
X94634239Y-102811467D01*
G37*
G36*
X100049290Y-105705619D02*
G01*
X100113689Y-105718429D01*
X100295678Y-105793811D01*
X100459463Y-105903249D01*
X100598751Y-106042537D01*
X100708189Y-106206322D01*
X100783571Y-106388311D01*
X100792593Y-106433668D01*
X100822000Y-106581507D01*
X100822000Y-106778493D01*
X100816220Y-106807551D01*
X100783571Y-106971689D01*
X100708189Y-107153678D01*
X100598751Y-107317463D01*
X100459463Y-107456751D01*
X100295678Y-107566189D01*
X100113689Y-107641571D01*
X100058061Y-107652636D01*
X99920493Y-107680000D01*
X99723507Y-107680000D01*
X99585939Y-107652636D01*
X99530311Y-107641571D01*
X99348322Y-107566189D01*
X99184537Y-107456751D01*
X99045249Y-107317463D01*
X98935811Y-107153678D01*
X98860429Y-106971689D01*
X98827780Y-106807551D01*
X98822000Y-106778493D01*
X98822000Y-106581507D01*
X98851407Y-106433668D01*
X98860429Y-106388311D01*
X98935811Y-106206322D01*
X99045249Y-106042537D01*
X99184537Y-105903249D01*
X99348322Y-105793811D01*
X99530311Y-105718429D01*
X99594710Y-105705619D01*
X99723507Y-105680000D01*
X99920493Y-105680000D01*
X100049290Y-105705619D01*
X100049290Y-105705619D01*
G37*
G36*
X133449058Y-98329059D02*
G01*
X133788548Y-98432042D01*
X133788550Y-98432043D01*
X134101422Y-98599277D01*
X134375661Y-98824339D01*
X134600723Y-99098578D01*
X134767957Y-99411450D01*
X134767958Y-99411452D01*
X134870941Y-99750942D01*
X134897000Y-100015525D01*
X134897000Y-103692475D01*
X134870941Y-103957058D01*
X134779492Y-104258524D01*
X134767957Y-104296550D01*
X134600723Y-104609422D01*
X134375661Y-104883661D01*
X134101423Y-105108723D01*
X133788549Y-105275957D01*
X133788547Y-105275958D01*
X133449057Y-105378941D01*
X133096000Y-105413714D01*
X132742942Y-105378941D01*
X132403452Y-105275958D01*
X132403450Y-105275957D01*
X132090578Y-105108723D01*
X131816339Y-104883661D01*
X131591277Y-104609423D01*
X131424043Y-104296549D01*
X131361179Y-104089315D01*
X131321059Y-103957057D01*
X131295000Y-103692474D01*
X131295001Y-100015525D01*
X131321060Y-99750942D01*
X131424043Y-99411452D01*
X131424044Y-99411450D01*
X131591278Y-99098578D01*
X131816340Y-98824339D01*
X132090579Y-98599277D01*
X132403451Y-98432043D01*
X132403453Y-98432042D01*
X132742943Y-98329059D01*
X133096000Y-98294286D01*
X133449058Y-98329059D01*
X133449058Y-98329059D01*
G37*
G36*
X143609058Y-98329059D02*
G01*
X143948548Y-98432042D01*
X143948550Y-98432043D01*
X144261422Y-98599277D01*
X144535661Y-98824339D01*
X144760723Y-99098578D01*
X144927957Y-99411450D01*
X144927958Y-99411452D01*
X145030941Y-99750942D01*
X145057000Y-100015525D01*
X145057000Y-103692475D01*
X145030941Y-103957058D01*
X144939492Y-104258524D01*
X144927957Y-104296550D01*
X144760723Y-104609422D01*
X144535661Y-104883661D01*
X144261423Y-105108723D01*
X143948549Y-105275957D01*
X143948547Y-105275958D01*
X143609057Y-105378941D01*
X143256000Y-105413714D01*
X142902942Y-105378941D01*
X142563452Y-105275958D01*
X142563450Y-105275957D01*
X142250578Y-105108723D01*
X141976339Y-104883661D01*
X141751277Y-104609423D01*
X141584043Y-104296549D01*
X141521179Y-104089315D01*
X141481059Y-103957057D01*
X141455000Y-103692474D01*
X141455001Y-100015525D01*
X141481060Y-99750942D01*
X141584043Y-99411452D01*
X141584044Y-99411450D01*
X141751278Y-99098578D01*
X141976340Y-98824339D01*
X142250579Y-98599277D01*
X142563451Y-98432043D01*
X142563453Y-98432042D01*
X142902943Y-98329059D01*
X143256000Y-98294286D01*
X143609058Y-98329059D01*
X143609058Y-98329059D01*
G37*
G36*
X114256916Y-96587334D02*
G01*
X114365492Y-96620271D01*
X114365495Y-96620272D01*
X114401601Y-96639571D01*
X114465557Y-96673756D01*
X114553264Y-96745736D01*
X114625244Y-96833443D01*
X114652855Y-96885101D01*
X114678728Y-96933505D01*
X114678729Y-96933508D01*
X114711666Y-97042084D01*
X114722787Y-97155000D01*
X114711666Y-97267916D01*
X114678729Y-97376492D01*
X114678728Y-97376495D01*
X114671070Y-97390822D01*
X114625244Y-97476557D01*
X114553264Y-97564264D01*
X114465557Y-97636244D01*
X114411613Y-97665077D01*
X114384141Y-97679761D01*
X114363766Y-97693375D01*
X114346439Y-97710702D01*
X114332826Y-97731076D01*
X114323448Y-97753715D01*
X114318668Y-97777748D01*
X114318668Y-97802252D01*
X114323448Y-97826285D01*
X114332826Y-97848924D01*
X114346440Y-97869299D01*
X114363767Y-97886626D01*
X114384141Y-97900239D01*
X114465557Y-97943756D01*
X114553264Y-98015736D01*
X114625244Y-98103443D01*
X114659429Y-98167399D01*
X114678728Y-98203505D01*
X114678729Y-98203508D01*
X114711666Y-98312084D01*
X114722787Y-98425000D01*
X114711666Y-98537916D01*
X114678729Y-98646492D01*
X114678728Y-98646495D01*
X114659429Y-98682601D01*
X114625244Y-98746557D01*
X114553264Y-98834264D01*
X114476354Y-98897383D01*
X114459035Y-98914702D01*
X114445421Y-98935077D01*
X114436043Y-98957716D01*
X114431263Y-98981749D01*
X114431263Y-99006253D01*
X114436043Y-99030286D01*
X114445421Y-99052925D01*
X114459034Y-99073299D01*
X114476361Y-99090626D01*
X114496736Y-99104240D01*
X114519375Y-99113618D01*
X114543408Y-99118398D01*
X114555660Y-99119000D01*
X114720000Y-99119000D01*
X114720000Y-100271000D01*
X113118000Y-100271000D01*
X113118000Y-99119000D01*
X113282340Y-99119000D01*
X113306726Y-99116598D01*
X113330175Y-99109485D01*
X113351786Y-99097934D01*
X113370728Y-99082389D01*
X113386273Y-99063447D01*
X113397824Y-99041836D01*
X113404937Y-99018387D01*
X113407339Y-98994001D01*
X113404937Y-98969615D01*
X113397824Y-98946166D01*
X113386273Y-98924555D01*
X113370728Y-98905613D01*
X113361655Y-98897391D01*
X113284736Y-98834264D01*
X113212756Y-98746557D01*
X113178571Y-98682601D01*
X113159272Y-98646495D01*
X113159271Y-98646492D01*
X113126334Y-98537916D01*
X113115213Y-98425000D01*
X113126334Y-98312084D01*
X113159271Y-98203508D01*
X113159272Y-98203505D01*
X113178571Y-98167399D01*
X113212756Y-98103443D01*
X113284736Y-98015736D01*
X113372443Y-97943756D01*
X113453859Y-97900239D01*
X113474234Y-97886625D01*
X113491561Y-97869298D01*
X113505174Y-97848924D01*
X113514552Y-97826285D01*
X113519332Y-97802252D01*
X113519332Y-97777748D01*
X113514552Y-97753715D01*
X113505174Y-97731076D01*
X113491560Y-97710701D01*
X113474233Y-97693374D01*
X113453859Y-97679761D01*
X113426387Y-97665077D01*
X113372443Y-97636244D01*
X113284736Y-97564264D01*
X113212756Y-97476557D01*
X113166930Y-97390822D01*
X113159272Y-97376495D01*
X113159271Y-97376492D01*
X113126334Y-97267916D01*
X113115213Y-97155000D01*
X113126334Y-97042084D01*
X113159271Y-96933508D01*
X113159272Y-96933505D01*
X113185145Y-96885101D01*
X113212756Y-96833443D01*
X113284736Y-96745736D01*
X113372443Y-96673756D01*
X113436399Y-96639571D01*
X113472505Y-96620272D01*
X113472508Y-96620271D01*
X113581084Y-96587334D01*
X113665702Y-96579000D01*
X114172298Y-96579000D01*
X114256916Y-96587334D01*
X114256916Y-96587334D01*
G37*
G36*
X107906916Y-95317334D02*
G01*
X108015492Y-95350271D01*
X108015495Y-95350272D01*
X108049348Y-95368367D01*
X108115557Y-95403756D01*
X108203264Y-95475736D01*
X108275244Y-95563443D01*
X108301730Y-95612996D01*
X108328728Y-95663505D01*
X108328729Y-95663508D01*
X108361666Y-95772084D01*
X108372787Y-95885000D01*
X108361666Y-95997916D01*
X108328729Y-96106492D01*
X108328728Y-96106495D01*
X108309429Y-96142601D01*
X108275244Y-96206557D01*
X108203264Y-96294264D01*
X108115557Y-96366244D01*
X108034141Y-96409761D01*
X108013766Y-96423375D01*
X107996439Y-96440702D01*
X107982826Y-96461076D01*
X107973448Y-96483715D01*
X107968668Y-96507748D01*
X107968668Y-96532252D01*
X107973448Y-96556285D01*
X107982826Y-96578924D01*
X107996440Y-96599299D01*
X108013767Y-96616626D01*
X108034141Y-96630239D01*
X108115557Y-96673756D01*
X108203264Y-96745736D01*
X108275244Y-96833443D01*
X108302855Y-96885101D01*
X108328728Y-96933505D01*
X108328729Y-96933508D01*
X108361666Y-97042084D01*
X108372787Y-97155000D01*
X108361666Y-97267916D01*
X108328729Y-97376492D01*
X108328728Y-97376495D01*
X108321070Y-97390822D01*
X108275244Y-97476557D01*
X108203264Y-97564264D01*
X108126354Y-97627383D01*
X108109035Y-97644702D01*
X108095421Y-97665077D01*
X108086043Y-97687716D01*
X108081263Y-97711749D01*
X108081263Y-97736253D01*
X108086043Y-97760286D01*
X108095421Y-97782925D01*
X108109034Y-97803299D01*
X108126361Y-97820626D01*
X108146736Y-97834240D01*
X108169375Y-97843618D01*
X108193408Y-97848398D01*
X108205660Y-97849000D01*
X108370000Y-97849000D01*
X108370000Y-99001000D01*
X106768000Y-99001000D01*
X106768000Y-97849000D01*
X106932340Y-97849000D01*
X106956726Y-97846598D01*
X106980175Y-97839485D01*
X107001786Y-97827934D01*
X107020728Y-97812389D01*
X107036273Y-97793447D01*
X107047824Y-97771836D01*
X107054937Y-97748387D01*
X107057339Y-97724001D01*
X107054937Y-97699615D01*
X107047824Y-97676166D01*
X107036273Y-97654555D01*
X107020728Y-97635613D01*
X107011655Y-97627391D01*
X106934736Y-97564264D01*
X106862756Y-97476557D01*
X106816930Y-97390822D01*
X106809272Y-97376495D01*
X106809271Y-97376492D01*
X106776334Y-97267916D01*
X106765213Y-97155000D01*
X106776334Y-97042084D01*
X106809271Y-96933508D01*
X106809272Y-96933505D01*
X106835145Y-96885101D01*
X106862756Y-96833443D01*
X106934736Y-96745736D01*
X107022443Y-96673756D01*
X107103859Y-96630239D01*
X107124234Y-96616625D01*
X107141561Y-96599298D01*
X107155174Y-96578924D01*
X107164552Y-96556285D01*
X107169332Y-96532252D01*
X107169332Y-96507748D01*
X107164552Y-96483715D01*
X107155174Y-96461076D01*
X107141560Y-96440701D01*
X107124233Y-96423374D01*
X107103859Y-96409761D01*
X107022443Y-96366244D01*
X106934736Y-96294264D01*
X106862756Y-96206557D01*
X106828571Y-96142601D01*
X106809272Y-96106495D01*
X106809271Y-96106492D01*
X106776334Y-95997916D01*
X106765213Y-95885000D01*
X106776334Y-95772084D01*
X106809271Y-95663508D01*
X106809272Y-95663505D01*
X106836270Y-95612996D01*
X106862756Y-95563443D01*
X106934736Y-95475736D01*
X107022443Y-95403756D01*
X107088652Y-95368367D01*
X107122505Y-95350272D01*
X107122508Y-95350271D01*
X107231084Y-95317334D01*
X107315702Y-95309000D01*
X107822298Y-95309000D01*
X107906916Y-95317334D01*
X107906916Y-95317334D01*
G37*
G36*
X138342823Y-95485313D02*
G01*
X138503242Y-95533976D01*
X138635906Y-95604886D01*
X138651078Y-95612996D01*
X138780659Y-95719341D01*
X138887004Y-95848922D01*
X138887005Y-95848924D01*
X138966024Y-95996758D01*
X139014687Y-96157177D01*
X139027000Y-96282197D01*
X139027000Y-97265804D01*
X139014687Y-97390823D01*
X138966024Y-97551242D01*
X138910802Y-97654555D01*
X138887004Y-97699078D01*
X138787252Y-97820626D01*
X138780659Y-97828659D01*
X138651077Y-97935005D01*
X138503241Y-98014024D01*
X138503238Y-98014025D01*
X138493098Y-98017101D01*
X138342822Y-98062687D01*
X138176000Y-98079117D01*
X138009177Y-98062687D01*
X137858901Y-98017101D01*
X137848761Y-98014025D01*
X137848758Y-98014024D01*
X137700924Y-97935005D01*
X137700922Y-97935004D01*
X137571341Y-97828659D01*
X137564748Y-97820626D01*
X137464995Y-97699077D01*
X137385976Y-97551241D01*
X137337313Y-97390822D01*
X137325000Y-97265803D01*
X137325000Y-96282197D01*
X137337314Y-96157177D01*
X137385977Y-95996758D01*
X137464996Y-95848924D01*
X137464997Y-95848922D01*
X137571342Y-95719341D01*
X137700923Y-95612996D01*
X137716095Y-95604886D01*
X137848759Y-95533976D01*
X138009178Y-95485313D01*
X138176000Y-95468883D01*
X138342823Y-95485313D01*
X138342823Y-95485313D01*
G37*
G36*
X140882823Y-95485313D02*
G01*
X141043242Y-95533976D01*
X141175906Y-95604886D01*
X141191078Y-95612996D01*
X141320659Y-95719341D01*
X141427004Y-95848922D01*
X141427005Y-95848924D01*
X141506024Y-95996758D01*
X141554687Y-96157177D01*
X141567000Y-96282197D01*
X141567000Y-97265804D01*
X141554687Y-97390823D01*
X141506024Y-97551242D01*
X141450802Y-97654555D01*
X141427004Y-97699078D01*
X141327252Y-97820626D01*
X141320659Y-97828659D01*
X141191077Y-97935005D01*
X141043241Y-98014024D01*
X141043238Y-98014025D01*
X141033098Y-98017101D01*
X140882822Y-98062687D01*
X140716000Y-98079117D01*
X140549177Y-98062687D01*
X140398901Y-98017101D01*
X140388761Y-98014025D01*
X140388758Y-98014024D01*
X140240924Y-97935005D01*
X140240922Y-97935004D01*
X140111341Y-97828659D01*
X140104748Y-97820626D01*
X140004995Y-97699077D01*
X139925976Y-97551241D01*
X139877313Y-97390822D01*
X139865000Y-97265803D01*
X139865000Y-96282197D01*
X139877314Y-96157177D01*
X139925977Y-95996758D01*
X140004996Y-95848924D01*
X140004997Y-95848922D01*
X140111342Y-95719341D01*
X140240923Y-95612996D01*
X140256095Y-95604886D01*
X140388759Y-95533976D01*
X140549178Y-95485313D01*
X140716000Y-95468883D01*
X140882823Y-95485313D01*
X140882823Y-95485313D01*
G37*
G36*
X127139000Y-98056000D02*
G01*
X125337000Y-98056000D01*
X125337000Y-96254000D01*
X127139000Y-96254000D01*
X127139000Y-98056000D01*
X127139000Y-98056000D01*
G37*
G36*
X123808442Y-96260518D02*
G01*
X123874627Y-96267037D01*
X124044466Y-96318557D01*
X124200991Y-96402222D01*
X124226766Y-96423375D01*
X124338186Y-96514814D01*
X124407519Y-96599298D01*
X124450778Y-96652009D01*
X124475904Y-96699017D01*
X124531578Y-96803173D01*
X124534443Y-96808534D01*
X124585963Y-96978373D01*
X124603359Y-97155000D01*
X124585963Y-97331627D01*
X124534443Y-97501466D01*
X124450778Y-97657991D01*
X124427032Y-97686925D01*
X124338186Y-97795186D01*
X124246202Y-97870674D01*
X124200991Y-97907778D01*
X124044466Y-97991443D01*
X123874627Y-98042963D01*
X123808443Y-98049481D01*
X123742260Y-98056000D01*
X123653740Y-98056000D01*
X123587557Y-98049481D01*
X123521373Y-98042963D01*
X123351534Y-97991443D01*
X123195009Y-97907778D01*
X123149798Y-97870674D01*
X123057814Y-97795186D01*
X122968968Y-97686925D01*
X122945222Y-97657991D01*
X122861557Y-97501466D01*
X122810037Y-97331627D01*
X122792641Y-97155000D01*
X122810037Y-96978373D01*
X122861557Y-96808534D01*
X122864423Y-96803173D01*
X122920096Y-96699017D01*
X122945222Y-96652009D01*
X122988481Y-96599298D01*
X123057814Y-96514814D01*
X123169234Y-96423375D01*
X123195009Y-96402222D01*
X123351534Y-96318557D01*
X123521373Y-96267037D01*
X123587558Y-96260518D01*
X123653740Y-96254000D01*
X123742260Y-96254000D01*
X123808442Y-96260518D01*
X123808442Y-96260518D01*
G37*
G36*
X102453674Y-96535465D02*
G01*
X102491367Y-96546899D01*
X102526103Y-96565466D01*
X102556548Y-96590452D01*
X102581534Y-96620897D01*
X102600101Y-96655633D01*
X102611535Y-96693326D01*
X102616000Y-96738661D01*
X102616000Y-97825339D01*
X102611535Y-97870674D01*
X102600101Y-97908367D01*
X102581534Y-97943103D01*
X102556548Y-97973548D01*
X102526103Y-97998534D01*
X102491367Y-98017101D01*
X102453674Y-98028535D01*
X102408339Y-98033000D01*
X101571661Y-98033000D01*
X101526326Y-98028535D01*
X101488633Y-98017101D01*
X101453897Y-97998534D01*
X101423452Y-97973548D01*
X101398466Y-97943103D01*
X101379899Y-97908367D01*
X101368465Y-97870674D01*
X101364000Y-97825339D01*
X101364000Y-96738661D01*
X101368465Y-96693326D01*
X101379899Y-96655633D01*
X101398466Y-96620897D01*
X101423452Y-96590452D01*
X101453897Y-96565466D01*
X101488633Y-96546899D01*
X101526326Y-96535465D01*
X101571661Y-96531000D01*
X102408339Y-96531000D01*
X102453674Y-96535465D01*
X102453674Y-96535465D01*
G37*
G36*
X100403674Y-96535465D02*
G01*
X100441367Y-96546899D01*
X100476103Y-96565466D01*
X100506548Y-96590452D01*
X100531534Y-96620897D01*
X100550101Y-96655633D01*
X100561535Y-96693326D01*
X100566000Y-96738661D01*
X100566000Y-97825339D01*
X100561535Y-97870674D01*
X100550101Y-97908367D01*
X100531534Y-97943103D01*
X100506548Y-97973548D01*
X100476103Y-97998534D01*
X100441367Y-98017101D01*
X100403674Y-98028535D01*
X100358339Y-98033000D01*
X99521661Y-98033000D01*
X99476326Y-98028535D01*
X99438633Y-98017101D01*
X99403897Y-97998534D01*
X99373452Y-97973548D01*
X99348466Y-97943103D01*
X99329899Y-97908367D01*
X99318465Y-97870674D01*
X99314000Y-97825339D01*
X99314000Y-96738661D01*
X99318465Y-96693326D01*
X99329899Y-96655633D01*
X99348466Y-96620897D01*
X99373452Y-96590452D01*
X99403897Y-96565466D01*
X99438633Y-96546899D01*
X99476326Y-96535465D01*
X99521661Y-96531000D01*
X100358339Y-96531000D01*
X100403674Y-96535465D01*
X100403674Y-96535465D01*
G37*
G36*
X118573674Y-96408465D02*
G01*
X118611367Y-96419899D01*
X118646103Y-96438466D01*
X118676548Y-96463452D01*
X118701534Y-96493897D01*
X118720101Y-96528633D01*
X118731535Y-96566326D01*
X118736000Y-96611661D01*
X118736000Y-97698339D01*
X118731535Y-97743674D01*
X118720101Y-97781367D01*
X118701534Y-97816103D01*
X118676548Y-97846548D01*
X118646103Y-97871534D01*
X118611367Y-97890101D01*
X118573674Y-97901535D01*
X118528339Y-97906000D01*
X117691661Y-97906000D01*
X117646326Y-97901535D01*
X117608633Y-97890101D01*
X117573897Y-97871534D01*
X117543452Y-97846548D01*
X117518466Y-97816103D01*
X117499899Y-97781367D01*
X117488465Y-97743674D01*
X117484000Y-97698339D01*
X117484000Y-96611661D01*
X117488465Y-96566326D01*
X117499899Y-96528633D01*
X117518466Y-96493897D01*
X117543452Y-96463452D01*
X117573897Y-96438466D01*
X117608633Y-96419899D01*
X117646326Y-96408465D01*
X117691661Y-96404000D01*
X118528339Y-96404000D01*
X118573674Y-96408465D01*
X118573674Y-96408465D01*
G37*
G36*
X120623674Y-96408465D02*
G01*
X120661367Y-96419899D01*
X120696103Y-96438466D01*
X120726548Y-96463452D01*
X120751534Y-96493897D01*
X120770101Y-96528633D01*
X120781535Y-96566326D01*
X120786000Y-96611661D01*
X120786000Y-97698339D01*
X120781535Y-97743674D01*
X120770101Y-97781367D01*
X120751534Y-97816103D01*
X120726548Y-97846548D01*
X120696103Y-97871534D01*
X120661367Y-97890101D01*
X120623674Y-97901535D01*
X120578339Y-97906000D01*
X119741661Y-97906000D01*
X119696326Y-97901535D01*
X119658633Y-97890101D01*
X119623897Y-97871534D01*
X119593452Y-97846548D01*
X119568466Y-97816103D01*
X119549899Y-97781367D01*
X119538465Y-97743674D01*
X119534000Y-97698339D01*
X119534000Y-96611661D01*
X119538465Y-96566326D01*
X119549899Y-96528633D01*
X119568466Y-96493897D01*
X119593452Y-96463452D01*
X119623897Y-96438466D01*
X119658633Y-96419899D01*
X119696326Y-96408465D01*
X119741661Y-96404000D01*
X120578339Y-96404000D01*
X120623674Y-96408465D01*
X120623674Y-96408465D01*
G37*
G36*
X152988674Y-95653465D02*
G01*
X153026367Y-95664899D01*
X153061103Y-95683466D01*
X153091548Y-95708452D01*
X153116534Y-95738897D01*
X153135101Y-95773633D01*
X153146535Y-95811326D01*
X153151000Y-95856661D01*
X153151000Y-96693339D01*
X153146535Y-96738674D01*
X153135101Y-96776367D01*
X153116534Y-96811103D01*
X153091548Y-96841548D01*
X153061103Y-96866534D01*
X153026367Y-96885101D01*
X152988674Y-96896535D01*
X152943339Y-96901000D01*
X151856661Y-96901000D01*
X151811326Y-96896535D01*
X151773633Y-96885101D01*
X151738897Y-96866534D01*
X151708452Y-96841548D01*
X151683466Y-96811103D01*
X151664899Y-96776367D01*
X151653465Y-96738674D01*
X151649000Y-96693339D01*
X151649000Y-95856661D01*
X151653465Y-95811326D01*
X151664899Y-95773633D01*
X151683466Y-95738897D01*
X151708452Y-95708452D01*
X151738897Y-95683466D01*
X151773633Y-95664899D01*
X151811326Y-95653465D01*
X151856661Y-95649000D01*
X152943339Y-95649000D01*
X152988674Y-95653465D01*
X152988674Y-95653465D01*
G37*
G36*
X148416674Y-95653465D02*
G01*
X148454367Y-95664899D01*
X148489103Y-95683466D01*
X148519548Y-95708452D01*
X148544534Y-95738897D01*
X148563101Y-95773633D01*
X148574535Y-95811326D01*
X148579000Y-95856661D01*
X148579000Y-96693339D01*
X148574535Y-96738674D01*
X148563101Y-96776367D01*
X148544534Y-96811103D01*
X148519548Y-96841548D01*
X148489103Y-96866534D01*
X148454367Y-96885101D01*
X148416674Y-96896535D01*
X148371339Y-96901000D01*
X147284661Y-96901000D01*
X147239326Y-96896535D01*
X147201633Y-96885101D01*
X147166897Y-96866534D01*
X147136452Y-96841548D01*
X147111466Y-96811103D01*
X147092899Y-96776367D01*
X147081465Y-96738674D01*
X147077000Y-96693339D01*
X147077000Y-95856661D01*
X147081465Y-95811326D01*
X147092899Y-95773633D01*
X147111466Y-95738897D01*
X147136452Y-95708452D01*
X147166897Y-95683466D01*
X147201633Y-95664899D01*
X147239326Y-95653465D01*
X147284661Y-95649000D01*
X148371339Y-95649000D01*
X148416674Y-95653465D01*
X148416674Y-95653465D01*
G37*
G36*
X150702674Y-95653465D02*
G01*
X150740367Y-95664899D01*
X150775103Y-95683466D01*
X150805548Y-95708452D01*
X150830534Y-95738897D01*
X150849101Y-95773633D01*
X150860535Y-95811326D01*
X150865000Y-95856661D01*
X150865000Y-96693339D01*
X150860535Y-96738674D01*
X150849101Y-96776367D01*
X150830534Y-96811103D01*
X150805548Y-96841548D01*
X150775103Y-96866534D01*
X150740367Y-96885101D01*
X150702674Y-96896535D01*
X150657339Y-96901000D01*
X149570661Y-96901000D01*
X149525326Y-96896535D01*
X149487633Y-96885101D01*
X149452897Y-96866534D01*
X149422452Y-96841548D01*
X149397466Y-96811103D01*
X149378899Y-96776367D01*
X149367465Y-96738674D01*
X149363000Y-96693339D01*
X149363000Y-95856661D01*
X149367465Y-95811326D01*
X149378899Y-95773633D01*
X149397466Y-95738897D01*
X149422452Y-95708452D01*
X149452897Y-95683466D01*
X149487633Y-95664899D01*
X149525326Y-95653465D01*
X149570661Y-95649000D01*
X150657339Y-95649000D01*
X150702674Y-95653465D01*
X150702674Y-95653465D01*
G37*
G36*
X100403674Y-93995465D02*
G01*
X100441367Y-94006899D01*
X100476103Y-94025466D01*
X100506548Y-94050452D01*
X100531534Y-94080897D01*
X100550101Y-94115633D01*
X100561535Y-94153326D01*
X100566000Y-94198661D01*
X100566000Y-95285339D01*
X100561535Y-95330674D01*
X100550101Y-95368367D01*
X100531534Y-95403103D01*
X100506548Y-95433548D01*
X100476103Y-95458534D01*
X100441367Y-95477101D01*
X100403674Y-95488535D01*
X100358339Y-95493000D01*
X99521661Y-95493000D01*
X99476326Y-95488535D01*
X99438633Y-95477101D01*
X99403897Y-95458534D01*
X99373452Y-95433548D01*
X99348466Y-95403103D01*
X99329899Y-95368367D01*
X99318465Y-95330674D01*
X99314000Y-95285339D01*
X99314000Y-94198661D01*
X99318465Y-94153326D01*
X99329899Y-94115633D01*
X99348466Y-94080897D01*
X99373452Y-94050452D01*
X99403897Y-94025466D01*
X99438633Y-94006899D01*
X99476326Y-93995465D01*
X99521661Y-93991000D01*
X100358339Y-93991000D01*
X100403674Y-93995465D01*
X100403674Y-93995465D01*
G37*
G36*
X102453674Y-93995465D02*
G01*
X102491367Y-94006899D01*
X102526103Y-94025466D01*
X102556548Y-94050452D01*
X102581534Y-94080897D01*
X102600101Y-94115633D01*
X102611535Y-94153326D01*
X102616000Y-94198661D01*
X102616000Y-95285339D01*
X102611535Y-95330674D01*
X102600101Y-95368367D01*
X102581534Y-95403103D01*
X102556548Y-95433548D01*
X102526103Y-95458534D01*
X102491367Y-95477101D01*
X102453674Y-95488535D01*
X102408339Y-95493000D01*
X101571661Y-95493000D01*
X101526326Y-95488535D01*
X101488633Y-95477101D01*
X101453897Y-95458534D01*
X101423452Y-95433548D01*
X101398466Y-95403103D01*
X101379899Y-95368367D01*
X101368465Y-95330674D01*
X101364000Y-95285339D01*
X101364000Y-94198661D01*
X101368465Y-94153326D01*
X101379899Y-94115633D01*
X101398466Y-94080897D01*
X101423452Y-94050452D01*
X101453897Y-94025466D01*
X101488633Y-94006899D01*
X101526326Y-93995465D01*
X101571661Y-93991000D01*
X102408339Y-93991000D01*
X102453674Y-93995465D01*
X102453674Y-93995465D01*
G37*
G36*
X120267487Y-92426996D02*
G01*
X120504253Y-92525068D01*
X120504255Y-92525069D01*
X120564016Y-92565000D01*
X120717339Y-92667447D01*
X120898553Y-92848661D01*
X121040932Y-93061747D01*
X121139004Y-93298513D01*
X121189000Y-93549861D01*
X121189000Y-93806139D01*
X121139004Y-94057487D01*
X121053806Y-94263173D01*
X121040931Y-94294255D01*
X120898553Y-94507339D01*
X120717339Y-94688553D01*
X120504255Y-94830931D01*
X120504254Y-94830932D01*
X120504253Y-94830932D01*
X120267487Y-94929004D01*
X120016139Y-94979000D01*
X119759861Y-94979000D01*
X119508513Y-94929004D01*
X119271747Y-94830932D01*
X119271746Y-94830932D01*
X119271745Y-94830931D01*
X119058661Y-94688553D01*
X118877447Y-94507339D01*
X118735069Y-94294255D01*
X118722194Y-94263173D01*
X118636996Y-94057487D01*
X118587000Y-93806139D01*
X118587000Y-93549861D01*
X118636996Y-93298513D01*
X118735068Y-93061747D01*
X118877447Y-92848661D01*
X119058661Y-92667447D01*
X119211984Y-92565000D01*
X119271745Y-92525069D01*
X119271747Y-92525068D01*
X119508513Y-92426996D01*
X119759861Y-92377000D01*
X120016139Y-92377000D01*
X120267487Y-92426996D01*
X120267487Y-92426996D01*
G37*
G36*
X152988674Y-93603465D02*
G01*
X153026367Y-93614899D01*
X153061103Y-93633466D01*
X153091548Y-93658452D01*
X153116534Y-93688897D01*
X153135101Y-93723633D01*
X153146535Y-93761326D01*
X153151000Y-93806661D01*
X153151000Y-94643339D01*
X153146535Y-94688674D01*
X153135101Y-94726367D01*
X153116534Y-94761103D01*
X153091548Y-94791548D01*
X153061103Y-94816534D01*
X153026367Y-94835101D01*
X152988674Y-94846535D01*
X152943339Y-94851000D01*
X151856661Y-94851000D01*
X151811326Y-94846535D01*
X151773633Y-94835101D01*
X151738897Y-94816534D01*
X151708452Y-94791548D01*
X151683466Y-94761103D01*
X151664899Y-94726367D01*
X151653465Y-94688674D01*
X151649000Y-94643339D01*
X151649000Y-93806661D01*
X151653465Y-93761326D01*
X151664899Y-93723633D01*
X151683466Y-93688897D01*
X151708452Y-93658452D01*
X151738897Y-93633466D01*
X151773633Y-93614899D01*
X151811326Y-93603465D01*
X151856661Y-93599000D01*
X152943339Y-93599000D01*
X152988674Y-93603465D01*
X152988674Y-93603465D01*
G37*
G36*
X148416674Y-93603465D02*
G01*
X148454367Y-93614899D01*
X148489103Y-93633466D01*
X148519548Y-93658452D01*
X148544534Y-93688897D01*
X148563101Y-93723633D01*
X148574535Y-93761326D01*
X148579000Y-93806661D01*
X148579000Y-94643339D01*
X148574535Y-94688674D01*
X148563101Y-94726367D01*
X148544534Y-94761103D01*
X148519548Y-94791548D01*
X148489103Y-94816534D01*
X148454367Y-94835101D01*
X148416674Y-94846535D01*
X148371339Y-94851000D01*
X147284661Y-94851000D01*
X147239326Y-94846535D01*
X147201633Y-94835101D01*
X147166897Y-94816534D01*
X147136452Y-94791548D01*
X147111466Y-94761103D01*
X147092899Y-94726367D01*
X147081465Y-94688674D01*
X147077000Y-94643339D01*
X147077000Y-93806661D01*
X147081465Y-93761326D01*
X147092899Y-93723633D01*
X147111466Y-93688897D01*
X147136452Y-93658452D01*
X147166897Y-93633466D01*
X147201633Y-93614899D01*
X147239326Y-93603465D01*
X147284661Y-93599000D01*
X148371339Y-93599000D01*
X148416674Y-93603465D01*
X148416674Y-93603465D01*
G37*
G36*
X150702674Y-93603465D02*
G01*
X150740367Y-93614899D01*
X150775103Y-93633466D01*
X150805548Y-93658452D01*
X150830534Y-93688897D01*
X150849101Y-93723633D01*
X150860535Y-93761326D01*
X150865000Y-93806661D01*
X150865000Y-94643339D01*
X150860535Y-94688674D01*
X150849101Y-94726367D01*
X150830534Y-94761103D01*
X150805548Y-94791548D01*
X150775103Y-94816534D01*
X150740367Y-94835101D01*
X150702674Y-94846535D01*
X150657339Y-94851000D01*
X149570661Y-94851000D01*
X149525326Y-94846535D01*
X149487633Y-94835101D01*
X149452897Y-94816534D01*
X149422452Y-94791548D01*
X149397466Y-94761103D01*
X149378899Y-94726367D01*
X149367465Y-94688674D01*
X149363000Y-94643339D01*
X149363000Y-93806661D01*
X149367465Y-93761326D01*
X149378899Y-93723633D01*
X149397466Y-93688897D01*
X149422452Y-93658452D01*
X149452897Y-93633466D01*
X149487633Y-93614899D01*
X149525326Y-93603465D01*
X149570661Y-93599000D01*
X150657339Y-93599000D01*
X150702674Y-93603465D01*
X150702674Y-93603465D01*
G37*
G36*
X128350674Y-93367465D02*
G01*
X128388367Y-93378899D01*
X128423103Y-93397466D01*
X128453548Y-93422452D01*
X128478534Y-93452897D01*
X128497101Y-93487633D01*
X128508535Y-93525326D01*
X128513000Y-93570661D01*
X128513000Y-94407339D01*
X128508535Y-94452674D01*
X128497101Y-94490367D01*
X128478534Y-94525103D01*
X128453548Y-94555548D01*
X128423103Y-94580534D01*
X128388367Y-94599101D01*
X128350674Y-94610535D01*
X128305339Y-94615000D01*
X127218661Y-94615000D01*
X127173326Y-94610535D01*
X127135633Y-94599101D01*
X127100897Y-94580534D01*
X127070452Y-94555548D01*
X127045466Y-94525103D01*
X127026899Y-94490367D01*
X127015465Y-94452674D01*
X127011000Y-94407339D01*
X127011000Y-93570661D01*
X127015465Y-93525326D01*
X127026899Y-93487633D01*
X127045466Y-93452897D01*
X127070452Y-93422452D01*
X127100897Y-93397466D01*
X127135633Y-93378899D01*
X127173326Y-93367465D01*
X127218661Y-93363000D01*
X128305339Y-93363000D01*
X128350674Y-93367465D01*
X128350674Y-93367465D01*
G37*
G36*
X112602674Y-93367465D02*
G01*
X112640367Y-93378899D01*
X112675103Y-93397466D01*
X112705548Y-93422452D01*
X112730534Y-93452897D01*
X112749101Y-93487633D01*
X112760535Y-93525326D01*
X112765000Y-93570661D01*
X112765000Y-94407339D01*
X112760535Y-94452674D01*
X112749101Y-94490367D01*
X112730534Y-94525103D01*
X112705548Y-94555548D01*
X112675103Y-94580534D01*
X112640367Y-94599101D01*
X112602674Y-94610535D01*
X112557339Y-94615000D01*
X111470661Y-94615000D01*
X111425326Y-94610535D01*
X111387633Y-94599101D01*
X111352897Y-94580534D01*
X111322452Y-94555548D01*
X111297466Y-94525103D01*
X111278899Y-94490367D01*
X111267465Y-94452674D01*
X111263000Y-94407339D01*
X111263000Y-93570661D01*
X111267465Y-93525326D01*
X111278899Y-93487633D01*
X111297466Y-93452897D01*
X111322452Y-93422452D01*
X111352897Y-93397466D01*
X111387633Y-93378899D01*
X111425326Y-93367465D01*
X111470661Y-93363000D01*
X112557339Y-93363000D01*
X112602674Y-93367465D01*
X112602674Y-93367465D01*
G37*
G36*
X112602674Y-91317465D02*
G01*
X112640367Y-91328899D01*
X112675103Y-91347466D01*
X112705548Y-91372452D01*
X112730534Y-91402897D01*
X112749101Y-91437633D01*
X112760535Y-91475326D01*
X112765000Y-91520661D01*
X112765000Y-92357339D01*
X112760535Y-92402674D01*
X112749101Y-92440367D01*
X112730534Y-92475103D01*
X112705548Y-92505548D01*
X112675103Y-92530534D01*
X112640367Y-92549101D01*
X112602674Y-92560535D01*
X112557339Y-92565000D01*
X111470661Y-92565000D01*
X111425326Y-92560535D01*
X111387633Y-92549101D01*
X111352897Y-92530534D01*
X111322452Y-92505548D01*
X111297466Y-92475103D01*
X111278899Y-92440367D01*
X111267465Y-92402674D01*
X111263000Y-92357339D01*
X111263000Y-91520661D01*
X111267465Y-91475326D01*
X111278899Y-91437633D01*
X111297466Y-91402897D01*
X111322452Y-91372452D01*
X111352897Y-91347466D01*
X111387633Y-91328899D01*
X111425326Y-91317465D01*
X111470661Y-91313000D01*
X112557339Y-91313000D01*
X112602674Y-91317465D01*
X112602674Y-91317465D01*
G37*
G36*
X128350674Y-91317465D02*
G01*
X128388367Y-91328899D01*
X128423103Y-91347466D01*
X128453548Y-91372452D01*
X128478534Y-91402897D01*
X128497101Y-91437633D01*
X128508535Y-91475326D01*
X128513000Y-91520661D01*
X128513000Y-92357339D01*
X128508535Y-92402674D01*
X128497101Y-92440367D01*
X128478534Y-92475103D01*
X128453548Y-92505548D01*
X128423103Y-92530534D01*
X128388367Y-92549101D01*
X128350674Y-92560535D01*
X128305339Y-92565000D01*
X127218661Y-92565000D01*
X127173326Y-92560535D01*
X127135633Y-92549101D01*
X127100897Y-92530534D01*
X127070452Y-92505548D01*
X127045466Y-92475103D01*
X127026899Y-92440367D01*
X127015465Y-92402674D01*
X127011000Y-92357339D01*
X127011000Y-91520661D01*
X127015465Y-91475326D01*
X127026899Y-91437633D01*
X127045466Y-91402897D01*
X127070452Y-91372452D01*
X127100897Y-91347466D01*
X127135633Y-91328899D01*
X127173326Y-91317465D01*
X127218661Y-91313000D01*
X128305339Y-91313000D01*
X128350674Y-91317465D01*
X128350674Y-91317465D01*
G37*
G36*
X96092674Y-90573465D02*
G01*
X96130367Y-90584899D01*
X96165103Y-90603466D01*
X96195548Y-90628452D01*
X96220534Y-90658897D01*
X96239101Y-90693633D01*
X96250535Y-90731326D01*
X96255000Y-90776661D01*
X96255000Y-91613339D01*
X96250535Y-91658674D01*
X96239101Y-91696367D01*
X96220534Y-91731103D01*
X96195548Y-91761548D01*
X96165103Y-91786534D01*
X96130367Y-91805101D01*
X96092674Y-91816535D01*
X96047339Y-91821000D01*
X94960661Y-91821000D01*
X94915326Y-91816535D01*
X94877633Y-91805101D01*
X94842897Y-91786534D01*
X94812452Y-91761548D01*
X94787466Y-91731103D01*
X94768899Y-91696367D01*
X94757465Y-91658674D01*
X94753000Y-91613339D01*
X94753000Y-90776661D01*
X94757465Y-90731326D01*
X94768899Y-90693633D01*
X94787466Y-90658897D01*
X94812452Y-90628452D01*
X94842897Y-90603466D01*
X94877633Y-90584899D01*
X94915326Y-90573465D01*
X94960661Y-90569000D01*
X96047339Y-90569000D01*
X96092674Y-90573465D01*
X96092674Y-90573465D01*
G37*
G36*
X101172674Y-90573465D02*
G01*
X101210367Y-90584899D01*
X101245103Y-90603466D01*
X101275548Y-90628452D01*
X101300534Y-90658897D01*
X101319101Y-90693633D01*
X101330535Y-90731326D01*
X101335000Y-90776661D01*
X101335000Y-91613339D01*
X101330535Y-91658674D01*
X101319101Y-91696367D01*
X101300534Y-91731103D01*
X101275548Y-91761548D01*
X101245103Y-91786534D01*
X101210367Y-91805101D01*
X101172674Y-91816535D01*
X101127339Y-91821000D01*
X100040661Y-91821000D01*
X99995326Y-91816535D01*
X99957633Y-91805101D01*
X99922897Y-91786534D01*
X99892452Y-91761548D01*
X99867466Y-91731103D01*
X99848899Y-91696367D01*
X99837465Y-91658674D01*
X99833000Y-91613339D01*
X99833000Y-90776661D01*
X99837465Y-90731326D01*
X99848899Y-90693633D01*
X99867466Y-90658897D01*
X99892452Y-90628452D01*
X99922897Y-90603466D01*
X99957633Y-90584899D01*
X99995326Y-90573465D01*
X100040661Y-90569000D01*
X101127339Y-90569000D01*
X101172674Y-90573465D01*
X101172674Y-90573465D01*
G37*
G36*
X98632674Y-90573465D02*
G01*
X98670367Y-90584899D01*
X98705103Y-90603466D01*
X98735548Y-90628452D01*
X98760534Y-90658897D01*
X98779101Y-90693633D01*
X98790535Y-90731326D01*
X98795000Y-90776661D01*
X98795000Y-91613339D01*
X98790535Y-91658674D01*
X98779101Y-91696367D01*
X98760534Y-91731103D01*
X98735548Y-91761548D01*
X98705103Y-91786534D01*
X98670367Y-91805101D01*
X98632674Y-91816535D01*
X98587339Y-91821000D01*
X97500661Y-91821000D01*
X97455326Y-91816535D01*
X97417633Y-91805101D01*
X97382897Y-91786534D01*
X97352452Y-91761548D01*
X97327466Y-91731103D01*
X97308899Y-91696367D01*
X97297465Y-91658674D01*
X97293000Y-91613339D01*
X97293000Y-90776661D01*
X97297465Y-90731326D01*
X97308899Y-90693633D01*
X97327466Y-90658897D01*
X97352452Y-90628452D01*
X97382897Y-90603466D01*
X97417633Y-90584899D01*
X97455326Y-90573465D01*
X97500661Y-90569000D01*
X98587339Y-90569000D01*
X98632674Y-90573465D01*
X98632674Y-90573465D01*
G37*
G36*
X93552674Y-90573465D02*
G01*
X93590367Y-90584899D01*
X93625103Y-90603466D01*
X93655548Y-90628452D01*
X93680534Y-90658897D01*
X93699101Y-90693633D01*
X93710535Y-90731326D01*
X93715000Y-90776661D01*
X93715000Y-91613339D01*
X93710535Y-91658674D01*
X93699101Y-91696367D01*
X93680534Y-91731103D01*
X93655548Y-91761548D01*
X93625103Y-91786534D01*
X93590367Y-91805101D01*
X93552674Y-91816535D01*
X93507339Y-91821000D01*
X92420661Y-91821000D01*
X92375326Y-91816535D01*
X92337633Y-91805101D01*
X92302897Y-91786534D01*
X92272452Y-91761548D01*
X92247466Y-91731103D01*
X92228899Y-91696367D01*
X92217465Y-91658674D01*
X92213000Y-91613339D01*
X92213000Y-90776661D01*
X92217465Y-90731326D01*
X92228899Y-90693633D01*
X92247466Y-90658897D01*
X92272452Y-90628452D01*
X92302897Y-90603466D01*
X92337633Y-90584899D01*
X92375326Y-90573465D01*
X92420661Y-90569000D01*
X93507339Y-90569000D01*
X93552674Y-90573465D01*
X93552674Y-90573465D01*
G37*
G36*
X155360823Y-89839313D02*
G01*
X155521242Y-89887976D01*
X155596050Y-89927962D01*
X155669078Y-89966996D01*
X155798659Y-90073341D01*
X155905004Y-90202922D01*
X155905005Y-90202924D01*
X155984024Y-90350758D01*
X156032687Y-90511177D01*
X156049117Y-90678000D01*
X156032687Y-90844823D01*
X155984024Y-91005242D01*
X155913114Y-91137906D01*
X155905004Y-91153078D01*
X155798659Y-91282659D01*
X155669078Y-91389004D01*
X155653906Y-91397114D01*
X155521242Y-91468024D01*
X155360823Y-91516687D01*
X155235804Y-91529000D01*
X155152196Y-91529000D01*
X155027177Y-91516687D01*
X154866758Y-91468024D01*
X154734094Y-91397114D01*
X154718922Y-91389004D01*
X154589341Y-91282659D01*
X154482996Y-91153078D01*
X154474886Y-91137906D01*
X154403976Y-91005242D01*
X154355313Y-90844823D01*
X154338883Y-90678000D01*
X154355313Y-90511177D01*
X154403976Y-90350758D01*
X154482995Y-90202924D01*
X154482996Y-90202922D01*
X154589341Y-90073341D01*
X154718922Y-89966996D01*
X154791950Y-89927962D01*
X154866758Y-89887976D01*
X155027177Y-89839313D01*
X155152196Y-89827000D01*
X155235804Y-89827000D01*
X155360823Y-89839313D01*
X155360823Y-89839313D01*
G37*
G36*
X145200823Y-89839313D02*
G01*
X145361242Y-89887976D01*
X145436050Y-89927962D01*
X145509078Y-89966996D01*
X145638659Y-90073341D01*
X145745004Y-90202922D01*
X145745005Y-90202924D01*
X145824024Y-90350758D01*
X145872687Y-90511177D01*
X145889117Y-90678000D01*
X145872687Y-90844823D01*
X145824024Y-91005242D01*
X145753114Y-91137906D01*
X145745004Y-91153078D01*
X145638659Y-91282659D01*
X145509078Y-91389004D01*
X145493906Y-91397114D01*
X145361242Y-91468024D01*
X145200823Y-91516687D01*
X145075804Y-91529000D01*
X144992196Y-91529000D01*
X144867177Y-91516687D01*
X144706758Y-91468024D01*
X144574094Y-91397114D01*
X144558922Y-91389004D01*
X144429341Y-91282659D01*
X144322996Y-91153078D01*
X144314886Y-91137906D01*
X144243976Y-91005242D01*
X144195313Y-90844823D01*
X144178883Y-90678000D01*
X144195313Y-90511177D01*
X144243976Y-90350758D01*
X144322995Y-90202924D01*
X144322996Y-90202922D01*
X144429341Y-90073341D01*
X144558922Y-89966996D01*
X144631950Y-89927962D01*
X144706758Y-89887976D01*
X144867177Y-89839313D01*
X144992196Y-89827000D01*
X145075804Y-89827000D01*
X145200823Y-89839313D01*
X145200823Y-89839313D01*
G37*
G36*
X136224674Y-89811465D02*
G01*
X136262367Y-89822899D01*
X136297103Y-89841466D01*
X136327548Y-89866452D01*
X136352534Y-89896897D01*
X136371101Y-89931633D01*
X136382535Y-89969326D01*
X136387000Y-90014661D01*
X136387000Y-90851339D01*
X136382535Y-90896674D01*
X136371101Y-90934367D01*
X136352534Y-90969103D01*
X136327548Y-90999548D01*
X136297103Y-91024534D01*
X136262367Y-91043101D01*
X136224674Y-91054535D01*
X136179339Y-91059000D01*
X135092661Y-91059000D01*
X135047326Y-91054535D01*
X135009633Y-91043101D01*
X134974897Y-91024534D01*
X134944452Y-90999548D01*
X134919466Y-90969103D01*
X134900899Y-90934367D01*
X134889465Y-90896674D01*
X134885000Y-90851339D01*
X134885000Y-90014661D01*
X134889465Y-89969326D01*
X134900899Y-89931633D01*
X134919466Y-89896897D01*
X134944452Y-89866452D01*
X134974897Y-89841466D01*
X135009633Y-89822899D01*
X135047326Y-89811465D01*
X135092661Y-89807000D01*
X136179339Y-89807000D01*
X136224674Y-89811465D01*
X136224674Y-89811465D01*
G37*
G36*
X141304674Y-89811465D02*
G01*
X141342367Y-89822899D01*
X141377103Y-89841466D01*
X141407548Y-89866452D01*
X141432534Y-89896897D01*
X141451101Y-89931633D01*
X141462535Y-89969326D01*
X141467000Y-90014661D01*
X141467000Y-90851339D01*
X141462535Y-90896674D01*
X141451101Y-90934367D01*
X141432534Y-90969103D01*
X141407548Y-90999548D01*
X141377103Y-91024534D01*
X141342367Y-91043101D01*
X141304674Y-91054535D01*
X141259339Y-91059000D01*
X140172661Y-91059000D01*
X140127326Y-91054535D01*
X140089633Y-91043101D01*
X140054897Y-91024534D01*
X140024452Y-90999548D01*
X139999466Y-90969103D01*
X139980899Y-90934367D01*
X139969465Y-90896674D01*
X139965000Y-90851339D01*
X139965000Y-90014661D01*
X139969465Y-89969326D01*
X139980899Y-89931633D01*
X139999466Y-89896897D01*
X140024452Y-89866452D01*
X140054897Y-89841466D01*
X140089633Y-89822899D01*
X140127326Y-89811465D01*
X140172661Y-89807000D01*
X141259339Y-89807000D01*
X141304674Y-89811465D01*
X141304674Y-89811465D01*
G37*
G36*
X138764674Y-89811465D02*
G01*
X138802367Y-89822899D01*
X138837103Y-89841466D01*
X138867548Y-89866452D01*
X138892534Y-89896897D01*
X138911101Y-89931633D01*
X138922535Y-89969326D01*
X138927000Y-90014661D01*
X138927000Y-90851339D01*
X138922535Y-90896674D01*
X138911101Y-90934367D01*
X138892534Y-90969103D01*
X138867548Y-90999548D01*
X138837103Y-91024534D01*
X138802367Y-91043101D01*
X138764674Y-91054535D01*
X138719339Y-91059000D01*
X137632661Y-91059000D01*
X137587326Y-91054535D01*
X137549633Y-91043101D01*
X137514897Y-91024534D01*
X137484452Y-90999548D01*
X137459466Y-90969103D01*
X137440899Y-90934367D01*
X137429465Y-90896674D01*
X137425000Y-90851339D01*
X137425000Y-90014661D01*
X137429465Y-89969326D01*
X137440899Y-89931633D01*
X137459466Y-89896897D01*
X137484452Y-89866452D01*
X137514897Y-89841466D01*
X137549633Y-89822899D01*
X137587326Y-89811465D01*
X137632661Y-89807000D01*
X138719339Y-89807000D01*
X138764674Y-89811465D01*
X138764674Y-89811465D01*
G37*
G36*
X107906916Y-87062334D02*
G01*
X108015492Y-87095271D01*
X108015495Y-87095272D01*
X108051601Y-87114571D01*
X108115557Y-87148756D01*
X108203264Y-87220736D01*
X108275244Y-87308443D01*
X108296374Y-87347975D01*
X108328728Y-87408505D01*
X108328729Y-87408508D01*
X108361666Y-87517084D01*
X108372787Y-87630000D01*
X108361666Y-87742916D01*
X108330123Y-87846897D01*
X108328728Y-87851495D01*
X108314581Y-87877962D01*
X108275244Y-87951557D01*
X108203264Y-88039264D01*
X108115557Y-88111244D01*
X108034141Y-88154761D01*
X108013766Y-88168375D01*
X107996439Y-88185702D01*
X107982826Y-88206076D01*
X107973448Y-88228715D01*
X107968668Y-88252748D01*
X107968668Y-88277252D01*
X107973448Y-88301285D01*
X107982826Y-88323924D01*
X107996440Y-88344299D01*
X108013767Y-88361626D01*
X108034141Y-88375239D01*
X108115557Y-88418756D01*
X108203264Y-88490736D01*
X108275244Y-88578443D01*
X108293755Y-88613076D01*
X108328728Y-88678505D01*
X108328729Y-88678508D01*
X108361666Y-88787084D01*
X108372787Y-88900000D01*
X108361666Y-89012916D01*
X108333898Y-89104452D01*
X108328728Y-89121495D01*
X108327005Y-89124718D01*
X108275244Y-89221557D01*
X108203264Y-89309264D01*
X108126354Y-89372383D01*
X108109035Y-89389702D01*
X108095421Y-89410077D01*
X108086043Y-89432716D01*
X108081263Y-89456749D01*
X108081263Y-89481253D01*
X108086043Y-89505286D01*
X108095421Y-89527925D01*
X108109034Y-89548299D01*
X108126361Y-89565626D01*
X108146736Y-89579240D01*
X108169375Y-89588618D01*
X108193408Y-89593398D01*
X108205660Y-89594000D01*
X108370000Y-89594000D01*
X108370000Y-90746000D01*
X106768000Y-90746000D01*
X106768000Y-89594000D01*
X106932340Y-89594000D01*
X106956726Y-89591598D01*
X106980175Y-89584485D01*
X107001786Y-89572934D01*
X107020728Y-89557389D01*
X107036273Y-89538447D01*
X107047824Y-89516836D01*
X107054937Y-89493387D01*
X107057339Y-89469001D01*
X107054937Y-89444615D01*
X107047824Y-89421166D01*
X107036273Y-89399555D01*
X107020728Y-89380613D01*
X107011655Y-89372391D01*
X106934736Y-89309264D01*
X106862756Y-89221557D01*
X106810995Y-89124718D01*
X106809272Y-89121495D01*
X106804102Y-89104452D01*
X106776334Y-89012916D01*
X106765213Y-88900000D01*
X106776334Y-88787084D01*
X106809271Y-88678508D01*
X106809272Y-88678505D01*
X106844245Y-88613076D01*
X106862756Y-88578443D01*
X106934736Y-88490736D01*
X107022443Y-88418756D01*
X107103859Y-88375239D01*
X107124234Y-88361625D01*
X107141561Y-88344298D01*
X107155174Y-88323924D01*
X107164552Y-88301285D01*
X107169332Y-88277252D01*
X107169332Y-88252748D01*
X107164552Y-88228715D01*
X107155174Y-88206076D01*
X107141560Y-88185701D01*
X107124233Y-88168374D01*
X107103859Y-88154761D01*
X107022443Y-88111244D01*
X106934736Y-88039264D01*
X106862756Y-87951557D01*
X106823419Y-87877962D01*
X106809272Y-87851495D01*
X106807877Y-87846897D01*
X106776334Y-87742916D01*
X106765213Y-87630000D01*
X106776334Y-87517084D01*
X106809271Y-87408508D01*
X106809272Y-87408505D01*
X106841626Y-87347975D01*
X106862756Y-87308443D01*
X106934736Y-87220736D01*
X107022443Y-87148756D01*
X107086399Y-87114571D01*
X107122505Y-87095272D01*
X107122508Y-87095271D01*
X107231084Y-87062334D01*
X107315702Y-87054000D01*
X107822298Y-87054000D01*
X107906916Y-87062334D01*
X107906916Y-87062334D01*
G37*
G36*
X112602674Y-89049465D02*
G01*
X112640367Y-89060899D01*
X112675103Y-89079466D01*
X112705548Y-89104452D01*
X112730534Y-89134897D01*
X112749101Y-89169633D01*
X112760535Y-89207326D01*
X112765000Y-89252661D01*
X112765000Y-90089339D01*
X112760535Y-90134674D01*
X112749101Y-90172367D01*
X112730534Y-90207103D01*
X112705548Y-90237548D01*
X112675103Y-90262534D01*
X112640367Y-90281101D01*
X112602674Y-90292535D01*
X112557339Y-90297000D01*
X111470661Y-90297000D01*
X111425326Y-90292535D01*
X111387633Y-90281101D01*
X111352897Y-90262534D01*
X111322452Y-90237548D01*
X111297466Y-90207103D01*
X111278899Y-90172367D01*
X111267465Y-90134674D01*
X111263000Y-90089339D01*
X111263000Y-89252661D01*
X111267465Y-89207326D01*
X111278899Y-89169633D01*
X111297466Y-89134897D01*
X111322452Y-89104452D01*
X111352897Y-89079466D01*
X111387633Y-89060899D01*
X111425326Y-89049465D01*
X111470661Y-89045000D01*
X112557339Y-89045000D01*
X112602674Y-89049465D01*
X112602674Y-89049465D01*
G37*
G36*
X128350674Y-89049465D02*
G01*
X128388367Y-89060899D01*
X128423103Y-89079466D01*
X128453548Y-89104452D01*
X128478534Y-89134897D01*
X128497101Y-89169633D01*
X128508535Y-89207326D01*
X128513000Y-89252661D01*
X128513000Y-90089339D01*
X128508535Y-90134674D01*
X128497101Y-90172367D01*
X128478534Y-90207103D01*
X128453548Y-90237548D01*
X128423103Y-90262534D01*
X128388367Y-90281101D01*
X128350674Y-90292535D01*
X128305339Y-90297000D01*
X127218661Y-90297000D01*
X127173326Y-90292535D01*
X127135633Y-90281101D01*
X127100897Y-90262534D01*
X127070452Y-90237548D01*
X127045466Y-90207103D01*
X127026899Y-90172367D01*
X127015465Y-90134674D01*
X127011000Y-90089339D01*
X127011000Y-89252661D01*
X127015465Y-89207326D01*
X127026899Y-89169633D01*
X127045466Y-89134897D01*
X127070452Y-89104452D01*
X127100897Y-89079466D01*
X127135633Y-89060899D01*
X127173326Y-89049465D01*
X127218661Y-89045000D01*
X128305339Y-89045000D01*
X128350674Y-89049465D01*
X128350674Y-89049465D01*
G37*
G36*
X93552674Y-88523465D02*
G01*
X93590367Y-88534899D01*
X93625103Y-88553466D01*
X93655548Y-88578452D01*
X93680534Y-88608897D01*
X93699101Y-88643633D01*
X93710535Y-88681326D01*
X93715000Y-88726661D01*
X93715000Y-89563339D01*
X93710535Y-89608674D01*
X93699101Y-89646367D01*
X93680534Y-89681103D01*
X93655548Y-89711548D01*
X93625103Y-89736534D01*
X93590367Y-89755101D01*
X93552674Y-89766535D01*
X93507339Y-89771000D01*
X92420661Y-89771000D01*
X92375326Y-89766535D01*
X92337633Y-89755101D01*
X92302897Y-89736534D01*
X92272452Y-89711548D01*
X92247466Y-89681103D01*
X92228899Y-89646367D01*
X92217465Y-89608674D01*
X92213000Y-89563339D01*
X92213000Y-88726661D01*
X92217465Y-88681326D01*
X92228899Y-88643633D01*
X92247466Y-88608897D01*
X92272452Y-88578452D01*
X92302897Y-88553466D01*
X92337633Y-88534899D01*
X92375326Y-88523465D01*
X92420661Y-88519000D01*
X93507339Y-88519000D01*
X93552674Y-88523465D01*
X93552674Y-88523465D01*
G37*
G36*
X98632674Y-88523465D02*
G01*
X98670367Y-88534899D01*
X98705103Y-88553466D01*
X98735548Y-88578452D01*
X98760534Y-88608897D01*
X98779101Y-88643633D01*
X98790535Y-88681326D01*
X98795000Y-88726661D01*
X98795000Y-89563339D01*
X98790535Y-89608674D01*
X98779101Y-89646367D01*
X98760534Y-89681103D01*
X98735548Y-89711548D01*
X98705103Y-89736534D01*
X98670367Y-89755101D01*
X98632674Y-89766535D01*
X98587339Y-89771000D01*
X97500661Y-89771000D01*
X97455326Y-89766535D01*
X97417633Y-89755101D01*
X97382897Y-89736534D01*
X97352452Y-89711548D01*
X97327466Y-89681103D01*
X97308899Y-89646367D01*
X97297465Y-89608674D01*
X97293000Y-89563339D01*
X97293000Y-88726661D01*
X97297465Y-88681326D01*
X97308899Y-88643633D01*
X97327466Y-88608897D01*
X97352452Y-88578452D01*
X97382897Y-88553466D01*
X97417633Y-88534899D01*
X97455326Y-88523465D01*
X97500661Y-88519000D01*
X98587339Y-88519000D01*
X98632674Y-88523465D01*
X98632674Y-88523465D01*
G37*
G36*
X96092674Y-88523465D02*
G01*
X96130367Y-88534899D01*
X96165103Y-88553466D01*
X96195548Y-88578452D01*
X96220534Y-88608897D01*
X96239101Y-88643633D01*
X96250535Y-88681326D01*
X96255000Y-88726661D01*
X96255000Y-89563339D01*
X96250535Y-89608674D01*
X96239101Y-89646367D01*
X96220534Y-89681103D01*
X96195548Y-89711548D01*
X96165103Y-89736534D01*
X96130367Y-89755101D01*
X96092674Y-89766535D01*
X96047339Y-89771000D01*
X94960661Y-89771000D01*
X94915326Y-89766535D01*
X94877633Y-89755101D01*
X94842897Y-89736534D01*
X94812452Y-89711548D01*
X94787466Y-89681103D01*
X94768899Y-89646367D01*
X94757465Y-89608674D01*
X94753000Y-89563339D01*
X94753000Y-88726661D01*
X94757465Y-88681326D01*
X94768899Y-88643633D01*
X94787466Y-88608897D01*
X94812452Y-88578452D01*
X94842897Y-88553466D01*
X94877633Y-88534899D01*
X94915326Y-88523465D01*
X94960661Y-88519000D01*
X96047339Y-88519000D01*
X96092674Y-88523465D01*
X96092674Y-88523465D01*
G37*
G36*
X101172674Y-88523465D02*
G01*
X101210367Y-88534899D01*
X101245103Y-88553466D01*
X101275548Y-88578452D01*
X101300534Y-88608897D01*
X101319101Y-88643633D01*
X101330535Y-88681326D01*
X101335000Y-88726661D01*
X101335000Y-89563339D01*
X101330535Y-89608674D01*
X101319101Y-89646367D01*
X101300534Y-89681103D01*
X101275548Y-89711548D01*
X101245103Y-89736534D01*
X101210367Y-89755101D01*
X101172674Y-89766535D01*
X101127339Y-89771000D01*
X100040661Y-89771000D01*
X99995326Y-89766535D01*
X99957633Y-89755101D01*
X99922897Y-89736534D01*
X99892452Y-89711548D01*
X99867466Y-89681103D01*
X99848899Y-89646367D01*
X99837465Y-89608674D01*
X99833000Y-89563339D01*
X99833000Y-88726661D01*
X99837465Y-88681326D01*
X99848899Y-88643633D01*
X99867466Y-88608897D01*
X99892452Y-88578452D01*
X99922897Y-88553466D01*
X99957633Y-88534899D01*
X99995326Y-88523465D01*
X100040661Y-88519000D01*
X101127339Y-88519000D01*
X101172674Y-88523465D01*
X101172674Y-88523465D01*
G37*
G36*
X136224674Y-87761465D02*
G01*
X136262367Y-87772899D01*
X136297103Y-87791466D01*
X136327548Y-87816452D01*
X136352534Y-87846897D01*
X136371101Y-87881633D01*
X136382535Y-87919326D01*
X136387000Y-87964661D01*
X136387000Y-88801339D01*
X136382535Y-88846674D01*
X136371101Y-88884367D01*
X136352534Y-88919103D01*
X136327548Y-88949548D01*
X136297103Y-88974534D01*
X136262367Y-88993101D01*
X136224674Y-89004535D01*
X136179339Y-89009000D01*
X135092661Y-89009000D01*
X135047326Y-89004535D01*
X135009633Y-88993101D01*
X134974897Y-88974534D01*
X134944452Y-88949548D01*
X134919466Y-88919103D01*
X134900899Y-88884367D01*
X134889465Y-88846674D01*
X134885000Y-88801339D01*
X134885000Y-87964661D01*
X134889465Y-87919326D01*
X134900899Y-87881633D01*
X134919466Y-87846897D01*
X134944452Y-87816452D01*
X134974897Y-87791466D01*
X135009633Y-87772899D01*
X135047326Y-87761465D01*
X135092661Y-87757000D01*
X136179339Y-87757000D01*
X136224674Y-87761465D01*
X136224674Y-87761465D01*
G37*
G36*
X141304674Y-87761465D02*
G01*
X141342367Y-87772899D01*
X141377103Y-87791466D01*
X141407548Y-87816452D01*
X141432534Y-87846897D01*
X141451101Y-87881633D01*
X141462535Y-87919326D01*
X141467000Y-87964661D01*
X141467000Y-88801339D01*
X141462535Y-88846674D01*
X141451101Y-88884367D01*
X141432534Y-88919103D01*
X141407548Y-88949548D01*
X141377103Y-88974534D01*
X141342367Y-88993101D01*
X141304674Y-89004535D01*
X141259339Y-89009000D01*
X140172661Y-89009000D01*
X140127326Y-89004535D01*
X140089633Y-88993101D01*
X140054897Y-88974534D01*
X140024452Y-88949548D01*
X139999466Y-88919103D01*
X139980899Y-88884367D01*
X139969465Y-88846674D01*
X139965000Y-88801339D01*
X139965000Y-87964661D01*
X139969465Y-87919326D01*
X139980899Y-87881633D01*
X139999466Y-87846897D01*
X140024452Y-87816452D01*
X140054897Y-87791466D01*
X140089633Y-87772899D01*
X140127326Y-87761465D01*
X140172661Y-87757000D01*
X141259339Y-87757000D01*
X141304674Y-87761465D01*
X141304674Y-87761465D01*
G37*
G36*
X138764674Y-87761465D02*
G01*
X138802367Y-87772899D01*
X138837103Y-87791466D01*
X138867548Y-87816452D01*
X138892534Y-87846897D01*
X138911101Y-87881633D01*
X138922535Y-87919326D01*
X138927000Y-87964661D01*
X138927000Y-88801339D01*
X138922535Y-88846674D01*
X138911101Y-88884367D01*
X138892534Y-88919103D01*
X138867548Y-88949548D01*
X138837103Y-88974534D01*
X138802367Y-88993101D01*
X138764674Y-89004535D01*
X138719339Y-89009000D01*
X137632661Y-89009000D01*
X137587326Y-89004535D01*
X137549633Y-88993101D01*
X137514897Y-88974534D01*
X137484452Y-88949548D01*
X137459466Y-88919103D01*
X137440899Y-88884367D01*
X137429465Y-88846674D01*
X137425000Y-88801339D01*
X137425000Y-87964661D01*
X137429465Y-87919326D01*
X137440899Y-87881633D01*
X137459466Y-87846897D01*
X137484452Y-87816452D01*
X137514897Y-87791466D01*
X137549633Y-87772899D01*
X137587326Y-87761465D01*
X137632661Y-87757000D01*
X138719339Y-87757000D01*
X138764674Y-87761465D01*
X138764674Y-87761465D01*
G37*
G36*
X145200823Y-87299313D02*
G01*
X145361242Y-87347976D01*
X145474484Y-87408505D01*
X145509078Y-87426996D01*
X145638659Y-87533341D01*
X145745004Y-87662922D01*
X145745005Y-87662924D01*
X145824024Y-87810758D01*
X145872687Y-87971177D01*
X145889117Y-88138000D01*
X145872687Y-88304823D01*
X145824024Y-88465242D01*
X145776867Y-88553466D01*
X145745004Y-88613078D01*
X145638659Y-88742659D01*
X145509078Y-88849004D01*
X145509076Y-88849005D01*
X145361242Y-88928024D01*
X145361239Y-88928025D01*
X145357095Y-88929282D01*
X145200823Y-88976687D01*
X145075804Y-88989000D01*
X144992196Y-88989000D01*
X144867177Y-88976687D01*
X144710905Y-88929282D01*
X144706761Y-88928025D01*
X144706758Y-88928024D01*
X144558924Y-88849005D01*
X144558922Y-88849004D01*
X144429341Y-88742659D01*
X144322996Y-88613078D01*
X144291133Y-88553466D01*
X144243976Y-88465242D01*
X144195313Y-88304823D01*
X144178883Y-88138000D01*
X144195313Y-87971177D01*
X144243976Y-87810758D01*
X144322995Y-87662924D01*
X144322996Y-87662922D01*
X144429341Y-87533341D01*
X144558922Y-87426996D01*
X144593516Y-87408505D01*
X144706758Y-87347976D01*
X144867177Y-87299313D01*
X144992196Y-87287000D01*
X145075804Y-87287000D01*
X145200823Y-87299313D01*
X145200823Y-87299313D01*
G37*
G36*
X155360823Y-87299313D02*
G01*
X155521242Y-87347976D01*
X155634484Y-87408505D01*
X155669078Y-87426996D01*
X155798659Y-87533341D01*
X155905004Y-87662922D01*
X155905005Y-87662924D01*
X155984024Y-87810758D01*
X156032687Y-87971177D01*
X156049117Y-88138000D01*
X156032687Y-88304823D01*
X155984024Y-88465242D01*
X155936867Y-88553466D01*
X155905004Y-88613078D01*
X155798659Y-88742659D01*
X155669078Y-88849004D01*
X155669076Y-88849005D01*
X155521242Y-88928024D01*
X155521239Y-88928025D01*
X155517095Y-88929282D01*
X155360823Y-88976687D01*
X155235804Y-88989000D01*
X155152196Y-88989000D01*
X155027177Y-88976687D01*
X154870905Y-88929282D01*
X154866761Y-88928025D01*
X154866758Y-88928024D01*
X154718924Y-88849005D01*
X154718922Y-88849004D01*
X154589341Y-88742659D01*
X154482996Y-88613078D01*
X154451133Y-88553466D01*
X154403976Y-88465242D01*
X154355313Y-88304823D01*
X154338883Y-88138000D01*
X154355313Y-87971177D01*
X154403976Y-87810758D01*
X154482995Y-87662924D01*
X154482996Y-87662922D01*
X154589341Y-87533341D01*
X154718922Y-87426996D01*
X154753516Y-87408505D01*
X154866758Y-87347976D01*
X155027177Y-87299313D01*
X155152196Y-87287000D01*
X155235804Y-87287000D01*
X155360823Y-87299313D01*
X155360823Y-87299313D01*
G37*
G36*
X120267487Y-86426996D02*
G01*
X120504253Y-86525068D01*
X120504255Y-86525069D01*
X120717339Y-86667447D01*
X120898553Y-86848661D01*
X120979697Y-86970101D01*
X121040932Y-87061747D01*
X121139004Y-87298513D01*
X121189000Y-87549861D01*
X121189000Y-87806139D01*
X121139004Y-88057487D01*
X121068079Y-88228715D01*
X121040931Y-88294255D01*
X120898553Y-88507339D01*
X120717339Y-88688553D01*
X120504255Y-88830931D01*
X120504254Y-88830932D01*
X120504253Y-88830932D01*
X120267487Y-88929004D01*
X120016139Y-88979000D01*
X119759861Y-88979000D01*
X119508513Y-88929004D01*
X119271747Y-88830932D01*
X119271746Y-88830932D01*
X119271745Y-88830931D01*
X119058661Y-88688553D01*
X118877447Y-88507339D01*
X118735069Y-88294255D01*
X118707921Y-88228715D01*
X118636996Y-88057487D01*
X118587000Y-87806139D01*
X118587000Y-87549861D01*
X118636996Y-87298513D01*
X118735068Y-87061747D01*
X118796304Y-86970101D01*
X118877447Y-86848661D01*
X119058661Y-86667447D01*
X119271745Y-86525069D01*
X119271747Y-86525068D01*
X119508513Y-86426996D01*
X119759861Y-86377000D01*
X120016139Y-86377000D01*
X120267487Y-86426996D01*
X120267487Y-86426996D01*
G37*
G36*
X131518674Y-86883465D02*
G01*
X131556367Y-86894899D01*
X131591103Y-86913466D01*
X131621548Y-86938452D01*
X131646534Y-86968897D01*
X131665101Y-87003633D01*
X131676535Y-87041326D01*
X131681000Y-87086661D01*
X131681000Y-88173339D01*
X131676535Y-88218674D01*
X131665101Y-88256367D01*
X131646534Y-88291103D01*
X131621548Y-88321548D01*
X131591103Y-88346534D01*
X131556367Y-88365101D01*
X131518674Y-88376535D01*
X131473339Y-88381000D01*
X130636661Y-88381000D01*
X130591326Y-88376535D01*
X130553633Y-88365101D01*
X130518897Y-88346534D01*
X130488452Y-88321548D01*
X130463466Y-88291103D01*
X130444899Y-88256367D01*
X130433465Y-88218674D01*
X130429000Y-88173339D01*
X130429000Y-87086661D01*
X130433465Y-87041326D01*
X130444899Y-87003633D01*
X130463466Y-86968897D01*
X130488452Y-86938452D01*
X130518897Y-86913466D01*
X130553633Y-86894899D01*
X130591326Y-86883465D01*
X130636661Y-86879000D01*
X131473339Y-86879000D01*
X131518674Y-86883465D01*
X131518674Y-86883465D01*
G37*
G36*
X133568674Y-86883465D02*
G01*
X133606367Y-86894899D01*
X133641103Y-86913466D01*
X133671548Y-86938452D01*
X133696534Y-86968897D01*
X133715101Y-87003633D01*
X133726535Y-87041326D01*
X133731000Y-87086661D01*
X133731000Y-88173339D01*
X133726535Y-88218674D01*
X133715101Y-88256367D01*
X133696534Y-88291103D01*
X133671548Y-88321548D01*
X133641103Y-88346534D01*
X133606367Y-88365101D01*
X133568674Y-88376535D01*
X133523339Y-88381000D01*
X132686661Y-88381000D01*
X132641326Y-88376535D01*
X132603633Y-88365101D01*
X132568897Y-88346534D01*
X132538452Y-88321548D01*
X132513466Y-88291103D01*
X132494899Y-88256367D01*
X132483465Y-88218674D01*
X132479000Y-88173339D01*
X132479000Y-87086661D01*
X132483465Y-87041326D01*
X132494899Y-87003633D01*
X132513466Y-86968897D01*
X132538452Y-86938452D01*
X132568897Y-86913466D01*
X132603633Y-86894899D01*
X132641326Y-86883465D01*
X132686661Y-86879000D01*
X133523339Y-86879000D01*
X133568674Y-86883465D01*
X133568674Y-86883465D01*
G37*
G36*
X128350674Y-86999465D02*
G01*
X128388367Y-87010899D01*
X128423103Y-87029466D01*
X128453548Y-87054452D01*
X128478534Y-87084897D01*
X128497101Y-87119633D01*
X128508535Y-87157326D01*
X128513000Y-87202661D01*
X128513000Y-88039339D01*
X128508535Y-88084674D01*
X128497101Y-88122367D01*
X128478534Y-88157103D01*
X128453548Y-88187548D01*
X128423103Y-88212534D01*
X128388367Y-88231101D01*
X128350674Y-88242535D01*
X128305339Y-88247000D01*
X127218661Y-88247000D01*
X127173326Y-88242535D01*
X127135633Y-88231101D01*
X127100897Y-88212534D01*
X127070452Y-88187548D01*
X127045466Y-88157103D01*
X127026899Y-88122367D01*
X127015465Y-88084674D01*
X127011000Y-88039339D01*
X127011000Y-87202661D01*
X127015465Y-87157326D01*
X127026899Y-87119633D01*
X127045466Y-87084897D01*
X127070452Y-87054452D01*
X127100897Y-87029466D01*
X127135633Y-87010899D01*
X127173326Y-86999465D01*
X127218661Y-86995000D01*
X128305339Y-86995000D01*
X128350674Y-86999465D01*
X128350674Y-86999465D01*
G37*
G36*
X112602674Y-86999465D02*
G01*
X112640367Y-87010899D01*
X112675103Y-87029466D01*
X112705548Y-87054452D01*
X112730534Y-87084897D01*
X112749101Y-87119633D01*
X112760535Y-87157326D01*
X112765000Y-87202661D01*
X112765000Y-88039339D01*
X112760535Y-88084674D01*
X112749101Y-88122367D01*
X112730534Y-88157103D01*
X112705548Y-88187548D01*
X112675103Y-88212534D01*
X112640367Y-88231101D01*
X112602674Y-88242535D01*
X112557339Y-88247000D01*
X111470661Y-88247000D01*
X111425326Y-88242535D01*
X111387633Y-88231101D01*
X111352897Y-88212534D01*
X111322452Y-88187548D01*
X111297466Y-88157103D01*
X111278899Y-88122367D01*
X111267465Y-88084674D01*
X111263000Y-88039339D01*
X111263000Y-87202661D01*
X111267465Y-87157326D01*
X111278899Y-87119633D01*
X111297466Y-87084897D01*
X111322452Y-87054452D01*
X111352897Y-87029466D01*
X111387633Y-87010899D01*
X111425326Y-86999465D01*
X111470661Y-86995000D01*
X112557339Y-86995000D01*
X112602674Y-86999465D01*
X112602674Y-86999465D01*
G37*
G36*
X93552674Y-85747465D02*
G01*
X93590367Y-85758899D01*
X93625103Y-85777466D01*
X93655548Y-85802452D01*
X93680534Y-85832897D01*
X93699101Y-85867633D01*
X93710535Y-85905326D01*
X93715000Y-85950661D01*
X93715000Y-86787339D01*
X93710535Y-86832674D01*
X93699101Y-86870367D01*
X93680534Y-86905103D01*
X93655548Y-86935548D01*
X93625103Y-86960534D01*
X93590367Y-86979101D01*
X93552674Y-86990535D01*
X93507339Y-86995000D01*
X92420661Y-86995000D01*
X92375326Y-86990535D01*
X92337633Y-86979101D01*
X92302897Y-86960534D01*
X92272452Y-86935548D01*
X92247466Y-86905103D01*
X92228899Y-86870367D01*
X92217465Y-86832674D01*
X92213000Y-86787339D01*
X92213000Y-85950661D01*
X92217465Y-85905326D01*
X92228899Y-85867633D01*
X92247466Y-85832897D01*
X92272452Y-85802452D01*
X92302897Y-85777466D01*
X92337633Y-85758899D01*
X92375326Y-85747465D01*
X92420661Y-85743000D01*
X93507339Y-85743000D01*
X93552674Y-85747465D01*
X93552674Y-85747465D01*
G37*
G36*
X96092674Y-85747465D02*
G01*
X96130367Y-85758899D01*
X96165103Y-85777466D01*
X96195548Y-85802452D01*
X96220534Y-85832897D01*
X96239101Y-85867633D01*
X96250535Y-85905326D01*
X96255000Y-85950661D01*
X96255000Y-86787339D01*
X96250535Y-86832674D01*
X96239101Y-86870367D01*
X96220534Y-86905103D01*
X96195548Y-86935548D01*
X96165103Y-86960534D01*
X96130367Y-86979101D01*
X96092674Y-86990535D01*
X96047339Y-86995000D01*
X94960661Y-86995000D01*
X94915326Y-86990535D01*
X94877633Y-86979101D01*
X94842897Y-86960534D01*
X94812452Y-86935548D01*
X94787466Y-86905103D01*
X94768899Y-86870367D01*
X94757465Y-86832674D01*
X94753000Y-86787339D01*
X94753000Y-85950661D01*
X94757465Y-85905326D01*
X94768899Y-85867633D01*
X94787466Y-85832897D01*
X94812452Y-85802452D01*
X94842897Y-85777466D01*
X94877633Y-85758899D01*
X94915326Y-85747465D01*
X94960661Y-85743000D01*
X96047339Y-85743000D01*
X96092674Y-85747465D01*
X96092674Y-85747465D01*
G37*
G36*
X101172674Y-85747465D02*
G01*
X101210367Y-85758899D01*
X101245103Y-85777466D01*
X101275548Y-85802452D01*
X101300534Y-85832897D01*
X101319101Y-85867633D01*
X101330535Y-85905326D01*
X101335000Y-85950661D01*
X101335000Y-86787339D01*
X101330535Y-86832674D01*
X101319101Y-86870367D01*
X101300534Y-86905103D01*
X101275548Y-86935548D01*
X101245103Y-86960534D01*
X101210367Y-86979101D01*
X101172674Y-86990535D01*
X101127339Y-86995000D01*
X100040661Y-86995000D01*
X99995326Y-86990535D01*
X99957633Y-86979101D01*
X99922897Y-86960534D01*
X99892452Y-86935548D01*
X99867466Y-86905103D01*
X99848899Y-86870367D01*
X99837465Y-86832674D01*
X99833000Y-86787339D01*
X99833000Y-85950661D01*
X99837465Y-85905326D01*
X99848899Y-85867633D01*
X99867466Y-85832897D01*
X99892452Y-85802452D01*
X99922897Y-85777466D01*
X99957633Y-85758899D01*
X99995326Y-85747465D01*
X100040661Y-85743000D01*
X101127339Y-85743000D01*
X101172674Y-85747465D01*
X101172674Y-85747465D01*
G37*
G36*
X98632674Y-85738465D02*
G01*
X98670367Y-85749899D01*
X98705103Y-85768466D01*
X98735548Y-85793452D01*
X98760534Y-85823897D01*
X98779101Y-85858633D01*
X98790535Y-85896326D01*
X98795000Y-85941661D01*
X98795000Y-86778339D01*
X98790535Y-86823674D01*
X98779101Y-86861367D01*
X98760534Y-86896103D01*
X98735548Y-86926548D01*
X98705103Y-86951534D01*
X98670367Y-86970101D01*
X98632674Y-86981535D01*
X98587339Y-86986000D01*
X97500661Y-86986000D01*
X97455326Y-86981535D01*
X97417633Y-86970101D01*
X97382897Y-86951534D01*
X97352452Y-86926548D01*
X97327466Y-86896103D01*
X97308899Y-86861367D01*
X97297465Y-86823674D01*
X97293000Y-86778339D01*
X97293000Y-85941661D01*
X97297465Y-85896326D01*
X97308899Y-85858633D01*
X97327466Y-85823897D01*
X97352452Y-85793452D01*
X97382897Y-85768466D01*
X97417633Y-85749899D01*
X97455326Y-85738465D01*
X97500661Y-85734000D01*
X98587339Y-85734000D01*
X98632674Y-85738465D01*
X98632674Y-85738465D01*
G37*
G36*
X155360823Y-84759313D02*
G01*
X155521242Y-84807976D01*
X155628454Y-84865282D01*
X155669078Y-84886996D01*
X155798659Y-84993341D01*
X155905004Y-85122922D01*
X155905005Y-85122924D01*
X155984024Y-85270758D01*
X156032687Y-85431177D01*
X156049117Y-85598000D01*
X156032687Y-85764823D01*
X155984024Y-85925242D01*
X155964336Y-85962075D01*
X155905004Y-86073078D01*
X155798659Y-86202659D01*
X155669078Y-86309004D01*
X155669076Y-86309005D01*
X155521242Y-86388024D01*
X155360823Y-86436687D01*
X155235804Y-86449000D01*
X155152196Y-86449000D01*
X155027177Y-86436687D01*
X154866758Y-86388024D01*
X154718924Y-86309005D01*
X154718922Y-86309004D01*
X154589341Y-86202659D01*
X154482996Y-86073078D01*
X154423664Y-85962075D01*
X154403976Y-85925242D01*
X154355313Y-85764823D01*
X154338883Y-85598000D01*
X154355313Y-85431177D01*
X154403976Y-85270758D01*
X154482995Y-85122924D01*
X154482996Y-85122922D01*
X154589341Y-84993341D01*
X154718922Y-84886996D01*
X154759546Y-84865282D01*
X154866758Y-84807976D01*
X155027177Y-84759313D01*
X155152196Y-84747000D01*
X155235804Y-84747000D01*
X155360823Y-84759313D01*
X155360823Y-84759313D01*
G37*
G36*
X145200823Y-84759313D02*
G01*
X145361242Y-84807976D01*
X145468454Y-84865282D01*
X145509078Y-84886996D01*
X145638659Y-84993341D01*
X145745004Y-85122922D01*
X145745005Y-85122924D01*
X145824024Y-85270758D01*
X145872687Y-85431177D01*
X145889117Y-85598000D01*
X145872687Y-85764823D01*
X145824024Y-85925242D01*
X145804336Y-85962075D01*
X145745004Y-86073078D01*
X145638659Y-86202659D01*
X145509078Y-86309004D01*
X145509076Y-86309005D01*
X145361242Y-86388024D01*
X145200823Y-86436687D01*
X145075804Y-86449000D01*
X144992196Y-86449000D01*
X144867177Y-86436687D01*
X144706758Y-86388024D01*
X144558924Y-86309005D01*
X144558922Y-86309004D01*
X144429341Y-86202659D01*
X144322996Y-86073078D01*
X144263664Y-85962075D01*
X144243976Y-85925242D01*
X144195313Y-85764823D01*
X144178883Y-85598000D01*
X144195313Y-85431177D01*
X144243976Y-85270758D01*
X144322995Y-85122924D01*
X144322996Y-85122922D01*
X144429341Y-84993341D01*
X144558922Y-84886996D01*
X144599546Y-84865282D01*
X144706758Y-84807976D01*
X144867177Y-84759313D01*
X144992196Y-84747000D01*
X145075804Y-84747000D01*
X145200823Y-84759313D01*
X145200823Y-84759313D01*
G37*
G36*
X141053916Y-82490334D02*
G01*
X141162492Y-82523271D01*
X141162495Y-82523272D01*
X141198601Y-82542571D01*
X141262557Y-82576756D01*
X141350264Y-82648736D01*
X141422244Y-82736443D01*
X141456429Y-82800399D01*
X141475728Y-82836505D01*
X141475729Y-82836508D01*
X141508666Y-82945084D01*
X141519787Y-83058000D01*
X141508666Y-83170916D01*
X141492312Y-83224825D01*
X141475728Y-83279495D01*
X141456429Y-83315601D01*
X141422244Y-83379557D01*
X141350264Y-83467264D01*
X141262557Y-83539244D01*
X141181141Y-83582761D01*
X141160766Y-83596375D01*
X141143439Y-83613702D01*
X141129826Y-83634076D01*
X141120448Y-83656715D01*
X141115668Y-83680748D01*
X141115668Y-83705252D01*
X141120448Y-83729285D01*
X141129826Y-83751924D01*
X141143440Y-83772299D01*
X141160767Y-83789626D01*
X141181141Y-83803239D01*
X141262557Y-83846756D01*
X141350264Y-83918736D01*
X141422244Y-84006443D01*
X141456429Y-84070399D01*
X141475728Y-84106505D01*
X141475729Y-84106508D01*
X141508666Y-84215084D01*
X141519787Y-84328000D01*
X141508666Y-84440916D01*
X141475729Y-84549492D01*
X141475728Y-84549495D01*
X141456429Y-84585601D01*
X141422244Y-84649557D01*
X141350264Y-84737264D01*
X141273354Y-84800383D01*
X141256035Y-84817702D01*
X141242421Y-84838077D01*
X141233043Y-84860716D01*
X141228263Y-84884749D01*
X141228263Y-84909253D01*
X141233043Y-84933286D01*
X141242421Y-84955925D01*
X141256034Y-84976299D01*
X141273361Y-84993626D01*
X141293736Y-85007240D01*
X141316375Y-85016618D01*
X141340408Y-85021398D01*
X141352660Y-85022000D01*
X141517000Y-85022000D01*
X141517000Y-86174000D01*
X139915000Y-86174000D01*
X139915000Y-85022000D01*
X140079340Y-85022000D01*
X140103726Y-85019598D01*
X140127175Y-85012485D01*
X140148786Y-85000934D01*
X140167728Y-84985389D01*
X140183273Y-84966447D01*
X140194824Y-84944836D01*
X140201937Y-84921387D01*
X140204339Y-84897001D01*
X140201937Y-84872615D01*
X140194824Y-84849166D01*
X140183273Y-84827555D01*
X140167728Y-84808613D01*
X140158655Y-84800391D01*
X140081736Y-84737264D01*
X140009756Y-84649557D01*
X139975571Y-84585601D01*
X139956272Y-84549495D01*
X139956271Y-84549492D01*
X139923334Y-84440916D01*
X139912213Y-84328000D01*
X139923334Y-84215084D01*
X139956271Y-84106508D01*
X139956272Y-84106505D01*
X139975571Y-84070399D01*
X140009756Y-84006443D01*
X140081736Y-83918736D01*
X140169443Y-83846756D01*
X140250859Y-83803239D01*
X140271234Y-83789625D01*
X140288561Y-83772298D01*
X140302174Y-83751924D01*
X140311552Y-83729285D01*
X140316332Y-83705252D01*
X140316332Y-83680748D01*
X140311552Y-83656715D01*
X140302174Y-83634076D01*
X140288560Y-83613701D01*
X140271233Y-83596374D01*
X140250859Y-83582761D01*
X140169443Y-83539244D01*
X140081736Y-83467264D01*
X140009756Y-83379557D01*
X139975571Y-83315601D01*
X139956272Y-83279495D01*
X139939688Y-83224825D01*
X139923334Y-83170916D01*
X139912213Y-83058000D01*
X139923334Y-82945084D01*
X139956271Y-82836508D01*
X139956272Y-82836505D01*
X139975571Y-82800399D01*
X140009756Y-82736443D01*
X140081736Y-82648736D01*
X140169443Y-82576756D01*
X140233399Y-82542571D01*
X140269505Y-82523272D01*
X140269508Y-82523271D01*
X140378084Y-82490334D01*
X140462702Y-82482000D01*
X140969298Y-82482000D01*
X141053916Y-82490334D01*
X141053916Y-82490334D01*
G37*
G36*
X134730443Y-83433519D02*
G01*
X134796627Y-83440037D01*
X134966466Y-83491557D01*
X135122991Y-83575222D01*
X135148766Y-83596375D01*
X135260186Y-83687814D01*
X135329519Y-83772298D01*
X135372778Y-83825009D01*
X135456443Y-83981534D01*
X135507963Y-84151373D01*
X135525359Y-84328000D01*
X135507963Y-84504627D01*
X135456443Y-84674466D01*
X135372778Y-84830991D01*
X135352022Y-84856282D01*
X135260186Y-84968186D01*
X135194612Y-85022000D01*
X135122991Y-85080778D01*
X134966466Y-85164443D01*
X134796627Y-85215963D01*
X134730443Y-85222481D01*
X134664260Y-85229000D01*
X134575740Y-85229000D01*
X134509557Y-85222481D01*
X134443373Y-85215963D01*
X134273534Y-85164443D01*
X134117009Y-85080778D01*
X134045388Y-85022000D01*
X133979814Y-84968186D01*
X133887978Y-84856282D01*
X133867222Y-84830991D01*
X133783557Y-84674466D01*
X133732037Y-84504627D01*
X133714641Y-84328000D01*
X133732037Y-84151373D01*
X133783557Y-83981534D01*
X133867222Y-83825009D01*
X133910481Y-83772298D01*
X133979814Y-83687814D01*
X134091234Y-83596375D01*
X134117009Y-83575222D01*
X134273534Y-83491557D01*
X134443373Y-83440037D01*
X134509557Y-83433519D01*
X134575740Y-83427000D01*
X134664260Y-83427000D01*
X134730443Y-83433519D01*
X134730443Y-83433519D01*
G37*
G36*
X132981000Y-85229000D02*
G01*
X131179000Y-85229000D01*
X131179000Y-83427000D01*
X132981000Y-83427000D01*
X132981000Y-85229000D01*
X132981000Y-85229000D01*
G37*
G36*
X96092674Y-83697465D02*
G01*
X96130367Y-83708899D01*
X96165103Y-83727466D01*
X96195548Y-83752452D01*
X96220534Y-83782897D01*
X96239101Y-83817633D01*
X96250535Y-83855326D01*
X96255000Y-83900661D01*
X96255000Y-84737339D01*
X96250535Y-84782674D01*
X96239101Y-84820367D01*
X96220534Y-84855103D01*
X96195548Y-84885548D01*
X96165103Y-84910534D01*
X96130367Y-84929101D01*
X96092674Y-84940535D01*
X96047339Y-84945000D01*
X94960661Y-84945000D01*
X94915326Y-84940535D01*
X94877633Y-84929101D01*
X94842897Y-84910534D01*
X94812452Y-84885548D01*
X94787466Y-84855103D01*
X94768899Y-84820367D01*
X94757465Y-84782674D01*
X94753000Y-84737339D01*
X94753000Y-83900661D01*
X94757465Y-83855326D01*
X94768899Y-83817633D01*
X94787466Y-83782897D01*
X94812452Y-83752452D01*
X94842897Y-83727466D01*
X94877633Y-83708899D01*
X94915326Y-83697465D01*
X94960661Y-83693000D01*
X96047339Y-83693000D01*
X96092674Y-83697465D01*
X96092674Y-83697465D01*
G37*
G36*
X93552674Y-83697465D02*
G01*
X93590367Y-83708899D01*
X93625103Y-83727466D01*
X93655548Y-83752452D01*
X93680534Y-83782897D01*
X93699101Y-83817633D01*
X93710535Y-83855326D01*
X93715000Y-83900661D01*
X93715000Y-84737339D01*
X93710535Y-84782674D01*
X93699101Y-84820367D01*
X93680534Y-84855103D01*
X93655548Y-84885548D01*
X93625103Y-84910534D01*
X93590367Y-84929101D01*
X93552674Y-84940535D01*
X93507339Y-84945000D01*
X92420661Y-84945000D01*
X92375326Y-84940535D01*
X92337633Y-84929101D01*
X92302897Y-84910534D01*
X92272452Y-84885548D01*
X92247466Y-84855103D01*
X92228899Y-84820367D01*
X92217465Y-84782674D01*
X92213000Y-84737339D01*
X92213000Y-83900661D01*
X92217465Y-83855326D01*
X92228899Y-83817633D01*
X92247466Y-83782897D01*
X92272452Y-83752452D01*
X92302897Y-83727466D01*
X92337633Y-83708899D01*
X92375326Y-83697465D01*
X92420661Y-83693000D01*
X93507339Y-83693000D01*
X93552674Y-83697465D01*
X93552674Y-83697465D01*
G37*
G36*
X101172674Y-83697465D02*
G01*
X101210367Y-83708899D01*
X101245103Y-83727466D01*
X101275548Y-83752452D01*
X101300534Y-83782897D01*
X101319101Y-83817633D01*
X101330535Y-83855326D01*
X101335000Y-83900661D01*
X101335000Y-84737339D01*
X101330535Y-84782674D01*
X101319101Y-84820367D01*
X101300534Y-84855103D01*
X101275548Y-84885548D01*
X101245103Y-84910534D01*
X101210367Y-84929101D01*
X101172674Y-84940535D01*
X101127339Y-84945000D01*
X100040661Y-84945000D01*
X99995326Y-84940535D01*
X99957633Y-84929101D01*
X99922897Y-84910534D01*
X99892452Y-84885548D01*
X99867466Y-84855103D01*
X99848899Y-84820367D01*
X99837465Y-84782674D01*
X99833000Y-84737339D01*
X99833000Y-83900661D01*
X99837465Y-83855326D01*
X99848899Y-83817633D01*
X99867466Y-83782897D01*
X99892452Y-83752452D01*
X99922897Y-83727466D01*
X99957633Y-83708899D01*
X99995326Y-83697465D01*
X100040661Y-83693000D01*
X101127339Y-83693000D01*
X101172674Y-83697465D01*
X101172674Y-83697465D01*
G37*
G36*
X98632674Y-83688465D02*
G01*
X98670367Y-83699899D01*
X98705103Y-83718466D01*
X98735548Y-83743452D01*
X98760534Y-83773897D01*
X98779101Y-83808633D01*
X98790535Y-83846326D01*
X98795000Y-83891661D01*
X98795000Y-84728339D01*
X98790535Y-84773674D01*
X98779101Y-84811367D01*
X98760534Y-84846103D01*
X98735548Y-84876548D01*
X98705103Y-84901534D01*
X98670367Y-84920101D01*
X98632674Y-84931535D01*
X98587339Y-84936000D01*
X97500661Y-84936000D01*
X97455326Y-84931535D01*
X97417633Y-84920101D01*
X97382897Y-84901534D01*
X97352452Y-84876548D01*
X97327466Y-84846103D01*
X97308899Y-84811367D01*
X97297465Y-84773674D01*
X97293000Y-84728339D01*
X97293000Y-83891661D01*
X97297465Y-83846326D01*
X97308899Y-83808633D01*
X97327466Y-83773897D01*
X97352452Y-83743452D01*
X97382897Y-83718466D01*
X97417633Y-83699899D01*
X97455326Y-83688465D01*
X97500661Y-83684000D01*
X98587339Y-83684000D01*
X98632674Y-83688465D01*
X98632674Y-83688465D01*
G37*
G36*
X145885000Y-83909000D02*
G01*
X144183000Y-83909000D01*
X144183000Y-82207000D01*
X145885000Y-82207000D01*
X145885000Y-83909000D01*
X145885000Y-83909000D01*
G37*
G36*
X155360823Y-82219313D02*
G01*
X155521242Y-82267976D01*
X155653906Y-82338886D01*
X155669078Y-82346996D01*
X155798659Y-82453341D01*
X155905004Y-82582922D01*
X155905005Y-82582924D01*
X155984024Y-82730758D01*
X156032687Y-82891177D01*
X156049117Y-83058000D01*
X156032687Y-83224823D01*
X155984024Y-83385242D01*
X155954735Y-83440037D01*
X155905004Y-83533078D01*
X155798659Y-83662659D01*
X155669078Y-83769004D01*
X155659924Y-83773897D01*
X155521242Y-83848024D01*
X155360823Y-83896687D01*
X155235804Y-83909000D01*
X155152196Y-83909000D01*
X155027177Y-83896687D01*
X154866758Y-83848024D01*
X154728076Y-83773897D01*
X154718922Y-83769004D01*
X154589341Y-83662659D01*
X154482996Y-83533078D01*
X154433265Y-83440037D01*
X154403976Y-83385242D01*
X154355313Y-83224823D01*
X154338883Y-83058000D01*
X154355313Y-82891177D01*
X154403976Y-82730758D01*
X154482995Y-82582924D01*
X154482996Y-82582922D01*
X154589341Y-82453341D01*
X154718922Y-82346996D01*
X154734094Y-82338886D01*
X154866758Y-82267976D01*
X155027177Y-82219313D01*
X155152196Y-82207000D01*
X155235804Y-82207000D01*
X155360823Y-82219313D01*
X155360823Y-82219313D01*
G37*
G36*
X103310823Y-80161313D02*
G01*
X103471242Y-80209976D01*
X103538361Y-80245852D01*
X103619078Y-80288996D01*
X103748659Y-80395341D01*
X103855004Y-80524922D01*
X103855005Y-80524924D01*
X103934024Y-80672758D01*
X103982687Y-80833177D01*
X103999117Y-81000000D01*
X103982687Y-81166823D01*
X103934024Y-81327242D01*
X103893477Y-81403100D01*
X103855004Y-81475078D01*
X103748659Y-81604659D01*
X103619078Y-81711004D01*
X103619076Y-81711005D01*
X103471242Y-81790024D01*
X103310823Y-81838687D01*
X103185804Y-81851000D01*
X103102196Y-81851000D01*
X102977177Y-81838687D01*
X102816758Y-81790024D01*
X102668924Y-81711005D01*
X102668922Y-81711004D01*
X102539341Y-81604659D01*
X102432996Y-81475078D01*
X102394523Y-81403100D01*
X102353976Y-81327242D01*
X102305313Y-81166823D01*
X102288883Y-81000000D01*
X102305313Y-80833177D01*
X102353976Y-80672758D01*
X102432995Y-80524924D01*
X102432996Y-80524922D01*
X102539341Y-80395341D01*
X102668922Y-80288996D01*
X102749639Y-80245852D01*
X102816758Y-80209976D01*
X102977177Y-80161313D01*
X103102196Y-80149000D01*
X103185804Y-80149000D01*
X103310823Y-80161313D01*
X103310823Y-80161313D01*
G37*
G36*
X93232228Y-80181703D02*
G01*
X93387100Y-80245853D01*
X93526481Y-80338985D01*
X93645015Y-80457519D01*
X93738147Y-80596900D01*
X93802297Y-80751772D01*
X93835000Y-80916184D01*
X93835000Y-81083816D01*
X93802297Y-81248228D01*
X93738147Y-81403100D01*
X93645015Y-81542481D01*
X93526481Y-81661015D01*
X93387100Y-81754147D01*
X93232228Y-81818297D01*
X93067816Y-81851000D01*
X92900184Y-81851000D01*
X92735772Y-81818297D01*
X92580900Y-81754147D01*
X92441519Y-81661015D01*
X92322985Y-81542481D01*
X92229853Y-81403100D01*
X92165703Y-81248228D01*
X92133000Y-81083816D01*
X92133000Y-80916184D01*
X92165703Y-80751772D01*
X92229853Y-80596900D01*
X92322985Y-80457519D01*
X92441519Y-80338985D01*
X92580900Y-80245853D01*
X92735772Y-80181703D01*
X92900184Y-80149000D01*
X93067816Y-80149000D01*
X93232228Y-80181703D01*
X93232228Y-80181703D01*
G37*
G36*
X143844674Y-79397465D02*
G01*
X143882367Y-79408899D01*
X143917103Y-79427466D01*
X143947548Y-79452452D01*
X143972534Y-79482897D01*
X143991101Y-79517633D01*
X144002535Y-79555326D01*
X144007000Y-79600661D01*
X144007000Y-80437339D01*
X144002535Y-80482674D01*
X143991101Y-80520367D01*
X143972534Y-80555103D01*
X143947548Y-80585548D01*
X143917103Y-80610534D01*
X143882367Y-80629101D01*
X143844674Y-80640535D01*
X143799339Y-80645000D01*
X142712661Y-80645000D01*
X142667326Y-80640535D01*
X142629633Y-80629101D01*
X142594897Y-80610534D01*
X142564452Y-80585548D01*
X142539466Y-80555103D01*
X142520899Y-80520367D01*
X142509465Y-80482674D01*
X142505000Y-80437339D01*
X142505000Y-79600661D01*
X142509465Y-79555326D01*
X142520899Y-79517633D01*
X142539466Y-79482897D01*
X142564452Y-79452452D01*
X142594897Y-79427466D01*
X142629633Y-79408899D01*
X142667326Y-79397465D01*
X142712661Y-79393000D01*
X143799339Y-79393000D01*
X143844674Y-79397465D01*
X143844674Y-79397465D01*
G37*
G36*
X141304674Y-79397465D02*
G01*
X141342367Y-79408899D01*
X141377103Y-79427466D01*
X141407548Y-79452452D01*
X141432534Y-79482897D01*
X141451101Y-79517633D01*
X141462535Y-79555326D01*
X141467000Y-79600661D01*
X141467000Y-80437339D01*
X141462535Y-80482674D01*
X141451101Y-80520367D01*
X141432534Y-80555103D01*
X141407548Y-80585548D01*
X141377103Y-80610534D01*
X141342367Y-80629101D01*
X141304674Y-80640535D01*
X141259339Y-80645000D01*
X140172661Y-80645000D01*
X140127326Y-80640535D01*
X140089633Y-80629101D01*
X140054897Y-80610534D01*
X140024452Y-80585548D01*
X139999466Y-80555103D01*
X139980899Y-80520367D01*
X139969465Y-80482674D01*
X139965000Y-80437339D01*
X139965000Y-79600661D01*
X139969465Y-79555326D01*
X139980899Y-79517633D01*
X139999466Y-79482897D01*
X140024452Y-79452452D01*
X140054897Y-79427466D01*
X140089633Y-79408899D01*
X140127326Y-79397465D01*
X140172661Y-79393000D01*
X141259339Y-79393000D01*
X141304674Y-79397465D01*
X141304674Y-79397465D01*
G37*
G36*
X138764674Y-79397465D02*
G01*
X138802367Y-79408899D01*
X138837103Y-79427466D01*
X138867548Y-79452452D01*
X138892534Y-79482897D01*
X138911101Y-79517633D01*
X138922535Y-79555326D01*
X138927000Y-79600661D01*
X138927000Y-80437339D01*
X138922535Y-80482674D01*
X138911101Y-80520367D01*
X138892534Y-80555103D01*
X138867548Y-80585548D01*
X138837103Y-80610534D01*
X138802367Y-80629101D01*
X138764674Y-80640535D01*
X138719339Y-80645000D01*
X137632661Y-80645000D01*
X137587326Y-80640535D01*
X137549633Y-80629101D01*
X137514897Y-80610534D01*
X137484452Y-80585548D01*
X137459466Y-80555103D01*
X137440899Y-80520367D01*
X137429465Y-80482674D01*
X137425000Y-80437339D01*
X137425000Y-79600661D01*
X137429465Y-79555326D01*
X137440899Y-79517633D01*
X137459466Y-79482897D01*
X137484452Y-79452452D01*
X137514897Y-79427466D01*
X137549633Y-79408899D01*
X137587326Y-79397465D01*
X137632661Y-79393000D01*
X138719339Y-79393000D01*
X138764674Y-79397465D01*
X138764674Y-79397465D01*
G37*
G36*
X138764674Y-77347465D02*
G01*
X138802367Y-77358899D01*
X138837103Y-77377466D01*
X138867548Y-77402452D01*
X138892534Y-77432897D01*
X138911101Y-77467633D01*
X138922535Y-77505326D01*
X138927000Y-77550661D01*
X138927000Y-78387339D01*
X138922535Y-78432674D01*
X138911101Y-78470367D01*
X138892534Y-78505103D01*
X138867548Y-78535548D01*
X138837103Y-78560534D01*
X138802367Y-78579101D01*
X138764674Y-78590535D01*
X138719339Y-78595000D01*
X137632661Y-78595000D01*
X137587326Y-78590535D01*
X137549633Y-78579101D01*
X137514897Y-78560534D01*
X137484452Y-78535548D01*
X137459466Y-78505103D01*
X137440899Y-78470367D01*
X137429465Y-78432674D01*
X137425000Y-78387339D01*
X137425000Y-77550661D01*
X137429465Y-77505326D01*
X137440899Y-77467633D01*
X137459466Y-77432897D01*
X137484452Y-77402452D01*
X137514897Y-77377466D01*
X137549633Y-77358899D01*
X137587326Y-77347465D01*
X137632661Y-77343000D01*
X138719339Y-77343000D01*
X138764674Y-77347465D01*
X138764674Y-77347465D01*
G37*
G36*
X141304674Y-77347465D02*
G01*
X141342367Y-77358899D01*
X141377103Y-77377466D01*
X141407548Y-77402452D01*
X141432534Y-77432897D01*
X141451101Y-77467633D01*
X141462535Y-77505326D01*
X141467000Y-77550661D01*
X141467000Y-78387339D01*
X141462535Y-78432674D01*
X141451101Y-78470367D01*
X141432534Y-78505103D01*
X141407548Y-78535548D01*
X141377103Y-78560534D01*
X141342367Y-78579101D01*
X141304674Y-78590535D01*
X141259339Y-78595000D01*
X140172661Y-78595000D01*
X140127326Y-78590535D01*
X140089633Y-78579101D01*
X140054897Y-78560534D01*
X140024452Y-78535548D01*
X139999466Y-78505103D01*
X139980899Y-78470367D01*
X139969465Y-78432674D01*
X139965000Y-78387339D01*
X139965000Y-77550661D01*
X139969465Y-77505326D01*
X139980899Y-77467633D01*
X139999466Y-77432897D01*
X140024452Y-77402452D01*
X140054897Y-77377466D01*
X140089633Y-77358899D01*
X140127326Y-77347465D01*
X140172661Y-77343000D01*
X141259339Y-77343000D01*
X141304674Y-77347465D01*
X141304674Y-77347465D01*
G37*
G36*
X143844674Y-77347465D02*
G01*
X143882367Y-77358899D01*
X143917103Y-77377466D01*
X143947548Y-77402452D01*
X143972534Y-77432897D01*
X143991101Y-77467633D01*
X144002535Y-77505326D01*
X144007000Y-77550661D01*
X144007000Y-78387339D01*
X144002535Y-78432674D01*
X143991101Y-78470367D01*
X143972534Y-78505103D01*
X143947548Y-78535548D01*
X143917103Y-78560534D01*
X143882367Y-78579101D01*
X143844674Y-78590535D01*
X143799339Y-78595000D01*
X142712661Y-78595000D01*
X142667326Y-78590535D01*
X142629633Y-78579101D01*
X142594897Y-78560534D01*
X142564452Y-78535548D01*
X142539466Y-78505103D01*
X142520899Y-78470367D01*
X142509465Y-78432674D01*
X142505000Y-78387339D01*
X142505000Y-77550661D01*
X142509465Y-77505326D01*
X142520899Y-77467633D01*
X142539466Y-77432897D01*
X142564452Y-77402452D01*
X142594897Y-77377466D01*
X142629633Y-77358899D01*
X142667326Y-77347465D01*
X142712661Y-77343000D01*
X143799339Y-77343000D01*
X143844674Y-77347465D01*
X143844674Y-77347465D01*
G37*
G36*
X156634239Y-70811467D02*
G01*
X156948282Y-70873934D01*
X157539926Y-71119001D01*
X158072392Y-71474784D01*
X158525216Y-71927608D01*
X158880999Y-72460074D01*
X159121541Y-73040794D01*
X159126066Y-73051719D01*
X159251000Y-73679803D01*
X159251000Y-74320197D01*
X159206047Y-74546189D01*
X159126066Y-74948282D01*
X158880999Y-75539926D01*
X158525216Y-76072392D01*
X158072392Y-76525216D01*
X157539926Y-76880999D01*
X156948282Y-77126066D01*
X156634239Y-77188533D01*
X156320197Y-77251000D01*
X155679803Y-77251000D01*
X155365761Y-77188533D01*
X155051718Y-77126066D01*
X154460074Y-76880999D01*
X153927608Y-76525216D01*
X153474784Y-76072392D01*
X153119001Y-75539926D01*
X152873934Y-74948282D01*
X152793953Y-74546189D01*
X152749000Y-74320197D01*
X152749000Y-73679803D01*
X152873934Y-73051719D01*
X152878459Y-73040794D01*
X153119001Y-72460074D01*
X153474784Y-71927608D01*
X153927608Y-71474784D01*
X154460074Y-71119001D01*
X155051718Y-70873934D01*
X155365761Y-70811467D01*
X155679803Y-70749000D01*
X156320197Y-70749000D01*
X156634239Y-70811467D01*
X156634239Y-70811467D01*
G37*
G36*
X94634239Y-70811467D02*
G01*
X94948282Y-70873934D01*
X95539926Y-71119001D01*
X96072392Y-71474784D01*
X96525216Y-71927608D01*
X96880999Y-72460074D01*
X97121541Y-73040794D01*
X97126066Y-73051719D01*
X97251000Y-73679803D01*
X97251000Y-74320197D01*
X97206047Y-74546189D01*
X97126066Y-74948282D01*
X96880999Y-75539926D01*
X96525216Y-76072392D01*
X96072392Y-76525216D01*
X95539926Y-76880999D01*
X94948282Y-77126066D01*
X94634239Y-77188533D01*
X94320197Y-77251000D01*
X93679803Y-77251000D01*
X93365761Y-77188533D01*
X93051718Y-77126066D01*
X92460074Y-76880999D01*
X91927608Y-76525216D01*
X91474784Y-76072392D01*
X91119001Y-75539926D01*
X90873934Y-74948282D01*
X90793953Y-74546189D01*
X90749000Y-74320197D01*
X90749000Y-73679803D01*
X90873934Y-73051719D01*
X90878459Y-73040794D01*
X91119001Y-72460074D01*
X91474784Y-71927608D01*
X91927608Y-71474784D01*
X92460074Y-71119001D01*
X93051718Y-70873934D01*
X93365761Y-70811467D01*
X93679803Y-70749000D01*
X94320197Y-70749000D01*
X94634239Y-70811467D01*
X94634239Y-70811467D01*
G37*
G36*
X110363487Y-73748996D02*
G01*
X110600253Y-73847068D01*
X110600255Y-73847069D01*
X110813339Y-73989447D01*
X110994553Y-74170661D01*
X111094470Y-74320197D01*
X111136932Y-74383747D01*
X111235004Y-74620513D01*
X111285000Y-74871861D01*
X111285000Y-75128139D01*
X111235004Y-75379487D01*
X111157953Y-75565504D01*
X111136931Y-75616255D01*
X110994553Y-75829339D01*
X110813339Y-76010553D01*
X110600255Y-76152931D01*
X110600254Y-76152932D01*
X110600253Y-76152932D01*
X110363487Y-76251004D01*
X110112139Y-76301000D01*
X109855861Y-76301000D01*
X109604513Y-76251004D01*
X109367747Y-76152932D01*
X109367746Y-76152932D01*
X109367745Y-76152931D01*
X109154661Y-76010553D01*
X108973447Y-75829339D01*
X108831069Y-75616255D01*
X108810047Y-75565504D01*
X108732996Y-75379487D01*
X108683000Y-75128139D01*
X108683000Y-74871861D01*
X108732996Y-74620513D01*
X108831068Y-74383747D01*
X108873531Y-74320197D01*
X108973447Y-74170661D01*
X109154661Y-73989447D01*
X109367745Y-73847069D01*
X109367747Y-73847068D01*
X109604513Y-73748996D01*
X109855861Y-73699000D01*
X110112139Y-73699000D01*
X110363487Y-73748996D01*
X110363487Y-73748996D01*
G37*
G36*
X115363487Y-73748996D02*
G01*
X115600253Y-73847068D01*
X115600255Y-73847069D01*
X115813339Y-73989447D01*
X115994553Y-74170661D01*
X116094470Y-74320197D01*
X116136932Y-74383747D01*
X116235004Y-74620513D01*
X116285000Y-74871861D01*
X116285000Y-75128139D01*
X116235004Y-75379487D01*
X116157953Y-75565504D01*
X116136931Y-75616255D01*
X115994553Y-75829339D01*
X115813339Y-76010553D01*
X115600255Y-76152931D01*
X115600254Y-76152932D01*
X115600253Y-76152932D01*
X115363487Y-76251004D01*
X115112139Y-76301000D01*
X114855861Y-76301000D01*
X114604513Y-76251004D01*
X114367747Y-76152932D01*
X114367746Y-76152932D01*
X114367745Y-76152931D01*
X114154661Y-76010553D01*
X113973447Y-75829339D01*
X113831069Y-75616255D01*
X113810047Y-75565504D01*
X113732996Y-75379487D01*
X113683000Y-75128139D01*
X113683000Y-74871861D01*
X113732996Y-74620513D01*
X113831068Y-74383747D01*
X113873531Y-74320197D01*
X113973447Y-74170661D01*
X114154661Y-73989447D01*
X114367745Y-73847069D01*
X114367747Y-73847068D01*
X114604513Y-73748996D01*
X114855861Y-73699000D01*
X115112139Y-73699000D01*
X115363487Y-73748996D01*
X115363487Y-73748996D01*
G37*
G36*
X120363487Y-73748996D02*
G01*
X120600253Y-73847068D01*
X120600255Y-73847069D01*
X120813339Y-73989447D01*
X120994553Y-74170661D01*
X121094470Y-74320197D01*
X121136932Y-74383747D01*
X121235004Y-74620513D01*
X121285000Y-74871861D01*
X121285000Y-75128139D01*
X121235004Y-75379487D01*
X121157953Y-75565504D01*
X121136931Y-75616255D01*
X120994553Y-75829339D01*
X120813339Y-76010553D01*
X120600255Y-76152931D01*
X120600254Y-76152932D01*
X120600253Y-76152932D01*
X120363487Y-76251004D01*
X120112139Y-76301000D01*
X119855861Y-76301000D01*
X119604513Y-76251004D01*
X119367747Y-76152932D01*
X119367746Y-76152932D01*
X119367745Y-76152931D01*
X119154661Y-76010553D01*
X118973447Y-75829339D01*
X118831069Y-75616255D01*
X118810047Y-75565504D01*
X118732996Y-75379487D01*
X118683000Y-75128139D01*
X118683000Y-74871861D01*
X118732996Y-74620513D01*
X118831068Y-74383747D01*
X118873531Y-74320197D01*
X118973447Y-74170661D01*
X119154661Y-73989447D01*
X119367745Y-73847069D01*
X119367747Y-73847068D01*
X119604513Y-73748996D01*
X119855861Y-73699000D01*
X120112139Y-73699000D01*
X120363487Y-73748996D01*
X120363487Y-73748996D01*
G37*
G36*
X126285000Y-76301000D02*
G01*
X123683000Y-76301000D01*
X123683000Y-73699000D01*
X126285000Y-73699000D01*
X126285000Y-76301000D01*
X126285000Y-76301000D01*
G37*
G36*
X149579290Y-72685619D02*
G01*
X149643689Y-72698429D01*
X149825678Y-72773811D01*
X149989463Y-72883249D01*
X150128751Y-73022537D01*
X150238189Y-73186322D01*
X150297728Y-73330063D01*
X150313571Y-73368312D01*
X150352000Y-73561507D01*
X150352000Y-73758493D01*
X150326381Y-73887290D01*
X150313571Y-73951689D01*
X150238189Y-74133678D01*
X150128751Y-74297463D01*
X149989463Y-74436751D01*
X149825678Y-74546189D01*
X149643689Y-74621571D01*
X149579290Y-74634381D01*
X149450493Y-74660000D01*
X149253507Y-74660000D01*
X149124710Y-74634381D01*
X149060311Y-74621571D01*
X148878322Y-74546189D01*
X148714537Y-74436751D01*
X148575249Y-74297463D01*
X148465811Y-74133678D01*
X148390429Y-73951689D01*
X148377619Y-73887290D01*
X148352000Y-73758493D01*
X148352000Y-73561507D01*
X148390429Y-73368312D01*
X148406272Y-73330063D01*
X148465811Y-73186322D01*
X148575249Y-73022537D01*
X148714537Y-72883249D01*
X148878322Y-72773811D01*
X149060311Y-72698429D01*
X149124710Y-72685619D01*
X149253507Y-72660000D01*
X149450493Y-72660000D01*
X149579290Y-72685619D01*
X149579290Y-72685619D01*
G37*
G36*
X100049290Y-72685619D02*
G01*
X100113689Y-72698429D01*
X100295678Y-72773811D01*
X100459463Y-72883249D01*
X100598751Y-73022537D01*
X100708189Y-73186322D01*
X100767728Y-73330063D01*
X100783571Y-73368312D01*
X100822000Y-73561507D01*
X100822000Y-73758493D01*
X100796381Y-73887290D01*
X100783571Y-73951689D01*
X100708189Y-74133678D01*
X100598751Y-74297463D01*
X100459463Y-74436751D01*
X100295678Y-74546189D01*
X100113689Y-74621571D01*
X100049290Y-74634381D01*
X99920493Y-74660000D01*
X99723507Y-74660000D01*
X99594710Y-74634381D01*
X99530311Y-74621571D01*
X99348322Y-74546189D01*
X99184537Y-74436751D01*
X99045249Y-74297463D01*
X98935811Y-74133678D01*
X98860429Y-73951689D01*
X98847619Y-73887290D01*
X98822000Y-73758493D01*
X98822000Y-73561507D01*
X98860429Y-73368312D01*
X98876272Y-73330063D01*
X98935811Y-73186322D01*
X99045249Y-73022537D01*
X99184537Y-72883249D01*
X99348322Y-72773811D01*
X99530311Y-72698429D01*
X99594710Y-72685619D01*
X99723507Y-72660000D01*
X99920493Y-72660000D01*
X100049290Y-72685619D01*
X100049290Y-72685619D01*
G37*
G36*
X140841589Y-72644876D02*
G01*
X140940893Y-72664629D01*
X141081206Y-72722748D01*
X141207484Y-72807125D01*
X141314875Y-72914516D01*
X141399252Y-73040794D01*
X141457371Y-73181107D01*
X141487000Y-73330063D01*
X141487000Y-73481937D01*
X141457371Y-73630893D01*
X141399252Y-73771206D01*
X141314875Y-73897484D01*
X141207484Y-74004875D01*
X141081206Y-74089252D01*
X140940893Y-74147371D01*
X140841589Y-74167124D01*
X140791938Y-74177000D01*
X140640062Y-74177000D01*
X140590411Y-74167124D01*
X140491107Y-74147371D01*
X140350794Y-74089252D01*
X140224516Y-74004875D01*
X140117125Y-73897484D01*
X140032748Y-73771206D01*
X139974629Y-73630893D01*
X139945000Y-73481937D01*
X139945000Y-73330063D01*
X139974629Y-73181107D01*
X140032748Y-73040794D01*
X140117125Y-72914516D01*
X140224516Y-72807125D01*
X140350794Y-72722748D01*
X140491107Y-72664629D01*
X140590411Y-72644876D01*
X140640062Y-72635000D01*
X140791938Y-72635000D01*
X140841589Y-72644876D01*
X140841589Y-72644876D01*
G37*
G36*
X138301589Y-72644876D02*
G01*
X138400893Y-72664629D01*
X138541206Y-72722748D01*
X138667484Y-72807125D01*
X138774875Y-72914516D01*
X138859252Y-73040794D01*
X138917371Y-73181107D01*
X138947000Y-73330063D01*
X138947000Y-73481937D01*
X138917371Y-73630893D01*
X138859252Y-73771206D01*
X138774875Y-73897484D01*
X138667484Y-74004875D01*
X138541206Y-74089252D01*
X138400893Y-74147371D01*
X138301589Y-74167124D01*
X138251938Y-74177000D01*
X138100062Y-74177000D01*
X138050411Y-74167124D01*
X137951107Y-74147371D01*
X137810794Y-74089252D01*
X137684516Y-74004875D01*
X137577125Y-73897484D01*
X137492748Y-73771206D01*
X137434629Y-73630893D01*
X137405000Y-73481937D01*
X137405000Y-73330063D01*
X137434629Y-73181107D01*
X137492748Y-73040794D01*
X137577125Y-72914516D01*
X137684516Y-72807125D01*
X137810794Y-72722748D01*
X137951107Y-72664629D01*
X138050411Y-72644876D01*
X138100062Y-72635000D01*
X138251938Y-72635000D01*
X138301589Y-72644876D01*
X138301589Y-72644876D01*
G37*
G36*
X143381589Y-72644876D02*
G01*
X143480893Y-72664629D01*
X143621206Y-72722748D01*
X143747484Y-72807125D01*
X143854875Y-72914516D01*
X143939252Y-73040794D01*
X143997371Y-73181107D01*
X144027000Y-73330063D01*
X144027000Y-73481937D01*
X143997371Y-73630893D01*
X143939252Y-73771206D01*
X143854875Y-73897484D01*
X143747484Y-74004875D01*
X143621206Y-74089252D01*
X143480893Y-74147371D01*
X143381589Y-74167124D01*
X143331938Y-74177000D01*
X143180062Y-74177000D01*
X143130411Y-74167124D01*
X143031107Y-74147371D01*
X142890794Y-74089252D01*
X142764516Y-74004875D01*
X142657125Y-73897484D01*
X142572748Y-73771206D01*
X142514629Y-73630893D01*
X142485000Y-73481937D01*
X142485000Y-73330063D01*
X142514629Y-73181107D01*
X142572748Y-73040794D01*
X142657125Y-72914516D01*
X142764516Y-72807125D01*
X142890794Y-72722748D01*
X143031107Y-72664629D01*
X143130411Y-72644876D01*
X143180062Y-72635000D01*
X143331938Y-72635000D01*
X143381589Y-72644876D01*
X143381589Y-72644876D01*
G37*
M02*
